<?xml version="1.0" standalone="no"?>
<!DOCTYPE svg PUBLIC "-//W3C//DTD SVG 1.1//EN" "http://www.w3.org/Graphics/SVG/1.1/DTD/svg11.dtd" >
<svg xmlns="http://www.w3.org/2000/svg">
<metadata>
This is a custom SVG webfont generated by Font Squirrel.
Copyright   : Copyright c 2007 by Blue Vinyl Fonts All rights reserved
Designer    : Jess Latham
Foundry     : Blue Vinyl Fonts
</metadata>
<defs>
<font id="webfontUw6rZzqh" horiz-adv-x="316" >
<font-face units-per-em="1000" ascent="750" descent="-250" />
<missing-glyph horiz-adv-x="266" />
<glyph unicode=" "  horiz-adv-x="266" />
<glyph unicode="&#x09;" horiz-adv-x="266" />
<glyph unicode="&#xa0;" horiz-adv-x="266" />
<glyph unicode="!" horiz-adv-x="500" d="M125 62q0 10 6.5 16.5t16.5 6.5q9 0 15.5 -6.5t6.5 -16.5q0 -9 -6.5 -15.5t-15.5 -6.5q-10 0 -16.5 6.5t-6.5 15.5zM133 62q0 -6 4.5 -10.5t10.5 -4.5t10.5 4.5t4.5 10.5q0 15 -15 15t-15 -15zM208 236l5 13q4 6 10 4q6 -3 4 -10l-6 -13q-2 -6 -9 -4q-7 4 -4 10zM224 274 l6 13q2 6 10 4q6 -4 3 -10l-5 -13q-4 -6 -10 -3q-6 2 -4 9zM241 312l5 13q4 7 10 4t4 -10l-6 -12q-2 -9 -9 -4q-9 2 -4 9zM257 351l6 12q2 9 9 4q9 -2 4 -9l-5 -13q-4 -7 -10 -4t-4 10zM274 389l5 13q4 6 10 3q6 -1 4 -9l-6 -13q-2 -6 -9 -4q-7 4 -4 10zM290 427l6 13 q2 6 9 4q7 -4 4 -10l-5 -13q-4 -6 -10 -3q-6 1 -4 9zM307 465l5 13q4 7 10 4t4 -10l-6 -12q-2 -9 -9 -4q-9 2 -4 9zM323 504l6 12q2 9 9 4q8 -2 4 -10l-5 -12q-4 -7 -10 -4t-4 10zM340 542l5 13q4 6 10 3q6 -2 4 -9l-6 -13q-2 -6 -9 -4q-7 4 -4 10zM356 580l6 13q2 6 9 4 q7 -4 4 -10l-5 -13q-4 -6 -10 -4q-6 3 -4 10z" />
<glyph unicode="&#x22;" horiz-adv-x="179" d="M213 534l6 12q3 6 10 4q6 -3 4 -10l-6 -13q-4 -6 -10 -3t-4 10zM234 576l5 13q4 7 10 3q6 -3 4 -10l-6 -12q-3 -6 -10 -4q-6 3 -3 10zM276 534l6 12q3 6 10 4q6 -4 3 -10l-6 -13q-4 -6 -10 -3q-6 4 -3 10zM296 576l6 13q4 6 10 3q6 -4 3 -10l-6 -12q-2 -6 -9 -4 q-7 4 -4 10z" />
<glyph unicode="#" horiz-adv-x="434" d="M13 312q0 8 8 8h14q7 0 7 -8q0 -7 -7 -7h-14q-8 0 -8 7zM37 199l6 12q2 9 9 4q7 -4 4 -10l-6 -12q-2 -9 -9 -4q-7 4 -4 10zM54 236l5 13q3 6 10 4q6 -3 4 -10l-6 -13q-4 -6 -10 -3q-7 2 -3 9zM55 312q0 8 7 8h14q7 0 7 -8q0 -7 -7 -7h-14q-7 0 -7 7zM70 274l6 12 q4 7 10 4q7 -2 3 -10l-5 -12q-3 -6 -10 -4q-6 3 -4 10zM82 467q0 8 8 8h14q7 0 7 -8q0 -7 -7 -7h-14q-8 0 -8 7zM96 312q0 8 8 8h14q7 0 7 -8q0 -7 -7 -7h-14q-8 0 -8 7zM104 349l5 13q4 6 10 3q6 -2 4 -9l-6 -13q-2 -6 -10 -4q-6 4 -3 10zM120 387l6 12q4 7 10 4 q6 -4 3 -10l-5 -12q-4 -7 -10 -4t-4 10zM124 467q0 8 7 8h14q7 0 7 -8q0 -7 -7 -7h-14q-7 0 -7 7zM137 424l6 13q2 6 9 4q7 -4 4 -10l-5 -13q-4 -6 -10 -3q-8 2 -4 9zM138 312q0 8 7 8h14q7 0 7 -8q0 -7 -7 -7h-14q-7 0 -7 7zM165 467q0 8 8 8h14q7 0 7 -8q0 -7 -7 -7h-14 q-8 0 -8 7zM171 499l5 13q3 6 10 4q6 -3 4 -10l-6 -13q-4 -6 -10 -3q-7 2 -3 9zM179 312q0 8 8 8h14q7 0 7 -8q0 -7 -7 -7h-14q-8 0 -8 7zM187 537l6 13q2 7 10 3q7 -2 3 -9l-5 -13q-3 -6 -10 -4q-6 3 -4 10zM192 199l6 12q2 8 9 4t4 -10l-6 -12q-2 -9 -9 -4q-7 4 -4 10z M204 575l5 12q4 7 10 4q7 -4 4 -10l-6 -12q-2 -9 -9 -4q-8 2 -4 10zM207 467q0 8 7 8h14q7 0 7 -8q0 -7 -7 -7h-14q-7 0 -7 7zM209 236l5 13q3 6 10 4q6 -3 4 -10l-6 -13q-4 -6 -10 -3q-7 2 -3 9zM221 312q0 8 7 8h14q7 0 7 -8q0 -7 -7 -7h-14q-7 0 -7 7zM225 274l6 12 q4 7 10 4q7 -2 3 -10l-5 -12q-3 -6 -10 -4q-6 3 -4 10zM248 467q0 8 8 8h13q8 0 8 -8q0 -7 -8 -7h-13q-8 0 -8 7zM259 349l5 13q4 6 10 3q6 -2 4 -9l-6 -13q-3 -6 -10 -4q-6 4 -3 10zM262 312q0 8 8 8h14q7 0 7 -8q0 -7 -7 -7h-14q-8 0 -8 7zM275 387l6 12q4 7 10 4 q6 -4 3 -10l-5 -12q-4 -7 -10 -4t-4 10zM290 467q0 8 7 8h14q7 0 7 -8q0 -7 -7 -7h-14q-7 0 -7 7zM292 424l6 13q2 6 9 4q7 -4 4 -10l-5 -13q-4 -6 -10 -3q-8 2 -4 9zM304 312q0 8 7 8h14q7 0 7 -8q0 -7 -7 -7h-14q-7 0 -7 7zM325 499l6 13q3 6 10 4q6 -4 4 -10l-6 -13 q-4 -6 -10 -3q-6 2 -4 9zM331 467q0 8 8 8h13q8 0 8 -8q0 -7 -8 -7h-13q-8 0 -8 7zM342 537l6 13q2 7 9 3q9 -2 4 -9l-5 -13q-3 -6 -10 -4q-6 3 -4 10zM359 575l5 12q4 7 10 4q7 -4 4 -10l-6 -12q-2 -9 -9 -4q-8 2 -4 10zM373 467q0 8 7 8h14q7 0 7 -8q0 -7 -7 -7h-14 q-7 0 -7 7z" />
<glyph unicode="$" horiz-adv-x="296" d="M30 272q-2 9 6 9q8 2 8 -5t5 -11q4 -6 -3 -9q-6 -6 -10 2q-4 4 -6 14zM54 246q5 5 10 1l11 -7q6 -4 2 -10q-3 -6 -10 -3l-12 9q-7 4 -1 10zM70 207l6 13q2 8 9 4q3 -1 4 -4q-2 3 0 5q2 7 9 5l12 -3q8 -2 6 -8q0 -7 -8 -7q-6 0 -14 4q-1 0 -2.5 0.5t-2.5 1.5q1 -2 0 -3 l-5 -13q-4 -7 -10 -4q-6 2 -4 9zM87 247l5 13q4 7 10 4q6 -2 4 -9l-6 -13q-2 -8 -9 -4q-9 2 -4 9zM91 473q0 3 2 5.5t5 1.5q8 0 8 -6q0 -9 2 -13q2 -6 -5 -8q-6 -3 -10 5q-1 2 -1.5 7.5t-0.5 7.5zM94 502q1 2 2.5 7t2.5 7q4 7 10 3q7 -3 3 -9l-4 -12q-2 -7 -9 -5q-7 0 -5 9z M103 287l6 13q2 9 9 4q8 -2 4 -10l-5 -12q-4 -7 -10 -4q-6 2 -4 9zM104 431q-6 6 3 10q5 2 10 -3l7 -11q4 -6 -2 -10t-10 2zM116 529q-6 5 0 11l12 10q2 2 5.5 0.5t4.5 -3.5q3 -5 -2 -10l-9 -8q-6 -4 -11 0zM120 327l5 13q4 7 10 4t4 -10l-5 -12q-4 -7 -10 -4q-9 2 -4 9z M129 217q0 5 7 7l13 1q6 2 8 -6t-6 -8l-15 -2q-9 0 -7 8zM129 397q-4 6 1 10q6 6 10 0l9 -11q5 -5 0 -10l-2 -2q2 2 4 0q7 -4 4 -9l2 2q6 4 10 -1l9 -11q6 -6 -1 -10q-5 -5 -10 1l-9 10q-2 2 -2 6l-4 -10q-2 -9 -9 -4q-9 2 -4 9l5 13q0 1 3 4q-3 -1 -7 3zM150 552q-4 9 5 9 l15 2q8 0 8 -7q-2 -6 -8 -8l-12 -1q-7 0 -8 5zM153 407l5 13q4 7 10 4q7 -4 4 -10l-5 -12q-4 -7 -10 -4q-6 2 -4 9zM169 222q-2 7 4 10q1 1 5 2t6 3q4 4 9 -1q6 -6 -1 -11q-2 -2 -6.5 -4t-6.5 -3q-8 -2 -10 4zM170 447l5 13q3 6 10 4q6 -4 4 -10l-6 -12q-2 -9 -9 -4 q-8 2 -4 9zM182 335q-6 6 1 10q6 6 10 -1l8 -12q5 -7 -2 -10q-6 -4 -10 2zM186 487l6 13q1 6 9 4q7 -4 4 -10l-5 -12q-4 -7 -10 -4q-6 2 -4 9zM190 554q2 8 9 6q4 0 14 -4q8 -2 4 -9q0 -1 -2 -3h3q6 -4 4 -10l-6 -13q-2 -6 -9 -3q-8 2 -4 9l5 13l2 2h-2l-12 4q-8 2 -6 8z M199 255l5 11q0 7 8 5q8 0 6 -9q-1 -3 -3.5 -8t-2.5 -6q-4 -8 -10 -3q-6 4 -3 10zM201 301q-3 6 4 10q6 2 10 -5q2 -4 4 -14q0 -8 -6 -9q-7 0 -9 6q0 6 -3 12zM219 567l6 13q2 6 9 4q7 -4 4 -10l-5 -13q-4 -6 -10 -4q-6 4 -4 10zM228 541q5 7 11 2l11 -10q6 -6 -1 -11 q-5 -4 -10 1l-9 8q-5 5 -2 10zM253 502q-3 6 3 10q7 3 10 -3q1 -2 6 -14q2 -7 -5 -9t-9 4q-1 2 -2.5 6t-2.5 6z" />
<glyph unicode="%" horiz-adv-x="460" d="M30 397q0 8 7 8q8 0 8 -7q0 -9 1 -13q2 -6 -6 -8q-7 -2 -9 6q-1 5 -1 14zM31 426l2 14q2 8 9 6t5 -8l-1 -14q0 -6 -8 -6q-7 0 -7 8zM39 354q-3 8 4 10q6 3 10 -4q1 -5 6 -10q3 -5 -2 -10t-10 1q-3 3 -8 13zM39 468l5 13q2 7 9 5q7 -3 5 -10l-5 -12q0 -6 -8 -6q-8 2 -6 10 zM54 507l6 13q4 7 10 3q6 -3 3 -10l-5 -12q-4 -6 -10 -3q-6 2 -4 9zM66.5 326.5q-1.5 3.5 0.5 5.5q3 5 9 5q1 0 5.5 -1.5t5.5 0.5q6 0 8 -7q2 -8 -7 -8q-2 -1 -16 2q-4 0 -5.5 3.5zM75 545l8 11q5 6 10 1q6 -4 2 -10l-8 -11q-4 -6 -10 -2q-7 4 -2 11zM79 77l7 12q4 6 10 3 q6 -4 3 -11l-7 -11q-4 -7 -10 -3q-6 3 -3 10zM100 113l6 12q4 7 10 3q7 -4 3 -10l-7 -12q-3 -6 -10 -3q-5 3 -2 10zM102 567q-6 5 0 11q8 8 10 9q7 5 11 -1t-1 -10q-2 -1 -9 -8h2q7 -2 5 -9q-1 -2 -1.5 -6.5t-0.5 -5.5q0 -5 -7 -7q-3 -1 -5 1.5t-2 5.5q0 11 1 16l2 2 q-3 0 -5 2zM107 333q-2 7 3 10q3 1 11 6q6 6 10 -1q5 -5 -1 -11q-1 0 -5.5 -3t-7.5 -4q-7 -3 -10 3zM113 518q-6 6 2 10q4 2 10 -2l8 -8q5 -4 2 -10q-4 -6 -11 -2q-3 2 -6.5 6.5t-4.5 5.5zM120 149l7 12q4 7 10 3q7 -4 3 -10l-7 -12q-3 -6 -10 -3q-7 4 -3 10zM134 593 q-4 6 4 10t14 4q9 2 9 -6t-6 -8q-4 0 -12 -4q-6 -2 -9 4zM141 185l7 12q3 6 10 3q7 -4 3 -10l-7 -12q-4 -7 -10 -3q-7 4 -3 10zM141 356q-5 6 0 11l8 10q5 5 10 1t2 -11l-10 -10q-5 -5 -10 -1zM146 502q2 7 9 5q12 -3 13 -3q6 -2 5 -8q0 -7 -8 -7q-10 2 -14 4q-10 2 -5 9z M162 221l6 12q4 7 10 3q6 -3 3 -10l-7 -12q-4 -6 -10 -3q-6 4 -2 10zM165 398l7 12q4 6 9 3q9 -4 3 -10l-7 -12q-4 -7 -10 -3t-2 10zM173 599q1 3 4 5t6 0q10 -6 14 -10q4 -8 -1 -11q-7 -3 -10 1l-9 6q-5 5 -4 9zM182 257l7 12q4 7 10 3q6 -3 3 -10l-7 -12q-4 -7 -10 -3 q-7 4 -3 10zM183 434l5 12q2 7 9 5t5 -10l-5 -13q-3 -6 -10 -4q-6 3 -4 10zM186 494q0 8 7 8h14q7 0 7 -7q2 -4 -3 -6q3 -3 2 -7l-3 -14q-2 -7 -8 -5q-8 2 -6 9l3 13q0 1 0.5 1t0.5 1h-7q-7 0 -7 7zM198 563q-4 5 4 9q6 3 10 -4q3 -8 3 -15q2 -8 -6 -8q-6 -2 -8 6zM203 294 l7 12q4 5 10 2q5 -4 2 -10l-6 -12q-4 -6 -10 -2q-6 3 -3 10zM203 511v14q0 7 7 7q8 0 8 -7q0 -10 -1 -15q0 -8 -8 -6q-8 0 -6 7zM223 330l7 12q4 6 10 2q6 -3 3 -10l-7 -12q-4 -5 -10 -2q-6 4 -3 10zM227 497q-2 6 6 8l13 3q7 2 9 -5t-5 -9l-14 -3q-7 -2 -9 6zM237 114 q0 8 7 8q8 0 8 -7q0 -9 1 -13q2 -7 -6 -9q-7 -2 -9 7q-1 4 -1 14zM238 143l2 14q2 6 9 6q6 -1 6 -9l-2 -13q0 -7 -8 -7q-7 2 -7 9zM244 366l7 12q4 6 10 3q7 -3 3 -11l-7 -11q-4 -7 -10 -3q-6 3 -3 10zM246 71q-2 8 4 10t10 -4q1 -5 6 -10q4 -5 -2 -11q-5 -5 -10 2 q-6 8 -8 13zM246 184l5 14q2 9 9 4q7 -2 5 -9l-4 -13q-2 -7 -9 -5q-8 2 -6 9zM261 224l6 13q4 7 10 3q6 -3 3 -10l-5 -12q-3 -6 -10 -4q-6 3 -4 10zM265 402l7 12q4 6 10 3q6 -4 2 -10l-6 -12q-5 -6 -11 -3q-5 4 -2 10zM267 507q-2 7 4 9l13 5q7 4 9 -3q4 -8 -3 -10l-14 -5 q-7 -4 -9 4zM275 49q2 6 8 4q1 0 5.5 -1t6.5 0q5 2 7 -6q2 -7 -7 -9q-3 -1 -8 0.5t-8 1.5q-8 2 -4 10zM282 261l8 12q6 5 10 1q6 -3 2 -10l-8 -11q-4 -6 -10 -2t-2 10zM285 438l7 12q4 7 10 3q7 -4 3 -10l-7 -12q-3 -6 -10 -3q-7 4 -3 10zM305 523q-3 7 3 10l11 7q6 4 10 -2 t-2 -10l-12 -8q-6 -3 -10 3zM306 474l7 12q3 6 10 3q7 -4 3 -10l-7 -12q-4 -7 -10 -3q-7 4 -3 10zM309 284q-5 5 0 10q5 6 11 10q6 6 10 -1q3 -7 -1 -10l-10 -9q-5 -5 -10 0zM314 50q-2 7 4 9q2 1 6 4l4 3q7 4 10 -2q4 -4 -1 -10q-8 -6 -13 -8q-6 -3 -10 4zM327 510l6 12 q5 6 11 3q5 -3 2 -10l-7 -12q-4 -6 -10 -3q-6 4 -2 10zM339 546q-4 6 1 10l10 9q6 4 10 0q2 -2 2 -3q1 0 2 -1q6 -3 3 -10l-7 -12q-4 -6 -10 -3q-4 3 -4 7q-4 0 -7 3zM341 310q-5 7 4 9q4 3 14 5q9 2 9 -6q0 -7 -6 -9q-6 0 -12 -3q-5 -4 -9 4zM348 73q-6 6 0 10l8 10 q5 5 11 1q5 -4 1 -10l-10 -11q-5 -5 -10 0zM367 585q3 2 5 7q2 3 3 4q3 5 10 2l3 -4q2 -4 0 -7l-7 -12q-4 -6 -10 -2q-1 0 -3 2q-5 4 -1 10zM372 115l7 11q3 6 10 3q7 -2 3 -10l-8 -12q-4 -5 -10 -2q-6 4 -2 10zM380 316q3 10 11 4q1 -1 6 -4t7 -5q5 -7 -1 -11q-6 -5 -10 1 l-9 6q-5 5 -4 9zM390 151l5 12q2 7 9 5q7 -3 5 -10l-5 -13q-4 -7 -10 -4t-4 10zM403 189l3 13q2 7 9 5q8 0 6 -8l-4 -14q-2 -7 -8 -5q-8 2 -6 9zM405 279q-2 6 4 10q7 2 10 -5q2 -4 4 -14q0 -8 -6 -9q-7 0 -9 6zM410 228q2 6 0 13q0 6 8 8q7 0 7 -8v-14q-2 -7 -9 -7 q-8 2 -6 8z" />
<glyph unicode="&#x26;" horiz-adv-x="343" d="M-11 91q0 2 2 14q0 8 8 6t6 -8q0 -1 -1 -5.5t0 -7.5q0 -5 -7 -7q-8 0 -8 8zM-5 62q-4 8 4 10t9 -4l7 -9q4 -5 -1 -10q-5 -7 -10 0q-8 11 -9 13zM-2 132l6 13q4 7 10 3q6 -3 4 -10l-6 -12q-2 -6 -9 -4t-5 10zM18 168l8 12q6 6 11 1q5 -4 1 -10l-8 -11q-4 -5 -10 -2 q-6 4 -2 10zM24 42q3 6 9 4q4 -2 12 -4q7 -2 5 -9q0 -9 -8 -5q-10 2 -15 4q-7 4 -3 10zM43 200l10 11q7 5 10 0q5 -5 1 -11l-10 -10q-4 -6 -10 0q-5 4 -1 10zM62 32q0 6 7 6l14 1q7 0 7 -7q2 -8 -7 -8h-14q-9 0 -7 8zM72 219q-5 5 0 10l10 9q6 6 11 0q4 -6 -1 -11l-10 -9 q-6 -4 -10 1zM101 245q-4 6 1 11l11 9q2 2 5.5 1.5t4.5 -3.5q5 -5 -1 -10l-10 -9q-7 -3 -11 1zM102 33q-2 7 5 9l13 3q7 2 9 -5q3 -7 -5 -9l-14 -4q-8 -2 -8 6zM132 271q-4 5 1 10l11 8q6 4 11 -1q4 -6 -2 -10l-11 -9q-6 -4 -10 2zM140 43q-2 6 4 10l13 5q7 2 10 -4 q2 -7 -4 -10l-13 -5q-8 -4 -10 4zM164 295q-6 6 1 10l11 8q6 4 11 -1q4 -6 -2 -10l-11 -9q-6 -4 -10 2zM177 59q-3 7 3 10l11 7q7 3 10 -3q4 -6 -2 -10l-12 -7q-7 -3 -10 3zM191 437l1 14q0 7 7 7t7 -7v-14q0 -7 -7 -7q-8 0 -8 7zM192 411q0 7 7 7q8 0 8 -7l1 -13 q0 -8 -7 -8q-6 -2 -8 7zM194 478l2 14q0 8 8 6t6 -9l-2 -13q0 -8 -8 -6q-8 0 -6 8zM196 319q-6 6 1 10l5 4q2 6 6 6q3 0 4 -1q4 1 7 -2q3 -5 -1 -9l2 -7q0 -8 -6 -9q-7 -2 -9 6q-5 -4 -9 2zM196 370q0 8 6 9q7 0 9 -7l2 -13q0 -7 -6 -9q-8 0 -9 7zM202 518l5 14q2 6 9 4 q6 -3 4 -10l-4 -13q-2 -6 -9 -4t-5 9zM209.5 85.5q0.5 3.5 3.5 4.5l11 8q6 4 10 -2q6 -6 -1 -10l-12 -8q-6 -6 -10 2q-2 2 -1.5 5.5zM210 291q-2 7 6 9q7 2 9 -6l3 -13q2 -7 -5 -9t-9 6zM220 252q-2 7 5 9t9 -5l4 -13q2 -7 -5 -9t-9 5zM220 556l9 12q6 6 10 0q5 -6 1 -10 q-3 -2 -5 -7q-2 -3 -3 -4q-4 -5 -10 -2q-6 4 -2 11zM228 342q-4 6 1 11l11 8q7 3 11 -1q3 -6 -2 -11l-11 -8q-6 -6 -10 1zM231 214q-2 7 5 9t9 -5l4 -13q2 -7 -5 -10q-7 -2 -9 5zM243 103q-4 6 2 10l11 8q2 2 5 2l-1 1l-4 13q-3 6 4 10q7 2 9 -5l4 -11q0 3 3 6l11 9 q6 4 10 -1q5 -7 -1 -11l-11 -8q-5 -4 -10 1q0 1 -0.5 1t-0.5 1q2 -7 -4 -9q-1 -1 -4 -1q4 -5 -1 -10l-11 -8q-7 -3 -11 2zM243 175q-2 7 5 10q7 2 9 -5l4 -13q2 -7 -5 -10q-7 -2 -9 5zM248 576q-6 6 1 10l12 9q8 4 10 -3q3 -7 -3 -10q-2 -1 -5.5 -4t-4.5 -3q-6 -6 -10 1z M260 366q-4 6 1 11l11 8q6 6 10 -1q6 -6 -1 -10l-11 -9q-6 -4 -10 1zM269 100q-2 7 5 9q7 5 9 -4l5 -13q2 -6 -4 -10q-7 -2 -10 5zM282 596q-3 7 5 9q3 1 8 1.5t7 0.5q3 1 5.5 -2t2.5 -6q-1 -5 -7 -7q-9 0 -13 -1q-6 -2 -8 5zM284 62q-3 6 4 10q7 2 9 -4l5 -13q3 -6 -4 -10 q-7 -2 -9 4zM291 391q-5 5 1 11l10 8q6 6 11 0q4 -6 -1 -11l-11 -9q-5 -4 -10 1zM306 152q-4 6 1 10l11 9q4 5 10 -1q4 -4 -1 -10l-10 -9q-6 -4 -11 1zM321 417q-5 5 0 11l10 9q5 5 10 0q7 -4 1 -10l-11 -10q-4 -6 -10 0zM321 597q2 8 10 5q2 0 13 -6q3 -1 3.5 -5t-1.5 -6 q-4 -6 -9 -2q-8 4 -12 5q-6 2 -4 9zM337 178q-5 5 0 10l10 9q5 5 11 0q5 -5 -1 -11l-10 -9q-6 -6 -10 1zM348 456l8 11q4 6 10 2t2 -11l-9 -11q-4 -7 -10 -1q-5 6 -1 10zM355 568q-6 4 0 10t11 -1l9 -12q4 -6 -3 -10q-5 -3 -10 2q-4 8 -7 11zM366 204q-4 6 1 11l9 9 q6 6 11 0q5 -5 0 -10l-10 -10q-5 -6 -11 0zM368 488q4 8 4 12q2 7 9 5q7 0 5 -9q0 -6 -5 -14q-2 -8 -9 -3q-9 2 -4 9zM372 536q-2 6 5 9q7 2 9 -6t2 -14q2 -8 -6 -8t-8 6zM394 243l9 10q5 3 10 1q3 -1 3.5 -5t-1.5 -6l-10 -10q-5 -5 -10 -1q-5 5 -1 11z" />
<glyph unicode="'" horiz-adv-x="185" d="M225 534l6 12q3 6 10 4q6 -3 4 -10l-6 -13q-4 -6 -10 -3t-4 10zM246 576l5 13q4 7 10 3q6 -3 4 -10l-6 -12q-3 -6 -10 -4q-6 3 -3 10z" />
<glyph unicode="(" horiz-adv-x="322" d="M45 -72q2 8 8 6q7 0 7 -7v-14q-2 -7 -8 -7q-7 0 -7 8v14zM45 -114q0 8 7 8q6 0 8 -7v-14q2 -6 -6 -8q-8 0 -8 7zM47 -45l2 14q2 8 8 6q7 0 7 -8l-2 -14q0 -6 -8 -6q-7 0 -7 8zM49 -156q0 8 6 9q7 0 9 -6l3 -13q2 -7 -6 -9q-7 -2 -9 5zM53 -4l2 14q1 6 9 6q6 -2 6 -9 l-3 -13q0 -8 -8 -6q-8 0 -6 8zM60 36l3 14q2 8 9 6q8 -2 6 -9l-3 -14q-2 -7 -9 -5q-8 2 -6 8zM62 -197q-4 8 3 10q6 3 10 -3q5 -10 6 -11q4 -6 -2 -10q-6 -6 -10 2q-3 4 -7 12zM70 77l3 13q2 7 9 5t5 -9l-3 -13q-2 -7 -9 -5t-5 9zM80 116l5 14q2 7 9 5q7 -3 5 -10l-4 -13 q-3 -7 -10 -5t-5 9zM88 -220q1 2 4.5 2.5t4.5 -1.5l11 -5q5 -3 5 -9q-1 -3 -4 -5t-6 0l-14 7q-7 5 -1 11zM93 156l4 13q4 7 10 4q6 -2 4 -9l-4 -13q-3 -7 -10 -5q-7 4 -4 10zM106 195l5 13q2 6 10 4q6 -4 4 -10l-5 -12q-2 -7 -9 -5t-5 10zM121 233l5 13q3 6 10 4q6 -4 4 -10 l-5 -12q-3 -7 -10 -5q-7 4 -4 10zM137 271l5 13q4 6 10 3q6 -2 4 -9l-6 -13q-2 -6 -9 -4q-7 4 -4 10zM154 308l6 13q2 8 9 3q9 -2 4 -9l-6 -13q-4 -6 -10 -3q-8 2 -3 9zM172 345l6 13q4 6 10 3q7 -4 3 -10l-6 -12q-3 -6 -10 -4q-7 4 -3 10zM191 382l7 12q4 6 10 3 q7 -4 3 -10l-7 -12q-4 -7 -10 -3q-6 3 -3 10zM211 417l8 12q3 6 10 3q6 -4 2 -10l-7 -12q-4 -7 -10 -3q-7 4 -3 10zM233 452l8 12q4 6 10 2t2 -10l-7 -12q-5 -5 -11 -2q-6 4 -2 10zM257 486l8 12q4 7 10 1q6 -4 2 -10l-8 -11q-5 -5 -11 -2q-6 6 -1 10zM281 519l9 11 q5 5 11 1t0 -10l-8 -11q-5 -5 -10 -1q-6 4 -2 10zM308 551l10 10q5 5 10 0t0 -10l-9 -10q-4 -5 -10 -1q-5 5 -1 11zM337 570q-5 6 0 11l11 9q6 4 11 -1q4 -6 -1 -11l-11 -8q-4 -6 -10 0zM368 596q-3 6 2 11l12 8q6 3 10 -3q3 -6 -2 -10l-11 -7q-6 -4 -11 1zM403 618 q-2 7 4 9l14 5q9 2 9 -6q1 -5 -5 -9l-12 -4q-7 -2 -10 5z" />
<glyph unicode=")" horiz-adv-x="387" d="M-36 -237q-1 6 5 8l12 4q7 2 10 -4t-4 -10l-14 -4q-9 -2 -9 6zM2 -223q-4 6 2 10l11 7q6 3 11 -2q4 -6 -2 -10l-12 -8q-7 -3 -10 3zM36 -190l11 9q4 6 10 0q5 -5 0 -11l-11 -9q-6 -6 -10 1q-6 6 0 10zM66 -162l9 10q5 5 10 0t1 -10l-10 -11q-6 -4 -10 0q-6 5 0 11z M93 -132l8 10q4 6 10 2q6 -5 2 -11l-9 -11q-4 -4 -11 -1q-5 5 0 11zM117 -100l9 11q4 6 10 1q7 -4 1 -10l-8 -11q-4 -6 -10 -2q-5 5 -2 11zM141 -67l7 11q5 7 11 2q5 -4 2 -10l-8 -11q-4 -8 -10 -2q-5 3 -2 10zM163 -33l7 12q4 6 10 2q6 -3 3 -10l-8 -12q-3 -5 -10 -2 q-6 4 -2 10zM183 2l7 12q4 7 10 3q7 -4 3 -10l-7 -12q-3 -6 -10 -3q-5 3 -3 10zM203 38l6 12q4 6 10 3t3 -10l-6 -12q-3 -6 -10 -3q-6 4 -3 10zM221 74l6 12q4 7 10 4t3 -10l-6 -12q-2 -9 -9 -4q-6 3 -4 10zM238 111l6 12q2 9 9 4q9 -2 4 -9l-5 -13q-3 -6 -10 -4q-6 3 -4 10 zM254 148l5 13q4 7 10 4q9 -2 4 -9l-5 -13q-4 -7 -10 -4q-6 2 -4 9zM269 186l5 13q2 9 9 4q7 -2 5 -9l-5 -13q-2 -8 -10 -4q-6 2 -4 9zM282 622q0 2 3 4t6 1l14 -7q7 -5 1 -11q-5 -7 -9 -1l-11 5q-5 4 -4 9zM283 225l4 12q3 7 10 5t4 -9l-4 -13q-2 -7 -10 -5q-6 4 -4 10z M295 263l4 13q3 7 10 5t5 -9l-5 -13q-2 -7 -9 -5t-5 9zM307 302l3 14q2 7 9 5t5 -9l-3 -13q-2 -8 -9 -6t-5 9zM313 590q-3 5 2 10q6 6 10 -2q3 -3 7 -13q3 -6 -3 -10q-7 -2 -10 4q-5 10 -6 11zM316 342l3 13q2 8 9 6q8 -2 6 -9l-3 -13q-2 -8 -9 -6q-8 2 -6 9zM324 382l3 13 q2 8 8 6q8 -2 6 -8l-2 -14q-2 -8 -9 -6q-6 1 -6 9zM327 555q-2 6 6 8q7 3 9 -5l3 -14q0 -8 -6 -8q-7 -2 -9 6zM330 422l2 13q0 7 8 7q7 -2 7 -8l-2 -14q-2 -7 -8 -7q-7 2 -7 9zM334 462l1 13q0 8 7 8t7 -8v-14q-2 -7 -8 -7q-7 0 -7 8zM334 502v13q-2 8 6 8q8 2 8 -6l1 -14 q0 -8 -7 -8q-6 0 -8 7z" />
<glyph unicode="*" horiz-adv-x="371" d="M41 330q-3 6 2 10l12 8q6 4 10 -2q3 -6 -2 -10l-12 -8q-6 -4 -10 2zM75 353q-3 5 2 10l12 7q6 6 10 -2q4 -6 -2 -10l-12 -8q-6 -4 -10 3zM109 375q-4 6 2 10l12 8q5 3 10 -2q3 -6 -2 -11l-12 -7q-2 -2 -5.5 -1.5t-4.5 3.5zM120 485q-6 6 0 10q4 5 10 1l10 -10q6 -6 0 -10 q-5 -5 -11 -1zM135 323l6 13q1 6 9 4q7 -4 4 -10l-6 -13q-2 -7 -9 -3q-9 2 -4 9zM143 397q-3 7 2 10l11 8q6 3 11 -2q4 -6 -2 -10l-12 -8q-6 -4 -10 2zM149 456q-6 6 0 10q2 2 5.5 2.5t4.5 -1.5l10 -10q5 -5 0 -11q-4 -4 -10 0zM153 364l5 12q4 7 10 4t4 -10l-6 -12 q-4 -7 -10 -4q-6 4 -3 10zM170 404l6 13q4 6 10 3q7 -2 3 -9l-5 -13q-3 -6 -10 -4q-6 3 -4 10zM188 444l6 13q2 6 9 4q7 -4 4 -10l-5 -13q-4 -6 -10 -3q-8 2 -4 9zM206 485l5 12q4 7 10 4t4 -10l-6 -12q-2 -9 -9 -4q-8 2 -4 10zM208 398q-5 5 0 10q6 6 10 0l10 -9 q6 -5 0 -11q-5 -5 -10 0zM209.5 447.5q0.5 3.5 3.5 4.5l11 8q6 3 11 -2q3 -6 -3 -11l-11 -7q-6 -4 -10 2q-2 2 -1.5 5.5zM223 525l6 12q4 7 10 4q7 -2 3 -9l-5 -13q-3 -6 -10 -4q-6 3 -4 10zM238 369q-5 5 0 10q4 6 10 0l10 -9q6 -6 0 -11t-11 0zM245 464q-5 7 2 10l11 8 q6 3 10 -2q6 -6 -2 -10l-11 -8q-7 -3 -10 2zM279 487q-6 6 2 10l11 7q7 5 10 -2q6 -6 -2 -10l-11 -7q-7 -5 -10 2zM313 509q-6 6 2 10l11 8q6 3 10 -2q5 -6 -2 -11l-11 -7q-7 -3 -10 2z" />
<glyph unicode="+" horiz-adv-x="336" d="M27 279q0 7 7 7h14q7 0 7 -7q0 -8 -7 -8h-14q-7 0 -7 8zM67 279q0 7 8 7h13q8 0 8 -7q0 -8 -8 -8h-13q-8 0 -8 8zM107 165l5 13q4 7 10 4q9 -2 4 -9l-5 -13q-4 -7 -10 -4q-6 2 -4 9zM108 279q0 7 7 7h14q7 0 7 -7q0 -8 -7 -8h-14q-7 0 -7 8zM123 204l5 12q2 7 9 5 q7 -4 4 -10l-5 -13q-2 -6 -9 -4q-7 4 -4 10zM138 242l5 13q4 7 10 4q6 -2 4 -10l-5 -12q-4 -7 -10 -4q-8 2 -4 9zM153 281l6 12q2 7 9 5q7 -4 4 -10l-5 -13q-2 -6 -10 -4q-6 4 -4 10zM169 319l5 13q2 6 9 4q7 -3 5 -10l-6 -12q-2 -8 -9 -4q-8 2 -4 9zM184 358l5 12q4 7 10 4 q6 -1 4 -9l-5 -13q-4 -7 -10 -4q-6 2 -4 10zM189 279q0 7 7 7h14q8 0 8 -7q0 -8 -8 -8h-14q-7 0 -7 8zM200 396l5 13q1 6 9 4q7 -4 4 -10l-5 -12q-2 -7 -9 -5q-7 4 -4 10zM230 279q0 7 7 7h14q7 0 7 -7q0 -8 -7 -8h-14q-7 0 -7 8zM270 279q0 7 8 7h13q8 0 8 -7q0 -8 -8 -8 h-13q-8 0 -8 8z" />
<glyph unicode="," horiz-adv-x="219" d="M102 -9l7 11q5 5 11 2q6 -4 2 -10l-8 -12q-4 -6 -10 -2q-5 5 -2 11zM108 59q0 9 6.5 15.5t16.5 6.5q9 0 15.5 -6.5t6.5 -15.5q0 -13 -12 -20q3 -3 1 -8l-6 -13q-3 -6 -10 -3q-6 4 -3 10l5 11q-20 2 -20 23zM116 59q0 -15 15 -15t15 15q0 6 -4.5 10.5t-10.5 4.5 q-15 0 -15 -15z" />
<glyph unicode="-" d="M112 261q0 8 7 8h14q7 0 7 -8q0 -7 -7 -7h-14q-7 0 -7 7zM152 261q0 8 7 8h14q7 0 7 -8q0 -7 -7 -7h-14q-7 0 -7 7zM191 261q0 8 8 8h14q7 0 7 -8q0 -7 -7 -7h-14q-8 0 -8 7zM231 261q0 8 8 8h14q7 0 7 -8q0 -7 -7 -7h-14q-8 0 -8 7z" />
<glyph unicode="." horiz-adv-x="139" d="M85 62q0 10 6.5 16.5t16.5 6.5q9 0 15.5 -6.5t6.5 -16.5q0 -9 -6.5 -15.5t-15.5 -6.5q-10 0 -16.5 6.5t-6.5 15.5zM93 62q0 -6 4.5 -10.5t10.5 -4.5t10.5 4.5t4.5 10.5q0 15 -15 15t-15 -15z" />
<glyph unicode="/" horiz-adv-x="351" d="M-37 47v12q0 1 3 1h24h8l3 10l21 51l74 182l79 193l36 90h-222v23h390q1 0 1 -11v-12h-129h-16l-3 -9l-21 -52l-74 -182l-79 -193l-36 -90h331v-23h-389q-1 0 -1 10z" />
<glyph unicode="0" horiz-adv-x="357" d="M22 167l1 14q0 7 7 7q8 -2 8 -8l-1 -13q0 -8 -7 -8q-8 0 -8 8zM24 139q-2 8 6 8t8 -7l2 -13q0 -6 -7 -8q-6 -2 -8 6zM24 208l2 14q2 8 9 6q6 -2 6 -8l-2 -14q-1 -6 -8 -6t-7 8zM30 249l3 13q2 8 9 6t5 -9l-2 -13q-2 -8 -9 -6q-6 2 -6 9zM31 98q-2 7 5 9t9 -5l4 -13 q2 -7 -5 -9q-7 -4 -9 4zM40 289l3 13q2 8 9 5q7 -2 5 -9l-3 -13q-2 -7 -9 -5t-5 9zM48 59q-4 7 2 10t10 -2l7 -11q5 -4 0 -9q-3 -5 -11 -1zM51 328l5 13q2 7 9 5q7 -3 5 -10l-5 -12q-2 -7 -9 -5t-5 9zM65 367l6 13q2 7 9 3q9 -2 4 -9l-6 -13q-2 -6 -9 -4q-7 4 -4 10zM77 40 q4 6 9 2l12 -2q6 -2 6 -9q-2 -8 -9 -6l-15 4q-7 3 -3 11zM82 404l5 13q3 7 11 3q5 -3 3 -10l-6 -12q-3 -6 -10 -3q-7 2 -3 9zM101 441l7 12q4 6 10 3q5 -5 2 -11l-6 -11q-4 -7 -10 -3q-6 3 -3 10zM116 31q-2 7 6 9l12 2q6 2 9 -4q2 -8 -4 -10l-15 -3q-8 -2 -8 6zM122 476 l8 11q4 5 11 2q7 -4 1 -10l-8 -11q-4 -6 -10 -2t-2 10zM146 509l10 11q5 5 10 0q5 -4 1 -10l-9 -10q-6 -6 -10 -1q-6 3 -2 10zM154 43q-3 7 3 10q1 1 5 3t6 4q6 4 10 -2q4 -7 -2 -10q-2 -2 -6.5 -4.5t-5.5 -3.5q-6 -3 -10 3zM174 529q-6 5 0 11l6 6q3 2 5 4q6 4 10 -1 q6 -6 -1 -10l-10 -9q-4 -5 -10 -1zM187 66q-4 6 1 10l10 9q5 5 10 0q6 -4 0 -10l-10 -10q-6 -4 -11 1zM205 556q-4 6 1 11q2 2 13 7q6 4 10 -3t-3 -9q-2 -1 -5.5 -3t-5.5 -4q-6 -4 -10 1zM216 94q-6 6 0 11l9 10q4 5 10 1q5 -5 1 -11l-9 -10q-5 -5 -11 -1zM239.5 582.5 q1.5 3.5 4.5 4.5l15 3q8 0 8 -6q0 -8 -6 -9l-12 -2q-8 -2 -9 4q-2 2 -0.5 5.5zM240 136l8 11q5 5 11 2q7 -4 1 -10l-8 -12q-4 -7 -10 -1q-6 4 -2 10zM262 169l7 12q3 6 10 3q6 -3 3 -10l-7 -12q-4 -7 -10 -3q-7 4 -3 10zM279 584q0 7 9 5l15 -3q7 -3 3 -11q-5 -5 -9 -2 l-12 2q-6 1 -6 9zM282 204l6 13q2 7 9 3q8 -2 4 -10l-6 -12q-3 -6 -10 -3t-3 9zM299 241l5 12q3 7 10 5q6 -4 4 -10l-6 -13q-3 -6 -10 -4q-6 4 -3 10zM313 278l4 13q3 7 10 5q8 -2 4 -9l-4 -13q-2 -7 -9 -5t-5 9zM315 568q5 5 12 0l8 -12q3 -6 -2 -10q-7 -3 -10 2l-7 10 q-5 5 -1 10zM326 317l3 13q2 7 9 5t5 -9l-3 -13q-2 -8 -9 -6q-7 3 -5 10zM334 525q-2 6 4 10q6 3 10 -4l4 -14q2 -7 -5 -9t-9 5zM335 356l3 13q2 6 8 6q8 -2 6 -9l-2 -14q-2 -7 -9 -5q-8 2 -6 9zM342 395l2 13q0 7 8 7t6 -8l-2 -14q0 -8 -8 -6q-8 0 -6 8zM343 488q-2 6 6 8 t8 -6l2 -14q0 -8 -6 -8q-7 -1 -9 6zM345 435v13q2 8 8 8q7 0 7 -8v-14q0 -7 -8 -7q-7 0 -7 8z" />
<glyph unicode="1" horiz-adv-x="258" d="M9 53l5 13q4 6 10 4q7 -4 4 -10l-5 -13q-2 -6 -10 -4q-6 4 -4 10zM25 92l5 13q4 7 10 4q6 -2 4 -9l-5 -13q-4 -7 -10 -4q-6 2 -4 9zM41 132l5 12q2 7 9 5q7 -4 4 -10l-5 -13q-1 -6 -9 -4q-7 4 -4 10zM56 171l5 13q3 6 10 4q7 -4 4 -10l-5 -12q-2 -8 -10 -4q-6 2 -4 9z M72 210l5 13q4 7 10 4q6 -2 4 -9l-5 -13q-4 -7 -10 -4q-6 2 -4 9zM88 250l5 13q2 6 9 4q7 -4 4 -10l-5 -13q-2 -6 -9 -4q-7 4 -4 10zM103 289l5 13q4 7 10 4q9 -2 4 -9l-5 -13q-2 -8 -10 -4q-6 2 -4 9zM119 329l5 12q3 7 10 5q6 -4 4 -10l-5 -13q-3 -6 -10 -4q-6 3 -4 10z M135 368l5 13q2 6 9 4q7 -4 4 -10l-5 -12q-2 -8 -9 -4q-8 2 -4 9zM150 407l5 13q4 7 10 4q8 -2 4 -9l-5 -13q-2 -8 -10 -4q-6 2 -4 9zM166 447l5 13q4 6 10 4q6 -4 4 -10l-5 -13q-4 -6 -10 -4q-6 3 -4 10zM179 569q-4 6 3 10l12 6q7 3 10 -3q4 -6 -3 -10l-12 -6q-6 -4 -10 3 zM182 486l5 13q2 9 9 4q9 -2 4 -9l-5 -13q-2 -8 -9 -4q-8 2 -4 9zM197 526l5 12q3 7 10 5q7 -4 4 -10l-5 -13q-2 -6 -10 -4q-6 4 -4 10zM213 565l5 13q3 6 10 4q6 -4 4 -10l-5 -12q-4 -7 -10 -4q-6 1 -4 9zM215 589q-4 6 3 10l12 6q7 3 10 -3q4 -6 -3 -10l-12 -6 q-6 -4 -10 3z" />
<glyph unicode="2" horiz-adv-x="422" d="M-28 64q2 9 10 5q5 -3 5 -8q-3 -5 0 -8q1 -2 -1 -9q-6 -8 -11 2q-6 7 -3 18zM-12 83.5q0 3.5 4 4.5l13 7q3 2 6 0.5t4 -4.5q2 -5 -4 -9l-11 -6q-6 -2 -10 2q-2 2 -2 5.5zM-3 41q2 5 8 7l12 1q5 1 9 -6q2 -8 -6 -8l-15 -2q-4 -1 -6 1.5t-2 6.5zM27 93q-2 7 6 9q7 2 15 0 q7 0 7 -8t-7 -6q-5 1 -13 -1q-6 -2 -8 6zM37 47q-2 7 5 9l12 5q6 2 10 -4q3 -6 -4 -10l-13 -5q-8 -2 -10 5zM67 93q2 7 9 7l14 -3q7 -2 5 -9t-9 -5q-8 2 -13 2q-6 1 -6 8zM75 62q-5 7 4 9l12 6q6 4 10 -3q3 -6 -3 -10l-13 -6q-6 -3 -10 4zM101 464q-1 5 1 15q0 8 8 6t6 -8 q-1 -4 -1 -12q2 -6 -6 -8t-8 7zM107 85q2 5 8 5l11 7q6 4 10 -3q4 -6 -2 -10v-8q-2 -7 -9 -5l-13 5q-7 2 -5 9zM110 507l7 12q4 7 10 3q3 -1 3.5 -4.5t-1.5 -5.5l-5 -12q-4 -6 -10 -3q-8 2 -4 10zM133 542l10 11q5 5 10 0q6 -6 0 -10l-9 -10q-4 -5 -10 -1q-6 6 -1 10z M146 72q2 8 9 4l13 -4q8 -2 4 -9q-2 -7 -9 -5l-13 5q-8 2 -4 9zM146 101q-4 6 3 10l11 7q6 6 10 -1q3 -7 -2 -11l-11 -7q-6 -5 -11 2zM162 561q-4 7 2 10l11 9q7 3 10 -2q3 -7 -2 -11l-10 -7q-6 -4 -11 1zM180 124q-6 6 1 10l11 9q6 4 10 -1q4 -6 -1 -11l-11 -8q-6 -6 -10 1 zM184 59q2 7 9 5l13 -4q7 -2 5 -9q0 -7 -8 -5l-14 4q-7 2 -5 9zM196 584q-4 6 3 10t14 5q7 4 9 -4t-4 -9l-12 -6q-7 -2 -10 4zM211 150q-4 5 1 10l10 9q6 6 10 0q6 -5 0 -11l-10 -9q-6 -6 -11 1zM223 49q1 6 9 6l13 -3q7 0 7 -8q-2 -7 -9 -6l-14 2q-6 2 -6 9zM234 598 q-2 7 6 9t14 2q8 0 8 -7t-7 -7q-3 0 -13 -2q-6 -2 -8 5zM241 177q-5 5 0 11l9 10q6 6 11 0q5 -5 0 -10l-9 -11q-6 -5 -11 0zM264 44q0 8 7 8h13q6 2 8 -5t-6 -9q-2 -1 -15 -1q-7 0 -7 7zM268 217l8 11q5 5 11 1q5 -4 1 -10l-9 -11q-4 -5 -10 -1q-5 5 -1 10zM274 602q0 8 9 6 q7 0 14 -3q7 -2 5 -9t-9 -5l-13 3q-6 0 -6 8zM292 249l8 12q4 5 10 2q6 -4 2 -10l-8 -12q-1 -3 -4.5 -3.5t-5.5 1.5q-5 5 -2 10zM304 50q-4 7 4 9q2 1 5.5 4t4.5 3q6 4 10 -2q6 -6 -2 -10q-8 -6 -12 -8q-8 -4 -10 4zM313 591q3 6 10 3q3 -1 6.5 -4t5.5 -4q7 -6 2 -11t-11 -1 l-4 3q-4 3 -6 4q-6 4 -3 10zM314 283l6 12q4 7 10 3q6 -3 3 -10l-6 -12q-4 -7 -10 -3q-7 4 -3 10zM332 319l6 12q2 6 9 4q7 -4 4 -10l-5 -13q-3 -6 -10 -3q-6 3 -4 10zM344 557q-4 5 1 10q6 4 11 -1l8 -12q5 -6 -2 -11q-7 -2 -10 3zM348 355l4 13q2 7 9 5t5 -9l-4 -14 q-2 -6 -10 -4q-6 3 -4 9zM360 394l3 13q2 7 8 5q8 0 6 -8l-3 -14q-2 -7 -9 -5t-5 9zM363 523q-2 8 4 9q7 5 9 -4l5 -14q2 -7 -6 -9q-5 -2 -9 5zM368 433l2 13q0 7 8 7q7 -2 7 -9l-2 -14q-1 -6 -9 -6q-8 2 -6 9zM371 472v13q-2 8 6 8q7 2 9 -6v-15q0 -7 -7 -7q-8 0 -8 7z" />
<glyph unicode="3" horiz-adv-x="404" d="M-40 95q-4 8 4 10q7 3 9 -3l7 -10q4 -6 -1 -10q-6 -6 -10 1zM-12 74q5 5 10 1l11 -7q5 -3 3 -10q-3 -7 -11 -3l-12 8q-6 6 -1 11zM22 53q4 7 9 4l13 -4q7 -2 5 -9t-9 -5l-14 5q-9 2 -4 9zM60 42q2 6 9 6l13 -3q8 0 6 -7q0 -7 -8 -7l-14 2q-8 2 -6 9zM100 37q0 7 7 7l14 1 q7 0 7 -7q2 -8 -7 -8l-14 -1q-7 0 -7 8zM140 39q-2 8 6 8l13 2q7 2 9 -5t-6 -9l-14 -2q-8 -2 -8 6zM141 553l10 12q6 6 10 0q6 -6 0 -10l-7 -10q-3 -5 -10 -3q-6 3 -3 11zM150 310.5q-2 4.5 0 6.5l12 12q6 5 11 -2q4 -6 -2 -10q-2 -1 -4.5 -3.5l-3.5 -3.5q-5 -3 -9 -3 q-2 -1 -4 3.5zM156.5 291.5q-0.5 4.5 1.5 5.5q4 3 9 3l11 -3q7 0 7 -7t-8 -7l-16 3q-4 1 -4.5 5.5zM170 572q-4 6 3 10l12 7q7 3 10 -2q4 -8 -3 -10l-11 -7q-6 -3 -11 2zM179 47q-2 7 5 9l12 5q8 2 9 -4q3 -6 -4 -10l-13 -5q-7 -2 -9 5zM183 332q-3 6 4 10l14 4q9 0 9 -6 q2 -8 -6 -8l-12 -4q-7 -2 -9 4zM196 291q0 7 6 8l13 3q7 2 9 -5t-5 -9l-14 -3q-9 -2 -9 6zM205 591q-2 7 4 10l14 5q7 2 9 -4q2 -8 -5 -10l-12 -4q-6 -3 -10 3zM216 62q-4 6 3 10l11 6q6 3 10 -2q6 -6 -2 -10l-12 -7q-7 -3 -10 3zM222 341q-2 8 7 8h14q9 -2 7 -9 q-2 -8 -8 -6h-13q-7 0 -7 7zM235 300q-2 7 4 10l12 5q6 3 10 -3q3 -6 -3 -10l-14 -6q-7 -2 -9 4zM243 605q-2 7 5 9l14 2q7 2 9 -6q0 -6 -6 -8l-13 -3q-7 -2 -9 6zM249 83q-3 7 1 11l10 8q5 5 10 1q5 -5 1 -11l-11 -10q-6 -4 -11 1zM261 337q2 7 10 5l13 -7q1 0 2 -1 q5 5 9 -1q3 -7 -2 -11l-12 -8q-6 -4 -10 3q-2 5 1 8l-7 3q-6 2 -4 9zM277 121l7 11q4 6 10 2q6 -3 3 -10l-8 -12q-5 -5 -11 -1q-5 5 -1 10zM282 612q0 6 7 8h15q7 0 7 -8q-2 -7 -8 -7h-13q-6 0 -8 7zM296 308q-5 5 0 10q5 7 10 0l10 -11q3 -7 -2 -11q-6 -4 -10 2zM297 154 l6 12q3 6 10 4q6 -4 3 -10l-6 -13q-4 -6 -10 -3q-7 4 -3 10zM304 340q-4 5 1 10l10 9q6 4 10 -1q5 -5 0 -10l-11 -9q-5 -5 -10 1zM312 190l4 13q2 7 9 5t5 -9l-4 -14q-2 -8 -9 -4q-7 2 -5 9zM315 277q-2 7 4 9q6 3 10 -4l4 -14q2 -7 -6 -9q-6 -2 -8 6zM321 227v13q0 6 8 8 q7 0 7 -8q0 -9 -1 -14q0 -7 -8 -7q-8 2 -6 8zM322 611q2 8 9 6l14 -4q7 -2 5 -9q-3 -7 -10 -5l-12 3q-6 2 -6 9zM333 377l9 10q5 5 10 1q6 -5 1 -10l-9 -11q-5 -5 -10 0q-5 4 -1 10zM357 407l8 11q3 6 10 3q7 -4 3 -10l-8 -12q-4 -5 -11 -2q-6 4 -2 10zM360 599q4 6 10 2 l12 -9q6 -5 0 -11q-4 -4 -10 0l-10 8q-5 3 -2 10zM378 441l5 12q2 6 10 4q6 -4 3 -10l-5 -13q-4 -7 -10 -3q-6 3 -3 10zM387 562q-3 5 2 10q7 5 11 -3l6 -13q4 -8 -5 -10q-6 -1 -9 5zM391 477l4 12q0 8 8 6q8 0 6 -8q0 -2 -3 -14q-4 -8 -10 -5q-7 2 -5 9zM397 514v13 q0 7 6 8q7 2 9 -7v-14q0 -4 -2 -6t-5 -1q-8 0 -8 7z" />
<glyph unicode="4" horiz-adv-x="381" d="M25 316q-6 6 1 10l10 9q5 5 11 -1q4 -5 -1 -10l-11 -9q-6 -6 -10 1zM26 305q0 7 7 7h14q7 0 7 -7t-7 -7h-14q-7 0 -7 7zM57 343q-6 6 1 10l10 9q5 5 11 -1q4 -6 -1 -10l-11 -9q-6 -6 -10 1zM67 305q0 7 7 7l14 1q7 0 7 -8q0 -7 -7 -7h-14q-7 0 -7 7zM89 370q-5 4 1 10 l11 9q5 5 10 -1q6 -6 -1 -10l-11 -9q-5 -5 -10 1zM108 305q0 8 7 8h14q7 0 7 -7q0 -8 -7 -8h-14q-7 0 -7 7zM121 397q-4 5 1 10l11 9q5 4 10 -1q6 -6 -1 -10l-10 -9q-7 -5 -11 1zM125 49l5 13q4 7 10 4q6 -4 4 -10l-6 -12q-2 -8 -9 -4q-9 2 -4 9zM140 86l6 13q2 8 9 4 q8 -2 4 -10l-5 -12q-4 -7 -10 -4q-6 2 -4 9zM149 306q0 7 7 7h14q7 0 7 -7t-7 -7l-14 -1q-7 0 -7 8zM153 423q-3 7 1 11l11 9q6 4 10 -1q5 -5 -1 -11l-10 -8q-6 -5 -11 0zM156 123l5 13q4 7 10 4q6 -2 4 -9l-6 -13q-2 -9 -9 -4q-9 2 -4 9zM171 161l5 12q4 7 10 4q9 -2 4 -9 l-5 -13q-4 -7 -10 -4t-4 10zM186 450q-6 6 0 11l11 9q6 4 10 -1q5 -7 -1 -11l-10 -9q-6 -4 -10 1zM187 198l5 12q2 9 9 4q8 -2 4 -9l-5 -13q-2 -6 -10 -4q-6 4 -3 10zM190 306q0 8 7 8h14q7 0 7 -7q0 -8 -7 -8h-14q-7 0 -7 7zM202 235l5 13q4 6 10 3q6 -1 4 -9l-6 -13 q-1 -6 -9 -4q-7 4 -4 10zM217 272l6 13q2 6 9 4q7 -4 4 -10l-5 -13q-3 -6 -10 -4q-6 4 -4 10zM218 477q-5 5 1 11l10 8q6 6 11 -1q4 -5 -1 -10l-11 -9q-6 -4 -10 1zM231 307q0 4 4 6l3 9q4 6 10 4q6 -4 4 -10q7 -2 7 -8q0 -8 -7 -8h-8q-4 -2 -7 -1q-1 0 -3 2q-3 1 -3 6z M248 346l5 13q3 6 10 4q7 -4 4 -10l-5 -13q-4 -6 -10 -4q-6 3 -4 10zM250 504q-6 6 1 10l10 9q6 4 11 -1q4 -5 -1 -10l-11 -9q-6 -4 -10 1zM264 383l5 13q2 6 9 4q7 -4 4 -10l-5 -12q-2 -9 -9 -4q-8 2 -4 9zM272 308q-1 6 7 8h13q8 0 8 -7q0 -6 -7 -8h-14q-7 0 -7 7z M279 420l5 13q4 7 10 4t4 -10l-5 -12q-4 -7 -10 -4q-9 2 -4 9zM282 531q-6 6 1 10l11 9q4 4 10 -1q6 -6 -1 -10l-11 -9q-4 -4 -10 1zM294 457l6 13q2 9 9 4q8 -2 4 -10l-5 -12q-4 -7 -10 -4q-6 2 -4 9zM310 494l5 13q4 7 10 4q6 -2 4 -9l-6 -13q-2 -8 -9 -4q-9 2 -4 9z M314 558q-4 6 1 10l11 9q4 5 10 -1t-1 -10l-10 -9q-6 -4 -11 1zM325 532l6 12q2 8 9 4q9 -2 4 -9l-5 -13q-4 -7 -10 -4t-4 10zM341 569l5 12l2 2l-2 2q-4 5 1 10l11 9q6 4 10 -1q6 -6 -1 -10l-9 -9q4 -2 2 -8l-6 -13q-2 -6 -9 -4q-7 4 -4 10z" />
<glyph unicode="5" horiz-adv-x="393" d="M7 128q0 5 4 15q2 9 9 4q6 -3 4 -10q0 -1 -1.5 -5t-1.5 -6q0 -5 -7 -7q-9 0 -7 9zM11 97q-4 8 4 10q7 2 10 -5t5 -10q4 -6 -2 -10q-5 -5 -10 2q-1 1 -7 13zM35.5 67q-0.5 3 1.5 5q5 6 10 1l11 -7q5 -3 3 -10q-4 -6 -11 -3l-12 9q-2 2 -2.5 5zM72 51q3 7 9 5q2 0 6.5 -1.5 t6.5 -1.5q6 -1 6 -9q-2 -6 -9 -6l-14 4q-7 2 -5 9zM109 386l7 12q4 7 10 3q7 -4 3 -10l-5 -9l9 4q7 5 9 -4q4 -7 -4 -9l-12 -6q-7 -2 -10 4q0 1 -0.5 2t-0.5 2q-2 0 -3 1q-7 4 -3 10zM112 43q2 7 8 7l13 1q6 0 8 -7q0 -6 -7 -8l-14 -1q-8 2 -8 8zM130 422l7 12q5 6 11 3 q6 -4 2 -10l-7 -12q-4 -7 -10 -3q-7 4 -3 10zM152 458l7 12q3 6 10 3q7 -5 2 -10l-7 -12q-3 -6 -10 -3q-6 4 -2 10zM153 46q0 8 6 9q2 1 6 2t6 2q7 2 10 -4q2 -7 -5 -10q-4 -2 -14 -4q-7 -2 -9 5zM154 386q-2 7 5 10l14 3q7 2 9 -5t-6 -9l-13 -3q-4 -3 -9 4zM173 494l7 12 q4 7 10 3q7 -4 3 -10l-7 -12q-4 -7 -10 -3q-7 4 -3 10zM192 60q-2 7 3 10l12 6q6 4 10 -2t-2 -10l-13 -7q-6 -4 -10 3zM194 396q0 8 7 8l14 1q8 0 8 -7t-7 -7l-14 -1q-6 -2 -8 6zM195 530l7 12q3 6 10 3q6 -4 2 -10l-7 -12q-3 -6 -10 -3q-7 5 -2 10zM216 566l7 12q3 6 10 3 q7 -4 3 -10l-7 -12q-5 -6 -11 -3q-6 4 -2 10zM227 82q-6 6 1 10l10 9q6 4 11 -1t-1 -10l-11 -9q-6 -6 -10 1zM236 397q0 8 8 6q2 0 14 -3q8 -2 5 -9q-2 -7 -9 -5l-12 3q-8 0 -6 8zM252 592q0 8 7 8h14q7 0 7 -8q0 -7 -7 -7h-14q-7 0 -7 7zM257 120l9 10q4 7 10 1q7 -4 1 -10 l-9 -11q-5 -5 -10 0q-7 4 -1 10zM275 385q4 8 10 3l12 -8q7 -5 1 -11q-5 -5 -10 -1l-10 8q-7 3 -3 9zM281 152l7 11q6 6 11 3q6 -4 2 -10l-7 -12q-4 -7 -10 -3q-6 5 -3 11zM292 592q0 8 7 8h14q7 0 7 -8q0 -7 -7 -7h-14q-7 0 -7 7zM301 187l5 12q3 6 10 4q8 -2 4 -10l-6 -13 q-2 -6 -9 -3q-6 3 -4 10zM306 350q-4 5 1 10q2 2 5.5 2t4.5 -3l8 -13q4 -8 -3 -10q-8 -4 -10 3zM316 224l3 13q1 6 9 6q7 -2 5 -9l-3 -14q-2 -7 -9 -5t-5 9zM321 315q-2 7 6 9q6 2 8 -5l3 -15q2 -8 -6 -8q-7 0 -9 6zM324 263v13q0 7 8 7q7 0 7 -7l-1 -14q0 -4 -2 -6t-5 -1 q-8 2 -7 8zM332 592q0 8 7 8h14q7 0 7 -8q0 -7 -7 -7h-14q-7 0 -7 7zM372 592q0 8 7 8h14q8 0 8 -8q0 -7 -8 -7h-14q-7 0 -7 7z" />
<glyph unicode="6" horiz-adv-x="340" d="M2 147q0 8 7 8q6 0 8 -7l1 -13q0 -7 -6 -9q-8 0 -9 7zM3 175q0 9 1 14q2 8 9 6q6 -1 6 -8q-2 -8 -2 -13q0 -7 -8 -7t-6 8zM9 216l4 14q2 7 9 5t5 -9l-3 -13q-4 -7 -9 -6q-8 2 -6 9zM10 105q-3 7 5 9q5 2 9 -4l5 -12q2 -7 -3 -10q-8 -4 -11 3zM21 256l5 13q2 8 9 4 q8 -2 4 -9l-4 -13q-2 -7 -9 -4q-7 2 -5 9zM31 67q-3 7 1 11q6 4 11 -1q1 -1 3.5 -4.5t4.5 -4.5q7 -4 1 -10q-4 -7 -10 -1zM35 295l6 12q4 7 10 4l4 5q5 6 11 0q4 -4 0 -10l-8 -10q-3 -3 -7 -3l-2 -4q-3 -6 -10 -4q-6 2 -4 10zM53 332l6 13q4 6 10 3q7 -4 3 -10l-6 -12 q-3 -6 -10 -4q-6 3 -3 10zM63 51q4 6 9 3l12 -5q7 -2 5 -9t-10 -5q-1 0 -6 2t-7 4q-9 4 -3 10zM72 368l7 12q4 7 10 3q7 -4 3 -10l-7 -12q-4 -7 -10 -3q-7 4 -3 10zM76 324q-6 6 1 10l11 9q8 4 11 -3q4 -7 -3 -9l-10 -9q-6 -4 -10 2zM94 403l8 12q4 6 10 2q5 -5 2 -10 l-8 -12q-4 -5 -10 -2q-6 4 -2 10zM101 38q0 6 8 6l13 -1q7 0 7 -6q0 -8 -7 -8h-15q-8 0 -6 9zM110 346q-4 6 3 10q11 4 14 5q7 2 9 -5t-5 -9q-4 -1 -12 -5q-5 -4 -9 4zM118 437l8 11q6 6 10 1q6 -3 2 -10l-9 -11q-4 -6 -10 -1q-7 4 -1 10zM141 38q0 8 6 9l12 3q6 3 10 -4 q2 -7 -5 -10q-2 -1 -7 -2t-7 -2q-7 -2 -9 6zM143 470l9 10q5 5 11 1q5 -5 0 -10l-9 -11q-4 -5 -10 -1q-4 4 -1 11zM148 359q-2 7 6 9h7t8 1q7 0 7 -8q0 -7 -7 -7q-8 0 -13 -1q-6 -2 -8 6zM170 501l10 10q4 6 10 0q5 -5 0 -10l-9 -10q-5 -5 -10 -1q-6 6 -1 11zM180 51 q-3 7 3 10q9 6 10 7q6 6 10 -1q5 -5 -1 -11q-8 -6 -12 -8q-7 -3 -10 3zM189 362q0 9 8 5l14 -3q9 -2 5 -9q-2 -7 -9 -5l-12 3q-8 2 -6 9zM199 520q-5 5 0 10l9 10q6 6 11 0t0 -11l-10 -9q-6 -6 -10 0zM213 75q-5 5 0 10l8 10q4 4 11 1q5 -4 1 -10l-10 -11q-2 -3 -5 -2.5 t-5 2.5zM227 350q4 6 10 2l13 -8q7 -4 0 -11q-3 -3 -10 0l-11 6q-6 4 -2 11zM228 548q-6 6 0 11l11 9q5 4 10 -1q6 -6 -1 -10l-10 -9q-5 -5 -10 0zM237 116l7 11q3 6 10 3q5 -4 2 -10l-7 -12q-3 -7 -10 -2q-6 4 -2 10zM255 151l5 12q4 7 10 4q8 -2 4 -9l-5 -13q-4 -7 -10 -4 q-6 4 -4 10zM256 313q-4 6 2 10q6 6 10 -1q7 -10 8 -13q3 -6 -4 -10t-9 4q-1 4 -7 10zM258 575q-4 6 1 11l11 8q6 4 11 -1q2 -2 1.5 -5.5t-3.5 -4.5l-10 -9q-6 -4 -11 1zM268 188l4 13q0 6 9 6q7 -2 5 -9l-4 -14q-2 -7 -8 -5q-8 2 -6 9zM272 279q-4 6 4 8q6 3 10 -5 q1 -2 1.5 -7t0.5 -7q2 -8 -6 -8q-8 -2 -8 6zM275 227l1 13q2 7 7 7q8 2 8 -7l-1 -14q-2 -7 -8 -7q-7 2 -7 8z" />
<glyph unicode="7" horiz-adv-x="329" d="M69 47l6 13q4 6 10 3t3 -10l-6 -12q-2 -6 -10 -4q-7 4 -3 10zM87 84l6 13q4 6 10 3t3 -10l-6 -12q-2 -6 -10 -4q-7 4 -3 10zM105 121l6 13q4 6 10 3t3 -10l-6 -12q-2 -7 -10 -3q-7 2 -3 9zM117 594q0 7 7 7h14q7 0 7 -7q0 -8 -7 -8h-14q-7 0 -7 8zM123 158l6 13q4 6 10 3 t3 -10l-6 -12q-3 -6 -10 -3q-7 2 -3 9zM141 196l6 12q3 6 10 3q7 -2 3 -9l-6 -13q-3 -6 -10 -3q-7 2 -3 10zM159 233l6 12q3 6 10 3q7 -2 3 -9l-6 -13q-4 -6 -10 -3q-6 4 -3 10zM162 594q0 7 7 7h14q7 0 7 -7q0 -8 -7 -8h-14q-7 0 -7 8zM177 270l6 12q3 6 10 4q7 -4 3 -10 l-6 -13q-4 -6 -10 -3q-6 4 -3 10zM195 307l6 12q3 6 10 4q7 -4 3 -10l-6 -13q-4 -6 -10 -3q-6 4 -3 10zM207 594q0 7 7 7h14q7 0 7 -7q0 -8 -7 -8h-14q-7 0 -7 8zM213 344l6 12q3 6 10 4q6 -4 3 -10l-6 -13q-4 -6 -10 -3q-6 4 -3 10zM231 381l6 12q4 7 10 4q6 -4 3 -10 l-6 -12q-4 -7 -10 -4q-6 4 -3 10zM249 418l6 12q4 7 10 4q6 -4 3 -10l-6 -12q-4 -7 -10 -4q-6 4 -3 10zM252 594q0 7 7 7h14q8 0 8 -7q0 -8 -8 -8h-14q-7 0 -7 8zM267 455l6 13q4 6 10 3q6 -4 3 -10l-6 -12q-3 -6 -10 -4q-6 4 -3 10zM285 492l6 13q4 6 10 3q6 -4 3 -10 l-6 -12q-3 -6 -10 -4q-7 4 -3 10zM297 594q0 7 7 7h14q8 0 8 -7q0 -8 -8 -8h-14q-7 0 -7 8zM303 529l6 13q4 6 10 3q6 -4 3 -10l-6 -12q-3 -6 -10 -4q-7 4 -3 10zM321 566l6 13q4 6 10 3q6 -4 3 -10l-6 -12q-3 -6 -10 -3q-7 2 -3 9z" />
<glyph unicode="8" horiz-adv-x="328" d="M-16 108v7t1 8q1 6 10 6q7 -2 5 -9q-1 -2 -1 -12q0 -6 -7 -8q-8 0 -8 8zM-12 79q-2 8 5 10t9 -5q1 -1 2 -5t3 -5q5 -4 -1 -10q-6 -4 -11 1q-2 2 -4 7t-3 7zM-7 150l5 13q4 7 10 3q9 -2 4 -9l-6 -12q-2 -7 -8 -5q-9 2 -5 10zM10 187l8 12q3 6 10 3q6 -4 2 -10l-7 -12 q-4 -6 -10 -3q-7 4 -3 10zM15 56q4 7 10 3l12 -4q6 -4 4 -10q-2 -8 -9 -4l-14 5q-8 4 -3 10zM32 222l9 11q4 6 10 2q6 -6 1 -11l-8 -10q-4 -6 -10 -2q-7 5 -2 10zM53 43q2 7 8 7l13 -2q7 0 7 -7q0 -8 -7 -8l-15 2q-8 2 -6 8zM59 243q-5 5 0 11l10 10q6 4 11 -1q4 -5 -1 -10 l-9 -10q-7 -4 -11 0zM88 272q-4 4 1 10l10 9q6 6 10 0q5 -6 0 -11l-10 -9q-6 -4 -11 1zM93 41q0 7 7 7l13 2q8 0 8 -7q1 -2 -1 -5t-5 -3l-14 -1q-8 -2 -8 7zM118 298q-4 6 1 11l11 9q6 4 10 -1q5 -5 -1 -11l-10 -8q-5 -6 -11 0zM128 461q0 6 7 8q8 0 8 -7q0 -5 2 -13 q2 -7 -6 -9q-7 -2 -9 6q0 3 -1 8t-1 7zM128 488l3 15q2 8 9 5q7 -2 5 -8q-1 -2 -1.5 -7t-0.5 -6q0 -7 -8 -7q-7 2 -7 8zM133 46q-2 6 6 8l12 4q7 2 10 -5q2 -7 -5 -9l-14 -4q-7 -2 -9 6zM137 420q-3 7 5 9q7 2 9 -5l4 -13q2 -7 -5 -9q-7 -4 -9 4zM141 530q5 10 7 12 q5 6 11 2q5 -5 1 -10q-2 -2 -3.5 -6t-2.5 -5q-4 -7 -10 -3q-9 2 -3 10zM149 324q-4 6 1 11l11 8q4 2 7 2q-3 5 3 9q5 2 9 -2q-2 4 2 8l11 9q5 4 10 -1q4 -6 -1 -11l-11 -8q-3 -5 -9 -1l5 -10q4 -6 -3 -10q-7 -2 -10 3l-1 3q-2 -2 -3 -2l-10 -9q-6 -4 -11 1zM150 381 q-2 7 4 9q6 3 10 -3l5 -13q3 -7 -3 -10q-7 -2 -10 4zM167 553q-6 4 0 10l11 9q6 4 11 -1q3 -6 -2 -11l-10 -8q-6 -4 -10 1zM172 57q-3 6 3 10l12 6q6 4 10 -2q4 -8 -3 -11l-12 -6q-8 -4 -10 3zM188 308q-3 6 2 10q7 3 10 -3l7 -11q3 -6 -2 -10q-6 -4 -10 2zM199 577 q-4 6 3 10l13 5q6 3 10 -4q2 -7 -4 -9l-12 -6q-7 -2 -10 4zM207 77q-5 5 1 11l9 8q5 5 10 1q6 -6 1 -11l-11 -10q-6 -6 -10 1zM208 273q-3 7 3 10q6 4 10 -2l7 -12q3 -7 -3 -10q-6 -4 -10 2zM212 375q-4 6 1 10l11 9q6 6 10 -1q6 -6 -1 -10l-10 -9q-6 -4 -11 1zM228 239 q-4 7 3 9q7 3 10 -3l6 -13q2 -7 -4 -10q-6 -2 -10 4zM232 116l6 12q2 6 9 4q7 -4 4 -10q0 -2 -6 -13q-5 -6 -10 -3q-6 5 -3 10zM236 592q-2 7 6 9l14 2q8 2 8 -6q2 -8 -6 -8l-13 -3q-7 -2 -9 6zM241 202q-2 7 5 9t9 -5q0 -1 1.5 -6t1.5 -8q1 -7 -6 -9q-8 0 -8 6q0 1 -3 13z M244 151q1 3 1.5 7.5t0.5 5.5q0 7 7 7q3 1 5 -1.5t2 -5.5q0 -10 -1 -15q-2 -8 -9 -6q-6 1 -6 8zM244 400q-4 6 1 11l11 8q5 5 10 -1q4 -5 -1 -10l-11 -9q-6 -4 -10 1zM275 426q-6 6 1 10l11 9q5 5 10 -1q6 -6 -1 -10l-11 -9q-5 -5 -10 1zM276 598q0 8 7 8h14q9 0 7 -8 q0 -7 -7 -7h-14q-7 0 -7 7zM306 452q-6 6 1 10l10 9q5 5 10 0q6 -6 0 -10l-11 -10q-5 -4 -10 1zM316 596q2 8 9 6l14 -3q7 -3 5 -10q-4 -7 -9 -4l-13 3q-6 2 -6 8zM336 479q-5 5 0 10l10 10q4 6 10 0q5 -5 0 -10l-10 -10q-4 -6 -10 0zM354 579q-1 3 1 5q2 7 10 3 q8 -6 12 -10q5 -7 -1 -11q-7 -4 -10 1q-1 2 -4.5 4.5t-4.5 3.5q-2 1 -3 4zM363 518l7 11q2 5 10 3q7 -3 2 -10q-5 -10 -8 -13q-4 -5 -10 -1q-6 6 -1 10z" />
<glyph unicode="9" horiz-adv-x="293" d="M42 48q-5 5 0 10l9 10q5 5 11 1q6 -5 0 -11l-9 -10q-5 -6 -11 0zM49 371q0 8 7 8q6 0 8 -7l1 -13q0 -6 -6 -8q-7 -1 -9 6zM49 399l2 15q0 8 8 6t6 -8l-1 -14q0 -8 -8 -6q-7 0 -7 7zM57 441l3 14q2 7 9 5q7 -3 5 -10l-3 -13q-2 -7 -9 -5q-8 2 -5 9zM58 329q-2 8 5 10 q8 2 9 -4q2 -8 5 -11q5 -4 -1 -10q-6 -3 -11 2q-1 1 -7 13zM69 88l9 10q5 7 11 1q5 -4 1 -10l-10 -11q-4 -6 -10 0q-5 5 -1 10zM70 481l5 13q3 6 10 3q6 -3 3 -10l-5 -12q-1 -6 -9 -4t-4 10zM83 293q-6 7 0 11q6 6 10 0l10 -7q5 -3 2 -10q-2 -8 -10 -2zM89 518l7 12 q3 6 11 2q5 -5 1 -10l-7 -12q-3 -5 -10 -2q-5 4 -2 10zM96 119l9 10q5 5 10 1q7 -4 1 -10l-9 -11q-4 -6 -10 0q-5 4 -1 10zM114 552l9 11q2 2 6 1.5t5 -2.5q4 -4 0 -10l-9 -10q-5 -5 -10 -1q-6 6 -1 11zM116 282q4 7 9 5l13 -3q6 -2 6 -7q0 -10 -8 -7l-14 3q-8 2 -6 9z M122 150l9 11q4 5 10 1q5 -6 1 -10l-8 -11q-6 -6 -11 -1q-5 4 -1 10zM144 569q-3 7 2 11q9 7 12 8q7 3 10 -3t-3 -10l-11 -7q-4 -4 -10 1zM148 182l8 11q6 5 10 1q6 -3 2 -10l-9 -11q-4 -7 -10 -1q-7 4 -1 10zM157 278q-2 6 6 8q6 0 12 3q5 2 9 -4q2 -7 -5 -10q-4 -2 -14 -4 q-8 0 -8 7zM172 214l8 11q5 7 11 2q7 -4 1 -10l-8 -11q-3 -6 -10 -2q-5 5 -2 10zM179 590q-2 7 5 9q4 2 14 4q7 2 9 -6q0 -7 -6 -9q-7 0 -13 -3q-6 -2 -9 5zM195 289q-2 7 4 10l10 7q6 6 10 -1q4 -6 -1 -11l-12 -8q-7 -3 -11 3zM196 248l8 11q4 5 10 2q6 -4 2 -10l-8 -12 q-4 -6 -10 -2q-5 4 -2 11zM218 281l8 12q4 5 10 2q5 -3 2 -10l-7 -12q-4 -6 -10 -2q-7 4 -3 10zM219 598q0 9 8 7l15 -2q7 -2 5 -9q-2 -8 -9 -5l-12 1q-7 2 -7 8zM229 312q-4 6 0 11l9 9q5 5 11 1q0 -1 0.5 -1t0.5 -1q3 1 6 0q7 -4 3 -10l-7 -12q-3 -6 -10 -3q-2 1 -4 5 q-6 -4 -9 1zM259 352l6 12q2 7 9 3q9 -2 4 -9l-6 -13q-4 -7 -10 -3q-6 3 -3 10zM259 589q2 7 10 3l12 -9q6 -5 0 -11q-4 -4 -10 0l-10 7q-5 3 -2 10zM276 388l4 13q4 7 10 4q8 -2 4 -9l-5 -13q-2 -9 -9 -4q-8 2 -4 9zM287 553q-4 6 2 10q7 3 10 -3q4 -5 7 -13q2 -7 -4 -10 q-6 -2 -10 4q-1 3 -5 12zM289 426l4 13q2 7 9 5t5 -9l-4 -13q-2 -7 -9 -5t-5 9zM298 465l2 13q0 7 7 7q9 0 7 -8l-1 -14q-1 -7 -9 -7q-8 2 -6 9zM299 517q-2 6 6 8t8 -6q1 -3 1.5 -7.5t0.5 -6.5q0 -8 -7 -8q-8 0 -8 7q0 9 -1 13z" />
<glyph unicode=":" horiz-adv-x="292" d="M160 61q0 9 6.5 15.5t16.5 6.5q9 0 15.5 -6.5t6.5 -15.5q0 -10 -6.5 -16.5t-15.5 -6.5q-10 0 -16.5 6.5t-6.5 16.5zM168 61q0 -15 15 -15t15 15q0 6 -4.5 10.5t-10.5 4.5q-15 0 -15 -15zM250 280q0 9 6.5 15.5t16.5 6.5q9 0 15.5 -6.5t6.5 -15.5t-6.5 -16t-15.5 -7 q-10 0 -16.5 7t-6.5 16zM258 280q0 -15 15 -15q6 0 10.5 4.5t4.5 10.5t-4.5 10.5t-10.5 4.5q-15 0 -15 -15z" />
<glyph unicode=";" horiz-adv-x="265" d="M76 -9l7 11q5 5 11 2q6 -4 2 -10l-8 -12q-4 -6 -10 -2q-5 5 -2 11zM82 59q0 9 6.5 15.5t16.5 6.5q9 0 15.5 -6.5t6.5 -15.5q0 -13 -12 -20q3 -3 1 -8l-6 -13q-3 -6 -10 -3q-6 4 -3 10l5 11q-20 2 -20 23zM90 59q0 -15 15 -15t15 15q0 6 -4.5 10.5t-10.5 4.5 q-15 0 -15 -15zM180 284q0 9 6.5 15.5t15.5 6.5t16 -6.5t7 -15.5q0 -10 -7 -16.5t-16 -6.5t-15.5 6.5t-6.5 16.5zM187 284q0 -15 15 -15t15 15q0 6 -4.5 10.5t-10.5 4.5t-10.5 -4.5t-4.5 -10.5z" />
<glyph unicode="&#x3c;" d="M1 37v21q0 2 2 2h312v-21q0 -2 -2 -2h-312zM1 297v16q0 7 2 7h158v-19q0 -4 -2 -4h-158zM1 586v21q0 2 2 2h312v-21q0 -2 -2 -2h-312z" />
<glyph unicode="=" horiz-adv-x="342" d="M27 271q0 8 7 8h14q7 0 7 -8q0 -7 -7 -7h-14q-7 0 -7 7zM66 271q0 8 8 8h14q7 0 7 -8q0 -7 -7 -7h-14q-8 0 -8 7zM68 361q0 8 7 8h14q7 0 7 -8q0 -7 -7 -7h-14q-7 0 -7 7zM106 271q0 8 8 8h14q7 0 7 -8q0 -7 -7 -7h-14q-8 0 -8 7zM108 361q0 8 7 8h14q7 0 7 -8 q0 -7 -7 -7h-14q-7 0 -7 7zM146 271q0 8 8 8h14q7 0 7 -8q0 -7 -7 -7h-14q-8 0 -8 7zM148 361q0 8 7 8h14q7 0 7 -8q0 -7 -7 -7h-14q-7 0 -7 7zM186 271q0 8 8 8h13q8 0 8 -8q0 -7 -8 -7h-13q-8 0 -8 7zM188 361q0 8 7 8h14q7 0 7 -8q0 -7 -7 -7h-14q-7 0 -7 7zM226 271 q0 8 8 8h13q8 0 8 -8q0 -7 -8 -7h-13q-8 0 -8 7zM228 361q0 8 7 8h14q7 0 7 -8q0 -7 -7 -7h-14q-7 0 -7 7zM268 361q0 8 7 8h14q7 0 7 -8q0 -7 -7 -7h-14q-7 0 -7 7z" />
<glyph unicode="&#x3e;" d="M1 37v21q0 2 2 2h312v-21q0 -2 -2 -2h-312zM1 297v16q0 7 2 7h158v-19q0 -4 -2 -4h-158zM1 586v21q0 2 2 2h312v-21q0 -2 -2 -2h-312z" />
<glyph unicode="?" horiz-adv-x="490" d="M125 59q0 9 6.5 15.5t16.5 6.5q9 0 15.5 -6.5t6.5 -15.5q0 -10 -6.5 -16.5t-15.5 -6.5q-10 0 -16.5 6.5t-6.5 16.5zM133 59q0 -15 15 -15t15 15q0 6 -4.5 10.5t-10.5 4.5q-15 0 -15 -15zM198 465l5 13q2 8 10 4q6 -2 4 -9l-5 -13q-2 -6 -9 -4q-7 0 -5 9zM215 503l8 12 q4 6 10 2q5 -5 2 -10l-7 -12q-4 -6 -10 -2q-7 2 -3 10zM230 232l8 11q4 6 11 1q4 -4 1 -11l-9 -10q-3 -5 -10 -2q-5 5 -1 11zM239 536l9 11q5 5 10 0t1 -10l-9 -10q-6 -5 -10 -1q-7 4 -1 10zM257 252q-5 5 0 10l10 10q6 6 10 0q6 -6 0 -10l-10 -10q-5 -5 -10 0zM267 555 q-5 5 0 11l12 8q6 6 10 -1q3 -7 -2 -10l-10 -9q-6 -4 -10 1zM286 279q-5 5 1 11l10 9q5 5 11 -1q4 -6 -1 -11l-11 -8q-5 -5 -10 0zM299 579q-4 6 3 10l13 6q6 3 10 -5q1 -6 -5 -9l-11 -5q-7 -3 -10 3zM316 305q-4 7 2 10l10 9q7 3 11 -1q3 -7 -1 -11l-11 -8q-5 -5 -11 1z M336 594q-2 8 5 8l15 2q8 0 8 -7t-7 -7l-13 -2q-6 -2 -8 6zM347 330q-4 6 1 11l10 9q4 4 10 -1q5 -5 0 -10l-11 -9q-5 -5 -10 0zM375 597q1 6 9 6l14 -3q7 -3 5 -10q-4 -8 -9 -4l-13 2q-6 2 -6 9zM377 357q-5 5 0 10l9 10q4 7 10 1q5 -4 1 -10l-9 -11q-6 -5 -11 0zM402 397 l8 11q5 5 10 2q7 -6 2 -11l-9 -11q-4 -7 -10 -1q-5 5 -1 10zM413 585q3 7 11 3q7 -3 11 -9q5 -5 0 -11q-5 -5 -10 0q-2 5 -9 8q-7 2 -3 9zM423 430l6 11q3 6 10 4q7 -4 4 -10l-7 -13q-5 -7 -10 -2q-6 3 -3 10zM439 464l4 13q2 7 9 5q7 0 5 -9l-4 -13q-2 -7 -9 -5q-7 3 -5 9z M440 550q-2 6 2 9q2 2 6 1t5 -4l4 -14q3 -7 -4 -9q-8 -2 -10 5zM447 501v13q0 6 8 8q7 0 7 -7v-15q-2 -7 -8 -7q-7 2 -7 8z" />
<glyph unicode="@" horiz-adv-x="604" d="M57 44v14q2 8 8 8q7 -2 7 -8v-13q0 -8 -7 -8q-8 0 -8 7zM58 85q0 10 1 14q2 7 8 7q7 -1 7 -8q-2 -10 -2 -14q0 -8 -7 -6q-7 0 -7 7zM61 17q-2 8 6 8q8 2 8 -6l2 -13q2 -7 -6 -9q-6 -2 -8 6zM63 126l3 14q0 8 8 6q6 -2 6 -9l-2 -13q-2 -8 -9 -6q-6 0 -6 8zM70 -24 q-2 7 5 9q7 3 9 -4l4 -13q3 -6 -4 -10q-7 -2 -9 5zM73 166l4 14q2 7 9 5q7 -3 5 -10l-4 -13q-2 -7 -9 -5t-5 9zM86 -62q-4 6 3 10q7 2 10 -3l7 -12q4 -6 -3 -10q-6 -4 -10 2zM86 205l6 13q4 7 10 4t3 -10l-5 -12q-3 -6 -10 -4q-9 2 -4 9zM104 243l6 12q4 7 10 3q7 -4 3 -10 l-6 -12q-3 -6 -10 -3q-6 3 -3 10zM110 -97q-6 6 1 10q5 5 10 0l9 -10q5 -5 0 -10q-4 -6 -10 0zM125 278l7 12q5 5 11 2q5 -5 2 -11l-8 -11q-4 -6 -10 -2t-2 10zM140 -114q4 6 10 2l11 -7q5 -3 3 -11q-4 -6 -10 -2l-12 7q-7 5 -2 11zM149 312l9 10q4 7 10 1q6 -5 1 -10 l-9 -10q-6 -5 -10 -1q-7 4 -1 10zM175 -133q5 7 9 4l13 -3q7 -2 5 -10q0 -7 -8 -5l-14 4q-7 3 -5 10zM176 332q-6 6 0 11l9 10q5 5 11 0q4 -5 -1 -10l-9 -10q-4 -7 -10 -1zM197 100q0 2 0.5 7t1.5 8q2 8 9 6q6 -3 5 -9q-1 -4 -1 -13q0 -5 -8 -7q-7 0 -7 8zM199 72q-3 7 5 9 q8 0 9 -6l3 -11q3 -4 -2 -9t-11 2zM205 361q-5 5 0 10l11 9q5 5 10 0q4 -6 -1 -11l-10 -9q-6 -4 -10 1zM207 141q0 2 6 13q4 7 10 4q6 -4 3 -10l-6 -12q-1 -6 -9 -4q-7 2 -4 9zM214 -142q2 7 8 7h13q8 0 8 -8q0 -7 -7 -7l-15 1q-7 0 -7 7zM222 46q4 6 10 4l10 -3q7 0 7 -6 q2 -8 -7 -8l-16 4q-9 2 -4 9zM225 179l9 11q4 6 10 2q5 -5 2 -10l-8 -11q-3 -6 -10 -3q-6 4 -3 11zM235 387q-3 7 1 11l12 8q6 4 10 -2q6 -6 -1 -10l-12 -8q-5 -4 -10 1zM250 212l9 10q6 6 11 1q4 -7 0 -11l-9 -10q-4 -5 -10 -1q-6 6 -1 11zM255 -141q-2 7 6 9l13 3 q5 2 9 -6q2 -6 -6 -8l-14 -3q-8 -2 -8 5zM261 43q-2 8 5 8l6 3t5 3q6 4 10 -3q3 -7 -3 -10q-1 0 -6 -2.5t-8 -3.5q-7 -2 -9 5zM268 411q-3 5 3 10l11 7q7 5 10 -2q4 -6 -2 -10l-11 -8q-6 -3 -11 3zM278 231q-6 5 0 11l11 9q5 5 10 -1q4 -5 -1 -10l-10 -9q-6 -6 -10 0z M297 60q-5 6 1 10l10 9q5 5 10 0q6 -5 0 -11l-11 -9q-6 -6 -10 1zM302 433q-5 7 4 9l12 6q7 3 10 -3t-3 -10l-12 -6q-8 -2 -11 4zM308 257q-3 7 2 11l12 8q6 4 10 -3q4 -6 -3 -10l-11 -7q-4 -4 -10 1zM326 97l9 10q5 5 11 1t0 -10l-9 -11q-5 -5 -10 0t-1 10zM339 450 q-3 6 4 10l13 6q7 2 9 -5q4 -7 -4 -9l-12 -6q-7 -2 -10 4zM342 279q-4 6 3 10l13 6q8 2 10 -4q2 -8 -4 -10l-12 -5q-7 -3 -10 3zM351 128l9 11q4 5 10 1q7 -4 1 -10l-8 -11q-1 -3 -4.5 -3.5t-5.5 1.5q-5 5 -2 11zM369 78q0 10 1 15q2 8 8 6q7 -2 7 -8q-1 -4 -1 -13 q0 -7 -7 -7q-8 -2 -8 7zM374 160l8 11q3 6 10 3q0 -1 1 -1q2 6 9 4q6 -4 4 -10l-5 -13q-2 -6 -9 -4q-4 0 -4 3l-1 -1q-5 -5 -11 -2q-6 4 -2 10zM374.5 55q1.5 3 4.5 4q4 2 9 -3q1 -1 3 -3.5t4 -2.5q5 -2 3 -10q0 -7 -10 -3q-5 1 -12 12q-3 3 -1.5 6zM375 120l4 13q2 8 9 5 q7 -2 5 -9l-3 -13q-2 -7 -9 -5q-8 2 -6 9zM377 465q-4 7 5 9l13 4q7 2 9 -5t-5 -9l-13 -4q-7 -2 -9 5zM379 294q-2 7 5 9l14 3q9 2 9 -6t-6 -8l-13 -3q-7 -2 -9 5zM396 194l6 12q2 3 5 3l1 1q2 9 9 4q7 -4 4 -10l-5 -12q-3 -5 -7 -5l-1 -1q-4 -6 -10 -2t-2 10zM410 40 q0 8 6 8l12 5q6 2 9 -4q3 -7 -3 -10l-15 -5q-7 -2 -9 6zM416 476q-2 6 6 8l14 2q6 0 8 -6q0 -7 -6 -9l-14 -1q-8 -2 -8 6zM419 235l6 12q2 6 9 4q8 -4 4 -10l-6 -13q-4 -6 -10 -3q-6 4 -3 10zM419 301q-2 8 7 8l14 -1q9 0 7 -8q-2 -7 -8 -7l-13 1q-7 0 -7 7zM437 271l6 13 q4 6 10 3q7 -4 3 -10l-6 -12q-3 -6 -10 -4q-7 4 -3 10zM447 56q-4 5 2 9l10 9q5 5 11 -1q4 -5 -1 -10l-11 -9q-6 -5 -11 2zM456 481q0 8 7 8h14q7 0 7 -8q0 -7 -7 -7l-14 1q-7 -2 -7 6zM478 82q-5 5 0 10l10 10q4 6 10 0q5 -4 1 -10l-10 -10q-5 -6 -11 0zM496 481q2 7 8 7 q8 0 15 -3q7 -2 5 -9t-8 -5q-8 2 -13 2q-7 0 -7 8zM505 122l8 10q4 5 11 2q4 -4 1 -11l-9 -11q-4 -5 -10 -1q-6 6 -1 11zM529 153l8 12q5 5 10 1q7 -3 2 -10l-8 -11q-1 -3 -4.5 -3.5t-5.5 1.5q-5 5 -2 10zM536 473q2 7 9 5q10 -2 14 -5q7 -4 3 -10q-3 -7 -9 -3q-8 4 -12 4 q-7 2 -5 9zM552 186l7 12q3 6 10 3q7 -4 3 -10l-8 -12q-3 -6 -10 -3q-5 5 -2 10zM572 221l6 12q3 6 10 4q6 -4 3 -10l-6 -13q-4 -7 -10 -3q-7 4 -3 10zM573 457q4 6 10 2q5 -2 11 -10q6 -6 0 -10q-5 -5 -10 0l-4 4t-5 4q-6 3 -2 10zM589 257l5 13q1 6 9 4q9 -2 4 -9l-5 -13 q-2 -9 -9 -4q-9 2 -4 9zM600 420q-2 6 2 10q2 2 6 1.5t5 -3.5l6 -14q2 -7 -4 -10q-6 -2 -10 4zM602 295l4 13q2 7 9 5t5 -9l-4 -14q-2 -7 -9 -5q-7 3 -5 10zM611 333l2 13q0 7 8 7t6 -8l-1 -14q-2 -8 -9 -6q-6 0 -6 8zM612 385q0 6 7 8q6 2 8 -6l1 -14q0 -8 -7 -8q-8 0 -8 7 z" />
<glyph unicode="A" horiz-adv-x="492" d="M22 147v14q-1 3 1.5 5.5t5.5 1.5q7 0 7 -7l1 -13q0 -6 -7 -8q-6 0 -8 7zM23 188l2 14q0 7 8 7q8 -2 6 -9l-1 -13q-2 -7 -8 -7q-7 2 -7 8zM26 119q0 9 6 9q7 2 9 -5q0 -1 3 -13q2 -7 -4 -9q-7 -3 -10 5zM29 229l4 14q2 7 9 5t5 -9l-3 -13q-2 -7 -9 -5q-8 0 -6 8zM41 269 l4 13q4 7 10 4q6 -1 4 -9l-4 -13q-4 -7 -10 -4q-8 2 -4 9zM42 80q-3 6 2 10q7 3 10 -3q1 -2 4 -5.5t3 -4.5q6 -6 -1 -10q-1 -2 -4.5 -2t-5.5 3q-5 5 -8 12zM56 307l6 13q2 8 9 3q6 -3 4 -9l-6 -13q-2 -6 -9 -4q-7 4 -4 10zM69 59q5 5 10 2q2 -2 6 -3.5t5 -2.5q6 -2 4 -9 q-1 -7 -9 -5q-2 1 -7 3t-7 4q-6 6 -2 11zM74 344l7 12q4 7 10 3q8 -4 2 -10l-6 -12q-3 -6 -10 -3q-6 4 -3 10zM95 379l8 12q4 6 10 2q5 -5 2 -11l-7 -11q-5 -5 -11 -2q-6 4 -2 10zM106 44q2 6 8 6h13q6 1 8 -7q0 -7 -7 -7l-15 -1q-7 0 -7 9zM119 413l8 11q4 5 10 1t2 -10 l-8 -11q-4 -5 -11 -2q-5 5 -1 11zM145 434q-5 5 0 10l9 11q4 6 10 0q5 -4 1 -10l-9 -10q-6 -6 -11 -1zM146 46q-2 7 5 9q5 0 13 4q7 2 9 -4q3 -6 -4 -10q-8 -4 -14 -4q-7 -2 -9 5zM172 464q-5 5 0 10l10 10q6 6 11 0q4 -6 -1 -11l-9 -9q-5 -6 -11 0zM184 60q-4 6 3 10l12 6 q6 4 10 -2q3 -6 -2 -10l-13 -7q-7 -3 -10 3zM201 492q-4 6 1 10l11 9q6 6 10 -1q6 -6 -1 -10l-10 -9q-6 -4 -11 1zM219 81q-4 6 2 10l10 8q6 4 11 -1q4 -6 -2 -11l-11 -8q-6 -6 -10 2zM233 518q-5 4 1 10l12 8q6 4 10 -2q4 -7 -2 -10l-11 -8q-7 -4 -10 2zM251 105q-5 5 0 11 l10 9q5 5 11 -1q5 -4 -1 -10l-10 -9q-6 -6 -10 0zM266 540q-3 7 3 10l12 7q7 3 10 -2q4 -8 -3 -11l-12 -6q-6 -4 -10 2zM280 133q-5 5 0 10l10 10q4 5 10 1q6 -6 0 -11l-9 -10q-5 -5 -11 0zM302 560q-3 7 3 10l13 6q8 2 9 -4q3 -6 -3 -10l-13 -6q-7 -2 -9 4zM307 173l9 10 q6 5 10 1q7 -4 1 -10l-9 -11q-4 -5 -10 -1q-5 5 -1 11zM331 68q0 8 7 8q8 2 8 -6v-5.5t2 -5.5q4 -6 -3 -9q-5 -5 -11 3zM332 96l2 14q2 8 9 6q6 -2 6 -9l-3 -13q0 -6 -8 -6t-6 8zM333 204l8 10q4 5 11 2q5 -5 1 -10l-9 -11q-1 -3 -4.5 -3.5t-5.5 1.5q-5 5 -1 11zM339 576 q-4 7 4 9l13 5q8 2 10 -5t-5 -9l-13 -5q-7 -2 -9 5zM341 136l4 14q2 8 9 4q7 -2 5 -9l-4 -13q-2 -7 -9 -5t-5 9zM352 41q5 5 10 5l11 -3q7 -5 7 -7q0 -3 -2.5 -6t-5.5 -2l-15 4q-8 3 -5 9zM354 175l5 13q2 8 9 4q9 -2 4 -9l-4 -13q-4 -7 -10 -4q-8 2 -4 9zM357 236l8 11 q4 6 10 2q5 -4 2 -11l-8 -11q-4 -6 -10 -2q-5 4 -2 11zM368 213l6 12q2 8 9 4q9 -2 4 -9l-5 -13q-4 -7 -10 -4q-6 2 -4 10zM377 588q-2 7 6 9l14 3q6 2 8 -6q2 -7 -6 -9l-13 -2q-7 -2 -9 5zM384 250l5 12q4 7 10 4q6 -2 4 -9l-6 -13q-2 -9 -9 -4q-7 4 -4 10zM391 38 q-1 6 5 9l11 6q7 2 10 -3q5 -6 -3 -10l-13 -7q-8 -4 -10 5zM400 287l5 12q4 7 10 4t4 -10l-6 -12q-2 -8 -10 -4q-6 4 -3 10zM416 323l5 13q4 7 10 4q6 -4 4 -10l-6 -12q-4 -7 -10 -4q-7 2 -3 9zM417 596q-2 6 7 8l14 1q7 0 7 -7q0 -6 -7 -8l-13 -1q-8 0 -8 7zM427 56 q-3 7 1 10l11 9q6 4 10 -1q6 -6 -1 -11l-11 -8q-6 -6 -10 1zM431 360l6 13q2 6 9 4q7 -4 4 -10l-5 -13q-4 -6 -10 -3q-6 2 -4 9zM447 397l5 13q3 6 10 4q7 -4 4 -10l-5 -13q-4 -6 -10 -3q-6 1 -4 9zM457 598q0 9 8 7l14 -1q7 0 7 -8q-2 -6 -8 -6l-14 1q-7 0 -7 7zM458 81 q-4 4 0 11l10 9q6 6 10 0q5 -5 0 -10l-9 -10q-5 -5 -11 0zM463 434l5 13q3 6 10 4q6 -3 4 -10l-6 -13q-2 -6 -9 -4q-7 4 -4 10zM478 471l6 13q2 6 9 4q7 -4 4 -10l-5 -13q-4 -6 -10 -4q-6 4 -4 10zM486 120l9 10q5 5 11 1q6 -5 0 -11l-9 -10q-5 -5 -10 0q-7 4 -1 10z M494 508l5 13q4 6 10 4q6 -3 4 -10l-6 -13q-2 -6 -9 -4q-7 4 -4 10zM497 594q2 8 10 6q2 -1 7 -2.5t7 -2.5q7 -4 3 -10q-3 -6 -9 -4l-12 4q-6 3 -6 9zM509 545l6 13q2 6 9 4q7 -4 4 -10l-5 -13q-4 -6 -10 -4q-6 4 -4 10zM513 139q-5 5 0 11l9 10q4 7 10 1q5 -5 1 -10l-9 -11 q-4 -4 -11 -1z" />
<glyph unicode="B" horiz-adv-x="469" d="M26 55l6 13q2 6 9 4q7 -4 4 -10l-5 -13q-4 -6 -10 -4q-6 4 -4 10zM42 92l5 13q3 6 10 4q6 -4 4 -10l-6 -13q-2 -6 -9 -3q-8 2 -4 9zM57 129l6 13q1 6 9 4q7 -4 4 -10l-5 -13q-4 -6 -10 -3q-6 1 -4 9zM73 166l5 13q3 6 10 4q6 -4 4 -10l-6 -13q-2 -7 -9 -3q-8 2 -4 9z M73 553q4 6 10 11t11 0q4 -6 -1 -10q-6 -6 -8 -10q-5 -5 -10 -1q-8 4 -2 10zM88 203l6 13q1 6 9 4q7 -4 4 -10l-5 -13q-4 -6 -10 -3q-6 1 -4 9zM103 570q-4 8 3 10l13 7q7 2 10 -4q2 -6 -4 -10l-12 -5q-5 -3 -10 2zM104 240l5 13q3 6 10 4q6 -4 4 -10l-6 -13q-2 -7 -9 -3 q-8 2 -4 9zM119 277l6 13q1 6 9 4q7 -4 4 -10l-5 -12q-4 -7 -10 -4q-6 1 -4 9zM126 82q0 4 2.5 7t5.5 1q8 -4 6 -7q2 -6 4 -9q4 -4 -1 -9q-6 -6 -11 1q-6 8 -6 16zM135 314l5 13q3 6 10 4q6 -4 4 -10l-6 -12q-2 -9 -9 -4q-8 2 -4 9zM140 587q-2 7 5 9l14 3q7 2 9 -6 q0 -7 -6 -9l-13 -2q-7 -2 -9 5zM150 351l6 13q1 6 9 4l3 -3l7 12q4 6 10 3q6 -6 3 -11l-7 -11q-4 -7 -10 -3q-1 0 -3 2l-4 -11q-4 -7 -10 -4q-6 1 -4 9zM152 57q3 5 10 3l11 -6q7 -4 4 -10q-1 -6 -9 -4l-13 7q-7 4 -3 10zM166 388l5 13q2 6 9 4q7 -4 4 -10l-5 -12 q-2 -9 -9 -4q-8 2 -4 9zM179 594q0 8 8 8l14 -2q8 0 6 -9q-2 -6 -8 -5l-13 1q-7 0 -7 7zM181 425l5 13q4 7 10 4t4 -10l-5 -12q-4 -7 -10 -4q-9 2 -4 9zM189 40q2 7 9 5l13 -3q7 -2 5 -8q0 -8 -8 -6l-14 3q-8 2 -5 9zM189 400l7 12q4 7 10 3q7 -5 2 -11l-7 -11q-3 -6 -10 -3 q-7 5 -2 10zM196 462l5 13q4 7 10 4q9 -2 4 -9l-5 -13q-4 -7 -10 -4q-6 2 -4 9zM211 435l7 12q5 5 11 2q6 -4 2 -10l-8 -12q-4 -6 -10 -2q-8 4 -2 10zM211 500l5 12q4 7 10 4q6 -1 4 -9l-5 -13q-4 -7 -10 -4t-4 10zM218 587q3 7 11 3l5.5 -5.5t5.5 -7.5q4 -9 -4 -11 q-8 0 -9 4q-1 2 -3.5 4.5l-3.5 3.5q-6 4 -2 9zM226 537l3 12q2 6 8 6q8 0 6 -9l-4 -14q-2 -7 -9 -5q-7 4 -4 10zM228 32q2 6 8 6l14 -1q7 0 7 -7q0 -9 -8 -7l-14 1q-7 0 -7 8zM234 469l8 12q6 5 10 1q6 -3 2 -10l-8 -11q-4 -6 -10 -2q-6 3 -2 10zM259 502l9 11q4 7 10 1 t1 -10l-8 -11q-6 -6 -11 -1q-7 4 -1 10zM269 30q0 7 7 7l13 1q6 2 8 -6t-7 -8l-14 -1q-3 -1 -5 1.5t-2 5.5zM271 298q-4 7 4 9l13 6q7 2 9 -5q1 0 1 -2q1 0 1 -2q3 -7 -5 -9l-13 -4q-7 -2 -9 5q-1 1 -1 2zM286 534l10 10q5 5 11 -1q2 -1 1.5 -4.5t-2.5 -5.5l-9 -10 q-6 -4 -10 0q-5 5 -1 11zM309 34q-2 7 5 9l13 3q7 2 9 -5q3 -6 -5 -10l-13 -3q-7 -2 -9 6zM309 311q-2 7 5 9l14 3q4 1 6 -1q3 -2 3 -3q4 -8 -3 -10l-14 -5q-5 -4 -9 4q-2 2 -2 3zM316 552q-6 6 0 11l12 8q6 6 10 -1q3 -7 -1 -11l-11 -8q-6 -4 -10 1zM348 45q-4 7 4 9l12 6 q6 4 10 -3q3 -6 -4 -10l-12 -6q-8 -4 -10 4zM348 324q-2 7 3 10l12 7q6 4 10 -2q3 -6 -2 -11l-4 -2h3q9 -2 7 -9q-2 -8 -8 -6h-13q-7 0 -7 7q0 3 1 4zM348 577q-4 6 3 10l13 7q7 5 9 -4q3 -6 -3 -10l-12 -6q-6 -4 -10 3zM383 346q-4 6 2 10l10 8q5 5 11 -1q4 -5 -1 -10 l-11 -9q-7 -3 -11 2zM384 63q-4 7 2 10l10 8q6 6 10 -1q6 -6 0 -11l-12 -8q-6 -4 -10 2zM385 594q-2 7 6 9l15 2q9 0 7 -7q0 -8 -7 -8l-12 -1q-7 -2 -9 5zM389 315q2 8 9 5l14 -6q7 -2 3 -10q-3 -5 -10 -3l-11 5q-6 3 -5 9zM414 99l8 10q5 5 11 2q7 -4 1 -10l-8 -12 q-6 -5 -11 0q-4 4 -1 10zM415 372q-4 4 0 10l9 10q4 5 10 1q6 -6 1 -11l-10 -10q-3 -7 -10 0zM425 287q-5 5 0 10q4 6 11 1l9 -12q6 -6 -1 -10q-6 -3 -11 2zM426 596q0 8 9 6q3 -1 14 -5q6 -5 3 -10q-3 -6 -10 -4q-5 4 -11 5q-7 0 -5 8zM435 131l6 12q2 8 9 4q7 -2 5 -9 l-6 -13q-4 -8 -10 -4q-6 3 -4 10zM440 413l8 11q4 5 10 2q7 -5 2 -10l-8 -12q-4 -6 -10 -2q-5 5 -2 11zM445 256q-2 7 4 9q7 3 10 -3q1 -2 2.5 -7t2.5 -7q2 -9 -6 -9q-7 -2 -9 5q-3 10 -4 12zM449 168l3 12q2 8 8 6q8 0 6 -8l-3 -14q-2 -8 -9 -5q-7 2 -5 9zM453 219q0 6 7 8 q8 0 8 -7l1 -14q0 -8 -8 -8q-7 2 -7 8zM459.5 573.5q0.5 3.5 2.5 5.5q5 5 11 -1l8 -13q5 -7 -3 -9q-6 -3 -10 3l-7 10q-2 1 -1.5 4.5zM460 447l5 12q4 7 10 4q8 -2 4 -9l-5 -14q-4 -7 -10 -3q-6 3 -4 10zM473 484l3 13q0 6 8 6q7 0 7 -8l-3 -14q-2 -8 -9 -6q-8 2 -6 9z M476 535q0 7 5 9q8 2 10 -6l1 -15q0 -8 -7 -8q-6 2 -8 7z" />
<glyph unicode="C" horiz-adv-x="369" d="M24 161q-2 8 7 8q6 0 8 -7l1 -13q2 -7 -6 -9q-8 0 -8 7zM25 188v14q0 7 8 7q7 -2 7 -8l-1 -14q0 -7 -7 -7q-9 0 -7 8zM29 229l2 14q2 7 9 5q6 0 6 -8l-3 -14q0 -6 -8 -6q-8 2 -6 9zM30 120q-3 7 6 9q6 2 8 -6l5 -12q2 -7 -5 -9q-7 -4 -9 4zM37 269l4 13q2 7 9 5t5 -9 l-4 -13q-2 -7 -9 -5t-5 9zM45 81q-4 6 3 10q7 2 10 -3l8 -10q4 -5 -2 -11q-2 -2 -5.5 -1.5t-4.5 3.5zM49 308l5 13q2 6 9 4q7 -3 5 -10l-5 -12q-3 -7 -10 -5q-7 4 -4 10zM64 346l5 12q4 8 10 4q7 -4 4 -10l-6 -12q-2 -8 -9 -4q-8 2 -4 10zM72 59q5 5 10 1l11 -8q5 -4 1 -10 q-1 -3 -4 -3.5t-5 1.5l-12 9q-7 4 -1 10zM81 382l7 13q4 6 9 3q6 -3 4 -10l-7 -13q-2 -7 -9 -3q-6 3 -4 10zM101 418l8 11q3 6 10 3q5 -5 2 -11l-7 -11q-4 -7 -10 -3q-6 5 -3 11zM105 37q3 7 10 5l12 -4q7 -3 5 -10t-9 -5l-14 5q-8 2 -4 9zM123 452l9 11q4 7 10 1 q6 -4 2 -10l-9 -11q-4 -7 -10 -1q-6 3 -2 10zM144 27q0 7 8 7l13 -1q7 -2 7 -8q0 -7 -8 -7l-14 1q-8 0 -6 8zM148 484l9 11q5 5 11 0q5 -5 0 -10l-9 -10q-1 -3 -4.5 -3.5t-5.5 1.5q-5 5 -1 11zM176 504q-6 4 0 10l9 10q5 6 11 0q4 -4 -1 -10l-9 -10q-5 -5 -10 0zM184 24 q0 8 6 8l14 2q6 2 8 -6q2 -6 -6 -8l-14 -2q-8 -2 -8 6zM205 531q-6 6 1 11l10 9q7 3 11 -2q4 -6 -2 -10l-10 -9q-6 -4 -10 1zM223 30q-2 7 6 9l12 4q7 4 9 -4q3 -6 -4 -10l-14 -5q-7 -2 -9 6zM236 556q-4 6 2 10l13 7q6 6 9 -2q3 -7 -2 -10l-12 -7q-6 -4 -10 2zM261 43 q-2 8 4 9l12 7q6 4 10 -3q3 -6 -3 -10q-5 -4 -13 -7q-6 -3 -10 4zM270 577q-2 8 4 9l13 6q8 2 10 -5t-4 -9l-13 -5q-7 -2 -10 4zM297 62q-6 6 2 10l11 7q4 5 10 -1q4 -6 -2 -11l-11 -8q-7 -3 -10 3zM308 592q-2 7 5 9l14 3q7 2 9 -6q0 -7 -6 -9l-13 -2q-7 -2 -9 5zM329 85 q-4 6 1 10l10 9q6 6 11 0q4 -6 -1 -11l-10 -9q-6 -4 -11 1zM344 393q-5 7 3 9l10 8q5 4 10 -1t-1 -10l-11 -9q-8 -4 -11 3zM347 598q0 8 8 8q7 0 15 -3q8 -2 5 -9t-9 -5q-8 2 -12 2q-7 0 -7 7zM359 112q-5 5 0 10l10 10q5 5 10 0q5 -6 0 -11l-9 -9q-6 -6 -11 0zM374 428 l7 11q4 6 10 2q6 -3 3 -10l-8 -12q-6 -6 -11 -1q-5 6 -1 10zM385 588q4 7 11 2l10 -12q7 -5 -2 -10q-5 -3 -10 2l-8 9q-4 4 -1 9zM387 140q-5 6 0 11l9 10q6 5 11 0q6 -4 0 -10l-9 -10q-5 -5 -11 -1zM393 461l5 13q2 6 9 4t5 -9l-5 -14q-4 -7 -10 -3q-7 4 -4 9zM404 498 l2 13q0 7 8 7q7 -2 7 -8l-2 -15q-2 -8 -9 -6q-8 2 -6 9zM404 548q-2 7 5 9q7 3 9 -5l3 -15q0 -8 -7 -8q-8 0 -8 7z" />
<glyph unicode="D" horiz-adv-x="560" d="M21 47q-2 10 6 10q8 -2 8 -5q1 -2 3 -4.5t3 -3.5q4 -4 2 -9q-4 -7 -11 -2q-10 9 -11 14zM26 72.5q-1 3.5 1 5.5l12 12q9 4 11 -4t-3 -8l-8 -8q-6 -4 -9 -2q-3 1 -4 4.5zM54 31q2 8 8 6q6 -1 12 0q6 2 8 -6q2 -7 -7 -9h-15q-8 2 -6 9zM61 89q0 7 8 7l15 -2q7 -2 5 -9 t-8 -5l-13 1q-7 2 -7 8zM93 33q-2 7 5 10l12 4q7 2 10 -3q4 -8 -4 -10l-13 -5q-8 -4 -10 4zM101 81q2 7 9 5l13 -4q7 -4 4 -10q-2 -6 -9 -4l-13 4q-9 2 -4 9zM128 61l8 11q4 5 10 2l1 -1h1l13 -4q7 -3 5 -10q-4 -7 -10 -4l-12 4l-5 -7q-4 -7 -10 -1q-5 5 -1 10zM137 476v15 q3 8 10 6t5 -9q-1 -2 -1 -11q0 -6 -7 -8q-3 -1 -5 1t-2 6zM148 518l8 12q3 6 10 2q5 -5 1 -10l-6 -11q-4 -6 -11 -3q-5 4 -2 10zM149 94l6 12q3 6 10 3q7 -2 3 -10l-6 -12q-4 -7 -10 -3q-7 4 -3 10zM167 130l5 12q4 7 10 4q6 -4 4 -10l-6 -12q-4 -7 -10 -4t-3 10zM175 540 q-5 6 0 11l11 9q6 3 11 -3q4 -5 -2 -9q-7 -3 -10 -8q-6 -6 -10 0zM177 56q2 7 9 5l13 -4q7 0 5 -8q0 -8 -9 -6l-13 4q-7 2 -5 9zM183 166l5 13q2 8 9 4q9 -2 4 -9l-5 -13q-2 -8 -10 -4q-7 2 -3 9zM198 204l5 12q2 7 9 5q7 -4 4 -10l-5 -13q-2 -6 -9 -4q-7 4 -4 10zM207 564 q-4 6 3 10q2 2 13 6q7 2 10 -5q2 -5 -4 -9q-9 -2 -13 -5q-6 -4 -9 3zM212 241l5 13q4 7 10 4q6 -2 4 -9l-5 -13q-4 -7 -10 -4q-6 2 -4 9zM216 46q2 8 8 6q10 -2 14 -2q6 -2 6 -8q0 -7 -8 -7q-6 0 -14 2t-6 9zM227 279l5 13q2 6 9 4q7 -4 4 -10l-5 -13q-2 -6 -9 -4 q-7 4 -4 10zM241 316l5 13q4 7 10 4q6 -2 4 -9l-5 -13q-4 -7 -10 -4q-6 1 -4 9zM244 579q-4 8 4 10q6 2 14 4q7 2 9 -6t-6 -8l-12 -4q-7 -2 -9 4zM256 41q0 8 8 6l13 -1q7 -2 7 -7q0 -8 -7 -8l-14 2q-9 0 -7 8zM256 354l5 13q2 6 9 4q7 -3 5 -10l-6 -13q-2 -6 -9 -4 q-7 4 -4 10zM271 391l5 13q4 7 10 4t4 -10l-5 -12q-4 -7 -10 -4q-8 2 -4 9zM283 589q-2 8 6 8l14 2q6 2 8 -6q0 -8 -7 -8l-13 -2q-8 -2 -8 6zM287 428l6 13q2 6 9 4q7 -4 4 -10l-6 -13q-2 -7 -9 -3q-9 2 -4 9zM296 39q0 8 7 8l13 1q8 2 8 -6q2 -8 -6 -8l-14 -1q-8 -2 -8 6z M304 465l6 13q4 7 10 3q7 -4 3 -10l-6 -12q-2 -6 -9 -4q-7 4 -4 10zM323 501l7 12q4 7 10 3q6 -5 3 -10l-7 -12q-4 -7 -10 -3q-7 4 -3 10zM323 594q-2 8 7 8h14q3 1 5 -1.5t2 -5.5q0 -7 -7 -7l-14 -1q-7 0 -7 7zM336 43q-2 7 6 9l13 3q5 2 9 -6q2 -6 -6 -8l-13 -4 q-7 -2 -9 6zM345 536l9 11q5 5 11 1q5 -6 0 -11l-8 -10q-4 -6 -10 -2q-5 5 -2 11zM363 595q0 7 7 7l15 -1q8 0 6 -8q0 -7 -8 -7l-13 1q-7 0 -7 8zM375 53q-3 6 4 10l12 5q6 3 10 -4q3 -5 -4 -9l-13 -6q-8 -2 -9 4zM403 591q0 8 8 6l14 -3q8 -2 6 -9q-3 -6 -9 -5l-13 3 q-8 0 -6 8zM411 70q-3 6 3 11l11 6q7 3 10 -1q5 -7 -2 -11l-12 -7q-6 -4 -10 2zM442 582q2 7 10 5l13 -6q6 -4 3 -10t-9 -4l-13 6q-6 2 -4 9zM444 93q-4 7 2 10l10 9q5 4 10 -1t0 -10l-11 -9q-5 -5 -11 1zM474 130l10 10q4 5 10 1q5 -5 1 -11l-10 -10q-6 -6 -10 0 q-5 4 -1 10zM479 566q3 5 10 2l12 -8q7 -4 1 -10q-4 -6 -10 -2l-11 7q-5 5 -2 11zM500 160l8 11q4 5 10 2q6 -4 2 -11l-8 -11q-6 -6 -11 -1q-7 4 -1 10zM511 532q-5 5 0 10q5 6 11 0l10 -10q4 -6 -1 -10q-6 -6 -10 0zM522 193l7 11q3 6 10 3q5 -3 3 -10l-7 -12q-6 -6 -11 -2 q-5 3 -2 10zM537 502q-6 6 1 10q6 4 11 -1q3 -4 7 -12q4 -6 -2 -10q-6 -3 -10 2q-4 8 -7 11zM541 227l5 13q2 6 10 4q6 -4 4 -10l-6 -13q-3 -6 -10 -3t-3 9zM556 264l4 13q2 7 9 5t5 -9l-4 -14q-4 -7 -10 -4q-8 2 -4 9zM556 469q-2 6 4 9q6 4 10 -3l4 -14q4 -7 -4 -9 q-7 -2 -9 4zM567 302l2 13q2 8 9 6q6 -1 6 -9l-3 -13q-2 -8 -9 -6t-5 9zM568 432q0 8 6 9q7 2 9 -6l2 -14q2 -8 -6 -8q-6 -2 -8 6zM573 341l1 13q0 7 8 7q7 0 7 -8l-1 -14q0 -8 -8 -6q-7 0 -7 8zM574 393q0 8 7 8q6 2 8 -7v-14q2 -7 -6 -7t-8 7z" />
<glyph unicode="E" horiz-adv-x="394" d="M10 116v15q0 7 8 7q8 -2 6 -8q0 -9 1 -13q0 -6 -7 -8q-8 0 -8 7zM14 89q-2 7 6 9q6 1 8 -5q1 -3 2.5 -7t1.5 -6q4 -5 -4 -9q-7 -4 -9 4q-4 11 -5 14zM14 158q2 10 4 14q2 9 9 4q7 -2 5 -9q-2 -4 -4 -12t-9 -6t-5 9zM29 197l7 13q4 6 10 2q5 -5 2 -10l-6 -12q-4 -7 -10 -3 q-6 3 -3 10zM31 51q-4 6 3 10q6 4 10 -2q4 -8 7 -10q5 -5 0 -10t-11 0q-3 2 -9 12zM51 232l10 10q4 7 10 1q4 -4 1 -11l-9 -10q-6 -4 -10 -1q-5 4 -2 11zM59 31q6 6 11 2l11 -7q6 -2 3 -9q-2 -8 -10 -4l-12 8q-6 3 -3 10zM79 251q-4 6 1 10l11 9q6 6 10 -1q6 -6 -1 -10 l-10 -9q-6 -4 -11 1zM95 13q2 7 9 5l13 -3q6 0 6 -8q-2 -7 -9 -6l-14 3q-7 2 -5 9zM110 276q-4 6 2 10l12 8q7 3 10 -3q3 -5 -2 -10l-11 -7q-6 -3 -11 2zM134 6q2 7 8 7h13q8 0 8 -7q0 -6 -7 -8h-14q-8 2 -8 8zM145 297q-4 6 3 10l13 6q7 2 9 -4q3 -6 -3 -10l-13 -5 q-7 -5 -9 3zM174 7q0 8 7 8l13 3q8 2 8 -6q2 -7 -5 -9l-14 -2q-7 -2 -9 6zM181 313q-3 6 4 10l14 4q7 3 9 -5q2 -6 -5 -9l-13 -4q-7 -2 -9 4zM185 435v14q0 8 7 8q8 -2 8 -8v-13q0 -6 -7 -8q-8 0 -8 7zM187 477l3 14q2 7 9 5t5 -9l-2 -13q-2 -6 -9 -6q-6 2 -6 9zM188 408 q0 8 6 9q8 0 9 -6l2 -13q2 -7 -5 -9t-9 5zM198 517l6 13q3 6 10 3q6 -4 3 -10l-5 -12q-4 -6 -10 -4q-8 2 -4 10zM199 368q-2 8 5 10q5 1 9 -4l5 -12q3 -7 -3 -10q-6 -4 -10 3zM214 14q-2 8 5 10l13 4q7 2 9 -5t-5 -9l-13 -5q-7 -2 -9 5zM218 553l10 11q5 7 10 0q5 -5 0 -10 l-8 -10q-4 -5 -10 -1q-6 3 -2 10zM219 332q-5 5 2 10q7 3 10 -2l8 -10q4 -6 0 -10q-5 -6 -11 0zM245.5 306.5q-0.5 3.5 1.5 5.5q5 5 10 2q1 -1 5 -3l6 -3q6 -3 4 -10q-2 -6 -10 -4q-5 2 -13 8q-3 1 -3.5 4.5zM245.5 577.5q0.5 3.5 3.5 4.5l13 7q7 3 10 -3q2 -7 -3 -10 l-12 -6q-7 -2 -10 2q-2 2 -1.5 5.5zM252 27q-4 7 4 9l12 5q7 3 10 -3t-4 -10l-13 -5q-7 -4 -9 4zM258 332q0 7 7 9q2 0 6.5 1t7.5 0q8 0 8 -8q-2 -7 -8 -7q-2 1 -6.5 0t-6.5 -1q-6 0 -8 6zM283 295q2 8 8 6l13 -1q7 -2 7 -7q1 -3 -1.5 -6t-5.5 -2l-15 2q-8 0 -6 8zM283 590 q-3 7 5 9l14 3q8 2 8 -7q2 -7 -6 -7l-13 -3q-6 -2 -8 5zM288 43q-3 6 3 10l12 6q7 3 10 -2q3 -6 -2 -11l-13 -6q-6 -4 -10 3zM298 333q2 7 9 7l15 -6q8 -2 3 -9q-4 -6 -10 -4l-11 4q-6 1 -6 8zM322 596q0 8 8 8l14 -2q8 -2 6 -8q-2 -7 -8 -7l-13 2q-7 0 -7 7zM323 63 q-4 6 2 10l12 7q5 4 10 -1q3 -6 -2 -11l-12 -8q-6 -4 -10 3zM323 295q-2 4 1 10q6 2 4 5l2 3q1 3 3 4q3 2 6.5 0t2.5 -7q1 -10 -9 -17q-3 -3 -6 -2t-4 4zM356 85q-4 7 1 10l11 9q4 4 10 -1q4 -5 -1 -10l-10 -9q-7 -5 -11 1zM361 591q2 7 10 5l13 -5q7 -5 4 -11q-6 -6 -10 -3 l-12 5q-7 2 -5 9zM387 111q-5 5 0 10l10 10q4 6 10 0q5 -5 0 -11l-10 -10q-6 -6 -10 1zM397 574q5 7 11 0l10 -11q4 -9 -3 -11t-9 3l-8 9q-5 5 -1 10zM414 150l9 10q5 6 10 1q6 -5 1 -10l-9 -11q-4 -7 -10 -1q-4 4 -1 11z" />
<glyph unicode="F" horiz-adv-x="360" d="M27 73q-3 7 3 10q7 4 9 -3l3 -4q2 -5 4 -7q2 -1 1.5 -4.5t-2.5 -4.5q-5 -6 -11 0q-2 2 -7 13zM54 51q5 7 9 1q2 -2 6 -3.5t5 -2.5q6 -3 3 -10q-2 -7 -10 -3q-10 5 -12 7q-7 5 -1 11zM88 31q2 7 9 5l13 -2q6 -2 6 -9q0 -8 -8 -6l-15 3q-7 2 -5 9zM128 25q0 6 7 8l13 1 q7 -2 8 -6q1 -3 -1 -6t-5 -3l-14 -1q-8 0 -8 7zM139 538q0 2 0.5 7.5t1.5 7.5q3 7 11 5q6 -4 3 -9q-1 -2 -1 -12q-2 -5 -8 -7q-7 0 -7 8zM144.5 514.5q1.5 3.5 4.5 4.5q4 1 9 -4l6 -9q4 -3 1 -10q-5 -8 -11 0l-9 13q-2 2 -0.5 5.5zM157 567q-5 5 0 11q9 9 12 10q7 3 11 -3 q2 -7 -3 -10q-2 -1 -5 -4t-4 -3q-4 -4 -11 -1zM167 32q-2 6 4 10q8 2 12 5q1 2 4.5 1.5t4.5 -3.5q6 -6 -2 -10q-2 -3 -13 -7q-7 -2 -10 4zM190 590q-2 8 5 8l15 3q8 2 8 -6t-6 -8l-13 -3q-7 0 -9 6zM202 53q-5 5 0 9q3 2 8 10q4 6 10 2q6 -3 2 -11q-1 -1 -4 -5t-5 -6 q-7 -5 -11 1zM208 293q2 6 8 6l14 -2q8 0 6 -7q0 -7 -8 -7l-14 1q-8 2 -6 9zM225 93l6 12q3 6 10 4q6 -4 3 -10l-6 -13q-5 -5 -11 -2q-6 4 -2 9zM230 595q0 8 7 8l14 -1q9 0 7 -8q0 -7 -7 -7l-14 1q-7 0 -7 7zM242 129l5 13q4 6 10 4q7 -4 4 -10l-6 -13q-2 -6 -9 -4 q-8 4 -4 10zM250 289q0 7 7 7h14q7 0 7 -7q0 -8 -7 -8h-14q-7 0 -7 8zM258 166l5 13q2 9 9 4q7 -2 5 -10l-6 -12q-2 -9 -9 -4q-9 2 -4 9zM270 593q0 8 8 6l14 -1q8 -2 6 -9q0 -6 -8 -6l-14 2q-6 0 -6 8zM273 204l5 12q2 7 9 5q7 -3 5 -10l-6 -13q-2 -6 -9 -4q-7 4 -4 10z M287 241l5 13q4 7 10 4q8 -2 4 -9l-5 -13q-2 -9 -9 -4q-7 2 -5 9zM302 279l5 13q2 8 9 4q7 -2 5 -9l-5 -13q-4 -7 -10 -4q-8 2 -4 9zM310 588q0 6 8 6l14 -3q8 0 6 -8t-9 -6l-13 2q-8 2 -6 9zM316 317l5 13q3 6 10 4q6 -2 4 -9l-5 -13q-2 -7 -9 -5q-7 3 -5 10zM331 355l5 13 q2 6 9 4q7 -3 5 -10l-5 -13q-4 -6 -10 -4q-7 4 -4 10zM333 292q0 8 7 8l14 1q6 2 8 -6q0 -8 -7 -8l-14 -2q-6 0 -8 7zM346 392l5 13q4 7 10 4q6 -2 4 -9l-6 -13q-2 -8 -9 -4q-9 2 -4 9zM349 581q1 6 9 6l13 -3q8 -2 6 -8q0 -8 -8 -6l-14 2q-6 2 -6 9zM361 430l6 13q2 7 10 3 q7 -2 3 -9l-5 -13q-3 -6 -10 -4q-6 3 -4 10zM375 297q-2 6 6 8l13 2q7 2 9 -5t-6 -9l-14 -2q-6 -2 -8 6zM378 467l6 13q4 6 10 3q6 -4 3 -10l-6 -12q-3 -6 -10 -4q-6 4 -3 10zM389 574q1 6 8 6l14 -3q8 0 6 -8q0 -8 -8 -6l-14 2q-8 2 -6 9zM396 504l7 12q3 6 10 3 q5 -5 2 -10l-6 -12q-3 -6 -10 -3q-6 3 -3 10zM418 539l9 11q5 7 11 0q3 -5 0 -10l-9 -10q-4 -6 -10 -1q-7 4 -1 10zM429 568q0 6 8 6l13 -1q7 -2 7 -8q0 -7 -8 -7l-14 1q-8 2 -6 9zM469 564q0 7 7 7l14 -1q7 0 7 -7q0 -8 -7 -8l-14 1q-9 0 -7 8zM509 563q0 7 7 7l13 2 q8 0 8 -7q2 -8 -6 -8l-14 -1q-8 0 -8 7zM549 566q-2 7 6 9l13 3q8 0 9 -6q2 -7 -6 -9l-14 -2q-6 -2 -8 5zM588 576q-2 6 5 9l12 4q6 3 10 -4q2 -7 -4 -9l-14 -5q-7 -3 -9 5z" />
<glyph unicode="G" horiz-adv-x="687" d="M25 28q0 8 5 8q4 1 12 5q6 3 10 -3q2 -7 -4 -10q-6 -5 -13 -6q-8 -2 -10 6zM62 43q-3 7 2 10l11 8q7 3 10 -2q6 -6 -1 -10l-12 -8q-6 -3 -10 2zM95 66q-6 6 1 10l11 9q5 4 10 -1t-1 -11l-11 -9q-6 -4 -10 2zM126 91q-6 5 0 11l11 9q5 4 10 -1q6 -6 0 -10l-11 -9 q-6 -6 -10 0zM155 118q-4 6 1 10l10 10q4 6 10 0t0 -11l-10 -9q-6 -6 -11 0zM184 146q-5 5 0 10l10 10q4 6 10 0q6 -4 0 -10l-9 -10q-5 -6 -11 0zM212 175q-5 5 0 10l9 10q5 5 10 0q7 -4 1 -10l-10 -10q-4 -6 -10 0zM231 132q1 5 4.5 7t5.5 -1l5 -8q-1 -3 1 -11q2 -6 -6 -8 q-5 -3 -9 5q-2 10 -1 16zM238 215l9 10q5 5 11 1q5 -5 1 -11l-10 -10q-4 -7 -10 -1q-5 5 -1 11zM243 90q-4 6 3 10q6 3 10 -3l7 -10q4 -6 -1 -10q-2 -2 -5 -2t-5 2zM252 141q-2 7 7 7l15 -2q8 -2 6 -8q-2 -8 -9 -6l-12 2q-3 -1 -5 1t-2 6zM265 234q-5 6 0 11l9 10q4 7 10 1 q5 -5 1 -10l-9 -11q-4 -4 -11 -1zM271 69q5 5 10 1q3 -3 11 -7q6 -4 3 -10q-4 -6 -10 -3l-13 8q-5 5 -1 11zM290 275l9 11q4 7 10 1q5 -5 1 -10l-8 -11q-6 -6 -11 -1t-1 10zM291 134q2 7 9 5l14 -5q6 -4 4 -10q-3 -6 -10 -4l-12 5q-7 2 -5 9zM306 49q2 7 9 5l12 -2q7 0 7 -8 q-2 -7 -9 -7l-14 3q-7 2 -5 9zM313.5 300.5q-0.5 3.5 1.5 5.5l8 11q6 6 11 2q5 -5 1 -11l-8 -11q-5 -5 -10 -1q-3 1 -3.5 4.5zM329 120q1 6 9 4l13 -6q6 -1 4 -9q-4 -7 -10 -4l-12 5q-7 4 -4 10zM339 338l9 11q4 6 10 2q5 -5 1 -11l-8 -11q-4 -7 -10 -1q-6 4 -2 10zM345 43 q0 8 7 8l14 1q6 2 8 -6q0 -8 -6 -8l-15 -2q-8 0 -8 7zM363 370l8 12q4 7 10 1q6 -4 2 -10l-8 -11q-4 -6 -10 -2q-8 4 -2 10zM366 104q2 8 9 4l13 -5q8 -2 4 -9q-2 -9 -9 -4l-13 5q-9 2 -4 9zM372 544l2 14q2 8 10 6q5 -1 5 -9l-2 -12q0 -7 -7 -7q-8 0 -8 8zM375 515 q-2 9 5 9q7 2 9 -5q1 -2 5 -11q3 -5 -3 -10q-5 -3 -10 3q-4 6 -6 14zM384 585q2 4 8 12q5 7 10 2t2 -10l-7 -11q-2 -7 -10 -3q-7 2 -3 10zM385 49q-1 6 5 8l13 5q7 2 9 -4q4 -8 -4 -10l-14 -5q-7 -2 -9 6zM386 403l7 11q4 7 10 3q5 -5 2 -11l-7 -11q-4 -5 -11 -2q-7 4 -1 10 zM399 490q2 2 5.5 2.5t4.5 -1.5l11 -6q6 -4 4 -10q-3 -6 -10 -3l-13 7q-6 5 -2 11zM403 90q2 9 9 4l13 -4q7 -2 5 -9t-9 -5l-13 4q-7 3 -5 10zM407 437l7 11q4 7 10 3q6 -5 3 -10l-8 -12q-3 -6 -10 -3q-5 5 -2 11zM410 607q-4 6 1 11l14 8q8 2 10 -5t-4 -9l-11 -6 q-5 -4 -10 1zM423 61q-2 7 4 10l11 7q6 3 10 -3q3 -7 -3 -10l-12 -7q-6 -3 -10 3zM435 472q2 8 8 6q2 -1 7 -1.5t6 -0.5q7 0 7 -8q0 -7 -8 -7l-15 2q-7 2 -5 9zM446 506l5 12q3 6 10 4q6 -4 3 -10l-5 -13q-3 -6 -10 -3q-6 4 -3 10zM446 622q0 3 3 5t6 1q13 -5 15 -7 q6 -8 -1 -12q-6 -6 -8 0q-1 2 -5 3t-5 2q-5 2 -5 8zM458 81q-4 6 3 9l10 9q2 2 5.5 1.5t4.5 -3.5q5 -5 -1 -10l-11 -9q-6 -3 -11 3zM461 542l3 12q2 8 9 6q8 -2 6 -9l-4 -14q-2 -7 -10 -5q-6 3 -4 10zM469 579v12q0 6 7 8q6 2 8 -6v-15q0 -9 -8 -7q-5 2 -7 8zM474 467 q0 8 8 8l13 1q8 0 8 -8q0 -7 -7 -7l-14 -1q-8 0 -8 7zM481 69q0 8 8 6l13 -1q7 -2 7 -9q0 -6 -8 -6l-14 2q-8 0 -6 8zM491 105q-5 5 0 10l10 9q5 5 10 0t0 -10l-10 -10q-6 -6 -10 1zM514 469q0 8 7 8l14 1q6 2 8 -6q0 -8 -7 -8l-14 -2q-6 0 -8 7zM519 133q-6 4 0 10l9 10 q4 7 10 1q5 -5 1 -11l-9 -10q-6 -5 -11 0zM520 65q2 8 8 8h13q8 0 8 -7q0 -8 -7 -8h-14q-8 0 -8 7zM544 173l8 11q5 5 10 2q8 -4 2 -10l-8 -12q-4 -4 -11 -1q-5 5 -1 10zM554 473q0 7 6 9l14 2q6 2 8 -6t-6 -8l-14 -3q-6 0 -8 6zM560 68q0 8 6 9l13 2q7 2 9 -5t-5 -9l-14 -3 q-7 0 -9 6zM567 206l7 11q5 6 10 3q6 -5 3 -11l-8 -11q-4 -8 -10 -2q-5 4 -2 10zM588 240l6 12q4 6 10 2q7 -2 3 -10l-7 -12q-4 -5 -10 -2q-5 4 -2 10zM593 481q0 7 6 8l13 4q8 0 9 -6q2 -7 -5 -9l-14 -3q-7 -2 -9 6zM599 78q-2 7 5 9l12 5q6 4 10 -3q2 -7 -4 -10l-13 -5 q-6 -3 -10 4zM606 275l6 12q4 7 10 3q9 -2 4 -9l-7 -13q-2 -8 -9 -3q-6 3 -4 10zM624 311l5 12q4 7 10 4q6 -4 4 -10l-6 -12q-4 -7 -10 -4q-6 4 -3 10zM632 491q-2 7 5 9l12 5q6 3 10 -4q2 -7 -4 -10l-14 -5q-7 -2 -9 5zM636 95q-4 6 2 10l12 6q4 5 10 -1q4 -8 -2 -11 l-12 -7q-7 -3 -10 3zM639 347l5 13q4 7 10 4q6 -2 4 -9l-5 -13q-4 -7 -10 -4q-6 2 -4 9zM653 385l5 13q2 6 9 4t5 -9l-5 -13q-2 -7 -9 -5q-7 3 -5 10zM666 423l4 13q3 8 9 4q8 -2 5 -9l-4 -13q-2 -7 -9 -5q-7 3 -5 10zM669 117q-4 6 1 10l11 9q5 4 10 -1q6 -6 -1 -10l-11 -9 q-6 -6 -10 1zM669 506q-4 6 3 10l11 7q5 4 10 -1l2 -4h4q8 0 6 -8l-3 -14q-2 -7 -9 -5q-7 0 -5 8l2 11l-11 -7q-6 -4 -10 3zM678 461l3 13q2 7 9 5q8 -2 5 -9l-3 -13q-2 -7 -9 -5q-8 2 -5 9zM699 143q-5 5 0 11l9 10q5 5 10 0q7 -4 1 -10l-10 -10q-4 -5 -10 -1z" />
<glyph unicode="H" horiz-adv-x="510" d="M22 66l5 13q4 7 10 4q9 -2 4 -9l-5 -13q-4 -7 -10 -4q-6 2 -4 9zM38 105l5 12q4 7 10 4q6 -1 4 -9l-6 -13q-2 -8 -9 -4t-4 10zM54 143l5 13q4 6 10 4q6 -4 4 -10l-6 -13q-2 -6 -9 -4q-7 4 -4 10zM61 550l10 11q6 4 11 -1q4 -6 -1 -10l-8 -9q-5 -5 -11 -2q-6 4 -1 11z M70 181l5 13q2 6 9 4q7 -4 4 -10l-5 -13q-2 -6 -9 -4q-7 4 -4 10zM85 219l6 13q2 6 9 4q7 -4 4 -10l-5 -12q-4 -7 -10 -4q-6 2 -4 9zM93 567q-6 6 3 10l13 6q7 4 9 -4q4 -7 -4 -9l-12 -6q-5 -3 -9 3zM101 257l6 13q2 8 9 4q9 -2 4 -9l-5 -13q-4 -7 -10 -4q-6 2 -4 9z M117 296l5 12q4 7 10 4q6 -2 4 -9l-5 -13q-4 -7 -10 -4t-4 10zM130 583q-2 7 6 9l14 3q8 2 8 -6q2 -7 -6 -9l-13 -2q-6 -2 -9 5zM133 334l5 13q4 6 10 4q6 -4 4 -10l-6 -13q-1 -6 -9 -4q-7 4 -4 10zM134 277q-4 6 2 10q8 5 14 6q7 4 9 -4q4 -7 -4 -9q-10 -5 -11 -6 q-6 -4 -10 3zM149 372l5 13q2 6 9 4q7 -4 4 -10l-5 -13q-2 -6 -9 -4q-7 4 -4 10zM164 410l6 13q2 8 9 4q8 -2 4 -10l-5 -12q-4 -7 -10 -4q-6 2 -4 9zM171 589q0 8 8 8l15 -3q9 -2 5 -8q-2 -8 -9 -6q-2 1 -6.5 1.5t-5.5 0.5q-7 0 -7 7zM173 293q-2 7 6 9l14 2q7 0 9 -7 q0 -6 -7 -8l-13 -2q-7 -2 -9 6zM180 449l5 12q4 7 10 4q6 -2 4 -9l-5 -13q-4 -7 -10 -4q-8 2 -4 10zM195 487l5 13q4 6 10 4q7 -4 4 -10l-5 -13q-4 -6 -10 -4q-6 4 -4 10zM210 525q2 3 4 13q2 5 9 5q7 -2 5 -9l-4 -14q-2 -9 -9 -4q-7 2 -5 9zM210 570q-3 3 1 10q1 2 4.5 2 t5.5 -3q1 -1 9 -14q1 -3 -1 -6t-5 -3q-5 -1 -9 5q-2 7 -5 9zM216 299q0 7 7 7l14 1q8 0 8 -8q0 -7 -8 -7h-13q-8 0 -8 7zM259 299q0 9 8 7h13q8 0 8 -7t-8 -7h-13q-8 0 -8 7zM302 299q0 7 8 7h13q8 0 8 -7t-7 -7l-14 -1q-8 0 -8 8zM345 300q0 8 7 8l13 2q7 0 9 -6 q2 -7 -6 -9l-14 -2q-7 0 -9 7zM351 91q2 7 9 7q8 0 6 -7q-1 -5 1 -13q0 -6 -6 -8q-7 -2 -9 6q-2 10 -1 15zM355 119l3 13q2 8 9 6t5 -9l-3 -13q-2 -8 -8 -6q-8 0 -6 9zM365 48q-5 7 0 11q7 4 10 1q1 -3 9 -5q5 -2 5 -9t-9 -5q-11 2 -15 7zM365 158l4 14q5 7 10 4q6 -2 4 -9 l-4 -13q-2 -7 -9 -5t-5 9zM378 197l5 13q2 8 9 4q8 -2 4 -9l-4 -13q-4 -7 -10 -4q-8 2 -4 9zM388 307q-2 7 4 9q2 1 6 2.5t6 2.5q7 3 10 -3q4 -6 -3 -10q-4 -3 -14 -5q-7 -4 -9 4zM392 235l5 13q2 6 9 4q7 -3 5 -10l-5 -12q-3 -7 -10 -5q-7 4 -4 10zM401 46q-2 8 5 8l12 3 q7 3 10 -3q2 -7 -4 -10l-15 -4q-8 -2 -8 6zM407 273l5 12q2 9 9 4q8 -2 4 -9l-5 -13q-2 -8 -9 -4q-8 2 -4 10zM422 310l5 13q3 6 10 4q6 -4 4 -10l-6 -13q-2 -6 -9 -4q-7 4 -4 10zM437 347l5 13q4 7 10 4q6 -2 4 -9l-5 -13q-4 -7 -10 -4q-6 2 -4 9zM438 59q-3 7 3 10l10 8 q6 4 11 -1q3 -6 -2 -11l-11 -8q-7 -4 -11 2zM453 385l5 12q4 7 10 4q6 -2 4 -9l-6 -13q-2 -9 -9 -4q-7 4 -4 10zM468 422l6 13q2 7 10 3q7 -2 3 -9l-5 -13q-3 -6 -10 -4q-6 4 -4 10zM471 83q-5 5 0 10l10 9q5 6 11 0q5 -5 0 -10l-11 -10q-5 -4 -10 1zM484 459l6 13q2 7 10 3 q7 -2 3 -9l-5 -13q-3 -6 -10 -4q-6 3 -4 10zM500 110q-6 6 0 11l10 10q4 6 10 0q5 -5 0 -10l-9 -10q-5 -5 -11 -1zM500 496l6 13q4 6 10 3q7 -2 3 -9l-5 -13q-3 -6 -10 -4q-6 4 -4 10zM517 533l5 13q4 6 10 3q6 -2 4 -9l-6 -13q-3 -6 -10 -4q-6 4 -3 10zM527 150l10 10 q4 7 10 1q5 -5 0 -10l-9 -11q-4 -6 -10 0q-5 5 -1 10zM533 570l5 13q4 6 10 3q6 -2 4 -9l-6 -13q-2 -6 -9 -4q-7 4 -4 10z" />
<glyph unicode="I" horiz-adv-x="325" d="M-40 115q-1 7 2 14q3 8 10 5q8 -2 4 -9q-2 -3 -2 -12q0 -6 -7 -6q-3 -1 -5 1.5t-2 6.5zM-37 86q-4 7 4 9t10 -5l4 -12q2 -6 -2 -9q-8 -5 -11 3zM-14 49q-6 5 0 11q6 4 10 -1q0 -1 10 -7q6 -4 2 -10q-4 -8 -10 -2zM18 36q3 7 10 5l12 -3q6 -2 6 -9q-2 -8 -9 -5l-14 3 q-6 3 -5 9zM58 29q0 8 7 8h13q7 0 8 -5q2 -9 -6 -9l-15 -1q-7 0 -7 7zM97 35q-2 7 5 9l13 4q8 2 9 -4q5 -7 -4 -9l-13 -5q-8 -2 -10 5zM135 50q-3 6 2 10l12 7q7 2 10 -3q6 -6 -2 -10l-12 -7q-8 -4 -10 3zM169 72q-6 6 1 10l10 8q6 4 11 -1t-1 -10l-11 -9q-7 -4 -10 2z M200 97q-6 5 0 11l3 4v1q-2 10 -2 15q0 7 7 7q3 1 5.5 -1.5t2.5 -4.5q0 -7 1 -10q1 0 1 -1h2q6 -6 0 -11l-10 -10q-6 -6 -10 0zM201 155v14q0 7 7 7q9 0 7 -8v-13q0 -8 -7 -8t-7 8zM202 195l1 14q1 7 9 7q6 0 6 -8l-1 -14q0 -8 -8 -6q-7 0 -7 7zM207 86q-2 9 6 9q6 1 8 -5 l4 -12q3 -6 -4 -10t-9 5zM207 236l2 14q0 8 8 6t6 -8l-2 -14q0 -8 -8 -6q-8 0 -6 8zM213 276l3 14q2 6 9 6q7 -2 5 -9l-2 -13q-2 -8 -9 -6q-8 0 -6 8zM221 316l4 14q2 7 9 5t5 -9l-3 -13q-2 -8 -9 -6q-8 2 -6 9zM225 47q-5 7 1 11q6 3 10 -1q1 -1 3.5 -4.5t4.5 -4.5 q5 -2 3 -9q-4 -6 -11 -3zM227 137l9 10q5 5 10 1q6 -6 1 -10l-9 -11q-4 -7 -10 -1q-4 4 -1 11zM231 356l4 13q2 7 9 5t5 -9l-4 -13q-2 -8 -8 -6q-8 4 -6 10zM243 395l4 13q2 8 9 4q7 -2 5 -9l-4 -13q-2 -7 -9 -5t-5 10zM253 167l8 11q4 6 10 2q5 -5 2 -11l-9 -11 q-4 -5 -10 -1q-6 5 -1 10zM256 433l5 13q4 7 10 4q6 -2 4 -9l-5 -13q-2 -8 -10 -4q-6 2 -4 9zM271 471l6 13q4 6 10 3t4 -10l-6 -12q-3 -6 -10 -4q-6 3 -4 10zM276 200l8 11q5 5 10 2q7 -5 2 -10l-8 -12q-4 -6 -10 -2q-5 5 -2 11zM289 508l7 12q4 7 10 3q6 -5 3 -11l-7 -11 q-4 -6 -10 -3q-6 4 -3 10zM298 233l7 12q5 5 11 2q6 -4 2 -10l-7 -12q-4 -6 -10 -2q-7 4 -3 10zM310 543l9 11q4 6 10 2q6 -6 2 -11l-9 -10q-4 -6 -10 -2t-2 10zM319 267l7 12q2 7 10 3q5 -4 2 -10l-6 -12q-4 -7 -10 -3q-7 4 -3 10zM337 565q-6 4 0 10l12 9q5 5 10 -1 q4 -5 -2 -11l-10 -8q-6 -4 -10 1zM338 302l6 13q4 6 10 3t4 -10l-7 -12q-3 -6 -10 -3q-6 4 -3 9zM356 339l6 12q2 6 9 4q7 -4 4 -10l-6 -13q-4 -6 -10 -3q-6 4 -3 10zM369 588q-2 7 6 9q8 3 15 2q9 -2 7 -9q-3 -6 -8 -6q-4 3 -11 -1q-6 -2 -9 5zM372 375l5 13q2 6 10 4 q6 -4 4 -10l-6 -12q-2 -8 -9 -4q-8 2 -4 9zM386 412l5 13q2 7 9 5t5 -9l-5 -14q-2 -6 -9 -4t-5 9zM399 450l3 13q2 8 9 6q8 -2 5 -9l-3 -14q-2 -7 -9 -5t-5 9zM406 575q-4 5 1 10q4 6 11 -1q4 -4 6 -14q3 -8 -5 -10t-8 5zM409 489l2 13q0 8 8 6q8 0 6 -8l-2 -14q-2 -8 -9 -6 t-5 9zM414 528v13q0 7 7 7q8 2 8 -7v-14q0 -7 -8 -7q-7 0 -7 8z" />
<glyph unicode="J" horiz-adv-x="404" d="M22 -174q0 10 1 15q0 8 8 6t6 -8q-1 -6 0 -12q0 -6 -7 -8q-8 -2 -8 7zM29 -132l6 13q4 8 10 4q6 -3 4 -10l-6 -12q-2 -7 -9 -5q-7 3 -5 10zM30 -202q-3 7 3 10q7 2 10 -3q1 -4 7 -10q3 -3 0 -10q-5 -8 -11 0q-8 11 -9 13zM49 -95l9 11q6 6 11 1q5 -4 1 -10l-9 -11 q-4 -6 -9 -2q-6 5 -3 11zM60 -220q3 7 9 5l12 -2q7 0 7 -7q1 -2 -1.5 -5t-5.5 -2q-10 0 -15 2q-8 2 -6 9zM76 -64l10 10q6 4 11 -1t-1 -10l-9 -9q-5 -6 -11 0q-4 6 0 10zM100 -222q-2 7 5 9q4 1 12 5q6 2 9 -4q3 -7 -3 -10l-14 -5q-7 -2 -9 5zM106 -47q-6 6 1 10l11 9 q6 6 10 -1q6 -6 -1 -10l-11 -9q-4 -4 -10 1zM136 -206q-4 6 2 10l11 8q5 4 10 -1q6 -6 -1 -11l-11 -8q-7 -4 -11 2zM137 -22q-3 7 1 11l12 8q6 3 11 -3q3 -5 -2 -10l-12 -7q-5 -4 -10 1zM159 365l1 14q0 7 7 7q9 0 7 -8v-13q0 -8 -7 -8q-8 0 -8 8zM160 338q0 8 7 8q8 0 8 -7 l1 -14q0 -7 -6 -8q-7 0 -9 7zM161 406l3 14q0 6 8 6q8 -2 6 -9l-2 -13q-2 -7 -8 -7q-8 2 -7 9zM165 297q-2 7 6 9q8 0 8 -6l3 -14q0 -6 -6 -8q-7 -2 -9 6zM168 -171l8 10q1 3 4.5 3.5t5.5 -1.5q6 -6 1 -11l-9 -11q-6 -6 -10 0q-5 5 0 10zM169 446l4 14q2 8 9 4q7 -2 5 -9 l-4 -13q-2 -7 -9 -5t-5 9zM170 1q-4 6 3 10l11 8q7 3 10 -3q4 -6 -2 -10l-12 -7q-5 -5 -10 2zM173 257q-2 7 5 9t9 -5l3 -13q2 -7 -5 -9t-9 5zM182 485l6 13q3 6 10 3q6 -4 3 -9l-6 -13q-2 -7 -9 -3q-8 2 -4 9zM183 218q-2 7 5 9t9 -4l5 -13q2 -7 -5 -10q-7 -2 -9 5z M191 -140l8 11q3 6 10 3q6 -4 2 -10l-8 -12q-3 -7 -10 -2q-6 4 -2 10zM197 180q-4 7 4 9q7 4 9 -4l5 -13q4 -7 -4 -9q-6 -3 -10 4zM201 522l8 12q1 2 5 2.5t6 -1.5q5 -5 1 -10l-8 -11q-3 -5 -10 -2q-5 4 -2 10zM205 21q-3 7 3 10l12 7q6 3 10 -3q3 -6 -3 -10l-12 -7 q-7 -2 -10 3zM212 -106l6 12q4 6 10 3t3 -10l-7 -12q-2 -8 -9 -3q-6 3 -3 10zM212 142q-3 6 4 10q7 2 9 -4l6 -12q2 -7 -4 -10q-6 -4 -10 4zM228 543q-6 5 0 11l11 9q6 6 10 -1q4 -6 -1 -10l-10 -9q-6 -4 -10 0zM229 105q-4 8 3 10q7 3 10 -3l6 -12q3 -7 -3 -10q-6 -4 -10 3 zM230 -71l6 13q2 7 9 3t4 -10l-6 -12q-3 -6 -10 -4q-7 4 -3 10zM240 40q-2 7 4 10l12 6q7 2 10 -4t-3 -10l-13 -5q-7 -3 -10 3zM246 -34l6 12q2 8 10 4q6 -4 3 -10l-5 -12q-4 -7 -10 -4q-6 2 -4 10zM259 569q-5 5 2 10l13 7q7 2 10 -5q2 -6 -4 -9l-11 -6q-7 -3 -10 3zM262 2 l6 13q1 6 9 4q7 -4 4 -10l-5 -12q-4 -7 -10 -4q-6 2 -4 9zM278 39l5 13q4 7 10 4q6 -4 4 -10l-6 -12q-2 -9 -9 -4q-9 2 -4 9zM293 76l5 13q4 7 10 4q8 -2 4 -10l-5 -12q-4 -7 -10 -4q-6 2 -4 9zM295 586q-2 7 5 9l14 3q8 2 8 -6q2 -8 -5 -8l-13 -3q-7 -2 -9 5zM308 113l6 13 q2 9 9 4q9 -2 4 -9l-5 -13q-4 -7 -10 -4q-6 2 -4 9zM313 74q-2 7 4 9l12 6q7 3 10 -3t-3 -10l-13 -6q-6 -3 -10 4zM324 151l5 12q2 9 9 4q7 -2 5 -9l-6 -13q-2 -9 -9 -4q-7 4 -4 10zM334 593q0 8 7 8h15q8 -2 6 -8q0 -7 -7 -7h-13q-8 0 -8 7zM339 188l5 13q4 6 10 4 q6 -4 4 -10l-6 -13q-1 -6 -9 -4q-7 4 -4 10zM349 92q-4 7 3 9l12 7q7 3 10 -3q4 -6 -2 -10l-13 -6q-6 -4 -10 3zM354 225l5 13q2 6 9 4q7 -3 5 -10l-6 -12q-2 -7 -9 -5q-7 4 -4 10zM369 262l5 13q2 8 9 4q8 -2 4 -9l-5 -13q-2 -9 -9 -4q-9 2 -4 9zM374 591q2 7 9 5 q3 -1 14 -5q7 -4 4 -10q-4 -6 -10 -4q-4 3 -12 5q-7 2 -5 9zM383 300l5 13q2 6 9 4q7 -3 5 -10l-5 -13q-4 -6 -10 -4q-6 3 -4 10zM384 112q-5 6 1 10l11 8q5 5 11 -1q2 -2 1.5 -5.5t-3.5 -4.5l-11 -8q-6 -5 -10 1zM397 337l5 13q2 8 9 4q7 -2 5 -9l-5 -13q-2 -8 -10 -4 q-6 2 -4 9zM411 375l4 13q4 7 10 4q6 -2 4 -9l-4 -13q-3 -7 -10 -5q-7 4 -4 10zM411 575q4 8 10 2q8 -6 11 -10q6 -5 0 -11q-7 -4 -10 1q-6 6 -10 8q-5 4 -1 10zM415 137q-5 5 0 11l9 9q4 4 11 1q5 -5 0 -11l-10 -10q-5 -5 -10 0zM424 413l4 13q2 7 9 5q7 -3 5 -10l-4 -13 q-3 -7 -10 -5q-7 4 -4 10zM435 537q-4 6 3 10q7 3 10 -3q0 -1 2.5 -6t3.5 -8q2 -8 -6 -10q-6 0 -8 6q0 2 -5 11zM436 451l3 13q2 7 9 5t5 -9l-3 -13q-3 -7 -10 -5t-4 9zM443 489v12q0 8 8 8q3 1 5 -1.5t2 -5.5v-15q0 -8 -8 -6q-5 0 -7 8z" />
<glyph unicode="K" horiz-adv-x="451" d="M25 55l5 13q2 9 9 4q7 -4 4 -10l-5 -12q-2 -9 -9 -4q-9 2 -4 9zM40 92l5 13q4 7 10 4t4 -10l-5 -12q-4 -7 -10 -4q-9 2 -4 9zM55 129l6 13q2 9 9 4q8 -2 4 -10l-5 -12q-4 -7 -10 -4q-6 2 -4 9zM71 166l5 13q4 7 10 4q6 -2 4 -10l-5 -12q-4 -7 -10 -4q-9 2 -4 9zM71 554 l10 11q6 4 11 -1q4 -6 -1 -10l-8 -9q-4 -6 -10 -2q-7 4 -2 11zM86 203l6 13q2 9 9 4q8 -2 4 -10l-5 -12q-4 -7 -10 -4q-6 2 -4 9zM101 571q-4 6 3 10l13 6q8 4 10 -4t-4 -9l-12 -6q-5 -3 -10 3zM102 240l5 13q4 7 10 4q6 -2 4 -10l-5 -12q-4 -7 -10 -4q-9 2 -4 9zM117 277 l6 13q2 9 9 4q8 -2 4 -10l-5 -12q-4 -7 -10 -4q-6 2 -4 9zM133 314l5 13q4 7 10 4q6 -2 4 -10l-5 -12q0 1 1 1l2 1l14 5q7 2 9 -6q1 -5 -5 -9l-13 -4q-6 -2 -9 5q-1 1 -1 4q-4 -4 -8 -1q-9 2 -4 9zM138 587q-2 7 5 9l14 3q7 2 9 -6q0 -8 -6 -8l-13 -3q-7 -2 -9 5zM148 351 l6 13q2 9 9 4q9 -2 4 -9l-5 -13q-4 -7 -10 -4q-6 2 -4 9zM164 389l5 12q4 7 10 4q6 -2 4 -9l-6 -13q-2 -8 -9 -4q-8 2 -4 10zM177 594q0 8 8 8l14 -1q10 -2 6 -9q-2 -8 -8 -6l-12 1q-6 0 -8 7zM179 426l5 12q4 7 10 4q9 -2 4 -9l-5 -13q-4 -7 -10 -4t-4 10zM186 312q0 8 7 8 l15 -1q8 0 6 -9q-1 -5 -8 -5h-12q-6 0 -8 7zM194 463l6 12q2 8 9 4q8 -2 4 -9l-5 -13q-3 -6 -10 -4q-6 4 -4 10zM197 324q-2 7 4 10l12 6q6 4 10 -3q3 -6 -3 -10l-13 -6q-6 -3 -10 3zM209 500l5 13q4 6 10 4q7 -4 4 -10l-5 -13q-2 -6 -10 -4q-6 4 -4 10zM216 588q5 7 11 2 q10 -10 11 -13q4 -10 -4 -10q-7 -2 -9 3q-1 2 -3.5 4.5l-3.5 3.5q-5 5 -2 10zM224 537l3 12q1 6 8 6q3 0 5 -2.5t1 -5.5l-3 -15q-4 -7 -10 -4q-8 2 -4 9zM227 307q5 8 10 3l13 -8q6 -4 1 -11q-6 -4 -10 -1l-10 7q-5 5 -4 10zM235 344q-4 6 2 10l12 6q7 3 10 -2q3 -6 -2 -10 l-12 -7q-7 -3 -10 3zM257 271q-3 5 2 10q5 4 11 -2q1 -1 6 -14q2 -7 -5 -10q-7 -2 -9 5q-3 9 -5 11zM270 234q0 8 6 9q7 2 9 -6l2 -13q1 -7 -5 -9q-7 -2 -9 6zM271 365q-4 6 2 10l12 8q6 4 10 -3q4 -6 -2 -10l-12 -7q-6 -4 -10 2zM278 193q-2 7 6 9q8 0 8 -6l3 -14 q0 -8 -6 -8q-7 -2 -9 6zM285 152q-2 7 6 9q7 0 9 -6l2 -14q2 -8 -5 -8q-7 -2 -9 5zM294 111q-2 7 6 9q6 0 8 -6l4 -13q2 -7 -5 -9t-9 5zM306 388q-4 6 2 10l11 8q7 3 11 -2q4 -6 -2 -10l-12 -8q-6 -4 -10 2zM308 70q-3 6 4 10q5 2 9 -4l6 -11q3 -5 -1 -9q-2 -2 -6 -2t-5 3z M337 48q4 8 9 6h11q6 2 8 -6q2 -7 -6 -9q-1 -1 -7.5 0t-8.5 1q-8 2 -6 8zM341 412q-6 6 1 10l11 9q5 4 11 -2q4 -6 -2 -10l-11 -8q-6 -6 -10 1zM374 437q-3 7 2 11l10 8q6 4 11 -1q4 -6 -1 -10l-11 -9q-7 -3 -11 1zM378 52q-4 8 3 11l11 7q5 3 10 -2q4 -7 -2 -10l-12 -8 q-6 -3 -10 2zM407 463q-3 7 1 11l11 8q6 6 10 0t-1 -11l-10 -9q-6 -4 -11 1zM412 77q-5 5 0 10l10 9q5 5 10 0q6 -4 0 -10l-10 -10q-6 -6 -10 1zM440 490q-6 6 0 11l11 9q5 4 10 -1q6 -6 -1 -10l-10 -9q-6 -6 -10 0zM441 117l9 10q4 5 10 1q6 -6 1 -11l-9 -10q-6 -5 -10 -1 q-5 5 -1 11zM468 148l9 11q4 5 10 1q6 -6 1 -11l-9 -10q-4 -7 -10 -1q-5 6 -1 10zM471 518q-5 5 1 11l10 9q4 6 10 0t0 -11l-10 -9q-6 -6 -11 0zM501 558l10 10q5 5 10 0q5 -4 1 -10l-10 -11q-5 -5 -10 0t-1 11z" />
<glyph unicode="L" horiz-adv-x="551" d="M21 80q0 9 7 9q6 0 8 -6l3 -12q2 -6 -3 -9q-8 -5 -10 4zM22 109q0 3 2 8t2 7q4 8 10 3q6 -4 4 -9q0 -1 -2 -5.5t-2 -6.5q0 -6 -8 -6q-8 2 -6 9zM40 47.5q0 3.5 2 4.5q5 5 11 1q3 -5 9 -7q7 -4 3 -10q-3 -6 -10 -3t-12 9q-3 2 -3 5.5zM40 142.5q0 3.5 2 4.5l12 10 q7 4 11 -2q3 -6 -3 -10l-9 -8q-5 -3 -10 0q-3 2 -3 5.5zM75 160q-2 7 5 9q1 0 6.5 1.5t7.5 1.5q9 0 9 -7t-6 -7l-13 -3q-7 -2 -9 5zM76 32q2 7 8 5h13q7 0 7 -8q0 -7 -7 -7q-10 0 -15 1q-8 2 -6 9zM114 166q0 9 8 7l15 -2q6 0 6 -8q-1 -6 -9 -6l-13 1q-7 2 -7 8zM116 31 q-1 6 5 8q12 2 13 3q7 2 9 -5t-5 -9q-6 -3 -14 -3q-8 -2 -8 6zM126 486q-4 8 4 10q6 2 9 -3q3 -6 7 -10q6 -4 0 -10q-4 -5 -11 0zM154 41q-2 6 4 10l11 7q7 2 10 -3q3 -7 -3 -10l-12 -7q-5 -4 -10 3zM154 160q2 7 9 5l14 -4q6 -3 4 -10q-4 -7 -10 -4l-12 4q-7 2 -5 9z M156 467q4 6 9 2l12 -6q6 -2 4 -9q-4 -7 -10 -4l-13 6q-7 4 -2 11zM189 61q-4 6 1 10l10 9q5 5 10 0q6 -6 0 -11l-11 -9q-6 -6 -10 1zM191 146q4 8 10 4l13 -6q6 -4 3 -11q-4 -6 -10 -2l-12 6q-6 2 -4 9zM192 450q2 7 9 5l13 -3q7 -2 5 -9q0 -8 -8 -6l-14 4q-7 2 -5 9z M218 98l8 11q5 5 11 1q4 -4 1 -11l-9 -10q-5 -6 -10 -1q-7 4 -1 10zM227 128q5 7 10 2l4 -2q0 1 1 1l7 12q4 6 10 2q8 -4 2 -10l-7 -12l-2 -2q1 -2 -1 -6q-3 -5 -10 -2l-11 7q-6 3 -3 10zM231 441q0 6 8 6l14 -2q6 -2 6 -8q0 -7 -8 -7l-14 2q-8 2 -6 9zM261 107q4 6 10 2 l12 -7q6 -4 2 -10q-3 -6 -10 -3l-12 8q-5 3 -2 10zM263 163l6 12q4 6 10 3q7 -4 3 -10l-7 -13q-3 -5 -10 -2q-5 3 -2 10zM271 436q0 7 7 7h14q7 0 7 -8q0 -7 -7 -7h-14q-9 2 -7 8zM281 198l6 12q3 6 10 4q6 -4 3 -10l-6 -13q-2 -7 -10 -3q-5 3 -3 10zM295 86q4 6 10 2l12 -7 q6 -4 3 -10q-4 -7 -10 -3l-12 7q-6 5 -3 11zM298 234l5 12q4 7 10 4q6 -2 4 -9l-6 -13q-2 -9 -9 -4q-7 4 -4 10zM311 436q0 7 7 7l13 1q8 0 8 -7q0 -6 -7 -8l-14 -1q-7 0 -7 8zM314 271l5 12q2 9 9 4q9 -2 4 -9l-5 -13q-2 -8 -10 -4q-6 4 -3 10zM328 308l5 12q3 7 10 5 q7 -4 4 -10l-5 -13q-2 -6 -9 -4q-7 3 -5 10zM330 66q4 6 10 3l12 -6q6 -4 4 -9q-4 -7 -10 -4l-13 6q-6 3 -3 10zM343 345l5 13q2 6 9 4t5 -9l-5 -13q-3 -7 -10 -5q-7 4 -4 10zM351 438q-2 7 6 9l13 2q7 0 9 -7q2 -6 -6 -8l-14 -2q-8 0 -8 6zM357 382l5 13q4 7 10 4 q6 -1 4 -9l-5 -13q-2 -8 -10 -4q-6 2 -4 9zM366 49q3 7 10 5l12 -3q8 -2 6 -9q-2 -8 -9 -6l-14 4q-7 2 -5 9zM372 420l5 13q4 6 10 4q6 -4 4 -10l-6 -13q-2 -6 -9 -4q-7 4 -4 10zM387 457l6 13q2 7 10 3q7 -2 3 -9l-4 -9l7 1q7 2 9 -5t-5 -9l-14 -3q-7 -2 -9 6v3q-5 3 -3 9z M404 494l6 12q3 6 10 4q7 -4 3 -10l-6 -13q-4 -6 -10 -3q-6 4 -3 10zM405 40q2 7 8 7h13q6 0 8 -7q0 -6 -7 -8h-15q-7 2 -7 8zM422 530l7 12q5 5 11 2q5 -4 2 -10l-7 -11q-3 -6 -10 -3q-5 3 -3 10zM429 455q-2 6 5 9l13 4q7 2 9 -4q2 -8 -4 -10l-14 -4q-7 -3 -9 5zM444 564 l9 11q5 7 11 1q5 -5 1 -10l-9 -10q-3 -6 -10 -2q-6 4 -2 10zM445 42q-2 7 5 9q10 2 13 4q5 3 9 -4q4 -6 -4 -10q-2 -2 -14 -4q-7 -2 -9 5zM467 468q-5 7 4 9l12 6q7 2 10 -4q4 -6 -4 -10l-12 -6q-8 -2 -10 5zM470 590q0 4 2 5l12 9q6 3 10 -2q3 -6 -2 -10l-10 -8 q-5 -4 -10 1q-2 1 -2 5zM482 57q-4 6 3 10q4 1 10 7q6 4 10 -1q6 -6 -1 -11q-5 -5 -11 -8q-8 -4 -11 3zM503 484q-3 6 3 10l11 7q6 3 11 -2q4 -6 -2 -10l-13 -7q-5 -5 -10 2zM505 607q-3 6 4 10q2 1 7 2.5t7 2.5q7 2 9 -6q0 -8 -6 -9q-8 -2 -12 -4q-7 -2 -9 4zM514 81 q-4 4 0 10l10 9q5 5 10 1q6 -6 1 -11l-10 -10q-5 -5 -11 1zM537 506q-6 6 1 10l9 10q6 4 10 0q6 -6 1 -11l-11 -10q-6 -4 -10 1zM542 109q-6 5 0 11l9 10q4 6 10 0q7 -4 1 -10l-10 -10q-4 -7 -10 -1zM543 617q0 9 8 7q6 -1 16 -5q4 -1 4 -5t-2 -6q-4 -4 -9 -2q-4 3 -11 3 q-6 2 -6 8zM562 545q1 1 3 5l3 6q2 9 9 4q8 -2 4 -9q-1 -3 -3 -8t-3 -6q-4 -6 -11 -2q-6 4 -2 10zM568 139q-6 5 0 11l9 10q4 7 10 1q5 -5 1 -10l-9 -11q-4 -4 -11 -1zM572 590q0 6 4 9q8 4 10 -5q2 -5 2 -15q0 -9 -8 -7q-5 0 -7 7q1 5 -1 11z" />
<glyph unicode="M" horiz-adv-x="680" d="M24 53l5 13q2 6 10 4q6 -4 3 -10l-5 -13q-2 -6 -9 -4q-7 4 -4 10zM39 90l5 13q3 6 10 4q6 -3 4 -10l-5 -13q-4 -6 -10 -3q-8 2 -4 9zM54 127l6 13q2 6 9 4q7 -4 4 -10l-5 -13q-4 -6 -10 -3q-6 2 -4 9zM70 164l5 13q3 6 10 4q6 -3 4 -10l-5 -12q-4 -7 -10 -4q-8 2 -4 9z M70 551q1 3 10 11q6 5 11 0q4 -6 -1 -10q-6 -6 -8 -10q-5 -5 -10 -1q-8 4 -2 10zM85 201l6 13q2 6 9 4q7 -4 4 -10l-5 -12q-4 -7 -10 -4q-6 2 -4 9zM100 568q-4 8 3 11l13 6q8 2 10 -4q2 -7 -4 -10l-12 -5q-5 -3 -10 2zM101 238l5 13q3 6 10 4q6 -3 4 -10l-5 -12 q-4 -7 -10 -4q-8 2 -4 9zM116 275l6 13q2 6 9 4q7 -4 4 -10l-5 -12q-4 -7 -10 -4q-6 2 -4 9zM132 312l5 13q3 6 10 4q6 -3 4 -10l-5 -12q-4 -7 -10 -4q-8 2 -4 9zM137 585q-2 7 5 9l14 3q7 2 9 -6q0 -7 -6 -9l-13 -2q-7 -2 -9 5zM147 349l6 13q2 6 9 4q7 -4 4 -10l-5 -12 q-4 -7 -10 -4q-6 2 -4 9zM163 386l5 13q4 7 10 4q6 -4 4 -10l-6 -12q-2 -8 -9 -4q-9 2 -4 9zM176 592q0 8 8 8l14 -2q9 0 7 -9q-4 -6 -9 -5l-12 1q-6 0 -8 7zM178 423l5 13q4 7 10 4q5 -2 5 -7q0 1 1 2l7 12q4 6 10 2q8 -4 2 -10l-7 -12q-4 -6 -10 -2q-4 1 -4 5l-5 -12 q-4 -7 -10 -4q-6 2 -4 9zM193 460l6 13q2 8 9 4q9 -2 4 -9l-5 -13q-4 -7 -10 -4q-6 2 -4 9zM208 498l5 12q4 7 10 4q8 -2 4 -9l-5 -13q-2 -8 -10 -4q-6 4 -4 10zM215 585q3 7 11 3l5.5 -5.5t5.5 -7.5q4 -9 -4 -11q-8 0 -9 4q-1 2 -3.5 4.5l-3.5 3.5q-5 5 -2 9zM222 470l8 11 q1 3 4.5 3.5t5.5 -1.5q6 -5 1 -10l-7 -12q-5 -5 -11 -1t-1 10zM223 535l3 12q2 6 8 6q3 0 5 -2.5t1 -6.5l-3 -14q-3 -7 -10 -5q-7 4 -4 10zM246 503l9 11q6 6 11 1t1 -10l-9 -11q-6 -6 -10 -1q-6 3 -2 10zM260 41l6 13q2 6 9 4q7 -4 4 -10l-5 -13q-4 -6 -10 -3q-6 2 -4 9z M274 524q-6 6 0 11l10 10q6 6 10 0q6 -5 0 -11l-9 -9q-5 -5 -11 -1zM277 79l5 13q2 6 10 4q6 -4 3 -10l-5 -13q-4 -6 -10 -4q-6 4 -3 10zM292 117l6 13q2 6 9 4q7 -4 4 -10l-5 -13q-4 -6 -10 -3q-6 2 -4 9zM304 553q-5 5 1 11l11 8q6 6 10 -1q5 -6 -1 -10l-11 -9 q-6 -4 -10 1zM308 155l6 13q1 6 9 4q7 -4 4 -10l-5 -12q-4 -7 -10 -4q-6 2 -4 9zM324 193l5 13q4 7 10 4q8 -2 4 -10l-5 -12q-4 -7 -10 -4q-6 2 -4 9zM337 577q-4 8 3 10l13 7q8 2 10 -5t-4 -9l-12 -6q-7 -2 -10 3zM340 231l5 13q4 7 10 4q6 -2 4 -9l-6 -13q-2 -8 -9 -4 q-9 2 -4 9zM356 270l5 12q4 7 10 4q6 -2 4 -9l-6 -13q-2 -9 -9 -4q-7 4 -4 10zM372 308l5 12q4 7 10 4q6 -2 4 -9l-6 -13q-2 -8 -9 -4t-4 10zM375 593q0 7 7 8h15q7 -2 7 -9q-2 -7 -8 -5q-2 1 -6.5 0t-5.5 -1q-7 0 -9 7zM388 346l6 12q4 7 10 4q6 -4 3 -10l-5 -12 q-4 -7 -10 -4t-4 10zM405 383l5 13q3 6 10 4l3 -3q7 -4 3 -10l-7 -12q-2 -7 -10 -3l-3 4q-3 3 -1 7zM416 590q1 3 4.5 4.5t5.5 -1.5l12 -11q7 -5 0 -10q-6 -3 -11 0l-8 9q-5 5 -3 9zM420 421l4 13q2 7 9 5q5 -2 5 -7q4 2 6 -1q6 -3 3 -10l-8 -11q-3 -7 -9 -3q-2 1 -4 5h-2 q-9 2 -4 9zM431 460l4 13q2 8 9 6t5 -9l-3 -13q-2 -8 -9 -6q-8 2 -6 9zM438 551q-3 7 4 9q7 3 10 -5q3 -7 3 -14q0 -8 -7 -8q-8 -2 -8 6q0 9 -2 12zM439 500l2 13q0 7 7 7q9 0 7 -8l-1 -14q-2 -8 -9 -6q-8 0 -6 8zM449 452l8 11q1 3 4.5 3.5t5.5 -1.5q6 -4 2 -10l-8 -11 q-4 -8 -10 -2q-5 4 -2 10zM473 485l8 11q6 6 11 1t1 -10l-9 -11q-4 -7 -10 -1q-7 4 -1 10zM499 517l9 10q6 5 11 0t0 -10l-9 -10q-5 -5 -10 -1q-6 6 -1 11zM519 68q-1 5 1 15q0 7 7 7q7 -2 7 -8v-13q0 -6 -7 -8q-6 -2 -8 7zM524 110l4 14q2 7 9 5t5 -9l-4 -13q0 -6 -8 -6 q-8 2 -6 9zM528 536q-5 5 0 10q2 2 5 5.5t5 4.5q7 4 11 -2q5 -4 -1 -10q-2 -1 -10 -9q-6 -4 -10 1zM532 50q2 2 5.5 2.5t4.5 -1.5q3 -3 10 -5q5 -3 5 -9q0 -9 -10 -5t-14 8q-6 6 -1 10zM536 150l5 13q2 8 9 4q8 -2 4 -9l-4 -13q-2 -9 -9 -4q-7 2 -5 9zM550 188l5 13 q4 7 10 4q6 -2 4 -9l-5 -13q-4 -7 -10 -4q-9 2 -4 9zM559 561q-3 7 2 11l12 8q6 4 10 -4q3 -5 -3 -9l-11 -7q-6 -6 -10 1zM565 226l6 13q1 6 9 4q7 -4 4 -10l-5 -13q-4 -6 -10 -4q-6 3 -4 10zM569 38q-1 6 5 8q2 1 5.5 2.5t5.5 2.5q6 3 10 -3q3 -7 -3 -10q-1 -1 -14 -6 q-3 -1 -6 1t-3 5zM581 264l5 12q4 7 10 4q7 -4 4 -10l-5 -12q-4 -7 -10 -4q-8 2 -4 10zM594 581q-4 8 4 10q2 1 6.5 3t6.5 3q8 2 10 -6q0 -8 -6 -8l-6 -3t-6 -2q-5 -3 -9 3zM597 301l6 12q2 9 9 4q9 -2 4 -9l-5 -13q-3 -6 -10 -4q-6 3 -4 10zM605 54q-3 6 2 10l11 8 q5 5 10 0t-1 -11l-11 -9q-5 -4 -11 2zM613 338l6 13q2 6 9 4q7 -4 4 -10l-5 -13q-3 -6 -10 -4q-6 3 -4 10zM629 375l6 13q1 6 9 4q7 -4 4 -10l-5 -12q-4 -7 -10 -4q-6 2 -4 9zM632 593q0 3 2.5 6t5.5 2l15 -2q4 1 5.5 -3t-0.5 -6q-1 -3 -8 -5l-12 1q-7 2 -8 7zM637 80 q-5 5 0 10l10 9q6 6 10 0q6 -4 0 -10l-10 -10q-5 -5 -10 1zM645 413l5 12q2 7 9 5q7 -3 5 -10l-6 -13q-1 -6 -9 -4q-7 4 -4 10zM659 450l5 13q2 7 9 5t5 -10l-5 -13q-2 -9 -9 -4q-7 2 -5 9zM665 119l10 10q4 6 10 0q5 -5 1 -10l-10 -11q-6 -4 -10 0q-5 5 -1 11zM668.5 578.5 q0.5 3.5 2.5 5.5q5 5 10 -1q8 -13 8 -14q2 -8 -5 -10t-9 5q-1 2 -3 5t-3 5q-1 1 -0.5 4.5zM672 488l2 13q2 8 9 6q8 -2 6 -9l-3 -14q-2 -7 -9 -5q-8 2 -5 9zM678 527l1 13q0 7 7 7q3 1 5.5 -1t1.5 -6v-14q0 -9 -8 -7q-7 0 -7 8zM693 138q-5 5 0 10l9 11q4 6 10 0q5 -4 1 -10 l-9 -10q-6 -6 -11 -1z" />
<glyph unicode="N" horiz-adv-x="434" d="M26 54l5 13q4 6 10 4q6 -4 4 -10l-6 -13q-1 -6 -9 -4q-7 4 -4 10zM41 91l5 13q4 6 10 4q7 -4 4 -10l-5 -13q-3 -6 -10 -4q-6 3 -4 10zM57 128l5 13q2 6 10 4q6 -4 3 -10l-5 -13q-2 -6 -9 -4q-7 4 -4 10zM72 165l5 13q4 6 10 4q7 -4 4 -10l-5 -13q-4 -6 -10 -4q-6 3 -4 10 zM72 552q5 6 11 11q6 6 10 0q3 -7 -1 -11q-5 -4 -8 -9q-4 -5 -10 -1q-6 3 -2 10zM88 202l5 13q2 6 10 4q6 -4 3 -10l-5 -13q-2 -6 -9 -4q-7 4 -4 10zM103 239l5 13q4 6 10 4q7 -4 4 -10l-5 -13q-4 -6 -10 -4q-6 3 -4 10zM103 569q-6 6 2 10l13 7q8 2 10 -4q3 -6 -4 -10 l-12 -6q-6 -2 -9 3zM119 276l5 13q2 6 10 4q6 -4 3 -10l-5 -13q-2 -6 -9 -4q-7 4 -4 10zM134 313l5 13q4 6 10 4q7 -4 4 -10l-5 -13q-4 -6 -10 -4q-6 3 -4 10zM139 586q-2 6 5 9l14 3q8 0 9 -6q0 -8 -6 -9l-13 -3q-7 -2 -9 6zM150 350l5 13q2 6 9 4q7 -4 4 -10l-5 -13 q-2 -6 -10 -4q-6 4 -3 10zM165 380q-1 3 0 7l5 13q4 6 10 4q2 -1 4 -5q6 -5 2 -9l-7 -12q-3 -6 -10 -3q-4 1 -4 5zM178 593q0 7 8 7l15 -1q8 -2 6 -9q-3 -6 -9 -5l-12 1q-6 0 -8 7zM180 424l6 13q1 6 9 4q4 -4 5 -6l2 -1h2q6 -4 2 -10l-7 -12q-3 -5 -10 -2q-3 2 -3 3l-2 1 q-6 4 -4 10zM195 461l6 13q1 6 9 4q7 -4 4 -10l-5 -11l7 9q5 5 11 2q5 -5 1 -11l-8 -11q-4 -5 -10 -2q-5 2 -3 8q-5 -2 -7 0q-7 2 -5 9zM211 498l5 13q2 8 9 4q8 -2 4 -9l-5 -13q-2 -9 -9 -4q-9 2 -4 9zM217 586q4 7 11 2q10 -10 11 -13q4 -8 -4 -10q-7 -2 -9 4 q-1 2 -3.5 4.5l-3.5 3.5q-4 2 -2 9zM225 535l3 13q2 6 8 6q3 0 5 -3t1 -6l-3 -14q-3 -7 -10 -5q-7 4 -4 9zM232 488l9 11q4 5 10 1q5 -5 1 -11l-8 -10q-5 -5 -10 -2q-5 4 -2 11zM258 519l10 11q5 5 10 0q6 -6 0 -10l-9 -10q-4 -7 -10 -1q-5 5 -1 10zM278 73l1 15q0 8 8 6 q6 -2 6 -8v-13q0 -5 -7 -7q-6 -2 -8 7zM284 115l4 13q2 7 9 5t5 -9l-3 -13q-3 -7 -9 -5q-8 2 -6 9zM287 538q-5 6 0 11l11 9q6 6 10 -1q6 -6 -1 -10l-10 -9q-5 -5 -10 0zM291 55q4 3 10 1q3 -3 9 -5q6 -4 5 -9q0 -9 -9 -5q-9 2 -14 7q-7 5 -1 11zM297 154l5 13q2 9 9 4 q7 -2 5 -9l-5 -13q-3 -7 -10 -5q-6 4 -4 10zM312 192l5 13q2 6 10 4q6 -4 3 -10l-5 -13q-2 -6 -9 -4q-7 4 -4 10zM318 564q-4 7 2 10l11 8q8 4 11 -3t-3 -9l-11 -8q-6 -4 -10 2zM327 43q0 8 6 8l11 5q7 2 10 -3q4 -8 -3 -10l-14 -6q-8 -2 -10 6zM327 229l6 13q2 6 9 4 q7 -4 4 -10l-5 -12q-4 -7 -10 -4q-6 2 -4 9zM343 266l6 13q4 7 10 4q6 -4 3 -10l-5 -12q-4 -7 -10 -4q-6 2 -4 9zM353 584q-3 6 4 10l13 5q9 2 9 -5q2 -7 -5 -9l-12 -5q-7 -2 -9 4zM360 304l5 12q4 7 10 4q6 -4 4 -10l-6 -12q-4 -7 -10 -4q-6 4 -3 10zM364 59q-4 6 2 10 l11 8q6 4 10 -1q5 -5 -1 -11l-11 -8q-8 -4 -11 2zM375 341l6 12q2 9 9 4q9 -2 4 -9l-5 -13q-4 -7 -10 -4q-6 4 -4 10zM391 378l5 13q4 6 10 4q6 -4 4 -10l-5 -13q-4 -6 -10 -4q-7 4 -4 10zM391 596q0 3 2 6t5 2l16 -1q4 0 5.5 -3.5t-0.5 -6.5t-9 -5l-11 2q-7 0 -8 6zM396 84 q-4 4 1 10l10 9q4 6 10 0t0 -10l-10 -10q-5 -5 -11 1zM406 416l4 12q3 7 10 5q7 -4 4 -10l-5 -13q-2 -6 -9 -4q-7 4 -4 10zM419 453l4 13q2 7 9 5t5 -9l-4 -13q-2 -7 -9 -5t-5 9zM425 112q-6 4 0 10l10 10q4 6 10 0q6 -4 0 -10l-9 -10q-6 -6 -11 0zM428 577q-4 5 1 10 q5 7 11 -1l7 -14q2 -9 -5 -9q-8 -2 -8 4q0 2 -6 10zM430 492l3 13q1 6 8 6q8 -2 6 -9l-2 -14q-3 -7 -10 -5t-5 9zM437 530v13q0 6 7 8q8 0 8 -7l-1 -15q0 -7 -8 -7q-6 2 -6 8zM452 152l9 10q5 6 11 0q6 -4 0 -10l-9 -10q-4 -7 -10 -1q-5 5 -1 11z" />
<glyph unicode="O" horiz-adv-x="378" d="M22 169v14q-2 8 7 8q7 -2 7 -8l1 -13q0 -8 -7 -8q-8 0 -8 7zM23 210l1 14q0 8 8 6q8 0 6 -8v-13q-2 -7 -8 -7q-7 0 -7 8zM25 142q-2 7 6 9q8 0 8 -7l2 -13q2 -6 -5 -8t-9 5zM28 250l2 14q2 6 9 6q7 -2 5 -9l-2 -13q0 -8 -8 -6q-8 0 -6 8zM34 102q-2 7 5 10q7 2 9 -5 l5 -12q3 -6 -4 -10q-7 -5 -9 4zM36 290l3 13q3 7 10 5t4 -9l-3 -13q-2 -7 -9 -5t-5 9zM47 329l4 13q4 7 10 4q6 -1 4 -9l-4 -13q-2 -7 -9 -5t-5 10zM53 65q-3 7 2 10q2 2 5.5 1.5t4.5 -3.5q4 -7 8 -9q5 -6 0 -11t-11 0zM60 367l5 13q3 6 10 4q6 -3 4 -10l-5 -13q-2 -6 -9 -4 t-5 10zM76 404l6 12q2 9 9 4q7 -4 4 -10l-6 -12q-2 -9 -9 -4q-7 4 -4 10zM82 46q4 6 10 2q5 -4 11 -5q6 -4 4 -10t-10 -4q-5 1 -13 7q-8 4 -2 10zM94 440l6 12q4 7 10 3q6 -3 3 -10l-6 -12q-4 -7 -10 -3q-6 3 -3 10zM114 475l7 12q1 3 4.5 3.5t5.5 -1.5q8 -4 2 -10l-7 -12 q-4 -6 -10 -2t-2 10zM118 31q2 8 8 6h13q7 0 7 -7q2 -8 -7 -8h-14q-9 2 -7 9zM137 509l8 11q4 7 10 1q6 -5 1 -10l-8 -11q-4 -6 -10 -2q-5 5 -1 11zM158 31q-2 7 5 9l13 4q6 2 9 -5t-5 -9l-14 -4q-8 -2 -8 5zM163 529q-5 5 0 11l9 10q6 6 11 0q6 -6 0 -10l-10 -10 q-4 -5 -10 -1zM191 558q-6 6 1 10l11 9q7 3 11 -2q4 -6 -2 -10l-10 -8q-6 -4 -11 1zM195 45q-4 7 3 9l12 6q6 3 10 -2q6 -8 -2 -10l-13 -7q-6 -3 -10 4zM223 581q-4 8 3 11l12 6q7 3 10 -3q4 -6 -3 -10l-12 -6q-6 -4 -10 2zM229 65q-4 6 2 10l11 8q5 4 10 -1q6 -6 -1 -10 l-11 -9q-7 -3 -11 2zM259 600q-5 7 4 9l14 4q7 3 9 -5q2 -7 -5 -9l-13 -4q-7 -2 -9 5zM260 90q-6 6 0 10l10 10q4 6 10 0q6 -4 0 -10l-9 -10q-5 -6 -11 0zM287 129l8 11q4 7 10 1q7 -4 1 -10l-8 -11q-6 -6 -10 -1q-7 4 -1 10zM297 610q-2 8 7 8l14 1q8 0 8 -8q-2 -7 -8 -7 h-13q-6 -2 -8 6zM310 161l7 11q4 8 10 2q6 -3 3 -10l-8 -12q-4 -5 -10 -2q-5 5 -2 11zM311 490q2 8 8 7q7 0 7 -7l2 -12q0 -8 -6 -9q-7 -2 -9 6zM314 518l4 14q2 9 9 4q7 -2 5 -9l-4 -12q-2 -8 -8 -6q-8 0 -6 9zM322 449q-3 6 4 10q7 2 9 -3q5 -9 7 -11q4 -5 -1 -10 q-6 -6 -11 1zM330 557q2 4 8 12q6 6 11 1t1 -11q-4 -2 -8 -10q-4 -5 -10 -2q-6 2 -2 10zM331 194l7 12q2 8 9 3q6 -3 3 -10l-6 -12q-4 -7 -10 -3q-7 4 -3 10zM349 427q5 5 10 2q4 -4 11 -6q6 -2 4 -9t-10 -4q-5 1 -13 7q-8 4 -2 10zM350 229l6 12q2 6 9 4q8 -4 4 -10l-6 -13 q-4 -7 -10 -3q-6 3 -3 10zM357 577q-4 6 3 10q10 6 15 5q9 2 9 -7q-2 -7 -7 -7q-4 0 -10 -4q-4 -3 -10 3zM366 265l5 12q4 7 10 4q8 -2 4 -9l-5 -13q-4 -7 -10 -4q-7 4 -4 10zM381 301l4 13q3 7 10 5q8 -2 4 -10l-4 -13q-3 -6 -10 -4q-9 2 -4 9zM385 412q2 8 8 6l12 2 q5 0 7 -6l1 1l2 14q0 8 8 6q6 -1 6 -8l11 6q5 3 10 -3q4 -6 -3 -10l-13 -6q-4 -1 -7 0v-1q-2 -8 -9 -6q-5 0 -5 4q-2 -6 -6 -6l-14 -1q-8 0 -8 8zM394 339l3 13q2 7 9 5q8 -2 5 -9l-3 -14q-3 -8 -9 -4q-7 2 -5 9zM395 583q2 8 10 2q8 -3 11 -11q5 -6 -1 -10q-7 -4 -10 1 q-3 7 -8 8q-5 3 -2 10zM404 377l3 13q2 8 9 6q6 -2 6 -9l-3 -14q-3 -7 -10 -5t-5 9zM414 544q-1 6 5 10q7 2 10 -5l4 -14q0 -9 -7 -9q-8 -2 -8 6zM418 454l2 14q0 7 7 7q8 -2 7 -8l-1 -14q-2 -7 -8 -7q-7 2 -7 8zM420 507q0 6 7 8q8 0 8 -7v-15q0 -7 -7 -7q-9 0 -7 7z M459 437q-4 6 1 10l10 9q6 4 11 -1t-1 -10l-10 -10q-7 -3 -11 2zM488 474l8 10q4 6 10 2q6 -3 2 -10l-9 -12q-5 -5 -10 -1q-6 6 -1 11zM509 505l4 12q2 7 9 5q7 0 5 -9q-1 -3 -5 -14q-4 -7 -10 -3q-7 3 -3 9z" />
<glyph unicode="P" horiz-adv-x="328" d="M27 58l5 12q4 7 10 4q6 -2 4 -9l-5 -13q-4 -7 -10 -4q-8 2 -4 10zM42 95l6 12q2 9 9 4q9 -2 4 -9l-5 -13q-4 -7 -10 -4q-6 4 -4 10zM58 132l5 12q4 7 10 4q6 -2 4 -9l-6 -13q-2 -8 -9 -4t-4 10zM73 169l6 12q2 9 9 4q9 -2 4 -9l-5 -13q-4 -7 -10 -4q-6 4 -4 10zM74 556 q3 6 10 11q6 6 10 -1q5 -5 0 -10q-6 -4 -9 -9q-3 -4 -10 -2q-6 4 -1 11zM89 206l5 12q4 7 10 4q6 -2 4 -9l-6 -13q-2 -8 -9 -4t-4 10zM104 243l6 12q2 9 9 4q9 -2 4 -9l-5 -13q-4 -7 -10 -4q-6 4 -4 10zM104 573q-4 6 3 10l13 6q7 4 9 -4q5 -7 -4 -9l-11 -6q-8 -2 -10 3z M120 280l5 12q4 7 10 4q6 -2 4 -9l-6 -13q-1 -6 -9 -4q-7 4 -4 10zM135 317l6 12q2 9 9 4q8 -2 4 -9l-5 -13q-3 -6 -10 -4q-6 4 -4 10zM140 589q-2 7 6 9l14 3q8 2 8 -6q2 -6 -6 -8l-13 -3q-6 -2 -9 5zM148 228q5 4 10 2q1 0 4.5 -2t5.5 -2q6 -2 6 -8q-2 -7 -9 -7 q-2 0 -15 7q-10 4 -2 10zM151 354l5 12q4 7 10 4q0 -1 2 -1l7 12q-3 -2 -5 0q-6 3 -4 10l5 12q4 7 10 4q8 -2 4 -9l-5 -13q3 0 5 -1q7 -4 3 -10l-7 -12q-4 -7 -10 -3q-1 0 -2 1l-5 -12q-2 -6 -9 -4q-7 4 -4 10zM180 596q-2 8 7 8l15 -1q8 -2 6 -9q-2 -6 -8 -6l-13 1 q-7 0 -7 7zM182 428l5 13q2 6 9 4q7 -4 4 -10l-5 -13q-2 -6 -9 -4q-7 4 -4 10zM186 217q0 6 7 8l13 2q6 2 8 -6t-6 -8l-14 -3q-8 -2 -8 7zM189 405l7 11q4 7 10 3q7 -4 3 -10l-8 -12q-4 -6 -10 -2q-5 3 -2 10zM197 465l5 13q2 6 9 4q7 -3 5 -10l-6 -13q-2 -6 -9 -4 q-7 4 -4 10zM211 439l8 12q4 6 10 2t2 -10l-8 -12q-4 -6 -10 -2q-5 5 -2 10zM212 502l5 13q2 6 9 4q8 -2 4 -10l-5 -12q-2 -8 -9 -4q-8 2 -4 9zM219 590q2 7 11 2l4 -4q5 -5 6 -9q3 -8 -4 -10t-9 3q-1 2 -3 5l-3 3q-5 4 -2 10zM226 225q-2 7 5 9l12 5q6 2 10 -4q3 -6 -4 -10 l-14 -5q-7 -2 -9 5zM226 539l3 12q1 6 8 6q9 0 7 -8l-4 -15q-2 -8 -10 -4q-6 2 -4 9zM235 473l8 12q4 7 10 1q6 -4 2 -10l-9 -11q-4 -6 -10 -2q-6 5 -1 10zM260 506l8 11q6 6 11 1t1 -10l-9 -11q-4 -5 -10 -1q-5 6 -1 10zM264 241q-4 6 3 10l11 6q6 3 11 -2q3 -7 -3 -10 l-12 -7q-7 -3 -10 3zM287 527q-5 5 0 11l9 10q6 6 11 0q4 -4 0 -10l-10 -10q-4 -5 -10 -1zM299 262q-5 5 1 11l11 8q5 4 10 -1q6 -6 -1 -10l-11 -9q-6 -6 -10 1zM316 557q-5 5 0 10l11 9q6 4 11 -1q4 -7 -2 -10l-10 -9q-4 -4 -10 1zM331 288q-5 5 0 10l9 10q5 5 10 0 q6 -4 0 -10l-9 -10q-6 -6 -10 0zM348 582q-4 8 2 10l13 7q7 3 10 -3q2 -7 -4 -10l-11 -6q-6 -3 -10 2zM358 328l9 10q4 7 10 1q7 -4 1 -10l-8 -11q-6 -6 -11 0q-5 4 -1 10zM383 360l8 11q4 6 9 2q7 -4 3 -10l-8 -12q-5 -5 -11 -1t-1 10zM385 599q-2 7 6 9h15q9 0 7 -7t-8 -7 h-12q-6 -2 -8 5zM404 394l7 12q3 5 10 3q7 -4 3 -10l-7 -12q-4 -7 -10 -3q-6 3 -3 10zM422 430l5 12q4 7 10 4q8 -2 4 -9l-6 -13q-2 -9 -9 -4q-7 4 -4 10zM425 596q2 7 10 3q2 -1 12 -11q6 -6 -1 -10q-7 -3 -11 1q-1 1 -3 4t-4 4q-7 2 -3 9zM436 467l4 13q2 7 9 5q7 0 5 -8 l-4 -14q-2 -7 -9 -5q-7 3 -5 9zM445 506l2 13q2 7 8 7q9 0 7 -8l-2 -14q-2 -8 -9 -6q-6 2 -6 8zM445 558q-2 6 5 8q7 3 9 -5q3 -7 3 -14q0 -8 -7 -8q-8 -2 -8 6q1 6 -2 13z" />
<glyph unicode="Q" horiz-adv-x="422" d="M21 51q-3 4 0 13q2 4 2 6q3 8 11 2q2 -2 2 -9q0 -1 -1.5 -3.5t0.5 -3.5q3 -3 -3 -9q-5 -5 -11 4zM42 41q4 8 8 4l13 -1q8 -2 6 -8q0 -7 -8 -7l-15 2q-8 4 -4 10zM43 80q-3 5 4 9l14 5q7 2 9 -6t-6 -8l-11 -5q-7 -2 -10 5zM72 287v14q2 9 8 7q7 0 7 -7l-1 -14q2 -7 -7 -7 q-7 0 -7 7zM73 260q-2 8 7 8q6 0 8 -6l2 -13q0 -7 -6 -9q-9 -2 -9 6zM75 328l2 14q2 8 9 6q6 -2 6 -8l-2 -14q-2 -6 -9 -6q-6 0 -6 8zM81 36q0 6 6 8q5 0 13 2q7 2 9 -5t-5 -9l-15 -3q-8 0 -8 7zM82 89q0 8 7 8q3 0 7.5 -0.5t6.5 -0.5q9 -2 7 -8q0 -7 -8 -7q-1 0 -6 1t-7 0 q-7 0 -7 7zM83 369l3 13q2 7 9 5q8 -2 5 -9l-3 -13q-2 -7 -9 -5t-5 9zM85 219q-5 6 3 10q7 2 10 -3q5 -7 7 -8q3 -2 1 -10q-2 -7 -10 -2q-5 2 -11 13zM94 408l5 13q2 8 10 4q6 -2 4 -9l-5 -13q-2 -8 -9 -4q-7 2 -5 9zM109 446l6 13q4 6 10 3t3 -10l-5 -12q-3 -6 -10 -4 q-7 4 -4 10zM120 45q-2 7 4 9l13 5q7 4 9 -3q3 -7 -3 -10l-13 -6q-8 -2 -10 5zM122 86q2 8 9 6l13 -3q8 -2 6 -9t-9 -5l-13 3q-8 2 -6 8zM128 482l7 13q3 5 10 2q6 -4 2 -10l-6 -12q-3 -5 -11 -3q-6 4 -2 10zM150 517l8 11q6 6 11 1q5 -4 1 -10l-8 -11q-4 -7 -10 -1 q-6 3 -2 10zM157 61q-3 7 3 10l1 1v5q2 7 9 5l13 -4q7 -3 5 -10t-9 -4h-1l-11 -6q-7 -3 -10 3zM176 549l10 10q7 3 11 -1q6 -6 -1 -10l-9 -10q-5 -5 -10 0q-4 4 -1 11zM192 82q-6 6 1 10l12 8q5 3 10 -2q2 -2 1.5 -5.5t-3.5 -4.5l-11 -8q-7 -5 -10 2zM199 65q4 7 10 4l13 -4 q7 -2 4 -9q-2 -7 -9 -5l-13 4q-7 3 -5 10zM206 566q-6 6 1 10l12 9q6 4 10 -2q3 -6 -2 -11l-11 -7q-6 -6 -10 1zM224 105q-4 6 1 11l11 8q4 4 10 -1q6 -6 -1 -10l-11 -9q-5 -4 -10 1zM238 53q2 7 9 5l13 -3q6 -1 6 -9q-2 -6 -9 -6l-14 4q-7 2 -5 9zM239 589q-4 6 3 10l13 6 q7 2 10 -4q2 -7 -4 -9l-12 -6q-7 -3 -10 3zM255 131q-5 5 0 11l10 9q5 5 10 0t0 -11l-10 -9q-6 -6 -10 0zM276 605q-2 7 5 9l14 3q7 2 9 -7q0 -6 -7 -8l-12 -3q-7 0 -9 6zM277 45q2 7 8 7l13 -1q6 0 8 -7q0 -8 -8 -8l-14 1q-7 0 -7 8zM283 160q-6 4 0 10l9 10q5 5 10 1 q7 -5 1 -11l-9 -10q-6 -6 -11 0zM309 200l8 11q5 5 11 1q7 -4 1 -10l-9 -11q-4 -7 -10 -1q-7 4 -1 10zM315 611q0 9 8 7l15 -2q8 -2 5 -9q-2 -7 -8 -5l-13 1q-7 2 -7 8zM317 46q0 6 6 8l12 4q6 2 10 -4q2 -7 -5 -10l-14 -4q-7 -3 -9 6zM333 232l7 11q4 6 10 2q7 -4 3 -10 l-8 -12q-5 -5 -11 -1q-7 4 -1 10zM354 265l7 12q3 6 10 3q6 -4 3 -10l-7 -12q-4 -7 -10 -3q-7 4 -3 10zM355 603q2 8 10 4l13 -7q5 -5 1 -11q-5 -7 -9 -1l-12 6q-7 2 -3 9zM356 57q-3 7 3 9l11 8q6 4 10 -2q3 -6 -2 -11l-12 -8q-8 -2 -10 4zM373 300l6 12q4 8 9 4 q8 -2 4 -10l-6 -12q-3 -6 -10 -3q-8 2 -3 9zM388 572q-5 3 0 10q6 6 11 -1q7 -7 9 -11q6 -6 -2 -10q-7 -4 -10 2zM389 337l5 12q3 7 9 5q7 -3 5 -10l-6 -13q-1 -6 -9 -4q-7 4 -4 10zM390 78q-5 6 1 10l10 9q4 6 10 0q5 -5 0 -10l-10 -10q-7 -5 -11 1zM402 374l4 13q2 7 9 5 t5 -9l-4 -13q-2 -7 -9 -5t-5 9zM408 540q-2 7 4 10q7 2 10 -4q4 -11 5 -14q2 -7 -5 -9t-9 5q-1 4 -5 12zM412 412l3 14q2 7 8 5q8 0 6 -8l-3 -14q0 -7 -8 -5q-8 0 -6 8zM419 106q-5 5 0 10l9 10q5 5 10 1q6 -6 1 -11l-9 -10q-6 -6 -11 0zM419 451l1 13q2 7 8 7q9 0 7 -7 l-1 -14q-2 -9 -8 -7q-7 2 -7 8zM419 503q-2 8 6 8q6 2 8 -6l2 -14q0 -8 -7 -8q-8 0 -8 7zM445 146l9 11q4 5 10 1q5 -5 1 -11l-9 -10q-4 -7 -10 -1q-7 4 -1 10z" />
<glyph unicode="R" horiz-adv-x="504" d="M27 58l5 12q2 9 9 4q9 -2 4 -9l-5 -13q-2 -9 -9 -4q-8 2 -4 10zM42 95l5 12q4 7 10 4q6 -2 4 -9l-5 -13q-4 -7 -10 -4q-7 4 -4 10zM57 132l6 12q2 9 9 4q9 -2 4 -9l-5 -13q-4 -7 -10 -4q-6 4 -4 10zM73 169l5 12q4 7 10 4q6 -2 4 -9l-6 -13q-2 -8 -9 -4t-4 10zM73 556 q6 8 10 11q7 5 11 -1t-1 -10l-8 -9q-3 -4 -10 -2q-7 4 -2 11zM88 206l6 12q2 9 9 4q9 -2 4 -9l-5 -13q-4 -7 -10 -4q-6 4 -4 10zM103 573q-4 6 3 10l13 6q6 3 10 -4q2 -7 -4 -9l-12 -6q-6 -2 -10 3zM104 243l5 12q4 7 10 4q6 -2 4 -9l-6 -13q-2 -8 -9 -4t-4 10zM119 280 l6 12q2 9 9 4q9 -2 4 -9l-5 -13q-4 -7 -10 -4q-6 4 -4 10zM134 312q0 3 1 5l5 12q4 7 10 4q4 -1 4 -7q2 -4 1 -7l-7 -12q-4 -6 -10 -3q-6 2 -4 8zM140 589q-2 7 5 9l14 3q7 2 9 -6q0 -6 -6 -8l-13 -3q-7 -2 -9 5zM147 247q-2 7 6 9q7 0 9 -6l3 -13q2 -7 -6 -9t-8 5zM150 354 l6 12q2 8 9 4q4 -2 4 -4q1 0 1 -0.5t1 -0.5q6 -3 3 -10l-7 -12q-3 -6 -10 -3q-3 2 -3 4q-6 4 -4 10zM160 205q-2 6 4 10q6 2 10 -4l5 -13q4 -6 -4 -10q-7 -2 -9 4zM161 266q3 5 9 5l13 -1q7 -2 7 -8q0 -7 -8 -7l-15 2q-8 0 -6 9zM166 391l5 12q4 7 10 4q4 -2 4 -7q3 1 7 0 q5 -4 2 -10l-7 -12q-3 -5 -10 -2q-3 2 -3 4q-3 0 -4 1q-7 4 -4 10zM179 166q-3 6 3 10q6 3 10 -2l7 -12q4 -6 -2 -10q-7 -5 -10 2zM179 596q0 8 8 8l14 -1q10 -2 6 -9q-1 -6 -8 -6l-13 1q-7 0 -7 7zM181 428l5 13q4 6 10 4q6 -3 4 -10l-5 -13q-3 -6 -10 -4q-6 3 -4 10z M195 421l8 12q3 5 10 2q6 -4 2 -10l-7 -12q-4 -6 -10 -2q-6 3 -3 10zM196 465l5 13q4 6 10 4q7 -4 4 -10l-5 -13q-4 -6 -10 -4q-6 4 -4 10zM202 262q0 8 7 8l13 1q6 2 8 -6t-6 -8l-14 -2q-8 0 -8 7zM204 130q-6 6 1 10q6 6 10 -1l9 -10q4 -6 -1 -11q-6 -6 -10 1zM211 502 l5 13q3 6 10 4q8 -2 4 -10l-5 -12q-3 -7 -10 -5q-6 4 -4 10zM217 456l8 11q1 3 4.5 3.5t5.5 -1.5q6 -4 2 -10l-8 -11q-3 -6 -10 -3q-5 5 -2 11zM218 590q5 7 11 2q10 -10 11 -13q3 -8 -4 -10t-9 3q0 1 -7 8q-5 4 -2 10zM226 539l3 12q1 6 8 6q3 0 5 -2.5t1 -5.5l-3 -15 q-4 -7 -10 -4q-8 2 -4 9zM233 98q-5 5 0 10t10 0l10 -9q5 -5 0 -10q-4 -7 -10 -1zM240 490l8 11q5 5 11 1q5 -4 1 -10l-8 -11q-4 -6 -10 -2q-5 4 -2 11zM242 267q-2 7 6 9l12 4q6 1 10 -5q2 -7 -5 -10l-14 -3q-7 -3 -9 5zM265 80q3 6 10 2l11 -7q5 -5 2 -11q-4 -5 -10 -2 l-11 8q-8 4 -2 10zM265 522l9 11q6 5 11 0q6 -4 0 -10l-9 -10q-4 -7 -10 -1q-5 4 -1 10zM281 278q-2 6 4 10l13 5q7 4 9 -3q3 -6 -3 -10l-13 -6q-7 -2 -10 4zM293 542q-5 6 0 11l11 9q6 6 10 -1q4 -5 -1 -10l-10 -9q-4 -6 -10 0zM301 58q4 7 10 4l12 -5q5 -4 4 -9 q-2 -8 -9 -5l-13 5q-8 4 -4 10zM318 295q-3 6 3 10l11 7q6 3 11 -2q3 -7 -3 -10l-12 -8q-6 -4 -10 3zM324 569q-6 6 2 10l12 8q6 3 10 -3q3 -7 -3 -10l-11 -7q-6 -3 -10 2zM341 45q2 8 8 6q4 -1 13 -1q7 0 7 -7q0 -6 -7 -8q-10 0 -14 1q-9 2 -7 9zM353 316q-4 6 1 11l10 9 q6 4 11 -1q4 -6 -1 -11l-11 -9q-6 -4 -10 1zM359 589q-4 7 4 9q11 4 14 5q9 0 9 -6q2 -7 -5 -9q-5 0 -13 -4q-6 -2 -9 5zM383 44q0 7 7 7l12 4q7 2 9 -6q2 -6 -5 -9l-14 -3q-7 -2 -9 7zM384 342q-6 6 0 11l9 10q5 5 11 0q6 -4 0 -10l-10 -10q-4 -7 -10 -1zM398 598q0 7 8 7 l15 -3q9 -4 5 -10q-4 -8 -9 -4q-2 1 -6.5 1.5t-5.5 0.5q-7 0 -7 8zM409 383l8 11q4 6 10 2q6 -3 3 -10l-9 -12q-4 -7 -10 -1q-6 4 -2 10zM425 54q-4 6 3 10l12 6q7 2 10 -3q3 -7 -3 -10l-13 -7q-7 -4 -9 4zM430 417l6 12q4 6 10 3q6 -2 3 -9l-6 -13q-2 -7 -10 -3q-5 3 -3 10 zM436 575q-5 5 0 10q4 5 11 0l9 -12q5 -6 -3 -10q-5 -3 -10 2zM445 453l4 13q2 7 9 5t5 -9l-4 -13q-2 -8 -9 -5q-7 2 -5 9zM452 543q0 6 5 9q8 2 10 -6l2 -14q2 -8 -7 -8q-7 -2 -7 6zM454 491l1 13q2 7 8 7q9 0 7 -7l-1 -15q-2 -7 -9 -6q-6 2 -6 8zM461 75q-3 7 1 10l10 9 q6 6 11 0q4 -6 -1 -11l-11 -9q-6 -6 -10 1zM492 114l9 10q5 6 10 1q6 -5 1 -10l-9 -11q-5 -5 -10 0q-5 4 -1 10zM519 146l9 11q5 5 11 1q5 -6 0 -11l-8 -10q-5 -5 -11 -1q-5 4 -1 10z" />
<glyph unicode="S" horiz-adv-x="460" d="M24 55l8 11q3 7 10 2q5 -4 2 -10l-8 -11q-3 -7 -10 -2q-5 3 -2 10zM46 88l8 12q4 6 10 2t2 -10l-8 -12q-4 -5 -10 -2q-6 4 -2 10zM68 122l8 11q3 6 10 3q5 -5 2 -11l-8 -11q-3 -7 -10 -2q-5 4 -2 10zM90 155l8 12q4 5 10 2q6 -4 2 -10l-8 -12q-4 -5 -10 -2q-6 4 -2 10z M112 189l8 12q4 5 10 2q6 -4 2 -10l-8 -12q-4 -5 -10 -2q-6 4 -2 10zM134 223l7 11q5 7 11 2q5 -4 2 -10l-8 -11q-4 -8 -10 -2q-5 3 -2 10zM156 256l7 12q5 5 11 2q6 -4 2 -10l-8 -12q-4 -6 -10 -2t-2 10zM157 26q-3 10 0 18q4 9 11 4q5 -3 3 -9v-8q2 -4 -3 -9q-6 -6 -11 4z M176 56q-4 6 3 10q5 3 15 5q7 3 9 -6q0 -7 -6 -8q-2 -1 -6 -2t-6 -2q-4 -4 -9 3zM178 16q2 7 9 5l12 -3q8 -2 6 -8q0 -8 -8 -6q-7 0 -15 3q-8 2 -4 9zM178 290l7 12q4 6 10 2q6 -5 3 -11l-8 -11q-4 -6 -10 -2q-6 3 -2 10zM200 324l7 11q5 5 10 2q7 -4 3 -10l-8 -11 q-4 -7 -10 -3q-7 5 -2 11zM214 67q0 8 7 8l14 1q6 1 8 -7q0 -7 -7 -7l-14 -1q-6 -2 -8 6zM217 10q0 7 7 7l13 1q8 2 8 -6q2 -8 -6 -8l-14 -1q-8 -2 -8 7zM222 357l7 12q5 5 10 2q7 -4 3 -10l-8 -12q-4 -6 -10 -2q-6 3 -2 10zM244 391l8 11q3 6 10 2q6 -4 2 -10l-8 -11 q-4 -7 -10 -3q-5 5 -2 11zM253 479q0 10 1 15q0 7 7 7q9 -2 7 -8v-13q0 -6 -7 -8q-6 0 -8 7zM254 70q0 8 7 8h14q6 2 8 -6q0 -8 -7 -8l-14 -1q-8 0 -8 7zM257 14q-2 7 5 9l13 3q7 2 9 -5q3 -7 -5 -9l-13 -4q-7 -2 -9 6zM257 452q-2 7 6 9t8 -6l4 -12q2 -7 -5 -10q-7 -2 -9 5 zM258 521l5 14q2 8 9 4q6 -2 4 -9l-4 -13q-2 -5 -9 -5q-7 2 -5 9zM266 424l8 12q4 6 10 2q5 -5 2 -11l-5 -6l2 -3l6 -12q2 -7 -4 -10t-10 4l-5 13q-2 0 -2 1q-6 4 -2 10zM274 560l8 12q4 6 10 2q5 -5 2 -10l-7 -11q-3 -6 -10 -3q-6 4 -3 10zM287 376q-3 6 3 10q6 3 10 -3 l6 -12q3 -7 -2 -10q-7 -3 -10 3zM289 457l7 12q5 5 11 2q5 -5 1 -10l-7 -12q-5 -5 -11 -2q-6 5 -1 10zM294 72q0 8 7 8l13 2q7 0 9 -7q0 -8 -7 -8l-14 -1q-8 -2 -8 6zM295 25q-2 7 4 9l12 6q6 3 10 -3q3 -7 -3 -10l-13 -6q-6 -3 -10 4zM299 594l11 9q6 4 11 -1q4 -6 -2 -10 l-9 -9q-6 -4 -10 0q-6 4 -1 11zM307 341q-4 6 2 10q6 3 10 -3l7 -12q4 -6 -2 -10q-7 -3 -10 3zM311 491l8 11q4 6 10 2q3 -1 3.5 -4.5t-1.5 -5.5l-8 -12q-4 -6 -10 -2q-5 5 -2 11zM327 306q-4 6 3 10q6 4 10 -3l7 -12q4 -6 -3 -10q-6 -3 -10 3zM331 43q-4 6 2 10l11 8 q1 2 4.5 1.5t5.5 -2.5q5 -5 -1 -11l-11 -8q-7 -5 -11 2zM331 608q-4 6 4 10q15 3 16 3q9 0 7 -8q-2 -7 -7 -7t-11 -2q-7 -2 -9 4zM334 77q0 7 6 8l13 2q7 2 9 -5v-3l5 10q4 6 9 3q1 1 3 1l12 5q7 2 10 -5q2 -7 -5 -9l-13 -5q-3 -2 -5 0l-6 -9q-3 -6 -10 -2q-3 2 -3 6 q-1 -1 -3 -1l-13 -2q-7 -1 -9 6zM334 524l8 11q5 5 10 2q5 -4 2 -11l-8 -11q-4 -6 -10 -2q-5 5 -2 11zM347 271q-3 7 3 10q6 4 10 -3l6 -12q3 -7 -3 -10q-6 -4 -10 3zM357 556l7 11q1 6 9 4q7 -4 4 -10l-8 -13q-3 -6 -10 -2q-5 5 -2 10zM365 236q-4 6 3 10q7 2 10 -4l6 -13 q2 -7 -4 -10q-6 -2 -10 4zM367 599q-2 5 2 9q4 6 11 -2q4 -10 4 -16q0 -4 -2.5 -6.5t-5.5 -1.5q-5 1 -7 7q1 2 -2 10zM378 199q-2 7 5 9q7 3 9 -5q4 -8 4 -13q2 -7 -6 -9q-6 -1 -8 5q-2 8 -4 13zM379 112l3 12q2 7 9 5q9 0 5 -8l-4 -14q0 -7 -9 -5q-6 3 -4 10zM385 149l1 13 q-2 7 6 7q7 2 9 -6l-1 -15q0 -7 -8 -7q-7 0 -7 8zM411 97q-2 6 4 10l12 6q7 2 10 -3q3 -7 -3 -10l-13 -6q-7 -3 -10 3zM447 116q-4 6 2 10l11 8q5 4 10 -1q4 -6 -1 -11l-12 -8q-6 -4 -10 2zM479 140q-6 6 0 10l9 11q5 5 10 0q5 -4 1 -10l-10 -11q-6 -6 -10 0z" />
<glyph unicode="T" horiz-adv-x="240" d="M24 523v16q2 9 10 5q8 -2 4 -8v-12q-2 -6 -6 -7q-3 -1 -6 1t-2 5zM35 495q-4 6 1 11q7 2 11 -1l8 -9q6 -2 2 -9q-2 -7 -10 -3q-3 2 -6.5 6t-5.5 5zM38 565l10 11q7 5 11 -2q5 -5 -1 -9l-9 -9q-4 -5 -10 -1q-7 4 -1 10zM70 580q-4 6 4 10l14 3q7 2 9 -5t-6 -9l-12 -3 q-6 -2 -9 4zM84 35l6 13q2 6 9 4q7 -4 4 -10l-5 -13q-4 -6 -10 -4q-6 3 -4 10zM97 70l5 13q4 6 10 4q6 -4 4 -10l-6 -13q-2 -6 -9 -4q-7 4 -4 10zM109 590q-2 7 6 7l14 1q8 0 8 -7q0 -8 -7 -8h-14q-7 0 -7 7zM113 109l6 13q2 6 9 4q7 -4 4 -10l-5 -13q-4 -6 -10 -3 q-6 1 -4 9zM130 148l5 13q4 7 10 4q6 -4 4 -10l-6 -12q-2 -9 -9 -4q-9 2 -4 9zM146 188l5 12q4 7 10 4q6 -2 4 -9l-5 -13q-4 -7 -10 -4q-7 4 -4 10zM149 591q0 7 8 7l13 -2q9 0 7 -8q0 -8 -8 -6l-13 1q-7 2 -7 8zM162 227l6 13q2 6 9 4q7 -4 4 -10l-5 -13q-3 -6 -10 -4 q-6 4 -4 10zM179 266l5 13q2 6 10 4q6 -4 4 -10l-6 -13q-2 -7 -9 -3q-8 2 -4 9zM189 587q0 7 8 7l14 -2q8 0 6 -8q0 -8 -8 -6l-14 1q-6 1 -6 8zM195 305l5 13q4 7 10 4t4 -10l-5 -12q-4 -7 -10 -4q-9 2 -4 9zM211 345l6 12q2 9 9 4q9 -2 4 -9l-5 -13q-4 -7 -10 -4 q-6 4 -4 10zM228 384l5 13q4 6 10 3q6 -1 4 -9l-6 -13q-2 -6 -9 -4q-7 4 -4 10zM229 582q0 8 8 6l14 -2q8 0 6 -8t-8 -6l-14 2q-8 0 -6 8zM244 423l6 13q2 6 9 4q7 -4 4 -10l-5 -13q-4 -6 -10 -4q-6 4 -4 10zM261 462l5 13q2 9 9 4q7 -4 4 -10l-5 -12q-2 -9 -9 -4q-8 2 -4 9 zM269 576q0 8 8 6l14 -2q6 -2 6 -8q-2 -7 -8 -7l-14 3q-8 0 -6 8zM277 502l5 12q4 7 10 4t4 -10l-6 -12q-2 -8 -9 -4q-8 2 -4 10zM295 541l6 12q4 7 10 3q7 -4 3 -10l-6 -12q-4 -7 -10 -3q-6 3 -3 10zM309 570q0 6 8 6l13 -2q7 0 7 -8q-2 -8 -8 -6l-14 1q-8 2 -6 9zM349 565 q0 8 8 6l13 -1q7 0 7 -8q0 -7 -8 -7l-14 2q-8 0 -6 8zM389 562q0 7 7 7h14q7 0 7 -8q0 -7 -7 -7h-14q-7 2 -7 8zM429 562q0 7 6 9l14 1q6 2 8 -6t-6 -8l-14 -2q-8 0 -8 6zM469 568q-2 6 4 10l13 4q7 5 9 -4q5 -7 -4 -9l-13 -5q-7 -4 -9 4z" />
<glyph unicode="U" horiz-adv-x="516" d="M25 547q1 3 10 11q5 6 11 0q3 -6 -1 -10l-4 -4t-4 -5q-3 -5 -10 -2q-8 2 -2 10zM36 92l1 14q0 7 9 7q6 -1 6 -8l-1 -14q-2 -7 -8 -7q-7 0 -7 8zM37 64q0 8 7 8q6 1 8 -5q0 -5 4 -11q2 -7 -4 -10q-6 -6 -9 3q-6 10 -6 15zM42 133l3 14q3 7 10 5t5 -9l-3 -13q-2 -7 -9 -5 q-8 0 -6 8zM53 173l4 13q2 7 9 5t5 -9l-4 -13q-2 -7 -9 -5t-5 9zM56 565q-4 6 3 9l13 7q8 2 9 -4q3 -6 -3 -10l-12 -5q-7 -3 -10 3zM62 39q4 7 8 3l12 -2q7 0 7 -7q0 -9 -8 -7l-15 2q-8 4 -4 11zM66 212l4 13q4 7 10 4q8 -2 4 -9l-4 -13q-4 -7 -10 -4q-8 2 -4 9zM80 250 l5 13q2 9 9 4q8 -2 4 -9l-4 -13q-4 -7 -10 -4q-8 2 -4 9zM93 581q-3 7 5 9l13 4q9 2 9 -6q2 -8 -5 -8l-13 -4q-7 -2 -9 5zM95 288l5 13q3 6 10 4q6 -4 4 -10l-6 -12q-2 -7 -9 -5q-7 4 -4 10zM101 34q-2 8 5 10q10 2 13 4q6 2 9 -4t-4 -10q-2 -1 -7 -2.5t-7 -2.5q-7 -2 -9 5z M110 326l6 12q2 9 9 4q9 -2 4 -9l-5 -13q-4 -7 -10 -4q-6 4 -4 10zM126 363l6 13q2 6 9 4q7 -4 4 -10l-5 -13q-4 -6 -10 -4q-6 3 -4 10zM132 590q0 7 7 9h14q8 2 8 -7q-2 -7 -8 -7l-13 -1q-6 -2 -8 6zM139 49q-3 7 2 10l12 7q5 5 10 -2q4 -6 -2 -10l-12 -7q-6 -4 -10 2z M142 400l5 13q4 7 10 4q7 -4 4 -10l-5 -12q-4 -7 -10 -4q-9 2 -4 9zM158 438l5 12q4 7 10 4q6 -1 4 -9l-6 -13q-1 -6 -9 -4q-7 4 -4 10zM173 72q-5 4 1 10l10 8q6 6 11 0q4 -6 -1 -11l-11 -9q-7 -4 -10 2zM173 475l5 13q4 7 10 4q6 -2 4 -9l-5 -13q-4 -7 -10 -4q-6 2 -4 9z M173 591q0 7 9 5q8 -2 14 -6q4 -1 4 -4.5t-2 -5.5q-3 -5 -9 -3q-3 3 -11 5q-7 2 -5 9zM187 513l5 13q2 7 9 4q7 -2 5 -9l-5 -13q-2 -7 -9 -5q-7 3 -5 10zM199 551l1 11q-2 5 5 8q7 4 9 -6v-16q-2 -8 -10 -6q-5 1 -5 9zM204 98q-5 5 0 10l10 10q4 4 10 0q6 -6 0 -11l-10 -10 q-6 -4 -10 1zM232 126q-4 7 0 11l9 10q5 5 11 0q6 -4 0 -10l-9 -10q-6 -6 -11 -1zM259 167l8 10q6 6 11 1q5 -4 1 -10l-9 -11q-5 -5 -10 -1q-7 5 -1 11zM284 198l8 11q5 5 11 1q5 -4 1 -10l-8 -11q-6 -6 -11 -1q-5 4 -1 10zM308 231l8 11q4 6 10 2q5 -5 2 -11l-8 -11 q-5 -5 -10 -2q-5 4 -2 11zM312 69v14q0 9 8 7q7 0 7 -7v-13q2 -6 -6 -8q-7 -2 -9 7zM316 112l4 14q2 7 9 5t5 -9l-3 -13q-2 -7 -9 -5q-6 0 -6 8zM325 39q-5 7 1 11q7 4 9 -1q2 -2 5 -3.5t4 -2.5q6 -4 4 -9q-3 -9 -9 -4q-8 3 -14 9zM328 153l5 13q2 7 9 5q7 -3 5 -10l-5 -12 q-2 -7 -9 -5t-5 9zM330 264l8 11q3 6 10 3q6 -4 2 -10l-7 -12q-4 -8 -10 -2q-6 3 -3 10zM343 193l5 13q3 6 10 4q6 -3 4 -10l-5 -13q-4 -6 -10 -4q-6 3 -4 10zM352 298l7 12q5 7 10 2q6 -4 2 -10l-7 -11q-3 -6 -10 -3q-6 4 -2 10zM359 232l6 12q2 9 9 4q9 -2 4 -9l-5 -13 q-4 -7 -10 -4t-4 10zM362 32q0 8 7 6t13 0t8 -6q0 -6 -7 -8q-10 -2 -15 -1q-8 2 -6 9zM373 333l7 12q4 6 10 2q7 -4 3 -10l-8 -12q-3 -5 -10 -2q-5 3 -2 10zM376 270l5 13q4 6 10 4q7 -4 4 -10l-6 -13q-2 -6 -9 -4q-7 4 -4 10zM393 308l5 13q3 6 10 4q7 -4 4 -10l-6 -13 q-2 -7 -9 -3q-9 2 -4 9zM394 368l7 11q3 6 10 3q6 -4 2 -10l-7 -12q-4 -6 -10 -3q-5 5 -2 11zM403 35q-2 5 4 9l12 6q6 4 10 -3q3 -6 -4 -10l-13 -6q-7 -5 -9 4zM410 347l5 12q4 7 10 4q7 -4 4 -10l-6 -12q-2 -9 -9 -4q-7 4 -4 10zM414 402l7 12q4 7 10 3q7 -4 3 -10l-7 -12 q-3 -6 -10 -3q-7 4 -3 10zM427 385l5 12q4 7 10 4q6 -2 4 -9l-6 -13q-2 -6 -9 -4q-7 4 -4 10zM435 437l7 12q3 6 10 3q5 -4 2 -10l-1 -2h5q7 -4 4 -10l-5 -13q-4 -6 -10 -3q-6 1 -4 9l1 3q-3 -2 -6 1q-7 4 -3 10zM440 53q-3 6 2 11l11 7q6 6 10 -1q6 -6 -1 -10l-12 -8 q-6 -6 -10 1zM455 473l6 12q3 5 10 3q7 -4 3 -10q8 -2 4 -9l-5 -13q-3 -6 -10 -4q-6 4 -4 10l-1 1q-6 3 -3 10zM473 79q-6 6 1 10l10 9q4 6 10 0q6 -4 0 -10l-11 -9q-5 -5 -10 0zM474 508l7 12q2 8 9 3q6 -2 4 -10l-1 -1q1 -1 1 -4l-5 -13q-4 -7 -10 -4q-9 2 -4 9q-5 4 -1 8 zM492 544l6 12q4 7 10 4q7 -2 3 -10l-5 -12q-4 -8 -10 -4q-6 3 -4 10zM503 108q-6 6 0 10l9 10q6 6 11 1t0 -11l-9 -10q-6 -6 -11 0zM531 139q-5 5 0 10l9 10q5 7 11 1q5 -5 0 -10l-9 -11q-6 -5 -11 0z" />
<glyph unicode="V" horiz-adv-x="357" d="M24 60q0 8 8 8q7 0 7 -7l2 -11q0 -6 -3 -9q-2 -2 -6 -0.5t-5 4.5zM26 88l3 14q2 8 9 6t5 -9l-2 -13q-1 -6 -9 -6q-6 2 -6 8zM28 537q1 3 5 6.5t5 4.5q6 6 11 -1q3 -4 -1 -10q-8 -8 -8 -9q-4 -4 -10 -2q-7 4 -2 11zM36 129l4 13q2 7 9 5q7 -3 5 -10l-4 -13q-2 -7 -9 -5 t-5 10zM47 34q2 8 7 5l12 1q6 2 8 -5q3 -7 -5 -9l-16 -1q-10 2 -6 9zM48 167l5 13q3 7 10 5q6 -4 4 -10l-5 -13q-2 -6 -9 -4t-5 9zM58 554q-3 7 3 10l13 7q6 3 10 -4q2 -7 -4 -9l-12 -6q-6 -4 -10 2zM63 205l5 13q2 9 9 4q9 -2 4 -9l-5 -13q-2 -8 -9 -4q-8 2 -4 9zM78 243 l5 12q4 7 10 4q6 -2 4 -9l-6 -13q-1 -6 -9 -4q-7 4 -4 10zM85 39q-2 6 4 10l12 6q6 4 10 -3q4 -6 -3 -10l-13 -7q-7 -2 -10 4zM94 280l5 13q4 6 10 3q6 -2 4 -9l-6 -13q-2 -6 -9 -4q-7 4 -4 10zM95 572q-4 7 4 9l14 4q7 2 9 -6q1 -6 -5 -8l-13 -4q-7 -2 -9 5zM110 317l6 12 q2 9 9 4q7 -4 4 -10l-6 -12q-2 -9 -9 -4q-7 4 -4 10zM121 58q-3 6 2 10l11 8q6 3 11 -2q4 -6 -2 -10l-12 -8q-6 -4 -10 2zM127 354l5 12q3 6 10 4q6 -3 4 -10l-6 -12q-4 -7 -10 -4q-6 4 -3 10zM134 582q-2 6 6 8h15q7 0 7 -7q0 -9 -8 -7q-2 0 -6 -0.5t-6 -0.5q-8 0 -8 7z M143 390l6 13q3 6 10 4q6 -4 3 -10l-5 -13q-4 -6 -10 -3q-6 2 -4 9zM154 81q-4 6 1 10l11 9q6 4 10 -1q6 -6 -1 -11l-11 -8q-6 -6 -10 1zM160 427l5 13q4 6 10 3q6 -2 4 -9l-6 -13q-2 -6 -10 -4q-6 4 -3 10zM174 581q0 7 9 5l14 -7q3 -2 3 -6t-2 -5q-5 -5 -9 -1l-11 5 q-6 2 -4 9zM176 464l5 12q4 7 10 4q6 -1 4 -9l-6 -13q-2 -6 -9 -4q-7 4 -4 10zM186 106q-6 6 0 10l11 9q6 6 10 0q5 -5 0 -11l-11 -9q-6 -4 -10 1zM191 501q4 8 4 13q2 6 9 4q8 -2 5 -9l-4 -13q-3 -7 -10 -5q-6 3 -4 10zM199 549q-2 5 5 9q7 2 10 -6q1 -3 1 -7.5v-7.5 q0 -9 -8 -7q-7 0 -7 7q0 11 -1 12zM216 133q-4 5 1 10l10 9q5 5 10 0q5 -6 0 -11l-11 -9q-4 -4 -10 1zM245 160q-4 6 1 10l9 10q5 6 11 0t0 -10l-10 -10q-6 -6 -11 0zM274 188q-6 6 0 11l9 10q5 5 11 0q5 -5 0 -10l-9 -10q-5 -5 -11 -1zM302 218q-6 4 0 10l9 10q4 5 10 1 q5 -5 1 -11l-10 -10q-4 -6 -10 0zM328 258l9 10q5 6 10 1q7 -4 1 -10l-9 -11q-4 -5 -10 -1q-5 5 -1 11zM354 289l9 10q4 7 10 1q7 -4 1 -10l-9 -11q-4 -5 -10 -1q-5 5 -1 11zM378 320l8 11q4 5 11 2q7 -4 1 -10l-8 -11q-3 -6 -10 -2q-6 4 -2 10zM402 353l8 11q4 5 10 2 q6 -4 2 -10l-8 -12q-6 -6 -10 -1q-7 3 -2 10zM423 386l8 12q3 5 10 2q6 -4 2 -10l-7 -12q-4 -6 -10 -2q-7 4 -3 10zM444 420l7 13q2 5 10 3q6 -4 2 -10l-6 -13q-4 -6 -10 -3q-7 4 -3 10zM463 456l6 12q3 6 10 4q7 -4 3 -10l-6 -13q-3 -6 -10 -3q-6 3 -3 10zM480 492l5 12 q4 7 10 4q6 -2 4 -9l-6 -13q-2 -6 -10 -4q-6 4 -3 10zM494 529l5 13q2 7 9 5t5 -10l-5 -13q-2 -9 -9 -4q-7 2 -5 9zM505 567l2 12q0 7 8 7q7 0 7 -8l-2 -14q-2 -8 -9 -6q-8 2 -6 9z" />
<glyph unicode="W" horiz-adv-x="627" d="M28 544q-6 4 0 10l11 10q6 6 10 -1q5 -6 -1 -10l-9 -9q-5 -5 -11 0zM29 81l1 15q2 8 9 6q8 -2 6 -8l-1 -13q0 -7 -8 -7q-7 0 -7 7zM33 52q-4 7 4 10q1 0 9 -4q5 -8 6 -8q4 -2 2 -10q-3 -5 -11 -2q-2 1 -10 14zM36 122l3 14q2 7 9 5t5 -9l-3 -13q-2 -7 -9 -5q-7 0 -5 8z M46 162l5 13q2 7 9 5t5 -9l-5 -13q-2 -7 -9 -5t-5 9zM59 201l5 13q2 8 9 4q8 -2 4 -9l-4 -13q-2 -7 -9 -5q-7 3 -5 10zM59 569q-3 6 3 11l13 6q6 3 10 -4q2 -6 -4 -10l-12 -5q-6 -4 -10 2zM65 38q1 5 7 7l12 2q5 3 9 -4q2 -7 -5 -10l-15 -2q-3 -1 -5.5 1.5t-2.5 5.5zM73 239 l5 13q1 6 9 4t4 -10l-4 -12q-3 -7 -10 -5q-7 4 -4 10zM87 277l5 12q3 7 10 5q6 -3 4 -10l-5 -13q-2 -6 -10 -4q-6 4 -4 10zM96 586q-2 7 5 9l14 4q7 2 9 -6q0 -7 -6 -9l-13 -3q-7 -2 -9 5zM102 314l5 13q4 7 10 4q8 -2 4 -10l-5 -12q-4 -7 -10 -4q-6 2 -4 9zM104 48 q-4 6 3 10l11 6q7 5 10 -2q6 -6 -2 -10l-12 -7q-7 -3 -10 3zM118 352l5 12q2 9 9 4q8 -2 4 -9l-5 -13q-2 -6 -9 -4q-7 4 -4 10zM133 389l5 13q3 6 10 4q6 -3 4 -10l-5 -13q-4 -6 -10 -4q-7 4 -4 10zM135 594q0 8 8 8q9 0 14 -1q9 -2 7 -9q-2 -6 -9 -6q-4 1 -12 1q-6 0 -8 7z M138 69q-4 7 2 10l10 9q6 4 10 -1q6 -6 -1 -10l-10 -9q-7 -5 -11 1zM148 426l6 13q2 8 9 4q9 -2 4 -9l-5 -13q-4 -7 -10 -4q-6 2 -4 9zM164 464l5 13q2 6 9 4q7 -4 4 -10l-5 -13q-2 -6 -9 -4q-7 4 -4 10zM170 95q-5 5 0 10l10 9q6 6 11 0q4 -6 -1 -11l-10 -9q-6 -6 -10 1z M175 589q4 6 10 2q8 -5 12 -11q6 -8 -2 -10q-5 -4 -10 1q-1 5 -8 8q-5 5 -2 10zM178 501l5 13q2 7 9 5q7 -3 5 -10l-5 -13q-2 -9 -9 -4q-7 2 -5 9zM190 538q1 2 1 13q0 7 8 7q3 1 5 -1t2 -6q0 -11 -1 -15q-2 -8 -9 -6q-8 2 -6 8zM199 122q-6 6 0 10l10 10q5 5 10 0t0 -10 l-9 -10q-6 -6 -11 0zM227 161l10 10q4 5 10 1q5 -6 0 -11l-9 -10q-5 -5 -10 0q-6 5 -1 10zM254 191l9 10q6 6 11 1t0 -10l-9 -11q-4 -6 -10 0q-5 4 -1 10zM281 211q-5 5 0 10l8 11q5 5 11 1q5 -5 1 -10l-9 -11q-5 -5 -11 -1zM306 252l9 11q4 7 10 1q7 -4 1 -10l-8 -11 q-5 -5 -11 -1q-5 5 -1 10zM307 94q0 8 7 8q8 0 8 -8l1 -13q0 -6 -7 -8q-8 0 -8 7zM309 122l1 14q2 6 9 6q6 -2 6 -8l-1 -14q-2 -8 -8 -6q-7 0 -7 8zM315 162l3 14q0 6 8 6q8 -2 6 -9l-2 -14q-2 -7 -9 -5q-8 0 -6 8zM316 51q-4 9 3 11t9 -3q1 -3 3.5 -4.5t3.5 -2.5 q3 -3 3 -10q-2 -8 -10 -3q-1 1 -5 4q-6 5 -7 8zM324 202l3 13q2 8 9 6q8 -2 6 -9l-4 -14q-2 -7 -9 -5t-5 9zM331 284l8 11q6 6 11 1v-1l1 -1q4 5 9 4q7 -2 5 -9l-5 -13q-2 -7 -9 -5q-6 1 -6 7l-2 -3q-5 -5 -11 -1q-5 4 -1 10zM334 241l4 14q3 7 10 5q6 -4 5 -10l-4 -13 q-3 -7 -10 -5t-5 9zM350 43q0 7 6 7t12 3q7 2 9 -5q4 -7 -5 -9q-8 -4 -14 -3q-8 -2 -8 7zM356 316l4 5l4 11q2 8 9 4q7 -2 5 -9l-1 -3q0 -4 -1 -6l-3 -4q-2 -4 -4 -5l-2 -2q-4 -7 -10 -1q-7 4 -1 10zM373 357l5 13q2 6 9 4t5 -10l-1 -3q3 2 8 0q5 -5 1 -11l-8 -11 q-6 -5 -10 -1q-5 1 -3 8l-2 1q-6 4 -4 10zM388 53q-2 5 4 9l12 7q6 4 9 -3q5 -5 -2 -10l-13 -7q-6 -4 -10 4zM388 395l5 12q4 7 10 4q6 -2 4 -9l-6 -13q-1 -6 -9 -4q-7 4 -4 10zM403 432l6 13q4 6 10 3q6 -2 4 -9l-6 -13q-4 -6 -10 -4q-6 3 -4 10zM404 381l8 11q5 5 11 1 q7 -4 1 -10l-8 -11q-4 -6 -10 -2q-5 4 -2 11zM420 469l6 13q4 6 10 3t3 -10l-6 -12q-2 -6 -9 -4q-7 4 -4 10zM424 72q-4 6 2 10l11 8q6 6 10 -1q3 -7 -2 -11l-11 -8q-6 -4 -10 2zM428 413l8 11q4 8 10 2q6 -4 2 -10l-8 -11q-4 -6 -10 -2q-6 3 -2 10zM438 506l7 12q4 6 10 3 q7 -4 3 -10l-7 -12q-3 -6 -10 -3q-6 4 -3 10zM451 446l7 12q5 5 11 2q6 -4 2 -10l-8 -12q-4 -6 -10 -2q-8 4 -2 10zM457 96q-5 4 1 10l11 8q5 5 10 -1q4 -5 -1 -10l-11 -9q-7 -4 -10 2zM458 541l8 12q1 3 4.5 3.5t5.5 -1.5q6 -4 2 -10l-7 -11q-4 -7 -10 -3q-7 4 -3 10z M473 480l6 12q4 6 11 2q5 -4 2 -10l-7 -12q-4 -6 -10 -2q-8 4 -2 10zM484 564q-6 5 0 11q6 8 15 9q5 2 7.5 -0.5t0.5 -5.5l-6 -8q-4 0 -7 -6q-5 -3 -10 0zM488 121q-6 6 1 10l10 9q6 6 10 0q5 -6 0 -11l-11 -9q-5 -4 -10 1zM492 515l6 12q4 6 10 3q7 -2 3 -9l-6 -13 q-3 -6 -10 -3q-6 4 -3 10zM507 550q1 4 1 12q2 5 6 7q2 2 6 -0.5t3 -6.5q0 -11 -2 -15q-2 -8 -9 -6q-7 3 -5 9zM518 148q-6 6 0 10l10 10q6 4 11 0q5 -6 0 -11l-10 -9q-5 -6 -11 0zM547 176q-6 6 0 10l10 10q5 5 10 0t0 -10l-9 -10q-6 -6 -11 0zM575 205q-5 5 0 10l9 11 q5 5 10 0q7 -4 1 -10l-9 -10q-6 -6 -11 -1zM600 246l8 11q5 5 11 2q5 -5 1 -11l-8 -11q-5 -5 -11 -1q-5 4 -1 10zM624 278l8 12q4 7 10 1q6 -3 2 -10l-8 -11q-3 -6 -10 -2q-6 4 -2 10zM647 311l8 11q5 7 11 2q7 -4 1 -10l-8 -11q-3 -6 -10 -2q-6 4 -2 10zM670 344l8 12 q4 6 10 2q8 -4 2 -10l-7 -12q-5 -5 -11 -2q-6 4 -2 10zM692 378l8 11q4 7 10 3q7 -5 2 -10l-7 -12q-4 -6 -10 -2q-7 4 -3 10zM714 412l7 12q3 5 10 2q6 -4 3 -10l-8 -12q-4 -5 -10 -2q-6 4 -2 10zM734 447l6 12q4 7 10 3q6 -3 3 -10l-6 -12q-4 -7 -10 -3q-6 3 -3 10z M752 482l6 13q4 6 10 3q7 -2 3 -9l-5 -13q-3 -6 -10 -4q-6 3 -4 10zM768 519l4 12q2 7 9 5q3 0 4.5 -3t0.5 -6l-4 -13q-3 -7 -10 -5q-7 4 -4 10zM776 568q0 5 5 8q3 1 6 -0.5t3 -4.5l2 -16q-2 -7 -9 -7q-8 2 -6 8z" />
<glyph unicode="X" horiz-adv-x="489" d="M27 43q-4 6 2 10l10 8q6 6 10 -1q6 -6 0 -10l-12 -9q-6 -6 -10 2zM59 69q-6 6 1 10l9 10q4 4 11 0q6 -5 0 -11l-10 -10q-6 -4 -11 1zM66 490l4 15q4 7 10 4t4 -9l-4 -12q0 -6 -7 -6q-3 -1 -5.5 1.5t-1.5 6.5zM83 530l9 11q1 3 4.5 3.5t5.5 -1.5q6 -6 1 -11l-7 -10 q-4 -7 -10 -3q-6 5 -3 11zM89 98q-5 5 0 10l9 10q6 6 11 0q6 -4 0 -10l-10 -10q-4 -6 -10 0zM110 552q-6 4 0 10l11 10q6 4 10 -1q5 -6 -1 -10l-9 -9q-5 -6 -11 0zM117 138l10 10q4 7 10 1q5 -5 1 -10l-10 -11q-5 -5 -10 0t-1 10zM141 578q-4 6 2 10l13 7q6 3 10 -3 q2 -8 -4 -10l-11 -6q-6 -4 -10 2zM145 169l9 10q5 7 11 1q5 -5 0 -10l-9 -11q-5 -5 -10 0q-6 5 -1 10zM172 200l9 11q5 5 11 1q5 -5 1 -11l-9 -10q-6 -6 -11 -1t-1 10zM177 595q-2 9 6 9h16q10 0 6 -8q-2 -8 -8 -6q-2 1 -6 0t-5 -1q-8 0 -9 6zM200 222q-6 4 0 10l8 10 q5 7 11 1q5 -4 1 -10l-9 -11q-5 -6 -11 0zM216 591q6 8 11 1l5 -5t5 -7q4 -6 -2 -10q-7 -3 -10 2q-1 2 -8 9q-3 5 -1 10zM226 264l9 10q5 5 11 1t0 -10l-8 -11q-5 -5 -11 -1q-5 5 -1 11zM236 550q-2 7 5 9q7 5 9 -4l5 -13q2 -7 -5 -10q-7 -2 -9 5zM248 512q-2 7 5 9t9 -6 l3 -13q2 -7 -6 -9q-6 -2 -8 6zM253 296l9 10q4 7 10 1l2 -2l-1 7q0 5 5 7q-2 5 2 9l8 10q5 5 11 1q5 -4 1 -10l-9 -11q-2 -2 -4 -2l1 -2l1 -14q2 -8 -6 -8t-8 7v1l-2 -3l-9 -11q-4 -5 -10 -1q-6 6 -1 11zM255 473q0 7 6 8q7 2 9 -6l2 -14q2 -6 -6 -8q-8 0 -8 6zM261 433 q0 8 6 8q7 2 9 -6l1 -14q2 -8 -6 -8q-8 -2 -8 6zM266 393q-2 6 6 8q8 0 8 -7l2 -13q0 -8 -7 -8q-6 -2 -8 6zM270 353q-2 6 6 8q8 0 8 -7l2 -14q0 -6 -7 -8q-8 0 -8 7zM277 272q0 8 7 8q6 0 8 -7l1 -13q2 -8 -6 -8q-8 -2 -8 6zM281 231q0 7 7 9q8 0 8 -7l2 -13q0 -7 -7 -9 q-6 0 -8 7zM286 191q0 8 7 8q6 2 8 -6l2 -13q2 -7 -6 -9q-7 0 -9 6zM293 151q-2 8 6 8q8 2 8 -6l3 -13q2 -7 -6 -9t-8 6zM302 111q-2 7 5 9t9 -5l4 -13q2 -7 -5 -10q-7 -2 -9 5zM306 360l9 10q4 7 10 1q7 -4 1 -10l-9 -11q-4 -5 -10 -1q-6 6 -1 11zM316 71q-2 8 4 10 q7 3 9 -3q1 -3 3.5 -6t3.5 -5q4 -6 -2 -10q-6 -6 -10 2q-6 8 -8 12zM332 392l9 11q4 4 11 1q5 -5 1 -11l-9 -10q-4 -6 -11 -1q-5 4 -1 10zM343 49q1 2 4.5 3t4.5 -1q2 -2 7 -2q3 -1 4 -1q6 -2 6 -9t-9 -5q-12 2 -14 4q-8 6 -3 11zM359 424l9 11q4 5 10 1q6 -6 1 -11l-9 -10 q-4 -7 -10 -1q-7 4 -1 10zM381 39q0 7 6 9l12 3q5 3 9 -3q4 -7 -4 -11q-2 -1 -7.5 -2t-6.5 -1q-9 -2 -9 5zM385 456l9 11q5 5 11 1q5 -5 1 -11l-9 -10q-5 -5 -11 -1q-5 4 -1 10zM412 488l9 11q5 5 11 0q6 -4 0 -10l-9 -10q-4 -7 -10 -1q-5 4 -1 10zM418 53q-3 5 2 10l11 9 q6 4 10 -2q5 -4 -1 -10l-11 -9q-6 -6 -11 2zM439 520l9 10q6 6 11 1t0 -11l-9 -10q-4 -5 -10 -1q-5 5 -1 11zM450 79q-5 5 0 10l10 10q5 5 10 0q6 -5 0 -11l-10 -9q-5 -5 -10 0zM467 551l9 10q6 6 11 1q5 -6 0 -11l-9 -10q-5 -5 -10 0q-7 4 -1 10zM477 118l9 11q5 5 10 1 q7 -5 1 -11l-9 -10q-4 -7 -10 -1q-5 5 -1 10zM496 571q-6 5 0 11l10 9q6 5 11 0q3 -7 -1 -10l-10 -10q-5 -5 -10 0zM503 149l9 11q5 5 10 1q6 -6 1 -11l-8 -10q-6 -6 -11 -1q-5 4 -1 10z" />
<glyph unicode="Y" horiz-adv-x="428" d="M22 -202q-1 2 2 15q2 8 9 5q7 -2 5 -8q0 -2 -1.5 -6t-0.5 -6q2 -5 -6 -7t-8 7zM33 -231q-7 7 1 11q5 4 10 -1q1 -4 8 -6q6 -2 4 -10q-2 -6 -10 -3q-10 4 -13 9zM35 -161l8 12q4 8 10 2q4 -4 2 -10l-7 -11q-4 -7 -10 -3q-6 3 -3 10zM47 552q2 2 10 11q6 8 11 0 q4 -7 -1 -10l-8 -9q-3 -5 -10 -2q-8 2 -2 10zM56 97l2 14q2 8 8 6q8 -2 6 -8l-2 -13q0 -7 -7 -7q-9 0 -7 8zM57 68q-1 7 6 9q6 0 8 -6q1 -1 2 -5.5t2 -5.5q3 -4 -2 -9t-11 2q-2 3 -3 8t-2 7zM61 -128q1 2 11 9q5 5 11 -1q4 -6 -2 -10q-1 -1 -4.5 -4t-5.5 -5q-3 -5 -10 0 q-5 5 0 11zM64 138l3 14q5 7 10 4q7 -2 5 -9l-4 -13q-2 -7 -9 -5t-5 9zM67 -237q2 7 7 7l12 3q6 2 9 -5t-5 -9q-1 0 -6.5 -2t-8.5 -2q-8 0 -8 8zM76 177l5 13q2 7 9 5q7 -3 5 -10l-5 -13q-2 -6 -9 -4t-5 9zM78 570q-4 6 3 9l13 7q7 2 10 -4q2 -6 -4 -10l-12 -5q-7 -3 -10 3z M83 44q4 7 8 3l12 -2q7 0 7 -7q0 -9 -8 -7l-15 2q-8 5 -4 11zM91 215l5 13q2 9 9 4q9 -2 4 -9l-5 -13q-2 -8 -9 -4q-9 2 -4 9zM92 -113q-4 6 2 10l12 7q6 6 10 -2q4 -6 -2 -10l-12 -7q-6 -4 -10 2zM105 -226q-4 6 2 10q9 6 10 7q6 6 10 0q5 -5 0 -11q-2 -2 -6 -4.5t-6 -3.5 q-6 -6 -10 2zM106 253l5 13q3 6 10 4q6 -3 4 -10l-5 -12q-4 -7 -10 -4q-6 1 -4 9zM115 586q-2 7 5 9l14 4q8 2 8 -6q2 -8 -5 -8l-13 -4q-7 -2 -9 5zM122 39q-2 7 5 9l12 4q6 3 10 -3q3 -6 -4 -10l-14 -5q-7 -2 -9 5zM122 291l5 12q2 9 9 4q8 -2 4 -9l-5 -13q-2 -6 -9 -4 q-7 4 -4 10zM126 -92q-4 6 3 10l12 7q6 3 10 -3q3 -7 -3 -10l-12 -7q-6 -4 -10 3zM135 -190l9 10q6 6 11 0q5 -4 1 -10l-10 -10q-6 -6 -10 -1q-5 5 -1 11zM137 328l5 13q4 7 10 4t4 -10l-5 -12q-4 -7 -10 -4q-8 2 -4 9zM152 366l6 13q2 6 9 4q7 -4 4 -10l-5 -13 q-2 -6 -10 -4q-6 4 -4 10zM154 595q0 7 7 9h14q8 2 8 -7q-2 -7 -8 -7l-13 -1q-6 -2 -8 6zM160 54q-3 6 2 10l12 7q4 5 10 -1q3 -6 -2 -11l-12 -7q-7 -5 -10 2zM161 -73q-3 6 3 10l13 7q7 2 10 -4q2 -7 -4 -10l-12 -6q-6 -4 -10 3zM161 -160l8 11q5 5 10 1q3 -1 3.5 -4.5 t-1.5 -5.5l-8 -11q-5 -6 -11 -2q-6 6 -1 11zM168 403l5 13q2 8 9 4q8 -2 4 -9l-5 -13q-2 -9 -9 -4q-9 2 -4 9zM182 441l5 13q4 7 10 4q6 -2 4 -9l-5 -13q-2 -8 -10 -4q-6 2 -4 9zM185 -128l7 11q4 6 10 2q8 -4 2 -10l-7 -12q-5 -5 -11 -1t-1 10zM193 77q-3 5 2 10l10 9 q6 4 10 -1q6 -6 -1 -10l-10 -9q-5 -5 -11 1zM195 596q0 7 9 5q8 -2 14 -6q10 -4 3 -11q-5 -4 -10 -2q-5 4 -11 5q-7 2 -5 9zM197 -54q-4 6 3 10l12 6q6 3 10 -3q3 -7 -3 -10l-12 -6q-7 -3 -10 3zM197 479l4 13q4 7 10 4q6 -2 4 -9l-5 -13q-2 -8 -9 -4q-8 2 -4 9zM207 -95 l7 12q4 5 10 2q6 -4 2 -10l-7 -12q-4 -6 -10 -2q-8 4 -2 10zM210 517l4 13q2 7 9 5t5 -9l-4 -13q-2 -7 -10 -5q-6 2 -4 9zM221 555l1 12q-2 4 5 8q7 2 10 -7q0 -4 -2 -16q0 -7 -9 -5q-7 2 -5 8zM224 103q-6 5 0 11l10 9q6 6 10 0q5 -5 1 -10l-10 -10q-5 -5 -11 0zM228 -61 l7 12q3 5 10 2q5 -3 2 -10l-7 -12q-4 -6 -10 -2t-2 10zM232 -36q-2 7 3 10l13 7q1 1 5 1l2 3q3 6 10 3l2 -2q-1 4 3 8l6 3q-4 0 -5 1q-7 4 -3 10l7 12q4 7 10 3q7 -4 3 -10l-7 -12l-2 -2l3 1q6 3 10 -2q3 -6 -2 -10l-12 -7q-6 -2 -9 1l-1 -2v-2l-7 -12q-4 -7 -10 -3l-2 2 l-7 -4q-6 -4 -10 3zM252 142l10 10q4 7 10 1q5 -5 1 -10l-10 -11q-4 -6 -10 0q-5 5 -1 10zM279 173l9 10q4 7 10 1q7 -4 1 -10l-9 -11q-4 -5 -10 -1q-5 5 -1 11zM288 43l7 12q3 5 10 2q6 -3 3 -10l-7 -12q-4 -6 -10 -2q-6 3 -3 10zM302 4q-3 6 2 11l11 8q6 4 10 -2 q6 -6 -2 -10l-11 -9q-6 -4 -10 2zM305 204l8 11q4 5 10 1t2 -10l-9 -11q-4 -7 -10 -1q-7 4 -1 10zM307 78l7 12q4 6 10 3q6 -4 3 -10l-7 -12q-2 -8 -9 -3q-6 3 -4 10zM326 113l6 13q4 6 10 3q6 -4 3 -10l-6 -12q-3 -6 -10 -4q-7 4 -3 10zM329 236l8 11q4 6 10 2t2 -10 l-8 -12q-5 -5 -11 -1q-7 4 -1 10zM335 28q-5 4 1 10l11 8q5 5 10 -1q4 -5 -1 -10l-11 -9q-7 -4 -10 2zM343 149l6 13q4 6 10 3t3 -10l-6 -12q-2 -6 -9 -4q-8 4 -4 10zM352 269l8 11q3 6 10 3q5 -5 2 -11l-8 -11q-1 -3 -4.5 -3.5t-5.5 1.5q-6 4 -2 10zM360 185l6 13q3 6 10 4 q6 -4 3 -10l-5 -13q-4 -7 -10 -3q-6 2 -4 9zM365 53q-4 6 1 11l10 9q5 5 10 0q6 -5 0 -11l-10 -9q-6 -5 -11 0zM374 303l8 11q4 7 10 3q5 -5 2 -11l-7 -11q-5 -7 -11 -2q-5 3 -2 10zM377 222l5 12q4 7 10 4q8 -2 4 -10l-6 -12q-2 -6 -10 -4q-6 4 -3 10zM393 259l6 12 q2 9 9 4q7 -4 4 -10l-5 -12q-4 -7 -10 -4q-8 2 -4 10zM395 81q-6 4 0 10l9 10q6 6 10 0q6 -5 1 -10l-10 -10q-5 -5 -10 0zM396 337l7 12q4 6 10 2q7 -4 3 -10l-8 -12q-4 -5 -10 -2q-6 4 -2 10zM409 295l6 13q1 6 9 4q7 -4 4 -10l-5 -13q-4 -6 -10 -3q-9 2 -4 9zM417 372 l7 11q4 7 10 3q7 -4 3 -10l-7 -12q-4 -7 -10 -3q-7 3 -3 11zM422 110q-5 5 0 10l9 10q5 5 11 1q6 -5 0 -11l-9 -10q-5 -6 -11 0zM425 332l5 13q3 6 10 4q6 -3 4 -10l-6 -13q-2 -6 -9 -3q-8 2 -4 9zM438 406l7 12q4 7 10 3q4 -3 4 -8l2 6q3 6 10 4q6 -3 4 -10l-5 -13 q-4 -6 -10 -3q-8 2 -4 9l2 4l-7 -11q-4 -7 -10 -3q-7 4 -3 10zM440 369l6 13q2 6 9 4q7 -4 4 -10l-5 -13q-4 -6 -10 -4q-6 4 -4 10zM449 140q-6 4 0 10l9 10q4 7 10 1q5 -5 1 -10l-9 -11q-6 -6 -11 0zM458 441l7 12q4 7 10 3q0 -1 1 -1v1q3 6 10 4q7 -4 4 -10l-5 -12 q-4 -7 -10 -4q-3 0 -3 2l-1 -2q-4 -6 -10 -3q-7 4 -3 10zM478 477l7 12q2 4 7 4q2 9 9 4q9 -2 4 -9l-5 -13q-2 -9 -9 -4v-1q-4 -7 -10 -3q-6 3 -3 10zM497 512l6 13q2 2 3 2l1 3q4 7 10 4q6 -2 4 -9l-6 -13q-1 -3 -5 -5v-1q-3 -6 -10 -3q-8 2 -3 9zM515 549l5 12q4 7 10 4 t4 -10l-6 -12q-4 -7 -10 -4t-3 10z" />
<glyph unicode="Z" horiz-adv-x="434" d="M21 -207q0 10 4 15q4 7 10 4q6 -2 3 -9q-2 -4 -2 -11q-2 -5 -8 -7q-7 0 -7 8zM31 -237q-6 8 1 12q6 4 8 -1l10 -2q6 -6 6 -8q0 -8 -9 -7zM38 -167l9 11q5 7 11 1q5 -4 1 -10l-9 -10q-4 -6 -10 -2q-7 5 -2 10zM65 -146q-6 6 1 10l10 10q5 5 11 -1q4 -6 -1 -10l-10 -9 q-6 -6 -11 0zM66 134q-1 5 1.5 7.5t6.5 0.5q6 -6 6 -7q-1 -1 1.5 -3t2.5 -3q3 -7 2 -9q-1 -3 -4.5 -4t-6.5 2q-10 10 -9 16zM67 -234q0 8 6 8q4 1 12 5q7 2 9 -4q4 -8 -4 -10q-8 -4 -14 -5q-7 -2 -9 6zM81 151q-6 6 2 10q1 0 6 3t7 4q8 2 10 -5t-4 -9q-2 0 -11 -5 q-6 -4 -10 2zM93.5 -113.5q0.5 3.5 3.5 4.5l11 9q6 4 10 -2q6 -6 -1 -10l-11 -8q-6 -4 -11 1q-2 2 -1.5 5.5zM97 117q2 6 8 6h13q6 0 8 -7q0 -8 -7 -8l-15 1q-9 0 -7 8zM105 -221q-3 6 3 10l12 6q6 3 10 -2q3 -7 -2 -10l-13 -7q-6 -3 -10 3zM117 166q0 9 7 9l14 1q8 0 8 -7 q0 -6 -7 -8l-13 -1q-8 0 -9 6zM128 -95q-4 6 2 10l12 7q6 6 10 -2q4 -6 -2 -10l-12 -7q-6 -6 -10 2zM133 476l5 14q4 7 10 3q6 -3 4 -10l-5 -11q-3 -6 -9 -5q-2 0 -4 3t-1 6zM137 118q0 8 6 9l13 2q7 2 9 -6q2 -6 -5 -8l-14 -3q-8 0 -9 6zM140 -201q-4 6 2 10l11 8 q7 3 11 -2q4 -6 -2 -10l-12 -8q-6 -4 -10 2zM151.5 507.5q-0.5 3.5 1.5 5.5q1 3 9 11q6 6 11 1t0 -11l-8 -9q-1 -3 -4.5 -3.5t-5.5 1.5q-3 1 -3.5 4.5zM158 170q0 8 7 6l14 -1q9 0 7 -8q-2 -7 -8 -7l-14 2q-2 0 -4.5 2.5t-1.5 5.5zM162 -74q-3 6 2 10l12 7q6 3 10 -2 q3 -7 -2 -10l-12 -7q-6 -3 -10 2zM173 -177q-5 5 1 10l10 9q4 4 10 -1q5 -5 0 -10l-11 -10q-2 -2 -5.5 -1.5t-4.5 3.5zM177 126q-2 6 4 10l13 4q7 4 9 -4q4 -7 -4 -9l-13 -5q-7 -4 -9 4zM181 533q-6 6 1 10l12 9q7 4 10 -2q4 -7 -2 -10l-10 -8q-6 -4 -11 1zM197 -54 q-4 8 3 11l12 6q6 4 10 -3q4 -6 -3 -10l-12 -6q-7 -3 -10 2zM197 164q2 8 9 5l14 -4q8 -2 4 -9q-2 -7 -9 -5l-13 4q-7 2 -5 9zM202 -140l9 10q5 5 11 1q5 -5 0 -11l-9 -10q-5 -5 -10 -1q-5 5 -1 11zM214 140q-2 7 4 10l12 6q1 2 4.5 1t4.5 -3q4 0 6 -1t6 -3.5t6 -4.5 q6 -6 1 -11t-10 -1q-3 3 -11 7q-2 0 -2 2q-1 -1 -5 -3l-6 -3q-6 -2 -10 4zM214 556q-3 7 3 10l13 7q7 5 9 -4q4 -6 -3 -10l-12 -6q-6 -4 -10 3zM227 -110l8 11q4 5 11 2q7 -4 1 -10l-8 -11q-4 -8 -10 -2q-6 4 -2 10zM232 -34q-3 7 3 10l12 7q6 4 10 -3q4 -6 -3 -10l-12 -7 q-6 -3 -10 3zM249 -77l7 12q3 6 10 3q6 -4 3 -10l-7 -12q-4 -7 -10 -3q-7 4 -3 10zM250 159q-4 6 3 10l11 7q6 2 11 -3q4 -6 -3 -10l-12 -7q-6 -4 -10 3zM251 573q-4 7 4 9l14 5q7 2 9 -5q0 -7 -5 -9l-13 -4q-7 -4 -9 4zM266 116q-5 5 0 10t11 -1q3 -2 8 -12q3 -7 -2 -10 q-7 -3 -10 2q-1 2 -3 5.5t-4 5.5zM267 -14q-3 6 2 10l12 7q0 1 2 1l1 4q2 7 9 5q8 0 6 -8l-4 -14q-2 -8 -9 -5q-1 0 -3 2l-6 -5q-6 -3 -10 3zM267 -42l5 13q3 6 10 4q7 -4 4 -10l-6 -13q-2 -7 -9 -3q-9 2 -4 9zM284 83q-2 7 5 9q7 4 9 -4l3 -14q2 -9 -6 -9q-8 -2 -8 6z M284 180q-3 7 1 11l11 8q6 6 10 -1q6 -6 -1 -10l-11 -9q-6 -6 -10 1zM289 33v13q0 7 8 7q3 1 5 -1.5t2 -5.5l-1 -14q0 -4 -2 -6t-5 -1q-7 0 -7 8zM289 584q-2 7 6 9l14 2q8 2 8 -6q2 -7 -6 -9l-13 -2q-7 -2 -9 6zM301 7q-4 6 2 10l12 8q6 4 10 -2t-2 -10l-12 -8q-6 -4 -10 2 zM316 205q-4 4 0 10l10 10q5 5 10 0q6 -5 0 -11l-10 -10q-6 -6 -10 1zM329 589q0 8 7 8h15q8 0 6 -9q0 -6 -8 -6h-13q-7 0 -7 7zM334 30q-4 6 2 10l11 8q5 4 10 -1q6 -6 -1 -10l-11 -9q-6 -3 -11 2zM344 233q-4 7 0 11l10 9q6 5 10 1q6 -6 1 -11l-10 -10q-7 -4 -11 0z M366 55q-4 5 1 10l10 9q5 5 11 -1q4 -5 -1 -10l-10 -9q-7 -5 -11 1zM369 586q2 7 9 5q4 0 14 -4q6 -3 4 -10q-4 -7 -10 -4q-6 4 -12 4q-7 2 -5 9zM370 274l8 10q4 5 11 2q5 -5 1 -10l-9 -11q-1 -3 -4.5 -3.5t-5.5 1.5q-4 4 -1 11zM394 305l6 12q4 7 10 3q7 -3 3 -11l-7 -12 q-4 -6 -10 -2t-2 10zM396 81q-4 6 1 10l9 10q6 5 11 0q6 -6 0 -10l-10 -10q-5 -5 -11 0zM406 572q5 8 11 2l11 -9q6 -6 1 -11q-7 -4 -11 0l-9 8q-5 5 -3 10zM413 340l7 11q4 7 10 4q8 -5 3 -10l-7 -12q-3 -6 -10 -3q-6 4 -3 10zM425 109q-5 5 0 11l9 10q5 5 10 0q7 -4 1 -10 l-9 -10q-6 -6 -11 -1zM430 375l5 13q4 7 10 4q6 -1 4 -9l-5 -13q-4 -7 -10 -4q-6 2 -4 9zM435 535q-5 6 2 11q5 3 10 -2l8 -13q4 -6 -4 -10q-5 -1 -9 4zM444 412l3 13q2 8 9 6t5 -9l-3 -14q0 -7 -9 -5q-5 1 -5 9zM449 501q-2 7 5 9t10 -5q0 -1 1.5 -6.5t1.5 -7.5q0 -7 -7 -9 q-6 0 -8 7zM451 149l9 11q4 4 11 1q5 -5 1 -10l-9 -11q-6 -6 -11 -1t-1 10zM452 450q1 2 1 14q0 7 7 7t7 -8v-14q-2 -7 -9 -7q-8 2 -6 8z" />
<glyph unicode="[" horiz-adv-x="312" d="M-1 -189l5 13q4 6 10 4q6 -4 4 -10l-6 -13q-1 -6 -9 -4q-7 4 -4 10zM14 -152l5 13q4 6 10 3q6 -1 4 -9l-5 -13q-3 -6 -10 -4q-6 3 -4 10zM20 -220q0 8 7 8h14q7 0 7 -8q0 -7 -7 -7h-14q-9 0 -7 7zM29 -115l6 12q2 8 9 4q8 -2 4 -9l-5 -13q-3 -6 -10 -4q-6 4 -4 10z M45 -78l5 12q2 9 9 4q8 -2 4 -9l-5 -13q-2 -6 -9 -4q-7 4 -4 10zM60 -41l5 12q4 7 10 4q6 -2 4 -9l-6 -13q-1 -6 -9 -4q-7 4 -4 10zM62 -220q0 8 8 8h13q8 0 8 -8q0 -7 -8 -7h-13q-8 0 -8 7zM75 -4l5 12q4 7 10 4q8 -2 4 -9l-5 -13q-3 -6 -10 -4q-6 3 -4 10zM90 33l6 12 q2 8 9 4q8 -2 4 -9l-5 -13q-3 -6 -10 -4q-6 4 -4 10zM106 70l5 12q2 9 9 4q8 -2 4 -9l-5 -13q-2 -6 -9 -4q-7 4 -4 10zM121 107l5 12q4 7 10 4q6 -2 4 -9l-6 -13q-1 -6 -9 -4q-7 4 -4 10zM136 144l5 12q4 7 10 4q8 -2 4 -9l-5 -13q-3 -6 -10 -4q-6 3 -4 10zM151 181l6 12 q2 9 9 4q8 -2 4 -9l-5 -13q-4 -7 -10 -4q-6 4 -4 10zM167 218l5 12q2 8 10 4q6 -2 3 -9l-5 -13q-2 -9 -9 -4q-7 4 -4 10zM182 255l5 12q4 7 10 4q6 -2 4 -9l-5 -13q-4 -7 -10 -4q-7 4 -4 10zM197 292l5 12q4 7 10 4q9 -2 4 -9l-5 -13q-4 -7 -10 -4t-4 10zM212 329l6 12 q2 9 9 4q9 -2 4 -9l-5 -13q-4 -7 -10 -4q-6 4 -4 10zM228 366l5 12q2 8 10 4q6 -2 4 -9l-6 -13q-2 -9 -9 -4q-7 4 -4 10zM243 403l5 12q4 7 10 4q6 -2 4 -9l-5 -13q-4 -7 -10 -4q-7 4 -4 10zM258 440l5 12q4 7 10 4q9 -2 4 -9l-5 -13q-4 -7 -10 -4q-6 2 -4 10zM273 477l6 12 q2 9 9 4q9 -2 4 -9l-5 -13q-4 -7 -10 -4q-6 2 -4 10zM289 514l5 12q2 8 10 4q6 -2 4 -9l-6 -13q-2 -9 -9 -4q-8 2 -4 10zM304 551l5 12q4 7 10 4q6 -2 4 -9l-5 -13q-4 -7 -10 -4q-8 2 -4 10zM346 582q0 8 8 8h13q8 0 8 -8q0 -7 -8 -7h-13q-8 0 -8 7zM391 582q0 8 7 8h14 q8 0 8 -8q0 -7 -8 -7h-14q-7 0 -7 7z" />
<glyph unicode="\" d="M1 37v21q0 2 2 2h312v-21q0 -2 -2 -2h-312zM1 297v16q0 7 2 7h158v-19q0 -4 -2 -4h-158zM1 586v21q0 2 2 2h312v-21q0 -2 -2 -2h-312z" />
<glyph unicode="]" horiz-adv-x="344" d="M-64 -220q0 7 8 7h14q7 0 7 -7t-8 -7h-13q-8 0 -8 7zM-19 -220q0 7 8 7h13q8 0 8 -7t-8 -7h-14q-7 0 -7 7zM33 -195l5 12q4 7 10 4q8 -2 4 -9l-5 -13q-3 -6 -10 -4q-6 3 -4 10zM48 -158l6 12q2 8 9 4q8 -2 4 -9l-5 -13q-3 -6 -10 -4q-6 4 -4 10zM64 -121l5 12q2 8 10 4 q6 -2 4 -9l-6 -13q-2 -6 -9 -4q-7 4 -4 10zM79 -84l5 12q4 7 10 4q6 -1 4 -9l-6 -13q-1 -6 -9 -4q-7 4 -4 10zM94 -47l5 12q4 7 10 4q8 -2 4 -9l-5 -13q-4 -7 -10 -4t-4 10zM109 -10l6 12q2 9 9 4q8 -2 4 -9l-5 -13q-4 -7 -10 -4q-6 4 -4 10zM125 27l5 12q2 8 10 4 q6 -2 4 -9l-6 -13q-2 -9 -9 -4q-7 4 -4 10zM140 64l5 12q4 7 10 4q6 -2 4 -9l-5 -13q-4 -7 -10 -4q-7 4 -4 10zM155 101l5 12q4 7 10 4q9 -2 4 -9l-5 -13q-4 -7 -10 -4t-4 10zM170 138l6 12q2 9 9 4q9 -2 4 -9l-5 -13q-4 -7 -10 -4q-6 4 -4 10zM186 175l5 12q4 7 10 4 q6 -2 4 -9l-6 -13q-2 -9 -9 -4q-7 4 -4 10zM201 212l5 12q4 7 10 4q6 -2 4 -9l-5 -13q-4 -7 -10 -4q-8 2 -4 10zM216 249l5 12q4 7 10 4q9 -2 4 -9l-5 -13q-4 -7 -10 -4q-6 2 -4 10zM231 286l6 12q2 9 9 4q9 -2 4 -9l-5 -13q-2 -8 -10 -4q-6 2 -4 10zM247 323l5 12q4 7 10 4 q6 -2 4 -9l-6 -13q-2 -9 -9 -4q-8 2 -4 10zM262 359l5 13q4 7 10 4q6 -2 4 -9l-5 -13q-4 -7 -10 -4q-9 2 -4 9zM265 582q0 9 8 7h13q8 0 8 -7t-8 -7h-13q-8 0 -8 7zM277 396l5 13q4 7 10 4q9 -2 4 -9l-5 -13q-4 -7 -10 -4q-6 2 -4 9zM292 433l6 13q2 9 9 4q9 -2 4 -9l-5 -13 q-2 -8 -10 -4q-6 2 -4 9zM308 470l5 13q4 7 10 4q6 -2 4 -9l-6 -13q-2 -9 -9 -4q-9 2 -4 9zM308 582q0 7 7 7h14q7 0 7 -7t-7 -7h-14q-7 0 -7 7zM323 507l5 13q4 7 10 4q6 -2 4 -9l-5 -13q-4 -7 -10 -4q-9 2 -4 9zM338 544l6 13q2 8 9 4q9 -2 4 -9l-5 -13q-4 -7 -10 -4 q-6 2 -4 9z" />
<glyph unicode="^" d="M1 37v21q0 2 2 2h312v-21q0 -2 -2 -2h-312zM1 297v16q0 7 2 7h158v-19q0 -4 -2 -4h-158zM1 586v21q0 2 2 2h312v-21q0 -2 -2 -2h-312z" />
<glyph unicode="_" horiz-adv-x="379" d="M-8 -4v22q0 1 1 1h387v-23h-388z" />
<glyph unicode="`" horiz-adv-x="148" d="M43 576q5 5 11 1l10 -8q5 -4 2 -11q-4 -4 -11 -1l-11 9q-5 4 -1 10zM72 551q4 6 10 2l11 -9q7 -4 1 -10q-4 -6 -10 -2l-11 9q-7 4 -1 10z" />
<glyph unicode="a" horiz-adv-x="334" d="M26 88l1 15q0 8 7 6q7 0 7 -8l-1 -12q0 -7 -6 -8q-3 -1 -6 1.5t-2 5.5zM33 58q-3 6 4 11q5 1 9 -4l8 -8q2 -6 1 -10q-5 -9 -11 -1zM33 131l4 14q3 6 10 4q7 -4 4 -10l-4 -12q-2 -7 -9 -5t-5 9zM51 170q5 11 7 13q4 7 10 1q6 -3 2 -9q-2 -2 -3.5 -6t-3.5 -6q-2 -7 -9 -3 t-3 10zM67 43q1 6 7 6l13 2q6 0 8 -7q2 -6 -6 -8l-15 -2q-4 0 -6 3t-1 6zM75 205l9 11q4 7 10 1q5 -5 1 -10l-9 -11q-4 -7 -10 -1q-7 4 -1 10zM103 226q-5 6 0 11l11 9q5 5 10 0q4 -6 -1 -11l-10 -9q-5 -3 -10 0zM107 48q-2 7 4 9l11 7q5 3 11 -3q4 -6 -3 -10 q-1 -1 -5.5 -3.5t-7.5 -3.5q-6 -3 -10 4zM134 254q-4 6 1 10l12 9q7 3 10 -3q4 -6 -2 -10l-11 -7q-4 -5 -10 1zM143 69q-6 6 1 10l9 10q5 4 11 0q6 -5 0 -11l-11 -10q-6 -4 -10 1zM169 277q-3 7 3 10l13 6q7 4 9 -4q4 -7 -4 -9l-12 -6q-6 -4 -9 3zM172 98q-6 6 0 11l8 10 q6 5 10 1q6 -3 2 -10l-9 -11q-5 -5 -11 -1zM192 82q0 2 0.5 7t0.5 8q2 8 9 6q6 0 6 -8q0 -1 -1 -6t0 -7q0 -7 -7 -7q-8 0 -8 7zM198 53q-3 8 4 10t9 -3q1 -2 3.5 -4.5l3.5 -3.5q3 -6 2 -9t-4.5 -4.5t-6.5 1.5q-10 10 -11 13zM199 124l4 13q2 7 9 5t5 -9l-4 -13q-2 -7 -9 -5 t-5 9zM207 293q-3 6 5 10l14 3q8 0 8 -6q2 -7 -6 -9l-12 -3q-7 -2 -9 5zM212 163l5 13q3 6 10 4q6 -3 4 -10l-5 -12q-3 -7 -10 -5q-6 3 -4 10zM228 200l6 13q3 6 10 3q8 -2 3 -9l-6 -13q-2 -7 -9 -3q-9 2 -4 9zM231 40q2 8 7 8q1 0 5 1t6 2q5 3 9 -3q3 -6 -4 -10 q-5 -4 -15 -4q-8 -2 -8 6zM246 237l7 12q3 6 10 3q5 -3 3 -10l-7 -12q-3 -6 -10 -3q-6 4 -3 10zM247 301q0 8 8 8l14 -1q7 0 7 -8q-2 -8 -8 -6h-13q-6 0 -8 7zM265 273l7 12q4 6 10 2q6 -3 3 -10l-7 -12q-4 -5 -10 -2q-7 2 -3 10zM268 54q-4 6 2 10l10 8q6 6 10 0 q6 -6 0 -11l-11 -9q-7 -3 -11 2zM299 80q-5 5 0 10l9 10q5 5 11 1q5 -5 0 -11l-9 -10q-6 -6 -11 0zM326 120l9 10q5 5 10 1q5 -5 1 -11l-9 -10q-5 -5 -10 -1q-6 6 -1 11zM352 150l10 11q4 6 10 0q5 -5 1 -10l-10 -10q-4 -7 -10 -1q-5 4 -1 10z" />
<glyph unicode="b" horiz-adv-x="319" d="M52 182q-6 6 0 11l8 10q5 5 11 1q4 -4 1 -11l-9 -10q-5 -5 -11 -1zM71 92q0 8 7 8t7 -7l3 -12q2 -7 -5 -9q-7 -3 -9 5zM72 119q0 10 1 14q2 8 9 6q8 0 6 -8t-2 -13q0 -7 -7 -7t-7 8zM78 213q-6 4 0 10l9 10q4 7 10 1q5 -4 1 -10l-9 -11q-5 -5 -11 0zM79 160l3 13q2 8 9 5 q7 -2 5 -8l-3 -14q-2 -7 -9 -5q-6 2 -5 9zM87 51q-5 7 1 11q7 4 10 -1t9 -7q5 -2 3 -10q-4 -6 -11 -3q-9 4 -12 10zM89 199l4 13q2 7 9 5t5 -9l-4 -13q-2 -8 -9 -5q-7 2 -5 9zM102 237l4 13q3 7 10 5q6 -3 4 -10l-5 -13q-2 -6 -9 -4q-8 2 -4 9zM115 275l5 13q4 7 10 4l4 -3 l5 5q4 7 10 1q5 -4 1 -10l-9 -11q-5 -5 -11 0l-1 -4q-2 -9 -9 -4q-7 2 -5 9zM121 41q0 7 7 7h12q7 2 9 -5t-6 -9h-15q-9 0 -7 7zM130 312l5 13q4 7 10 4q6 -2 4 -9l-5 -13q-4 -7 -10 -4q-9 2 -4 9zM145 350l5 12q4 7 10 4q9 -2 4 -9l-5 -13q-4 -7 -10 -4t-4 10zM156 304 q-5 5 0 10l9 11q4 5 10 1q5 -5 1 -11l-9 -10q-5 -5 -11 -1zM160 46q-3 5 3 11l11 6q6 4 10 -2q5 -5 -2 -10l-12 -7q-7 -5 -10 2zM161 387l5 12q4 7 10 4t4 -10l-6 -12q-2 -9 -9 -4q-7 4 -4 10zM177 423l6 13q2 6 9 4q7 -4 4 -10l-6 -13q-2 -7 -9 -3q-9 2 -4 9zM182 335 q-6 4 0 10l9 10q4 7 10 1q5 -5 1 -10l-9 -11q-5 -5 -11 0zM193 69q-5 5 0 11l9 9q4 7 10 1q5 -5 1 -11l-10 -10q-6 -6 -10 0zM194 208q0 7 8 7q7 0 7 -7l1 -13q0 -8 -7 -8q-6 -2 -8 6zM194 460l6 12q2 9 9 4q7 -4 4 -10l-6 -12q-4 -7 -10 -4q-6 4 -3 10zM197 235q0 6 4 14 q2 8 9 5q7 -2 5 -9q0 -2 -1.5 -6t-2.5 -7q0 -7 -8 -5q-8 0 -6 8zM201 166q-2 7 5 9t9 -4q2 -9 5 -12q3 -4 -3 -10q-6 -4 -10 3q-5 8 -6 14zM208 375l9 11q4 5 10 1q4 -4 1 -11l-9 -10q-5 -6 -10 -1q-6 5 -1 10zM211 496l7 12q3 6 10 4q7 -4 3 -10l-6 -13q-4 -7 -10 -3 q-6 3 -4 10zM212 275q3 7 9 12q7 5 11 0q4 -7 -1 -10q-4 -4 -7 -10q-4 -5 -10 -2q-6 2 -2 10zM218 109l7 12q3 5 8 2l-8 7q-6 5 -1 10t10 1l3 -2v4l6 12q3 6 10 3q6 -2 4 -9l-6 -13q-1 -2 -5 -4q3 -3 1 -8q-2 -7 -10 -3q2 -6 0 -8l-7 -12q-5 -6 -11 -2q-5 5 -1 10zM231 532 l7 12q4 6 10 2t2 -10l-7 -12q-3 -5 -10 -2q-6 4 -2 10zM233 406l9 11q4 7 10 1q7 -4 1 -10l-8 -11q-6 -6 -11 -1q-5 4 -1 10zM242 292q-3 6 6 10q14 -2 18 -6q7 -7 1 -11q-7 -4 -10 -1q-1 2 -4 2t-4 1q-5 -3 -7 5zM253 179l5 12q2 7 9 5t5 -10l-5 -13q-2 -8 -9 -4 q-7 3 -5 10zM253 566l9 11q4 7 10 1q5 -4 1 -10l-9 -11q-4 -5 -10 -1q-7 4 -1 10zM257 437l9 11q3 6 10 2q6 -4 2 -10l-9 -11q-1 -3 -4.5 -3.5t-5.5 1.5q-5 5 -2 10zM258 120q2 8 8 6q4 -1 13 -1q5 0 7 -7t-7 -7q-8 -2 -15 1q-8 0 -6 8zM265 216q2 8 2 13q2 6 8 6q7 0 7 -8 l-2 -14q-2 -8 -9 -6q-8 2 -6 9zM266 266q0 6 5 9q8 2 10 -6l2 -15q0 -7 -7 -7q-8 0 -8 6zM281 470l7 11q4 6 10 2q7 -3 2 -10l-7 -11q-4 -8 -10 -2q-6 3 -2 10zM281 586q-5 5 2 11q2 1 7.5 2.5t7.5 2.5q3 1 6 -1.5t2 -5.5q0 -3 -6 -7q-2 -1 -5 -2t-5 -2q-6 -4 -9 2zM297 121 q-2 6 4 10q10 5 11 6q6 4 10 -2q6 -6 -2 -10l-13 -8q-6 -3 -10 4zM302 503l6 12q3 6 10 3q7 -2 3 -10l-7 -12q-3 -6 -10 -3q-6 4 -2 10zM317 591q3 7 11 1l9 -15q1 -3 -1 -6t-5 -3q-6 -1 -8 5q-1 1 -2 4t-3 4q-5 4 -1 10zM318 538q2 5 4 13q2 6 8 5q8 0 6 -9l-4 -14 q-4 -7 -10 -4q-6 2 -4 9zM331 142q-4 6 1 10l10 10q4 4 10 0q6 -6 0 -11l-10 -10q-6 -4 -11 1z" />
<glyph unicode="c" horiz-adv-x="246" d="M33 89q0 8 7 8t7 -7l4 -11q2 -6 -5 -10q-6 -4 -9 5q0 2 -2 7t-2 8zM33 118l3 14q3 7 10 5t5 -8q0 -2 -1.5 -6.5t-1.5 -6.5q0 -7 -8 -7q-7 2 -7 9zM44 159l6 13q3 6 10 3q6 -2 4 -9l-6 -12q-3 -6 -9 -5q-8 4 -5 10zM51 54.5q0 3.5 2 4.5q5 5 10 1q1 -1 3 -2q4 -5 7 -4 q6 -2 4 -8q-2 -8 -10 -6q-1 0 -13 9q-3 2 -3 5.5zM62 197l8 12q5 5 11 2q6 -4 2 -10l-8 -11q-3 -6 -10 -3q-7 4 -3 10zM86 232l9 10q5 7 11 1q5 -5 0 -10l-8 -10q-5 -5 -10 -2q-5 4 -2 11zM89 43q1 5 7 7l13 2q7 0 9 -7q0 -7 -7 -8l-14 -2q-8 0 -8 8zM114 252q-6 6 0 11 l10 10q6 4 11 -1q4 -6 -1 -10l-10 -9q-4 -5 -10 -1zM130 48q-2 7 5 9l12 4q6 3 10 -4q2 -7 -4 -10l-14 -4q-7 -2 -9 5zM145 279q-3 7 3 10q8 5 15 6q9 2 9 -6q-2 -8 -6 -9q-7 0 -11 -4q-6 -4 -10 3zM168 63q-3 7 3 10q2 1 5.5 3.5t5.5 3.5q6 4 10 -2q5 -6 -2 -11l-12 -7 q-7 -3 -10 3zM184 286q2 7 11 2l5 -5q4 -5 5 -8q3 -8 -4 -10t-9 3q-1 2 -3.5 5t-3.5 4q-4 2 -1 9zM203 85q-6 6 1 10l10 9q6 4 11 -1q4 -6 -1 -10l-11 -9q-6 -6 -10 1zM234 111q-6 5 0 11l10 9q6 6 10 0q5 -5 0 -10l-10 -10q-5 -5 -10 0zM263 140q-6 6 0 10l10 10q4 7 10 1 q5 -5 0 -11l-9 -10q-6 -6 -11 0z" />
<glyph unicode="d" horiz-adv-x="315" d="M14 106l3 14q2 8 9 6q7 -4 5 -9l-2 -13q-2 -8 -8 -6q-9 0 -7 8zM15 76q0 7 7 9q7 0 7 -6l5 -10q2 -6 -2 -10q-8 -6 -10 2zM27 147l6 13q4 7 10 3q6 -3 3 -10l-6 -12q-2 -6 -9 -4q-7 4 -4 10zM42 51q3 5 9 3l11 -2q7 0 7 -7q0 -8 -8 -8l-15 4q-9 0 -4 10zM48 184l8 12 q6 6 10 1q6 -3 2 -10l-8 -11q-4 -6 -10 -2t-2 10zM74 218l9 10q5 6 11 0q5 -5 0 -10l-9 -10q-5 -5 -10 -1q-7 5 -1 11zM82 47q-1 6 5 9l12 5q5 2 9 -4q3 -6 -4 -10l-13 -5q-3 -1 -6 0.5t-3 4.5zM103 237q-6 6 1 10l11 10q2 2 5.5 1.5t4.5 -3.5q4 -6 -1 -10l-11 -9 q-5 -4 -10 1zM120 63q-4 6 2 10l11 7q6 4 10 -2q5 -4 -1 -10l-12 -8q-7 -3 -10 3zM136 263q-6 6 2 10l12 7q7 3 10 -3q4 -6 -3 -10l-11 -6q-7 -5 -10 2zM153 87q-5 5 0 11l9 9q4 4 11 1q5 -6 0 -11l-10 -10q-6 -6 -10 0zM172 283q-5 7 4 9l14 5q7 2 9 -5t-5 -9l-13 -4 q-7 -5 -9 4zM177.5 122.5q-0.5 3.5 1.5 5.5l8 11q4 6 10 2q3 -1 3.5 -4.5t-1.5 -5.5l-8 -12q-5 -5 -10 -1q-3 1 -3.5 4.5zM195 82l1 14q0 7 8 7q8 -2 6 -9l-1 -13q0 -7 -7 -7q-9 0 -7 8zM200 50q-3 8 3 10q8 2 10 -2q1 -5 6 -7q4 -4 4 -8t-3 -5.5t-7 0.5q-8 4 -13 12z M202 125l4 14q4 7 10 4q8 -2 4 -9l-4 -13q-2 -6 -8 -5q-8 2 -6 9zM202 162l7 12q3 5 10 2h1l1 3q2 9 9 4q7 -2 5 -9l-5 -13q-4 -7 -10 -4q-1 0 -3 2l-3 -5q-4 -6 -10 -2t-2 10zM211 294q0 7 7 9l14 1q8 0 8 -8q0 -7 -7 -7l-13 -1q-8 0 -9 6zM232 206l6 12q2 9 9 4 q7 -4 4 -10l-6 -12q-2 -6 -9 -4q-7 4 -4 10zM236 45q-2 7 4 10q5 1 10 7q7 4 10 -2q4 -4 -1 -10q-8 -6 -12 -8q-8 -3 -11 3zM241 234l6 12q3 6 10 4q6 -3 4 -10l-6 -13q-4 -7 -10 -3q-6 3 -4 10zM259 271l6 12q4 7 10 4t4 -10l-6 -12q-3 -6 -10 -4q-6 3 -4 10zM271 70 q-5 5 0 10l9 10q7 4 11 0q5 -6 0 -11l-10 -10q-6 -4 -10 1zM277 309l5 12q3 6 10 4q6 -3 4 -10l-6 -13q-4 -6 -10 -3q-7 2 -3 10zM293 346l6 13q3 6 10 4q6 -4 3 -10l-5 -13q-4 -6 -10 -3q-6 2 -4 9zM300 100q-5 5 0 11l8 10q5 5 11 1q5 -5 1 -11l-9 -10q-6 -6 -11 -1z M310 384l5 13q3 6 10 4q6 -3 4 -10l-6 -12q-2 -9 -9 -4q-9 2 -4 9zM326 422l5 13q4 7 10 4q6 -2 4 -10l-6 -12q-2 -8 -9 -4q-9 2 -4 9zM327 143l9 10q4 7 10 1q7 -4 1 -10l-9 -11q-4 -5 -10 -1q-6 6 -1 11zM342 461l5 12q2 8 10 4q6 -2 4 -9l-6 -13q-2 -9 -9 -4q-7 4 -4 10z M358 499l5 13q4 6 10 4q6 -4 3 -10l-5 -13q-2 -6 -10 -4q-6 4 -3 10z" />
<glyph unicode="e" horiz-adv-x="223" d="M32 94v15q0 7 7 7q7 -2 7 -8v-13q2 -6 -6 -8q-6 -2 -8 7zM35 136l3 14q3 7 9 5q8 -2 6 -9l-4 -13q0 -6 -8 -6q-8 2 -6 9zM40 66q-4 8 3 10q8 2 10 -3q1 -3 7 -9q4 -4 0 -10q-4 -7 -10 -1q-8 8 -10 13zM47 176l6 13q2 7 10 3q6 -4 3 -10l-5 -12q-3 -6 -10 -4q-6 2 -4 10z M65 213l7 12q4 6 11 2q6 -4 2 -10l-7 -12q-4 -6 -10 -2q-6 3 -3 10zM69 168q-2 7 5 9l13 3q7 2 9 -5t-5 -9l-13 -4q-7 -2 -9 6zM71 49q1 5 8 5l13 -2q5 2 7 -6q0 -8 -8 -8l-15 2q-3 0 -4.5 3t-0.5 6zM88 247l9 11q5 5 10 1q5 -5 1 -11l-9 -10q-4 -6 -10 -1q-7 4 -1 10z M107 179q-2 7 5 9l12 5q6 3 10 -4t-4 -9l-13 -6q-7 -2 -10 5zM110 47q0 7 5 9l13 4q6 2 9 -3q4 -8 -4 -10l-14 -5q-7 -2 -9 5zM116 267q-5 5 0 10l12 9q6 6 10 -2q4 -6 -2 -10l-10 -8q-6 -4 -10 1zM144 194q-2 7 3 10l12 7q6 4 10 -2q3 -6 -2 -11l-13 -7q-6 -4 -10 3z M148 62q-3 6 2 10l12 7q5 3 10 -2q4 -6 -2 -10l-12 -8q-8 -4 -10 3zM148 290q-4 6 4 10l15 4q8 2 8 -7q2 -6 -6 -8l-12 -3q-6 -2 -9 4zM179 215q-5 6 0 11l10 9q5 5 10 0q5 -4 1 -10l-11 -10q-6 -6 -10 0zM181 84q-4 6 1 10l11 9q5 5 10 -1q5 -4 -1 -10l-10 -9q-6 -4 -11 1z M187 297q2 8 10 6q12 -7 14 -9q3 -3 2.5 -6.5t-3.5 -4.5q-4 -3 -9 0l-9 6q-5 0 -5 8zM202 254q4 8 4 11q2 6 7 7q9 0 7 -9q0 -5 -4 -15q-4 -7 -10 -3q-6 3 -4 9zM212 110q-6 6 0 11l9 10q5 3 10 0q5 -5 1 -11l-10 -10q-6 -6 -10 0zM239 139q-5 5 0 11l8 10q6 6 11 1t1 -10 l-9 -11q-5 -5 -11 -1z" />
<glyph unicode="f" horiz-adv-x="199" d="M-70 -195q2 7 8 7q7 0 7 -7q0 -2 2 -12q2 -5 -5 -9q-7 -2 -9 6q-4 10 -3 15zM-68 -168l4 14q2 8 9 6t5 -9l-3 -13q0 -8 -8 -6q-7 0 -7 8zM-58 -128l5 13q2 7 9 5t5 -9l-5 -13q-2 -7 -8 -5q-8 2 -6 9zM-52 -225q6 6 10 1q1 -2 10 -4q5 -2 5 -9t-9 -5q-11 2 -14 6 q-7 7 -2 11zM-45 -90l5 14q2 6 9 4q7 -3 5 -10l-5 -12q-2 -7 -9 -5t-5 9zM-30 -52l5 13q2 8 9 4q9 -2 4 -9l-5 -13q-2 -8 -9 -4q-8 2 -4 9zM-15 -14l5 12q4 7 10 4q6 -2 4 -9l-6 -13q-2 -9 -9 -4q-8 2 -4 10zM-15 -236q-2 7 5 9q7 0 11 4q5 3 10 -2q3 -6 -3 -11 q-7 -5 -14 -5q-9 -2 -9 5zM0 22l6 13q2 9 9 4q7 -4 4 -10l-5 -12q-4 -7 -10 -4q-6 2 -4 9zM16 59l6 13q2 6 10 4q6 -4 3 -10l-5 -13q-4 -6 -10 -3q-6 2 -4 9zM20 -208l7 10q4 4 11 1q6 -3 1 -10l-9 -11q-5 -6 -10 -1q-4 7 0 11zM32 96l6 13q4 6 10 3q7 -2 3 -9l-5 -13 q-3 -6 -10 -4q-6 3 -4 10zM38 32q0 8 8 8q7 0 7 -7l1 -14q2 -6 -6 -8q-8 0 -8 7zM39 -177l4 12q3 7 10 5t5 -9l-6 -13q-2 -9 -9 -4q-9 2 -4 9zM42 62q0 9 17 11q7 0 7 -7t-8 -7q0 -1 -1 -1q-2 0 -2 -3q-2 -4 -9 -4q-8 0 -4 11zM43 -9q-1 7 6 9q7 0 9 -7l1 -13q2 -7 -6 -9 q-8 0 -8 7zM48 -48q-2 6 6 8q8 0 9 -7l1 -13q0 -8 -7 -8q-6 -2 -8 6zM48 -140l2 13q0 7 8 7q7 0 7 -8l-2 -14q-2 -8 -8 -6q-7 0 -7 8zM49 133l5 12q4 7 10 4q6 -2 4 -9l-6 -13q-4 -7 -10 -4q-6 4 -3 10zM51 -88q0 8 7 8q8 0 8 -7v-14q0 -7 -7 -7q-8 0 -8 7v13zM62 189l9 10 q5 5 11 0q6 -4 0 -10l-3 -3h1q6 -4 4 -10l-6 -12q-4 -7 -10 -4q-7 2 -3 9l3 8q-3 -1 -5 1q-6 6 -1 11zM77 66q0 6 7 8l13 2q7 0 9 -7q0 -7 -6 -8l-15 -2q-8 -2 -8 7zM89 218l9 11q5 5 10 0q7 -4 1 -10l-9 -10q-6 -5 -10 -1q-6 6 -1 10zM96 243l6 13q2 6 9 4q7 -4 4 -10 l-5 -13q-4 -6 -10 -4q-6 3 -4 10zM112 280l5 13q3 6 10 4q6 -4 4 -10l-6 -13q-2 -6 -9 -4q-7 4 -4 10zM115 248l9 11q5 5 11 1q5 -5 1 -11l-9 -10q-6 -6 -11 -1t-1 10zM117 73q-2 7 4 9q3 1 12 5q7 2 10 -4q4 -6 -4 -10q-2 0 -6 -2t-7 -3q-7 -2 -9 5zM127 317l5 13q3 6 10 4 q7 -4 4 -10l-5 -13q-4 -6 -10 -4q-6 3 -4 10zM142 268q-6 6 0 11l9 10q4 7 10 1q5 -4 1 -10l-9 -11q-4 -4 -11 -1zM143 354l5 13q2 6 9 4q7 -4 4 -10l-5 -13q-2 -6 -9 -4q-7 4 -4 10zM153 89q-4 6 2 10l12 7q5 4 10 -1q4 -6 -2 -11l-12 -7q-6 -6 -10 2zM158 391l5 13 q2 6 10 4q6 -4 4 -10l-6 -12q-2 -8 -9 -4q-8 2 -4 9zM167 309l9 11q6 6 10 1q6 -4 2 -10l-9 -11q-6 -6 -11 -1t-1 10zM173 428l5 13q4 7 10 4t4 -10l-5 -12q-4 -7 -10 -4q-9 2 -4 9zM186 112q-6 6 0 11l10 9q6 6 10 0q6 -6 0 -11l-10 -9q-6 -6 -10 0zM188 465l6 13q2 8 9 4 q8 -2 4 -10l-5 -12q-4 -7 -10 -4q-6 2 -4 9zM193 340l8 11q5 5 11 1q5 -4 1 -10l-9 -11q-4 -7 -10 -1t-1 10zM204 502l5 13q4 7 10 4t4 -10l-6 -12q-2 -9 -9 -4q-9 2 -4 9zM214 150l9 11q5 5 11 0q6 -4 0 -10l-9 -11q-5 -5 -10 0t-1 10zM217 372l9 11q4 5 10 1t2 -10l-9 -11 q-1 -3 -4.5 -3.5t-5.5 1.5q-6 6 -2 11zM220 539l5 13q3 6 10 4q6 -3 4 -10l-6 -13q-2 -7 -9 -3q-9 2 -4 9zM240 576q2 5 10 11q6 6 10 -1q5 -5 0 -10l-9 -9q-4 -6 -9 -2q-7 5 -2 11zM242 404l8 11q4 7 10 1q6 -4 2 -10l-9 -11q-4 -6 -10 -2q-5 5 -1 11zM265 436l7 11 q4 8 10 2q6 -3 3 -10l-8 -11q-5 -7 -10 -2q-8 4 -2 10zM270 592q-3 7 5 10q3 2 16 2q9 0 7 -7q-1 -6 -8 -8q-9 0 -11 -1q-5 -2 -9 4zM286 469l7 12q4 7 10 3q7 -4 3 -10l-7 -12q-4 -7 -10 -3q-7 4 -3 10zM305 504l6 12q4 6 10 4q8 -3 4 -10l-6 -13q-4 -7 -10 -3q-6 3 -4 10z M308 592q6 9 11 1q8 -8 10 -12q4 -9 -4 -11q-7 -2 -9 4l-7 8q-2 8 -1 10zM319 539l1 13q0 7 8 7t6 -7l-1 -16q0 -7 -9 -5q-7 2 -5 8z" />
<glyph unicode="g" horiz-adv-x="276" d="M-24 -184q0 7 8 7q7 0 7 -8v-12q2 -6 -6 -8t-8 6q-1 5 -1 15zM-20 -157l4 14q3 7 10 5q6 -4 4 -9q-1 -3 -2.5 -7t-1.5 -6q0 -6 -8 -6q-8 2 -6 9zM-14 -227q-4 7 2 11q8 2 10 -2q1 -2 8 -7q5 -2 3 -9q0 -8 -10 -4q-12 9 -13 11zM-6 -118l7 13q3 6 10 3q7 -4 3 -10l-6 -12 q-4 -6 -10 -3q-6 2 -4 9zM15 -82l8 12q4 7 10 1q6 -4 2 -10l-8 -11q-4 -6 -10 -2q-8 4 -2 10zM21 -234q-1 5 4 10q1 1 4.5 2t5.5 3q4 6 10 0q5 -5 -1 -11q-3 -3 -14 -8q-3 -2 -6 -0.5t-3 4.5zM27 81v15q0 7 7 7q7 -2 7 -8v-12q2 -6 -5 -8t-9 6zM32 125l4 14q2 8 9 4 q7 -2 5 -9l-4 -13q-2 -5 -10 -5q-8 2 -4 9zM39 51q-6 8 1 11q5 3 11 -1l7 -7q6 -1 4 -9t-11 -4q-3 1 -7 5zM40 -50l9 11q5 5 11 0q6 -6 0 -10l-9 -10q-5 -5 -10 -1q-5 6 -1 10zM49 166l6 12q4 7 11 2q5 -4 2 -10l-7 -11q-2 -8 -9 -3q-7 2 -3 10zM51 -200l8 11q3 5 10 2 q7 -5 2 -10l-8 -12q-4 -6 -10 -2q-5 5 -2 11zM68 -31q-5 5 1 11l10 9q6 4 11 -1q4 -6 -1 -11l-11 -8q-4 -6 -10 0zM72 -167l6 12q4 6 10 3t3 -10l-6 -12q-4 -7 -10 -3q-6 3 -3 10zM73 202l8 11q5 5 11 1q5 -5 0 -11l-8 -10q-4 -6 -10 -2q-5 5 -1 11zM75 42q0 8 7 8l13 2 q7 0 8 -6q1 -3 -0.5 -6t-4.5 -3l-15 -2q-8 0 -8 7zM90 -132l6 12q4 7 10 4q6 -4 3 -10l-6 -12q-4 -7 -10 -4q-6 4 -3 10zM99 -5q-6 6 1 10l12 8q6 6 10 -2q3 -5 -2 -10l-11 -7q-6 -6 -10 1zM101 224q-5 5 0 10l10 10q6 6 11 -1q4 -5 -1 -10l-10 -9q-5 -5 -10 0zM107 -96 l6 13q2 7 9 3q9 -2 4 -9l-6 -13q-2 -6 -10 -4q-6 4 -3 10zM116 51q-3 6 3 10l11 7q5 4 10 -1q3 -7 -2 -11l-12 -8q-7 -3 -10 3zM123 -59l6 12q2 8 10 4q6 -4 3 -10l-5 -12q-4 -7 -10 -4t-4 10zM131 18q-4 6 3 10l11 8q7 3 10 -2q5 -6 -2 -11l-11 -7q-6 -3 -11 2zM132 252 q-4 6 2 11l11 8q6 4 10 -2q3 -7 -2 -10l-11 -8q-5 -4 -10 1zM139 -23l6 13q3 6 10 4q6 -4 3 -10l-5 -13q-4 -6 -10 -3q-6 2 -4 9zM151 75q-5 5 0 11l9 9q5 5 11 1q5 -6 0 -11l-10 -10q-6 -6 -10 0zM156 14l5 12q4 7 10 4q6 -2 4 -9l-6 -13q-3 -6 -10 -4q-6 4 -3 10zM167 276 q-3 7 3 10l13 6q6 3 10 -4q2 -7 -4 -9l-12 -6q-7 -3 -10 3zM172 51l5 12q4 7 10 4q7 -4 4 -10l-6 -12q-2 -9 -9 -4q-8 2 -4 10zM178 116l9 11q4 6 10 2q5 -5 1 -11l-8 -11q-4 -4 -11 -1q-5 5 -1 10zM188 87l6 13q2 6 9 4q7 -4 4 -10l-5 -13q-4 -6 -10 -4q-7 4 -4 10zM198 63 q-4 7 2 10l11 8q5 4 10 -1q3 -7 -2 -11l-11 -8q-2 -2 -5.5 -1.5t-4.5 3.5zM204 124l6 12q2 8 10 4q7 -2 3 -9l-5 -13q-4 -7 -10 -4t-4 10zM206 293q-3 7 5 9l14 3q8 2 8 -6q1 -6 -5 -8l-13 -3q-7 -2 -9 5zM220 160l6 13q4 7 10 4q6 -4 3 -10l-5 -12q-4 -7 -10 -4q-6 2 -4 9z M230 87q-4 5 1 10l11 9q5 4 10 -1t-1 -11l-11 -8q-5 -5 -10 1zM237 197l5 13q4 6 10 4q6 -3 4 -10l-6 -13q-3 -6 -10 -4q-6 4 -3 10zM247 301q0 8 7 8l15 -1q8 0 6 -8q0 -8 -7 -6h-13q-8 0 -8 7zM253 234l5 12q4 7 10 4q6 -2 4 -10l-6 -12q-2 -9 -9 -4q-7 4 -4 10zM261 112 q-5 6 0 11l10 9q6 6 10 0q6 -6 0 -10l-10 -10q-6 -6 -10 0zM269 270l6 13q2 6 9 4q7 -4 4 -10l-6 -12q-2 -9 -9 -4q-9 2 -4 9zM289 140q-4 7 0 11l9 10q6 5 11 0q6 -4 0 -10l-9 -10q-5 -5 -11 -1z" />
<glyph unicode="h" horiz-adv-x="342" d="M43 55l5 13q0 1 2 3q3 5 8 2q9 -2 4 -9l-5 -13v-1q-4 -7 -10 -4q-9 2 -4 9zM51 178q-6 4 0 10l9 10q6 6 10 1q6 -5 1 -10l-9 -11q-6 -6 -11 0zM58 93l5 13q1 4 7 4q3 2 6 0q6 -3 3 -10l-6 -12l-3 -3q-4 -3 -8 -2q-7 4 -4 10zM72 130l5 13q4 7 10 4q9 -2 4 -9l-5 -13 q-4 -7 -10 -4q-6 2 -4 9zM77 218l9 11q6 5 11 0q6 -4 0 -10l-9 -11q-4 -6 -10 0q-5 4 -1 10zM87 168l5 12q3 7 10 5q6 -3 4 -10l-2 -5l5 8q5 6 11 2q7 -4 1 -10l-7 -12q-4 -6 -10 -2q-3 3 -3 6q-3 -6 -10 -4q-6 3 -4 10zM102 205l5 13q3 6 10 4q6 -3 4 -10l-5 -13 q-4 -6 -10 -4q-6 3 -4 10zM104 238q-5 5 0 10l9 11q4 5 10 1l2 -2q4 2 7 1q7 -4 4 -10l-5 -12q-4 -7 -10 -4q-6 2 -4 8l-2 -2q-5 -5 -11 -1zM127 200l8 11q5 6 10 1q7 -4 1 -10l-8 -11q-4 -5 -10 -1q-7 4 -1 10zM130 279l9 10q5 5 10 1q6 -5 1 -10l-9 -11q-4 -5 -10 -1 q-6 6 -1 11zM148 317l5 12q4 7 10 4q6 -2 4 -9l-2 -5q5 7 11 1q5 -4 1 -10l-9 -11q-6 -5 -11 0q-4 4 -2 7h-1l-2 1q-7 4 -4 10zM154 222q-6 4 0 10l9 10q5 6 11 0q3 -5 0 -10l-10 -10q-4 -6 -10 0zM163 354l6 12q4 7 10 4q7 -2 3 -9l-5 -13q-4 -7 -10 -4q-6 4 -4 10z M179 391l6 12q4 7 10 4q6 -4 3 -10l-5 -12q-4 -7 -10 -4t-4 10zM183 251q-6 6 1 10l10 10q7 3 11 -2q3 -5 -2 -10l-10 -9q-5 -4 -10 1zM183 339l9 11q5 5 10 0q7 -4 1 -10l-9 -10q-6 -6 -10 -1q-6 5 -1 10zM196 427l5 13q3 6 10 4q6 -3 4 -10l-6 -13q-4 -6 -10 -3q-7 2 -3 9 zM209 370l9 10q5 5 11 1q5 -5 0 -11l-9 -10q-4 -5 -10 -1q-5 5 -1 11zM212 464l6 13q4 6 10 3t3 -10l-5 -12q-3 -6 -10 -4q-6 3 -4 10zM213.5 282.5q0.5 3.5 3.5 4.5l14 7q7 3 9 -5q2 -5 -4 -9l-11 -5q-7 -4 -10 2q-2 2 -1.5 5.5zM223 64l2 15q0 8 9 6q7 -2 5 -8l-1 -13 q0 -5 -7 -7q-2 -1 -5 1t-3 6zM230 500l6 13q3 6 10 3q6 -4 3 -10l-6 -12q-3 -6 -10 -3q-8 2 -3 9zM233 107l5 13q2 8 9 4t4 -10l-4 -12q-3 -7 -10 -5q-7 4 -4 10zM235 40q-1 4 2 6l9 3l9 -1q6 2 8 -5q2 -6 -5 -10q-10 0 -18 3q-4 0 -5 4zM235 400l9 10q5 5 10 2q6 -5 2 -11 l-9 -10q-5 -7 -11 -1q-5 4 -1 10zM248 145l6 13q2 6 9 4q7 -4 4 -10l-5 -12q-4 -7 -10 -4q-6 2 -4 9zM248 536l7 13q4 6 10 2q6 -3 3 -10l-7 -12q-3 -5 -10 -3q-7 4 -3 10zM253 292q-2 8 7 8h6q6 -1 10 -3q4 -1 5 -4t-1 -5q-4 -7 -9 -5q-3 2 -11 2q-7 0 -7 7zM260 431l9 11 q3 5 10 2q5 -5 1 -11l-8 -11q-4 -7 -10 -1q-6 3 -2 10zM265 183l5 13q3 6 10 4q6 -4 3 -10l-5 -13q-4 -6 -10 -3q-6 2 -3 9zM270 571l10 12q5 5 11 -1q4 -5 -1 -10l-8 -10q-4 -5 -10 -1q-6 3 -2 10zM275 49q-4 6 1 10l11 8q5 4 10 -1q6 -6 -1 -11l-11 -8q-7 -5 -10 2z M280 221l4 12q0 8 8 6t6 -9l-4 -14q-4 -7 -10 -4q-8 2 -4 9zM284 463l7 12q5 5 11 2q5 -5 2 -11l-8 -11q-1 -3 -4.5 -3.5t-5.5 1.5q-6 3 -2 10zM285 270q-2 5 4 9q6 3 10 -4q2 -4 2 -16q2 -8 -7 -8q-7 2 -7 7q0 9 -2 12zM300 589q-4 7 4 10q10 4 17 2q10 0 6 -8q-3 -6 -8 -6 q-4 1 -10 -2q-5 -2 -9 4zM306 75q-4 5 1 10l9 10q6 4 10 0q6 -6 1 -11l-10 -10q-5 -5 -11 1zM306 496l7 12q3 6 10 3q6 -4 2 -10l-7 -12q-4 -7 -10 -3q-6 6 -2 10zM325 531l5 12q4 6 10 4q8 -2 4 -9l-6 -14q-4 -6 -10 -3q-6 4 -3 10zM333 576q-3 4 3 10q7 4 10 -4 q1 -2 4 -16q0 -9 -8 -7q-7 0 -7 7zM334 115l9 10q4 4 11 1q5 -5 0 -10l-9 -11q-4 -5 -10 -1q-5 5 -1 11zM361 146l8 11q5 5 11 1q5 -5 1 -11l-9 -10q-6 -5 -10 -1q-7 4 -1 10z" />
<glyph unicode="i" horiz-adv-x="170" d="M52 67q0 5 2 15q0 8 8 6t6 -8q0 -2 -0.5 -6t-0.5 -6q0 -6 -7 -8q-6 -1 -8 7zM57 182q-5 6 0 11l9 10q4 7 10 1t1 -10l-9 -11q-4 -4 -11 -1zM61 42q0 4 3 5q4 2 9 2q2 -2 8 0t8 -5q3 -7 -5 -10q-12 -2 -18 2q-5 2 -5 6zM61 110l4 14q2 8 9 4q7 -2 5 -9l-4 -13 q-3 -7 -10 -5t-4 9zM75 150l5 13q4 7 10 4q6 -2 4 -9l-6 -13q-2 -8 -9 -4q-9 2 -4 9zM88 229l9 10q5 6 10 1q7 -4 1 -10l-9 -11q-4 -6 -10 0q-7 4 -1 10zM91 189l6 13q4 6 10 3q6 -2 4 -9l-6 -13q-3 -6 -10 -4q-6 3 -4 10zM101 50q-3 6 2 10l11 8q5 4 10 -1q6 -6 -1 -10 l-12 -9q-6 -4 -10 2zM109 227l6 13q4 7 10 3q6 -3 4 -10l-6 -12q-3 -6 -10 -4q-6 3 -4 10zM119 265l9 11q4 4 8 2q4 6 9 2q6 -4 3 -10l-7 -12q-3 -6 -10 -3l-1 1q-4 -5 -10 -1q-5 5 -1 10zM134 76q-6 6 0 10l10 10q4 6 10 0q5 -5 0 -10l-10 -10q-5 -5 -10 0zM163 106 q-5 5 0 10l9 11q4 6 10 0q7 -4 1 -10l-9 -10q-6 -6 -11 -1zM190 148l9 10q5 6 10 1q6 -5 1 -10l-9 -11q-4 -5 -10 -1q-5 5 -1 11zM191 408q6 11 17 14q9 3 16 -1q9 -5 10 -13q1 -2 1 -7q0 -8 -3 -14q-13 -23 -33 -13q-19 10 -8 34zM198 405q-9 -17 5 -24q13 -7 22 9 q5 8 2 16q-2 7 -7 8q-4 3 -10 1q-7 -1 -12 -10z" />
<glyph unicode="j" horiz-adv-x="152" d="M-152 -206q0 8 8 8q5 0 7 -7q0 -1 0.5 -5.5t1.5 -6.5q2 -5 -4 -9q-7 -3 -10 5zM-149 -177q1 7 5 14q2 9 9 4q7 -2 5 -9q-4 -8 -4 -12q-2 -6 -9 -6q-6 2 -6 9zM-132 -137l7 12q5 7 11 2q6 -4 2 -10l-7 -11q-4 -7 -10 -3q-6 3 -3 10zM-130 -235q2 4 8 4h10q6 2 9 -4 q2 -9 -5 -10q-12 -2 -18 0q-9 2 -4 10zM-108 -102l9 11q4 6 10 0q5 -4 1 -10l-9 -10q-4 -7 -10 -1q-7 4 -1 10zM-92 -219l9 10q4 6 10 1q7 -4 1 -10l-10 -11q-6 -6 -10 1q-5 5 0 9zM-80 -71l10 10q6 6 10 -1q5 -5 0 -10l-10 -9q-4 -6 -10 0q-6 4 0 10zM-68 -187l7 12 q3 5 10 2q5 -3 2 -10l-7 -12q-4 -6 -10 -2t-2 10zM-50 -43l10 10q5 5 11 -1q5 -4 -1 -10l-10 -9q-5 -5 -10 0q-6 6 0 10zM-48 -152l7 12q3 6 10 3q6 -4 3 -10l-7 -12q-3 -6 -10 -3q-6 4 -3 10zM-29 -116l6 13q4 7 10 3q6 -3 3 -10l-6 -12q-2 -6 -9 -4q-8 4 -4 10zM-20 -26 q-3 7 1 11l11 9q4 4 10 -1q6 -6 -1 -10l-10 -9q-5 -6 -11 0zM-11 -79l6 13q4 6 10 3t3 -10l-5 -12q-3 -6 -10 -4q-6 3 -4 10zM7 -42l5 13q3 6 10 4q6 -3 4 -10l-6 -13q-4 -6 -10 -3q-7 2 -3 9zM12 1q-5 5 1 11l10 8q5 6 11 0q2 -4 1 -7q2 0 4 -1q7 -2 3 -9l-5 -13 q-3 -6 -10 -4q-6 3 -4 10l4 9l-5 -5q-6 -4 -10 1zM43 28q-4 5 1 10l11 9q5 5 10 -1q6 -6 -1 -10l-10 -9q-5 -5 -11 1zM56 71l5 13q4 7 10 4q6 -2 4 -9l-6 -13q-2 -8 -9 -4q-9 2 -4 9zM58 184q-5 5 0 11l9 10q4 5 10 1q5 -5 1 -11l-9 -10q-6 -6 -11 -1zM72 109l5 13q2 9 9 4 q7 -2 5 -9l-6 -13q-2 -9 -9 -4q-9 2 -4 9zM75 54q-5 6 0 11l10 9q5 6 11 0q5 -5 -1 -11l-10 -9q-6 -6 -10 0zM87 148l5 12q4 7 10 4q8 -2 4 -9l-5 -13q-4 -7 -10 -4t-4 10zM89 220q-5 5 0 10l9 11q4 6 10 0q5 -4 1 -10l-9 -10q-6 -6 -11 -1zM102 186l6 13q2 6 9 4 q7 -4 4 -10l-5 -13q-2 -6 -9 -4q-7 3 -5 10zM105 82q-5 5 0 10l10 10q5 6 11 0q4 -6 0 -11l-10 -9q-6 -6 -11 0zM118 224l5 13q2 8 9 4q9 -2 4 -9l-5 -13q-2 -8 -9 -4q-8 2 -4 9zM120 256q-6 4 0 10l9 10q4 7 10 1q3 5 8 3q7 -4 4 -10l-5 -13q-2 -9 -9 -4q-3 1 -5 5l-1 -2 q-5 -6 -11 0zM135 111q-5 5 0 10l10 10q4 6 10 0q5 -5 0 -11l-10 -9q-5 -5 -10 0zM163 151l10 9q5 6 10 1t1 -11l-10 -10q-5 -5 -10 0t-1 11zM172.5 376q-2.5 10 2.5 20q5 11 16 14q11 2 16 -2q7 -3 11 -12q1 -3 1 -8q0 -7 -4 -14q-4 -10 -14 -13.5t-18 1.5q-8 4 -10.5 14z M181 392q-7 -17 5 -24q14 -7 23 10q3 9 2 16q-4 6 -7 8q-6 2 -11 1q-7 -3 -12 -11z" />
<glyph unicode="k" horiz-adv-x="314" d="M46 55l1 2l2 6l2 5l1 2q4 7 10 4q6 -4 4 -10l-2 -5l-4 -9q-2 -9 -9 -4q-7 2 -5 9zM56 188l10 10q4 6 10 0q5 -5 1 -10l-10 -10q-5 -6 -10 -1t-1 11zM61 93l5 13q1 2 5 4q3 4 8 2q6 -3 4 -10l-7 -12v-1q-1 -1 -1 -2q-4 -6 -10 -4q-6 3 -4 10zM76 130l5 13q2 9 9 4 q9 -2 4 -9l-5 -13q-2 -8 -9 -4q-8 2 -4 9zM83 217l9 11q6 6 11 0q5 -5 0 -10l-9 -11q-4 -6 -10 0q-5 5 -1 10zM91 167l5 13q2 8 9 4q3 -1 5 -6l2 3q1 3 4.5 3.5t5.5 -1.5q6 -3 2 -10l-8 -11q-3 -6 -10 -3l-2 3q-4 -8 -9 -4q-9 2 -4 9zM105 205l6 13q2 6 9 4q7 -4 4 -10 l-5 -13q-2 -6 -9 -4q-7 3 -5 10zM110 237q-5 5 0 10l9 11q4 6 10 0q4 2 6 1q7 -4 4 -10l-5 -13q-2 -6 -9 -4q-3 1 -5 5q-5 -5 -10 0zM129 204l8 11q6 6 11 1t1 -10l-9 -11q-4 -7 -10 -1q-7 4 -1 10zM131 131q-4 7 4 9q6 2 10 -4l4 -13q2 -6 -4 -10q-7 -2 -10 5zM136 278 l9 10q4 7 10 1q5 -5 1 -10l-9 -11q-5 -5 -10 -1q-6 6 -1 11zM144 155q-2 7 5 9l14 3q6 2 8 -5q3 -7 -5 -9l-13 -3q-7 -2 -9 5zM145 91q-2 8 4 10q6 3 10 -4l6 -12q2 -5 -3 -10q-8 -4 -10 3zM151 316l6 13q1 6 9 4q7 -4 4 -10l-4 -9l4 5q5 5 11 1q4 -4 1 -11l-9 -10 q-5 -5 -10 -1q-6 4 -2 9q-3 -1 -6 0q-6 2 -4 9zM156 236l10 10q6 6 11 0q4 -6 -1 -10l-9 -10q-5 -5 -10 0q-5 6 -1 10zM167 353l5 13q3 6 10 4q6 -3 4 -10l-6 -12q-2 -9 -9 -4q-9 2 -4 9zM169 54q-5 6 0 11q5 4 11 0q4 -5 9 -8q5 -2 3 -10q-5 -7 -11 -2zM183 390l5 13 q3 6 10 4q6 -3 4 -10l-6 -13q-2 -7 -9 -3q-8 2 -4 9zM184 166q-2 7 5 9l12 5q6 3 10 -4q2 -7 -4 -10l-13 -5q-8 -2 -10 5zM186 255q-4 6 1 11l12 8q6 4 10 -2q2 -2 1.5 -5.5t-3.5 -4.5l-10 -8q-5 -5 -11 1zM187 339l9 11q5 5 10 1q6 -5 1 -10l-8 -11q-6 -6 -11 -1 q-5 4 -1 10zM199 427l6 13q2 7 9 3q9 -2 4 -9l-6 -13q-2 -6 -9 -4q-7 4 -4 10zM204 44q2 6 8 6l12 1q7 0 8 -5q2 -8 -6 -10l-15 -1q-9 2 -7 9zM212 370l9 11q5 5 10 1q3 -1 3.5 -4.5t-1.5 -5.5l-9 -11q-6 -5 -10 -1q-6 3 -2 10zM216 464l5 12q3 6 10 4q6 -3 4 -10l-6 -13 q-4 -6 -10 -3q-6 4 -3 10zM220 279q-3 6 4 10l13 6q3 1 6 -0.5t3 -4.5q1 -5 -4 -9l-12 -5q-6 -4 -10 3zM222 182q-2 7 3 10l12 7q5 3 10 -2q4 -5 -2 -11l-12 -7q-8 -4 -11 3zM233 500l6 12q3 6 10 4q7 -4 3 -10l-6 -13q-4 -6 -10 -3q-6 4 -3 10zM237 402l9 10q3 6 10 2 q5 -5 1 -11l-8 -10q-4 -6 -10 -2q-5 4 -2 11zM244 51q-4 6 3 10q9 6 10 7q6 4 11 -1q4 -6 -2 -11l-12 -8q-7 -3 -10 3zM251 536l7 12q5 6 11 3q5 -5 2 -10l-7 -12q-3 -6 -10 -3q-5 3 -3 10zM257 205q-5 5 0 11l9 9q4 6 10 1q6 -4 1 -10l-10 -11q-5 -5 -10 0zM260 291 q0 3 2.5 5t6.5 1q7 -1 15 -8q7 -5 -1 -11q-5 -2 -9 0q-3 3 -9 5t-5 8zM262 433l8 11q3 6 10 2q5 -4 2 -11l-9 -11q-4 -5 -10 -1q-7 4 -1 10zM273 571l10 11q6 6 10 0q5 -5 0 -10l-8 -10q-4 -7 -10 -1q-6 3 -2 10zM278 75q-6 5 0 11l9 9q5 5 11 0q6 -6 0 -10l-10 -10 q-6 -6 -10 0zM278 247q2 8 2 12q0 5 7 7q8 0 8 -8l-3 -15q-2 -9 -10 -5q-6 3 -4 9zM286 465l7 12q5 5 11 1q5 -4 2 -10l-9 -11q-4 -6 -10 -2q-5 5 -1 10zM303 589q-5 6 4 10q10 4 16 2q11 0 7 -8q-4 -6 -8 -6q-2 1 -10 -2q-5 -2 -9 4zM306 115l9 10q6 6 11 1t0 -11l-9 -10 q-5 -5 -10 0q-5 4 -1 10zM308 498l8 12q4 5 10 2q6 -4 2 -10l-7 -12q-5 -5 -11 -2q-6 4 -2 10zM329 532l5 12q2 6 10 4q6 -2 4 -10l-6 -13q-3 -7 -11 -3q-5 4 -2 10zM334 136q-6 4 0 10l8 11q6 5 11 0q5 -4 1 -10l-9 -10q-5 -7 -11 -1zM336 577q-2 4 3 9q6 6 10 -3 q1 -2 4 -16q2 -8 -8 -8q-5 1 -7 7q0 1 -0.5 5t-1.5 6z" />
<glyph unicode="l" horiz-adv-x="204" d="M57 190l9 10q4 7 10 1q7 -4 1 -10l-9 -11q-4 -5 -10 -1q-5 5 -1 11zM64 97l1 15q0 7 8 7q7 -2 7 -8l-1 -14q0 -7 -8 -7q-7 0 -7 7zM68 69q-2 7 6 9q6 2 8 -4q0 -4 6 -10q2 -4 -1 -10q-4 -6 -11 1t-8 14zM69 139l4 14q2 7 9 5t5 -9l-3 -13q-2 -6 -9 -6q-8 2 -6 9zM80 179 l5 13q2 7 9 5q7 -4 4 -10l-4 -13q-2 -7 -9 -4q-7 2 -5 9zM82 221l9 11q3 4 10 1q2 4 7 2q6 -4 4 -10l-5 -13q-2 -6 -9 -4q-4 2 -4 4q-5 -5 -11 -1q-5 4 -1 10zM98 50q2 8 7 6q1 0 11 2q6 0 9 -5q5 -7 -4 -9q-1 0 -7 -2t-9 -1q-10 2 -7 9zM107 252q0 2 1 3l5 13q2 9 9 4 q5 -1 5 -8q4 -4 1 -9l-9 -11q-4 -6 -10 -2q-5 5 -2 10zM123 293l5 13q4 7 10 4q6 -4 4 -10l-4 -8l3 4q4 5 10 1q5 -5 2 -10l-9 -11q-3 -6 -10 -2q-5 5 -2 9q-3 0 -5 1q-8 2 -4 9zM136 59q-4 6 1 11l11 8q5 4 10 -1t-1 -11l-11 -8q-6 -5 -10 1zM138 331l5 12q4 7 10 4 q8 -2 4 -9l-5 -13q-3 -6 -10 -4q-6 3 -4 10zM153 368l6 13q2 8 9 4q8 -2 4 -10l-5 -12q-2 -9 -9 -4q-7 2 -5 9zM157 317l9 11q4 5 10 1q7 -4 1 -10l-8 -11q-4 -6 -10 -2q-5 4 -2 11zM167 85q-5 5 0 10l10 10q5 3 10 0q5 -5 0 -11l-10 -10q-5 -4 -10 1zM169 406l5 12 q4 7 10 4q6 -2 4 -9l-6 -13q-1 -6 -9 -4q-7 4 -4 10zM182 349l8 11q4 7 10 1q6 -3 2 -10l-9 -11q-4 -7 -10 -1q-7 4 -1 10zM185 443l6 13q2 7 9 3q9 -2 4 -9l-6 -13q-4 -6 -10 -4q-7 4 -3 10zM195 124l10 10q4 6 10 0q5 -4 1 -10l-10 -10q-5 -5 -10 -1q-5 5 -1 11zM202 480 l6 12q4 8 10 4q6 -3 4 -10l-7 -12q-4 -8 -9 -4q-7 4 -4 10zM206 381l8 11q4 6 10 2t2 -10l-8 -12q-5 -5 -10 -1q-6 3 -2 10zM221 516l6 13q4 7 10 3q7 -4 3 -10l-6 -12q-3 -6 -10 -4q-7 4 -3 10zM223 143q-5 5 0 11l9 10q4 6 10 0q5 -4 1 -10l-9 -10q-6 -6 -11 -1zM230 414 l8 11q4 6 10 2q5 -5 2 -10l-8 -12q-5 -5 -11 -1q-7 4 -1 10zM241 552l8 12q4 7 10 1q5 -3 2 -10l-8 -11q-3 -5 -10 -2q-7 5 -2 10zM253 447l8 11q4 6 10 2q3 -1 3.5 -4.5t-1.5 -5.5l-8 -12q-4 -7 -10 -1q-5 3 -2 10zM267 575q-6 4 0 10l12 9q7 6 10 -2q3 -6 -2 -10l-10 -8 q-5 -4 -10 1zM276 480l7 12q4 6 10 2q7 -4 3 -10l-8 -12q-4 -6 -10 -2q-8 4 -2 10zM297 514l6 12q4 7 10 3q6 -3 3 -10l-6 -12q-5 -6 -11 -3q-6 4 -2 10zM301 595q-1 4 2 6t7 1q11 -6 15 -12q6 -8 -3 -10q-7 -2 -9 2q-2 3 -7 5q-5 3 -5 8zM314 549q2 8 2 12q2 7 8 7 q9 0 7 -8l-3 -15q-1 -7 -10 -5q-6 3 -4 9z" />
<glyph unicode="m" horiz-adv-x="590" d="M50 189l9 11q5 5 10 1q6 -6 1 -11l-9 -10q-5 -6 -10 -1t-1 10zM76 220l9 10q5 5 11 1q6 -5 0 -11l-9 -10q-4 -5 -10 -1q-6 6 -1 11zM102 250l10 10q6 6 11 0t0 -11l-9 -9q-5 -5 -11 -1q-5 5 -1 11zM115 64l6 13q2 5 8 3h3q7 -4 3 -10l-7 -13q-2 -5 -7 -3h-3q-7 4 -3 10z M131 268q-4 6 2 10l11 9q7 4 11 -4q2 -6 -3 -9l-10 -8q-6 -4 -11 2zM133 100l6 12q2 6 9 4h1q1 -1 2 -1q7 -4 3 -10l-7 -12q-2 -6 -8 -4q-1 0 -1 1h-2q-6 3 -3 10zM150 136l6 12q2 8 9 4q1 0 3 -2q3 0 4 -1q5 -3 2 -10l-7 -12q-3 -5 -10 -2q-3 0 -4 1q-6 4 -3 10zM165 288 q-1 3 1.5 5.5t6.5 1.5q10 1 17 -6t-1 -11q-4 -2 -10 0q-3 5 -7 3q-5 0 -7 7zM166 172l5 13q2 6 9 4q5 -2 5 -7q4 4 9 1q6 -4 2 -10l-8 -12q-4 -5 -10 -2l-3 4q-1 -1 -5 -1q-7 4 -4 10zM179 209l3 13q2 7 9 5q8 0 6 -9l-4 -13q-2 -7 -9 -5t-5 9zM187 247v12q-2 6 6 8t8 -7 v-15q0 -8 -8 -6q-6 0 -6 8zM199 203l8 11q4 6 10 2q5 -5 2 -11l-8 -11q-5 -5 -11 -1t-1 10zM223 235l9 11q5 5 11 1q5 -5 0 -11l-9 -10q-4 -7 -10 -1q-5 4 -1 10zM250 255q-6 5 0 11l11 9q6 6 10 0t-1 -11l-9 -9q-6 -4 -11 0zM279.5 287.5q0.5 3.5 3.5 4.5l14 7q3 1 6 -1 t3 -4q1 -7 -4 -9l-11 -6q-8 -2 -10 3q-2 2 -1.5 5.5zM288 59l6 12q2 9 9 4q8 -2 4 -10l-6 -12q-4 -7 -10 -4q-7 4 -3 10zM304 96l4 12q3 7 10 5q7 -4 4 -10l-5 -13q-1 -6 -9 -4q-7 4 -4 10zM317 133l4 13q2 7 9 5q1 0 3 -2q3 3 8 0q6 -4 2 -10l-8 -11q-1 -4 -7 -4 q-3 -2 -6 0q-7 2 -5 9zM318 295q0 8 9 6q3 -1 15 -10q7 -5 -2 -11q-5 -2 -9 2q-1 0 -3.5 2.5t-4.5 2.5q-5 0 -5 8zM328 171l3 13q2 8 9 6t5 -9l-3 -13q-2 -8 -9 -6t-5 9zM336 210l2 13q0 7 8 7q7 -2 6 -9l-1 -14q-1 -6 -9 -6q-8 2 -6 9zM338 261q0 7 6 9q7 2 9 -7 q1 -5 1 -14q0 -8 -7 -8q-8 0 -8 7q1 5 -1 13zM346 170l9 11q4 7 10 1q6 -4 2 -10l-9 -11q-4 -6 -10 -1q-5 4 -2 10zM372 203l9 11q4 5 10 1q5 -5 1 -11l-9 -10q-4 -7 -10 -1q-7 4 -1 10zM399 224q-5 5 0 10l10 10q5 5 10 0t0 -10l-9 -10q-6 -6 -11 0zM428 253q-4 6 1 10 l11 9q6 4 11 -1q4 -6 -2 -10l-10 -9q-6 -4 -11 1zM461 66.5q-1 5.5 0 8.5q2 7 9 7q6 -2 6 -8v-12q0 -5 -4 -8q-2 -2 -6 -0.5t-4 5.5q0 2 -1 7.5zM461 278q-4 6 3 10l14 6q8 2 9 -4q2 -8 -4 -10l-12 -5q-6 -4 -10 3zM468 103l4 13q3 7 10 5q6 -4 4 -10l-4 -12q-3 -7 -10 -5 t-4 9zM482 47q2 4 7 6l12 1q6 2 8 -4q2 -2 0.5 -5.5t-4.5 -4.5l-16 -2q-4 0 -6.5 3.5t-0.5 5.5zM482 142l6 13q2 6 10 4q6 -4 3 -10l-5 -13q-4 -6 -10 -3q-6 2 -4 9zM499 180l5 13q4 6 10 4q6 -3 4 -10l-6 -13q-2 -6 -9 -4q-7 4 -4 10zM499 292q0 8 8 8l16 -3q10 -4 3 -11 q-5 -5 -9 -2l-10 2q-6 -2 -8 6zM514 218l5 12q2 7 9 5t5 -9l-5 -13q-2 -7 -10 -5q-6 4 -4 10zM521 56q-3 5 2 10l11 7q4 5 10 -1t-1 -10l-12 -9q-6 -4 -10 3zM525 256l1 12q2 6 6 7q3 1 6 -1t3 -5l-1 -16q-2 -6 -9 -6q-6 1 -6 9zM553 81q-4 5 1 10l9 9q5 5 11 1q4 -7 0 -11 l-10 -10q-5 -5 -11 1zM582 110q-5 5 0 10l9 11q4 6 10 0q5 -4 1 -10l-9 -11q-5 -6 -11 0zM608 151l9 11q4 7 10 1q7 -4 1 -10l-9 -11q-4 -7 -10 -1q-5 5 -1 10z" />
<glyph unicode="n" horiz-adv-x="424" d="M51 190l9 11q4 5 10 1q6 -6 1 -11l-8 -10q-4 -5 -11 -2q-4 4 -1 11zM77 221l9 10q6 5 10 1q6 -6 1 -11l-9 -10q-5 -5 -10 0q-7 4 -1 10zM104 240q-4 6 0 11l10 10q7 3 11 -1q6 -6 -1 -10l-9 -10q-5 -6 -11 0zM115 64l7 12q0 4 7 4q3 3 8 1q6 -3 3 -10l-7 -12q-1 -1 -6 -4 q-5 -5 -8 -1q-6 3 -4 10zM133 100l6 12q3 6 10 4q0 -1 1 -1q3 3 8 1q6 -4 2 -10l-7 -12q-3 -5 -8 -3q-5 -4 -8 -1q-6 3 -4 10zM134 267q-5 5 1 11l13 8q6 4 10 -3q2 -7 -3 -10q-2 -1 -5.5 -3t-5.5 -4q-6 -4 -10 1zM151 136l5 12q4 7 10 4q3 -2 3 -4q5 5 11 2q6 -4 2 -10 l-8 -12q-4 -5 -10 -2h-1l-1 1q-4 -4 -8 -1q-6 4 -3 10zM167 172l5 13q1 6 9 4t4 -10l-5 -12q-2 -8 -10 -4q-6 2 -3 9zM168 286q-2 8 8 8q6 2 17 -5q7 -7 0 -12q-6 -3 -10 1l-3 2q-3 1 -5 0q-5 -2 -7 6zM180 209l4 13q2 7 9 5t5 -9l-4 -13q-2 -7 -9 -5t-5 9zM185 170l8 12 q4 7 10 1q6 -4 1 -10l-7 -11q-5 -5 -11 -2q-7 4 -1 10zM189 247l1 12q0 7 6 8q3 1 6 -1.5t3 -5.5l-1 -15q-2 -7 -9 -7q-6 2 -6 9zM209 203l9 11q4 7 10 1q5 -4 1 -10l-9 -11q-4 -5 -10 -1q-6 5 -1 10zM235 235l10 10q6 6 10 0q5 -5 0 -10l-9 -10q-5 -5 -10 0q-7 4 -1 10z M264 254q-4 4 1 10l11 9q6 6 10 -1q3 -7 -1 -11l-11 -8q-4 -5 -10 1zM296 63q-1 6 1 16q0 8 8 6t6 -8q-1 -7 0 -12q0 -6 -6 -8q-7 -4 -9 6zM296 278q-4 6 3 10q1 1 14 6q7 4 9 -4t-4 -10q-1 -1 -5.5 -2t-6.5 -3q-5 -3 -10 3zM304 106l4 13q4 7 10 4q6 -1 4 -9l-5 -13 q-2 -7 -9 -4q-8 2 -4 9zM313 48q4 7 8 5q2 -1 6 0t5 1q8 -2 9 -6q2 -9 -6 -9h-16q-11 2 -6 9zM318 144l6 13q3 6 10 4q6 -4 3 -10l-5 -12q-4 -7 -10 -4q-6 2 -4 9zM334 292q0 6 8 8l16 -3q4 -1 4.5 -5.5t-1.5 -5.5q-5 -4 -9 -3l-10 2q-6 0 -8 7zM335 182l5 12q4 7 10 4 q6 -2 4 -10l-6 -12q-4 -7 -10 -4q-6 4 -3 10zM350 219l4 12q2 7 10 5q6 -2 4 -9l-4 -13q-3 -7 -10 -5q-7 4 -4 10zM352 52q-3 6 3 10l11 7q6 4 10 -2q6 -6 -2 -10l-12 -8q-8 -4 -10 3zM361 256v12q0 5 6 8q3 1 6 -1t3 -6l-1 -15q-2 -8 -9 -6t-5 8zM385 75q-4 6 1 10l10 10 q1 2 4.5 1.5t5.5 -2.5q6 -4 0 -10l-10 -10q-6 -4 -11 1zM414 103q-4 7 0 11l9 10q5 5 10 0q7 -4 1 -10l-9 -10q-6 -6 -11 -1zM440 144l9 11q4 5 10 1q5 -5 1 -11l-8 -10q-5 -7 -11 -1q-5 4 -1 10z" />
<glyph unicode="o" horiz-adv-x="299" d="M39 97v15q0 7 8 7q7 0 7 -7v-13q0 -7 -6 -8q-7 -2 -9 6zM42 139l3 14q2 8 9 5q8 -2 6 -9l-4 -13q0 -7 -8 -5q-8 0 -6 8zM47 69q-2 8 5 10q6 3 8 -3q1 -2 4 -5l4 -4q4 -4 0 -10q-5 -6 -11 0q-1 1 -4.5 5t-5.5 7zM54 179l6 13q3 6 10 4q7 -4 3 -10l-5 -13q-4 -6 -10 -4 q-6 3 -4 10zM73 216l8 12q4 6 10 2q5 -5 2 -11l-7 -11q-4 -6 -10 -2q-6 3 -3 10zM78 51q2 7 9 5q5 -3 11 -2q7 2 7 -6q2 -8 -7 -8q-8 -2 -15 1q-8 3 -5 10zM97 249l10 11q4 5 10 1q5 -5 0 -11l-8 -10q-5 -5 -11 -1q-5 5 -1 10zM117 50q-2 6 4 10l12 5q7 2 10 -3q4 -8 -3 -11 l-14 -5q-7 -4 -9 4zM125 269q-5 5 1 10l11 9q6 6 10 -1q6 -6 -1 -10l-10 -9q-6 -4 -11 1zM153 68q-5 6 1 10l11 9q5 4 10 -1t-1 -11l-11 -8q-6 -6 -10 1zM159 186l1 15q2 8 8 6q7 -2 7 -8l-1 -13q0 -7 -8 -7q-7 0 -7 7zM161 158q-2 9 6 9t8 -6l2 -13q3 -5 -4 -9q-6 -2 -10 5 q-1 3 -1.5 8t-0.5 6zM166 228l3 13q3 7 10 5q7 -4 4 -9l-3 -13q-2 -7 -9 -5q-7 0 -5 9zM176 118q-6 6 2 11q4 2 10 -2l9 -8q0 -1 0.5 -1t0.5 -1q1 0 5 -2q6 -4 0 -10l-9 -11q-6 -6 -10 0q-5 5 0 10l3 4zM180 267l8 12q5 7 10 2t2 -10l-7 -11q-2 -7 -9 -3q-8 2 -4 10z M207 289q-5 5 2 11q4 4 15 6q4 1 6.5 -1t1.5 -5q0 -7 -6 -9q-7 0 -10 -4q-1 -2 -4.5 -1t-4.5 3zM208 103q3 7 9 5q2 -1 7 -2t6 -1q6 -2 6 -8q0 -8 -8 -6l-15 3q-7 2 -5 9zM209 134l7 12q4 6 10 2q6 -3 2 -10l-7 -12q-5 -6 -11 -2q-5 5 -1 10zM230 168l5 12q3 6 10 3 q6 -2 4 -9l-7 -13q-2 -7 -10 -3q-5 4 -2 10zM243 286q-2 3 0 11q5 5 11 0q7 -9 8 -14q3 -8 -4 -10t-9 4q-1 6 -6 9zM246 203l4 13q2 6 8 5q8 0 6 -9l-4 -14q-2 -6 -10 -4q-6 3 -4 9zM248 98q-1 5 5 9l12 4q6 2 9 -3q4 -8 -3 -11l-14 -5q-9 -2 -9 6zM254 241v13q-2 7 6 7 q7 2 9 -7l-1 -14q0 -9 -8 -7q-6 0 -6 8zM285 113q-3 7 1 11l11 8q5 4 10 -1q6 -6 -1 -10l-11 -9q-6 -6 -10 1zM315 140q-4 4 0 10l10 10q4 6 10 0q6 -4 0 -10l-9 -10q-6 -6 -11 0z" />
<glyph unicode="p" horiz-adv-x="328" d="M-63 -185l5 13q3 6 10 4q7 -4 4 -10l-6 -13q-2 -7 -9 -3q-9 2 -4 9zM-47 -147l6 12q2 9 9 4q7 -4 4 -10l-5 -12q-4 -7 -10 -4q-6 2 -4 10zM-31 -110l6 12q2 9 9 4q9 -2 4 -9l-5 -13q-4 -7 -10 -4t-4 10zM-15 -73l6 13q2 6 9 4q7 -4 4 -10l-5 -13q-3 -6 -10 -4q-6 3 -4 10 zM1 -36l6 13q1 6 9 4q7 -4 4 -10l-5 -12q-4 -7 -10 -4q-6 2 -4 9zM17 2l5 12q4 7 10 4q6 -2 4 -9l-5 -13q-4 -7 -10 -4q-7 4 -4 10zM33 39l5 13q4 6 10 4q6 -3 4 -10l-6 -13q-2 -6 -9 -4q-7 4 -4 10zM49 76l5 13q2 8 10 4q6 -4 3 -10l-5 -12q-2 -8 -10 -4q-7 2 -3 9zM53 196 l9 11q6 5 11 0q5 -4 1 -10l-10 -10q-4 -7 -10 -1q-5 5 -1 10zM64 114l6 12q2 9 9 4q0 -1 2 -1l1 -1h3q5 -5 2 -11l-6 -11q-4 -7 -10 -3q-2 0 -3 1q-6 3 -4 10zM80 151l5 13q3 6 10 4q4 -4 4 -6q5 2 8 -1q5 -3 2 -10l-8 -11q-4 -6 -10 -2q-1 0 -3 3q-2 -2 -4 0q-7 4 -4 10z M84 231l9 11q5 6 11 0q6 -4 0 -10l-9 -10q-4 -7 -10 -1q-5 5 -1 10zM96 188l5 13q4 7 10 4q6 -2 4 -9l-6 -13q-2 -9 -9 -4q-9 2 -4 9zM99 36q2 6 9 6l13 -2l1 -1q2 5 6 6q7 0 13 3q6 2 9 -5v-3l9 1q7 2 9 -6q0 -7 -7 -9h-7t-7 -1q-8 0 -8 6q-2 0 -4.5 -0.5t-3.5 -0.5h-4 q-2 -5 -7 -5l-15 2q-8 2 -6 9zM111 226l6 13q2 6 9 4q7 -4 4 -10l-5 -13q-3 -6 -10 -4q-6 4 -4 10zM113 182l9 11q4 5 10 1q6 -6 1 -11l-9 -10q-4 -6 -10 -2q-6 6 -1 11zM115 266l9 11q4 4 9 1q3 3 9 2q6 -3 4 -10l-6 -12q-2 -8 -9 -4q-3 0 -5 4v-1q-6 -5 -10 -1q-6 6 -1 10 zM139 214l9 10q6 6 11 0q5 -5 0 -10l-9 -10q-5 -5 -10 -1q-6 6 -1 11zM161 48q-2 7 3 10l12 6q5 3 10 -2q4 -6 -2 -10l-13 -7q-7 -3 -10 3zM167 233q-4 6 0 10l11 10q6 6 10 -1q5 -5 0 -10l-10 -9q-6 -5 -11 0zM179 37q-1 5 6 9l13 3q6 2 9 -5q2 -7 -5 -9l-14 -4q-7 -2 -9 6 zM195 70q-4 5 1 10l10 9q5 5 10 0q6 -5 0 -11l-10 -10q-6 -4 -11 2zM197 260q-4 6 1 11l12 8q6 6 10 -2q4 -7 -2 -10l-10 -8q-6 -4 -11 1zM218 48q-3 6 4 10l12 5q6 3 10 -3q3 -6 -4 -10l-13 -6q-8 -2 -9 4zM224 108l8 10q6 6 10 2q7 -5 2 -10l-9 -11q-5 -6 -10 -1 q-7 4 -1 10zM230 284q-3 9 3 10l14 6q7 4 9 -4q2 -6 -4 -10l-12 -5q-6 -2 -10 3zM247 140l6 12q4 7 10 3q6 -3 3 -10l-7 -12q-4 -7 -10 -3q-7 5 -2 10zM254 65q-3 7 3 10l11 7q6 3 11 -2q3 -7 -3 -10l-12 -8q-6 -4 -10 3zM265 176l5 12q4 7 10 4q6 -2 4 -9l-6 -13 q-2 -9 -9 -4q-7 4 -4 10zM268 297q0 7 9 7q11 -2 16 -10q4 -8 -3 -11q-7 -2 -9 2q-2 3 -7 5q-6 0 -6 7zM279 213l3 13q2 7 9 5q6 -2 5 -9l-3 -13q-2 -9 -9 -5q-7 2 -5 9zM286 251l1 13q0 6 6 8q3 0 6 -2t2 -5v-15q0 -7 -8 -7q-7 2 -7 8zM288 86q-4 6 2 10l10 9q7 3 11 -1 q4 -6 -1 -11l-11 -8q-6 -4 -11 1zM320 111q-6 5 0 11l10 9q5 5 10 0t0 -10l-10 -10q-6 -6 -10 0zM348 140q-6 4 0 10l9 10q5 6 10 1t1 -10l-9 -11q-5 -6 -11 0z" />
<glyph unicode="q" horiz-adv-x="299" d="M24 86l1 15q0 7 8 7q8 -2 6 -8v-13q-2 -7 -7 -8q-3 0 -6 2t-2 5zM31 130l4 13q4 8 10 4q6 -2 4 -9l-4 -13q-2 -7 -9 -5t-5 10zM33 56q-5 5 3 11q3 1 9 -3l8 -8q2 -7 1 -10t-4.5 -4t-5.5 2zM48 169l3 6t4 6q6 7 11 2q5 -3 2 -10q-3 -3 -7 -11q-3 -6 -10 -3q-6 4 -3 10z M67 43q1 4 7 6l13 2q6 0 8 -7q2 -6 -6 -8l-15 -2q-4 -1 -6 2.5t-1 6.5zM73 204l8 11q5 7 11 1q5 -5 0 -10l-8 -11q-4 -7 -10 -1q-7 4 -1 10zM75 -202q0 8 8 8q7 0 7 -7q-1 -3 2 -11q1 -6 -5 -10q-7 -4 -9 5q-3 7 -3 15zM79 -174l3 14q2 7 9 5t5 -9l-3 -13q-2 -7 -9 -5 q-7 0 -5 8zM90 -134l5 13q2 6 9 4q7 -3 5 -10l-5 -12q-3 -7 -10 -5q-7 4 -4 10zM94 -231q5 5 10 3q4 -3 10 -3q5 0 7 -7q2 -8 -8 -8q-8 0 -16 5q-9 4 -3 10zM101 226q-6 4 0 10l10 10q6 4 11 -1q4 -6 -1 -10l-10 -9q-5 -5 -10 0zM105 -97l5 13q4 7 10 4t4 -10l-6 -12 q-4 -7 -10 -4q-7 2 -3 9zM107 49q-2 7 4 10l11 5q7 4 10 -2q6 -6 -2 -10l-13 -6q-7 -3 -10 3zM121 -60l5 13q3 6 10 4q6 -3 4 -10l-6 -13q-2 -7 -10 -3q-7 2 -3 9zM131 -234q-1 6 3 10l9 7q5 5 10 1q6 -6 1 -11l-12 -10q-7 -5 -11 3zM132 253q-4 6 1 11l12 8q6 4 10 -2 q3 -6 -2 -10l-11 -8q-6 -4 -10 1zM137 -23l6 12q2 8 10 4q6 -4 3 -10l-5 -12q-4 -7 -10 -4t-4 10zM142 71q-4 6 1 10l10 9q5 5 10 0t1 -10l-11 -10q-5 -5 -11 1zM153 13l6 13q3 6 10 4q6 -4 3 -10l-5 -12q-4 -7 -10 -4q-6 2 -4 9zM157 -197l6 12q4 6 10 4q6 -3 3 -10l-6 -13 q-2 -8 -10 -3q-5 3 -3 10zM166 277q-4 6 4 10l13 6q7 2 9 -4q3 -6 -4 -10l-12 -6q-7 -2 -10 4zM170 50l5 13q4 6 10 3q6 -1 4 -9l-6 -13q-3 -6 -10 -4q-6 4 -3 10zM171 110l9 11q4 7 10 1q6 -4 2 -10l-10 -11q-4 -7 -10 -1q-5 5 -1 10zM172 -161l4 13q4 6 9 5q9 -2 5 -9 l-4 -14q-2 -7 -9 -5q-7 3 -5 10zM182 30q-2 7 3 9l12 7q5 4 10 -1q3 -6 -2 -11l-12 -7q-8 -4 -11 3zM183 -123l3 13q0 6 8 6q8 -2 6 -9l-3 -14q-2 -7 -9 -5t-5 9zM186 87l5 12q4 7 10 4q6 -2 4 -10l-6 -12q-2 -9 -9 -4q-7 4 -4 10zM190 -84l2 13q0 8 8 6q8 0 6 -8l-2 -14 q0 -6 -8 -6q-8 2 -6 9zM194 7q-2 8 6 8q8 2 8 -6l2 -14q0 -8 -7 -8q-8 0 -8 7zM194 -45l1 13q0 7 7 7q8 0 8 -7l-1 -14q-2 -7 -8 -7q-7 0 -7 8zM196 143l8 11q3 7 10 2q5 -4 2 -10l-4 -6h5q7 -4 4 -10l-6 -12q-2 -9 -9 -4q-9 2 -4 9l4 10q-4 -4 -8 0q-6 3 -2 10zM205 293 q-3 7 5 9l14 3q8 2 8 -6q2 -6 -6 -8l-12 -3q-7 -2 -9 5zM217 47q-3 7 3 10l11 6q6 6 10 -1q5 -5 -1 -11l-13 -7q-6 -4 -10 3zM218 160l6 13q2 6 9 4q7 -4 4 -10l-5 -13q-4 -6 -10 -4q-6 3 -4 10zM234 197l6 12q4 7 10 4q7 -2 3 -10l-5 -12q-3 -6 -10 -4q-6 3 -4 10zM246 301 q-2 7 7 7h14q9 0 7 -8q-2 -7 -8 -7l-13 1q-7 0 -7 7zM251 234l5 12q4 7 10 4t4 -10l-6 -12q-4 -7 -10 -4q-7 2 -3 10zM255 73q-4 6 1 11l10 8q5 5 10 0t0 -10l-11 -9q-6 -6 -10 0zM267 270l5 13q4 6 10 4q7 -4 4 -10l-6 -13q-2 -6 -9 -4q-7 4 -4 10zM288 105q-6 5 0 11l9 9 q6 6 11 1q6 -6 0 -11l-9 -10q-5 -5 -11 0zM319 149l10 11q4 6 10 0q5 -5 0 -10l-9 -11q-5 -5 -10 0t-1 10z" />
<glyph unicode="r" horiz-adv-x="258" d="M52 180q-6 6 0 10l9 11q7 4 11 0q5 -5 0 -10l-9 -11q-5 -6 -11 0zM81 212q-6 4 0 10l9 10q6 6 10 1q5 -5 1 -11l-9 -10q-6 -6 -11 0zM109 254l9 10q4 7 10 1q7 -4 1 -10l-9 -10q-5 -6 -10 -1q-7 4 -1 10zM124 63q-1 3 2 5t6 2q6 0 6 -7l3 -10q0 -7 -3 -10q-8 -6 -10 3z M130 93l5 13q4 8 10 4q6 -3 4 -10l-5 -12q-3 -7 -10 -5q-8 3 -4 10zM136 287l9 10q5 6 10 1h1q2 -1 3 -1q6 -4 4 -9q-3 -6 -3 -12q-2 -5 -7 -6q-6 -4 -8 5q-5 -2 -8 1q-5 5 -1 11zM149 36q2 7 6 7q5 0 11 3q4 3 10 -3q4 -6 -4 -10q-7 -3 -15 -5q-10 0 -8 8zM149 132l7 12 q4 6 10 2q5 -4 2 -10l-6 -11q-4 -7 -10 -3q-6 3 -3 10zM161 260q3 6 8 6h13q9 0 7 -8q0 -7 -7 -7l-14 1q-4 0 -6 3t-1 5zM171 168l7 12q4 5 10 2q5 -4 2 -10l-7 -12q-4 -6 -10 -2q-7 5 -2 10zM187 51q-5 5 1 10l10 9q6 4 10 -1q5 -5 0 -10l-11 -9q-6 -6 -10 1zM192 204l6 12 q2 6 9 4q7 -4 4 -10l-6 -13q-4 -7 -10 -3q-7 4 -3 10zM203 256q3 10 11 2q6 -6 6 -19q-2 -8 -9 -6q-6 1 -6 7q0 7 -1 8q-3 3 -1 8zM218 79q-5 5 0 10l9 10q5 5 11 0q6 -4 0 -10l-9 -10q-5 -5 -11 0zM246 120l9 10q6 6 11 1t0 -11l-9 -10q-4 -5 -10 -1q-5 5 -1 11zM274 151 l9 11q5 6 11 0q6 -4 0 -10l-9 -10q-5 -6 -10 -1t-1 10z" />
<glyph unicode="s" horiz-adv-x="243" d="M-16 69q-6 4 0 10q5 5 10 0q1 -1 4.5 -4t5.5 -4q6 -4 2 -10q-5 -5 -11 -2zM16 54q3 5 9 3l12 -5q6 -3 4 -10q-1 -6 -9 -4l-14 6q-6 3 -2 10zM50 190l10 10q4 6 10 0q5 -4 1 -10l-10 -10q-4 -7 -10 -1q-5 5 -1 11zM53 39q2 8 8 6q4 -1 13 -1q7 0 7 -8q0 -7 -8 -7 q-10 0 -14 2q-8 2 -6 8zM78 220l9 11q4 4 11 1q6 -6 0 -11l-9 -10q-4 -7 -10 -1q-5 5 -1 10zM93 36q-2 7 6 9h2q0 3 3 6q8 5 9 8q4 4 10 0q7 -4 1 -10l-5 -5l2 -3q2 -7 -6 -9l-14 -2q-8 -2 -8 6zM105 252l9 10q6 6 10 1q7 -4 1 -10l-9 -11q-4 -5 -10 -1q-5 5 -1 11zM126 82 l4 13q2 6 8 5q7 -2 6 -9l-4 -14q-2 -8 -9 -4q-7 2 -5 9zM132 44q-2 8 4 10l13 5q5 3 9 -3q4 -8 -3 -10l-13 -6q-8 -2 -10 4zM132 284l9 10q5 5 10 1q6 -6 1 -11l-7 -8q5 -2 5 -8l-2 -13q0 -7 -8 -7t-6 8l1 15v1q-2 0 -2 1q-5 5 -1 11zM133 211v14q-2 8 7 8q7 0 7 -8l1 -13 q0 -8 -8 -8q-7 0 -7 7zM134 124v13q0 7 8 7q7 0 7 -7l-1 -14q0 -9 -8 -7q-8 0 -6 8zM134 167v14q0 7 7 7q6 1 8 -7v-14q0 -7 -7 -7q-8 0 -8 7zM169 61q-3 7 2 10l12 7q6 6 10 -2q4 -6 -2 -10l-12 -8q-6 -3 -10 3zM202 83q-3 6 2 11l10 8q6 6 10 -1q5 -5 0 -10l-11 -9 q-5 -5 -11 1zM233 109q-4 5 0 11l10 9q5 5 10 0q7 -4 1 -10l-10 -10q-6 -5 -11 0zM261 138q-5 5 0 10l8 11q5 5 10 1q3 -1 3.5 -4.5t-1.5 -5.5l-9 -11q-6 -6 -11 -1z" />
<glyph unicode="t" horiz-adv-x="217" d="M46 193l8 11q5 5 11 2q5 -5 1 -11l-8 -11q-5 -5 -11 -1q-5 4 -1 10zM69 105l1 14q0 7 8 7q7 -2 7 -9l-1 -13q-2 -7 -8 -7q-9 0 -7 8zM71 75q-2 9 6 9q8 2 8 -5q0 -3 5 -10q2 -5 -2 -11q-6 -6 -10 3q-7 9 -7 14zM72 229l8 11q4 8 10 2q6 -3 2 -10l-8 -11q-1 -3 -4.5 -3.5 t-5.5 1.5q-6 4 -2 10zM75 147l3 14q2 7 9 5t5 -9l-3 -13q-1 -6 -8 -6q-8 2 -6 9zM76 307q0 8 7 8h14q7 0 7 -8q0 -7 -7 -7h-14q-7 0 -7 7zM85 188l5 13q2 7 9 5t5 -9l-4 -13q-3 -7 -10 -5t-5 9zM97 266l7 12q4 7 10 3q2 -2 2 -3l1 2q3 6 10 4q6 -3 4 -10l-5 -12q-2 -7 -9 -5 q-5 2 -5 6l-3 -4q-3 -6 -10 -3q-6 4 -2 10zM98 228l5 13q2 6 9 4t5 -9l-5 -13q-2 -7 -9 -5q-7 3 -5 10zM99 52q2 8 8 4h11q6 0 8 -7t-7 -7h-15q-8 3 -5 10zM119 305l7 12q2 4 8 4q2 2 8 2q7 -4 4 -10l-5 -13q-2 -6 -9 -4h-1q-4 -4 -9 -1q-6 4 -3 10zM138 54q-2 7 4 9l11 7 q5 3 10 -2q2 -2 1.5 -5.5t-3.5 -4.5l-12 -8q-7 -4 -11 4zM140 344l6 13q3 3 4 3q3 3 8 1q6 -4 4 -10l-6 -12q-1 -5 -7 -5q-4 0 -6 1q-7 2 -3 9zM157 307q0 8 8 8h14q7 0 7 -8q0 -7 -7 -7h-14q-8 0 -8 7zM158 383l6 12q2 9 9 4q8 -2 4 -9l-5 -13q-2 -6 -9 -4q-7 3 -5 10z M173 76q-5 6 0 11l10 9q5 5 10 0t0 -10l-10 -10q-5 -5 -10 0zM174 421l6 13q1 6 9 4q7 -4 4 -10l-5 -13q-4 -6 -10 -4q-6 3 -4 10zM198 307q0 8 7 8h14q8 0 8 -8q0 -7 -8 -7h-14q-7 0 -7 7zM201 116l9 11q5 5 10 1q7 -5 1 -11l-9 -10q-4 -7 -10 -1q-5 4 -1 10zM228 148l8 11 q5 5 11 1q5 -5 1 -11l-9 -10q-5 -5 -10 -1q-7 4 -1 10z" />
<glyph unicode="u" horiz-adv-x="348" d="M44 69v15q2 8 9 6q8 -2 6 -8q-1 -2 -1 -6.5v-6.5q0 -5 -6 -7q-3 -1 -6 1t-2 6zM48 191l9 11q5 6 10 1q3 -1 3.5 -4.5t-1.5 -5.5l-9 -11q-5 -5 -11 -1q-5 5 -1 10zM51 111l4 14q2 8 9 4q7 -2 5 -9l-4 -13q-2 -7 -9 -5t-5 9zM54.5 45q-0.5 4 2.5 5q6 4 9 2q1 -1 5 -1.5 t5 -0.5q6 -2 7 -7q0 -8 -8 -8q-15 3 -16 4q-4 2 -4.5 6zM64 151l6 12q2 8 9 4q8 -2 4 -9l-5 -13q-2 -6 -9 -4t-5 10zM75 225l9 11q4 7 10 1q7 -4 1 -10l-8 -11q-5 -5 -11 -1q-5 4 -1 10zM80 189l6 12q2 9 9 4q7 -4 4 -10l-5 -12q-4 -7 -10 -4t-4 10zM95 46q-2 7 4 10 q2 1 5.5 2.5t5.5 2.5q6 6 10 -2q4 -6 -2 -10q-2 -1 -13 -7q-8 -4 -10 4zM97 226l5 13q3 6 10 4q6 -3 4 -10l-6 -13q-2 -7 -10 -3q-7 2 -3 9zM101 259l9 11q2 3 6 3l2 3q4 7 10 4q8 -2 4 -9l-5 -13q-3 -6 -10 -4h-1l-3 -4q-4 -7 -10 -1q-6 4 -2 10zM130 67q-4 5 1 10l10 9 q6 4 10 -1q6 -4 0 -10l-11 -9q-5 -5 -10 1zM160 94q-6 6 0 11l9 10q5 5 10 0q7 -4 1 -10l-9 -10q-5 -5 -11 -1zM187 135l8 11q5 6 10 1q3 -1 3.5 -4.5t-1.5 -5.5l-9 -11q-6 -6 -10 -1q-6 5 -1 10zM211 167l9 12q4 6 10 1q7 -4 1 -10l-8 -11q-1 -3 -4.5 -3.5t-5.5 1.5 q-5 5 -2 10zM212 62q-1 7 1 15q0 7 8 7q8 -2 6 -9q0 -2 -0.5 -6t-0.5 -6q0 -6 -7 -8q-3 -1 -5 1.5t-2 5.5zM220 106l4 14q4 7 10 4q6 -2 4 -9l-4 -13q-2 -7 -9 -5t-5 9zM226.5 38q-1.5 3 0.5 6q3 5 7 5q2 -1 6 0t5 1q6 2 9 -4q2 -9 -5 -10q-2 0 -8.5 -1t-8.5 0q-4 0 -5.5 3z M234 147l5 13q3 6 10 4q6 -3 4 -10l-5 -12q-3 -7 -10 -5q-6 4 -4 10zM235 201l8 11q4 6 10 2t2 -10l-8 -12q-4 -6 -10 -2q-5 5 -2 11zM250 186l6 13q2 8 9 4t4 -10l-5 -12q-4 -7 -10 -4q-6 2 -4 9zM258 235l7 11q4 7 10 3q3 -3 3 -6l2 -1h2q6 -2 4 -9l-6 -13q-2 -9 -9 -4 q-7 2 -5 7q-5 0 -6 2q-7 3 -2 10zM266 52q-4 6 2 10l11 8q6 4 11 -2q4 -6 -2 -10l-11 -8q-7 -5 -11 2zM279 269l7 12q4 7 10 3q3 -3 3 -4q5 -3 3 -8l-5 -13q-3 -6 -10 -4l-4 3l-1 1q-7 4 -3 10zM300 77q-4 6 1 11l10 9q5 5 10 0t0 -11l-10 -9q-5 -5 -11 0zM331 107 q-6 4 0 10l9 10q6 5 11 0t0 -10l-9 -10q-6 -5 -11 0zM360 138q-6 4 0 10l9 10q4 7 10 1q5 -5 1 -10l-9 -11q-5 -6 -11 0z" />
<glyph unicode="v" horiz-adv-x="403" d="M47 189l9 11q4 5 10 1q6 -6 1 -11l-9 -10q-6 -6 -10 -1q-6 5 -1 10zM74 210q-6 6 0 11l9 10q4 5 10 1q5 -5 1 -11l-9 -10q-5 -5 -11 -1zM101 251l10 10q5 5 11 0q4 -6 0 -10l-10 -10q-5 -5 -10 0t-1 10zM109 85l3 14q2 7 9 5t5 -9q-1 -2 -2 -7l-1 -6q-2 -6 -9 -6 q-7 2 -5 9zM110 54q-4 10 4 10q7 0 9 -4q0 -2 2.5 -4t2.5 -3q5 -3 4 -8q-2 -9 -11 -5q-11 11 -11 14zM121 125l6 13q2 9 9 4q8 -4 4 -9l-5 -13q-2 -8 -10 -4q-6 2 -4 9zM131 269q-5 5 1 11l13 8q7 3 10 -3q2 -7 -3 -10q-8 -4 -11 -7q-5 -4 -10 1zM138 163l5 13q3 6 10 3 q9 -2 4 -9l-6 -13q-4 -6 -10 -3q-7 2 -3 9zM144 45q0 6 5 8l12 5q6 2 9 -3q4 -6 -3 -10l-13 -6q-8 -2 -10 6zM155 201l5 12q3 6 10 4q6 -4 4 -10l-6 -12q-4 -7 -10 -4q-6 4 -3 10zM167 288q0 7 10 4q7 -1 12 -14q2 -10 -6 -10t-8 6q-1 0 -1 2q-2 3 -4 3q-3 0 -3 9zM170 238 l4 13q2 6 8 5q8 -2 6 -9l-4 -14q-4 -7 -10 -4q-6 1 -4 9zM181 62q-3 5 2 10l10 8q7 3 11 -1q4 -6 -1 -10l-12 -9q-6 -6 -10 2zM213 87q-6 6 1 10l10 10q3 5 10 0q6 -5 0 -11l-10 -9q-6 -5 -11 0zM243 115q-5 5 0 11l9 10q5 5 10 0t1 -10l-10 -10q-5 -5 -10 -1zM270 156l9 10 q4 7 10 1q5 -5 1 -10l-9 -11q-5 -5 -10 -1q-6 6 -1 11zM296 187l9 11q4 5 10 1q5 -5 1 -11l-8 -10q-5 -7 -11 -1q-5 4 -1 10zM311 149l1 15q0 8 9 6q6 -2 6 -8l-1 -12q2 -6 -6 -8q-7 -2 -9 7zM319.5 213.5q-0.5 3.5 1.5 5.5l8 11q5 5 11 2q5 -5 1 -11l-6 -8q6 -3 4 -10 l-5 -12q-2 -7 -9 -5q-8 2 -4 10l4 11l-2 2q-3 1 -3.5 4.5zM328 116q-6 8 0 12q5 5 9 1l10 -5q7 0 5 -8q0 -8 -9 -6zM343.5 246.5q-0.5 3.5 1.5 5.5l7 11q5 6 10 3q6 -5 3 -11l-8 -11q-4 -8 -10 -2q-3 1 -3.5 4.5zM369 118q-2 6 4 9l11 6q6 4 10 -3q4 -6 -2 -10l-14 -6 q-3 -2 -6 -0.5t-3 4.5zM407 140q-4 6 1 10l11 9q5 5 10 -1q5 -5 -1 -10l-10 -9q-6 -4 -11 1z" />
<glyph unicode="w" horiz-adv-x="485" d="M49 69q1 2 1 7v8q2 8 9 6q8 -2 6 -8q-1 -5 -1 -13q0 -5 -6 -7q-9 -2 -9 7zM53 193l9 11q4 4 11 1q5 -5 0 -11l-8 -10q-6 -6 -11 -1t-1 10zM57 111l4 14q2 8 9 4q7 -2 5 -9l-4 -13q-2 -7 -9 -5q-8 2 -5 9zM60.5 45q-0.5 4 2.5 5q6 4 9 2q1 -1 5 -1.5t5 -0.5q6 -2 7 -7 q0 -8 -8 -8q-15 3 -16 4q-4 2 -4.5 6zM70 151l5 12q4 7 10 4q8 -2 4 -9l-5 -13q-2 -6 -10 -4q-6 2 -4 10zM82 229l9 10q5 5 10 2q6 -5 2 -11l-9 -11q-5 -5 -10 -1t-2 11zM86 189l6 12q2 9 9 4q7 -4 4 -10l-5 -12q-4 -7 -10 -4q-7 4 -4 10zM101 46q-3 6 3 10l12 5q5 5 10 -2 q4 -6 -3 -10q-3 -3 -13 -7q-7 -4 -9 4zM103 226l5 13q3 6 10 4q6 -3 4 -10l-6 -13q-4 -6 -10 -3q-7 2 -3 9zM110 265l8 11q3 3 8 3q3 3 8 1q6 -1 4 -9l-6 -13q-1 -6 -9 -4q-1 0 -2 1q-1 -2 -4 -2t-5 2q-6 4 -2 10zM136 67q-4 5 1 10l10 9q5 4 10 -1q6 -4 0 -10l-11 -9 q-5 -5 -10 1zM166 94q-6 6 0 11l9 10q5 5 10 0q7 -4 1 -10l-9 -10q-5 -5 -11 -1zM192 135l9 11q5 6 10 1q3 -1 3.5 -4.5t-1.5 -5.5l-9 -11q-6 -6 -10 -1q-6 4 -2 10zM217 167l8 12q5 5 11 1q7 -4 1 -10l-8 -11q-1 -3 -4.5 -3.5t-5.5 1.5q-5 5 -2 10zM221 75v15q0 7 8 7 q7 -2 7 -8v-13q0 -6 -7 -8q-8 -2 -8 7zM225 117l3 14q3 7 10 5t5 -9l-3 -13q-2 -6 -9 -6q-8 2 -6 9zM233 46q-7 7 0 11q8 4 10 0q2 -3 9 -5q5 -2 5 -8q0 -10 -9 -6q-13 5 -15 8zM237 157l4 13q4 7 10 4q8 -2 4 -9l-4 -13q-4 -7 -10 -4q-8 2 -4 9zM241 201l8 11q3 5 10 2 l8 -2q6 -4 3 -10l-5 -13q-4 -6 -10 -4q-4 2 -4 5q-5 -3 -8 0q-5 5 -2 11zM263 235l8 11q3 6 10 3q1 0 1 -1h2q6 -3 3 -10l-6 -12q-2 -8 -9 -3h-1q-4 0 -5 2q-6 3 -3 10zM269 44q0 6 6 8l12 4q6 2 9 -4q4 -6 -4 -10l-14 -4q-3 -1 -6 1t-3 5zM285 269l7 12q1 2 5 4q4 0 6 -1 q6 -4 3 -10l-7 -12q-3 -6 -8 -4q-2 0 -3 1q-7 4 -3 10zM307 58q-4 6 2 10l10 8q6 4 10 -1q5 -5 0 -11l-12 -8q-6 -6 -10 2zM338 83q-6 5 0 11l9 10q4 5 10 1q6 -6 1 -11l-10 -10q-4 -7 -10 -1zM363 124l7 12q4 6 10 2q8 -4 2 -10l-7 -12q-6 -6 -11 -2q-6 6 -1 10zM384 158 l7 12q4 6 10 2l2 -2h4q6 -2 6 -8l-1 -12q2 -6 -6 -8q-7 -2 -9 7v1q-4 -6 -10 -2q-7 4 -3 10zM404 193l6 12q0 1 1 1l1 3q2 6 9 4q7 -4 4 -10l-1 -5l-4 -7l-2 -4l-1 -1q-3 -6 -10 -3q-6 4 -3 10zM414 128q5 5 9 1l10 -5q7 0 5 -8q0 -8 -9 -6l-14 6q-7 6 -1 12zM422 229l2 4 q0 3 1 4l6 13q4 7 10 3q7 -4 3 -10l-2 -4v-4l-6 -13q-4 -7 -10 -3q-6 3 -4 10zM440 265l5 13q4 6 10 3q6 -2 4 -9l-6 -13q-3 -6 -10 -4q-6 3 -3 10zM455 118q-1 5 4 9l11 6q6 4 10 -3q4 -6 -2 -10l-14 -6q-7 -5 -9 4zM491.5 145.5q0.5 3.5 3.5 4.5l10 9q5 5 10 -1 q5 -5 -1 -10l-10 -9q-5 -5 -11 1q-2 2 -1.5 5.5z" />
<glyph unicode="x" horiz-adv-x="363" d="M51 178q-5 6 0 11l9 10q4 6 10 0q5 -4 1 -10l-10 -10q-5 -5 -10 -1zM77 219l9 11q6 6 11 0q5 -4 1 -10l-9 -10q-5 -7 -11 -1q-5 4 -1 10zM85 53q-3 5 0 10l11 10q5 5 10 0q6 -5 0 -11l-10 -9q-6 -5 -11 0zM105 240q-6 4 0 10l9 10q6 6 11 0q5 -5 0 -10l-10 -10 q-4 -6 -10 0zM117 82q-5 6 0 11l11 9q6 4 10 -1q6 -6 -1 -10l-10 -9q-6 -6 -10 0zM134 269q-4 5 1 10l12 9q7 3 11 -3q2 -7 -3 -10l-11 -8q-5 -3 -10 2zM149 110q-4 6 1 10l11 9q6 6 10 -1q6 -6 -1 -10l-11 -9q-5 -5 -10 1zM169 289q-2 9 7 9l16 -1q9 -3 5 -11q-5 -4 -9 -3 h-11q-7 2 -8 6zM182 137q-4 6 1 11l11 8q6 6 10 -1q6 -6 -1 -10l-11 -9q-5 -4 -10 1zM204 269q-4 5 2 9q5 5 11 -2l6 -14q2 -7 -6 -9t-8 5zM213.5 169.5q0.5 3.5 3.5 4.5q-1 1 -1 5v13q0 8 7 8q8 0 8 -7v-9q3 2 7 -2q4 -6 -2 -11l-10 -8q-5 -5 -11 1q-2 2 -1.5 5.5zM214 232 q-2 7 6 9q8 0 8 -7l2 -14q0 -8 -7 -8q-8 0 -8 7zM217 137v14q-2 8 7 8q7 0 7 -8v-13q2 -8 -7 -8q-7 0 -7 7zM218 110q0 8 7 8q8 0 8 -7l1 -13q2 -7 -6 -9q-8 0 -8 7zM226 68q-3 7 5 9q5 2 9 -4q0 -1 2 -5t4 -5q3 -3 -1 -10q-4 -6 -11 1q-2 2 -4.5 7.5t-3.5 6.5zM249 191 q-5 5 1 10l11 8q6 6 10 -1q6 -6 -1 -10l-11 -9q-2 -2 -5.5 -1.5t-4.5 3.5zM256 48q2 6 8 6l12 1q6 2 8 -5t-6 -10h-15q-9 0 -7 8zM282 217q-4 7 2 10l11 9q6 4 10 -2q4 -5 -1 -10l-11 -8q-5 -5 -11 1zM296 54q-4 6 2 10l11 7q6 4 10 -1q6 -6 -1 -11l-12 -8q-7 -3 -10 3z M316 243q-4 6 1 10l11 9q7 3 11 -1q3 -7 -2 -11l-11 -8q-4 -4 -10 1zM329 78q-5 5 0 10l10 10q5 5 10 0q5 -6 0 -11l-10 -10q-5 -4 -10 1zM350 269q-4 6 1 11l11 8q6 4 11 -1q3 -6 -2 -11l-11 -8q-6 -6 -10 1zM357 117l9 11q5 5 10 1q6 -6 1 -11l-9 -10q-6 -6 -10 -1 q-6 5 -1 10zM383 149l9 10q6 5 10 1q6 -5 1 -10l-8 -11q-5 -5 -11 -1q-4 4 -1 11z" />
<glyph unicode="y" horiz-adv-x="381" d="M50 189l9 10q5 5 10 1q7 -4 1 -10l-9 -11q-4 -5 -10 -1q-5 5 -1 11zM75 -196q0 7 8 7q7 -1 7 -8q0 -8 1 -11q2 -5 -4 -9q-8 -4 -10 5q-1 3 -1.5 8.5t-0.5 7.5zM76 220l9 10q5 6 10 1t1 -11l-9 -10q-4 -5 -10 -1q-5 5 -1 11zM81 -168l6 14q4 7 10 3q7 -4 3 -10 q-4 -8 -5 -12q-2 -6 -9 -4t-5 9zM95 -226q2 3 9 3q2 -1 7 -2q2 -1 3 -1q6 2 8 -6q0 -8 -8 -8q-11 0 -16 3q-10 4 -3 11zM101 -130l9 11q4 7 10 1q6 -4 2 -10l-8 -11q-5 -5 -11 -2q-5 5 -2 11zM103 239q-5 5 0 11l9 10q6 6 11 0q5 -5 0 -10l-9 -10q-5 -5 -11 -1zM128 -98 l9 10q5 6 11 0q4 -4 0 -10l-9 -10q-5 -6 -11 0q-6 4 0 10zM131 268q-4 6 1 11q9 7 12 8q8 6 10 -2q3 -7 -2 -10q-4 -2 -10 -8q-6 -4 -11 1zM133 -229q-1 5 4 9l11 7q6 2 10 -2q6 -6 -2 -10l-13 -8q-5 -5 -10 4zM135 65q-2 9 7 9q6 0 8 -6q0 -6 3 -9q2 -4 1 -9q-6 -9 -12 -1 q-5 6 -7 16zM137 94l3 14q2 7 9 5t5 -9l-3 -13q-2 -6 -8 -6q-8 2 -6 9zM148 134l5 13q2 8 9 4q7 -2 5 -9l-5 -13q-2 -7 -9 -5q-7 3 -5 10zM157 -69l11 9q6 6 10 -1q4 -5 -1 -10l-10 -9q-5 -4 -10 1t0 10zM162 172l4 12q3 7 10 5q9 -2 4 -9l-4 -13q-3 -7 -10 -5q-7 4 -4 10z M165 48q0 8 6 8q2 0 5.5 2t5.5 2q6 2 10 -4q3 -6 -4 -10q-2 0 -7 -2.5t-8 -2.5q-8 0 -8 7zM165 289q-1 3 2 5.5t7 2.5q12 -5 15 -8t3 -6.5t-3 -4.5q-7 -4 -9 0l-9 4q-4 0 -6 7zM166 -196l8 10q5 5 11 2q5 -5 1 -11l-9 -11q-5 -5 -10 0t-1 10zM175 209l4 13q2 7 9 5t5 -9 l-4 -13q-2 -7 -9 -5t-5 9zM185 247v12q2 7 7 8q3 1 6 -1.5t2 -5.5l-1 -15q-2 -8 -9 -6q-7 0 -5 8zM188 -53q-5 5 1 11l11 8q4 4 10 -1q4 -6 -1 -10l-11 -9q-6 -6 -10 1zM188 -164l7 12q4 6 10 3q6 -4 3 -10l-7 -12q-3 -6 -10 -3q-7 4 -3 10zM202 62q-4 7 2 10l10 8 q6 6 10 -1q5 -5 -1 -10l-11 -9q-6 -4 -10 2zM207 -128l5 12q4 7 10 4t4 -10l-6 -12q-4 -7 -10 -4q-6 4 -3 10zM220 -27q-6 6 1 10l10 9q7 3 11 -1q3 -7 -1 -11l-11 -8q-6 -6 -10 1zM223 -91l5 13q4 6 10 4q6 -3 4 -10l-5 -13q-3 -6 -10 -4q-7 4 -4 10zM233 87q-6 6 0 10 l10 10q4 6 10 0q5 -5 0 -10l-10 -10q-5 -5 -10 0zM238 -54l6 13q2 9 9 4q9 -2 4 -9l-5 -13q-2 -9 -9 -4q-7 2 -5 9zM251 -2q-4 6 1 11l11 8q5 5 10 0t-1 -11l-5 -5h2q6 -3 4 -10l-5 -12q-4 -7 -10 -4q-9 2 -4 9l4 12q-3 -2 -7 2zM260 126l9 10q5 7 11 1q6 -4 0 -10l-9 -11 q-4 -6 -10 0q-5 4 -1 10zM282 25q-4 6 1 10l10 9q5 6 11 0q4 -6 -1 -11l-10 -9q-6 -4 -11 1zM285 60l5 12q4 7 10 4q6 -2 4 -9l-6 -13q-1 -6 -9 -4q-7 4 -4 10zM286 157l8 10q4 5 11 2q4 -4 1 -11l-9 -11q-4 -5 -10 -1q-6 6 -1 11zM300 97l5 13q4 7 10 4q9 -2 4 -9l-5 -13 q-4 -7 -10 -4q-6 2 -4 9zM310 188l8 11q4 5 11 2q7 -4 1 -10l-8 -12q-4 -5 -10 -1q-6 3 -2 10zM313 52q-6 6 0 10l10 10q5 5 10 0q5 -6 0 -11l-10 -9q-6 -6 -10 0zM315 135l6 13q2 8 9 4q9 -2 4 -9l-5 -13q-2 -8 -10 -4q-6 2 -4 9zM331 173l5 13q2 8 9 4t4 -10l-5 -12 q-2 -9 -9 -4q-8 2 -4 9zM334 221l7 11q5 5 11 2q3 -3 3 -6h5q7 -4 4 -10l-5 -12q-2 -7 -9 -5q-7 4 -4 10l1 2l-1 -1q-5 -5 -11 -2q-5 5 -1 11zM342 80q-6 6 0 11l10 9q5 5 10 0q6 -4 0 -10l-10 -10q-4 -6 -10 0zM356 254l8 11q3 6 10 2q0 -1 0.5 -1t0.5 -1q6 -3 5 -9l-6 -13 q-2 -6 -9 -4l-4 3q-2 0 -3 1q-5 5 -2 11zM371 109q-5 5 0 10l9 11q5 5 10 0t1 -10l-10 -11q-4 -6 -10 0zM398 139q-6 5 0 11l9 10q5 5 10 0q7 -4 1 -10l-9 -10q-6 -6 -11 -1z" />
<glyph unicode="z" horiz-adv-x="304" d="M-27 -220q-2 9 6 9t8 -6q0 -4 4 -10q2 -4 -1 -9q-2 -3 -6 -3t-5 4q-6 7 -6 15zM-26 -190l5 14q3 6 10 4q6 -3 4 -10l-4 -12q-4 -6 -9 -5q-8 0 -6 9zM-7 -152l8 12q5 6 10 1q6 -4 2 -10l-8 -11q-5 -5 -10 -2q-8 4 -2 10zM0 -242q2 7 8 5q2 -1 6.5 0t5.5 1q6 0 8 -7 q2 -6 -7 -8h-15q-10 2 -6 9zM19 -119l10 10q3 5 10 0q4 -4 0 -11l-9 -10q-7 -4 -11 0q-5 6 0 11zM39 -239q-4 8 3 10q2 1 5 3t5 4q6 6 10 -1q6 -6 -1 -11q-2 -2 -12 -7q-7 -6 -10 2zM48 -102q-5 5 1 11l10 9q7 3 11 -2t-1 -10l-11 -8q-5 -5 -10 0zM48 179q-5 5 0 10l9 10 q5 6 10 1q6 -5 1 -10l-9 -11q-5 -5 -11 0zM64 68q8 13 9 14q5 6 11 0q4 -6 0 -10l-6 -9q-5 -3 -8 -4q-2 -2 -5 2t-1 7zM71 -205l8 11q4 7 10 1q7 -4 1 -10l-8 -11q-4 -6 -11 -1q-5 5 0 10zM75 209q-5 5 0 10l9 11q6 6 11 0t0 -11l-9 -9q-5 -7 -11 -1zM77 51q4 6 8 4l11 1 q8 0 9 -6q2 -8 -7 -8l-15 -2q-10 3 -6 11zM79 -76q-4 6 2 10l11 8q6 6 10 -2q4 -4 -1 -10l-11 -8q-7 -3 -11 2zM93 89q-4 6 4 10q11 6 13 6q8 2 10 -6q0 -8 -5 -8l-6 -3t-6 -2q-6 -4 -10 3zM94 -173l7 12q4 6 10 2q7 -4 3 -10l-8 -12q-3 -7 -10 -2q-6 4 -2 10zM103 238 q-6 6 1 11l10 9q6 6 10 -1q4 -4 0 -10l-10 -9q-6 -6 -11 0zM112 -53q-3 6 2 11l11 8q6 4 10 -2q5 -6 -1 -10l-12 -8q-6 -6 -10 1zM114 -139l7 12q3 6 10 3q6 -4 3 -10l-7 -12q-3 -6 -10 -3q-7 4 -3 10zM116 54q-4 7 4 9l12 6q6 4 9 -3q4 -6 -3 -10l-12 -6q-8 -4 -10 4z M131 101q0 9 8 7l15 -2q9 0 5 -8q-1 -6 -8 -6l-13 2q-6 2 -7 7zM133 -103l6 12q3 6 10 3q7 -2 3 -9l-6 -13q-3 -6 -10 -3q-6 4 -3 10zM134 264q-4 5 2 11q4 3 12 7t10 -3q3 -7 -3 -10l-11 -7q-6 -4 -10 2zM145 -29q-4 6 1 10l11 8q6 4 11 -1q4 -7 -2 -10l-11 -9q-6 -4 -10 2 zM150 -67l6 12q4 7 10 4q6 -4 3 -10l-5 -12q-4 -8 -10 -4q-6 3 -4 10zM152 72q-3 6 2 11l11 7q1 1 4 1l1 1q3 6 10 3q6 -3 12 -10q5 -7 -1 -11t-10 1q-5 5 -6 5q0 -2 -2 -2l-11 -8q-6 -3 -10 2zM167 -30l5 12q2 8 10 4q6 -2 4 -10l-6 -12q-2 -8 -10 -4q-6 4 -3 10zM169 284 q-2 7 5 9l14 3q7 1 9 -6q0 -8 -6 -8l-13 -3q-6 -2 -9 5zM182 6l4 13q2 7 9 5t5 -9l-4 -14q-4 -6 -10 -4q-8 4 -4 9zM184 96q-4 6 1 10l11 9q4 5 10 -1q6 -4 0 -10l-11 -9q-5 -5 -11 1zM191 55q-1 5 6 9q6 2 8 -6l2 -16q-2 -8 -9 -6q-8 0 -6 8zM207 22q-5 6 0 11l10 9 q4 5 10 1q5 -5 0 -11l-10 -10q-4 -4 -10 0zM209 290q0 7 8 7q11 0 14 -1q8 -2 6 -9t-9 -5h-6t-6 1q-7 0 -7 7zM214 133l10 10q4 5 10 1q5 -5 1 -11l-10 -10q-6 -6 -10 0q-5 5 -1 10zM235 51q-5 5 0 11l9 10q7 4 11 0q5 -6 0 -11l-9 -10q-7 -4 -11 0zM240 163l7 11q4 6 10 2 q6 -3 3 -10l-8 -12q-5 -5 -11 -1q-5 4 -1 10zM248 283q5 7 10 2q10 -8 12 -10q5 -7 -2 -11q-6 -4 -9 1l-9 8q-5 3 -2 10zM259 196l5 12q2 7 9 5q8 -2 5 -9l-5 -13q-4 -7 -10 -4t-4 9zM263 80q-5 6 0 11l9 10q6 5 11 0t0 -10l-10 -10q-4 -5 -10 -1zM268 245q-2 6 5 8t10 -6 v-15q1 -4 -1.5 -6t-5.5 -1q-7 2 -7 7zM290 120l9 11q5 5 11 0q5 -5 0 -10l-9 -11q-5 -5 -10 0q-5 6 -1 10zM317 150l10 10q4 7 10 1q5 -5 1 -10l-10 -11q-4 -6 -10 0q-5 5 -1 10z" />
<glyph unicode="{" horiz-adv-x="269" d="M-35 -190q0 7 7 7q8 0 8 -7q0 -2 2 -12q2 -5 -5 -9q-7 -2 -9 5q-3 15 -3 16zM-33 -163l3 14q2 8 9 6t5 -9l-2 -13q-2 -8 -9 -6q-8 0 -6 8zM-23 -123l4 13q3 7 10 5q6 -4 4 -9l-4 -13q-3 -6 -9 -5q-8 2 -5 9zM-18 -232q-5 6 1 12q6 4 9 -1l10 -5q5 -4 4 -9q-2 -9 -10 -5z M-9 -85l5 13q2 8 10 4q7 -2 3 -9l-5 -13q-2 -8 -9 -4q-8 2 -4 9zM6 -48l6 13q3 6 10 4q6 -3 3 -10l-5 -13q-4 -6 -10 -3q-6 2 -4 9zM17 -238q2 7 8 7h13q6 2 8 -6q0 -8 -7 -8l-15 -1q-7 2 -7 8zM23 -11l6 12q4 7 10 4t3 -10l-6 -12q-2 -6 -9 -4q-7 4 -4 10zM40 25l6 13 q4 7 10 3q6 -3 4 -10l-6 -12q-3 -6 -10 -4q-6 3 -4 10zM58 61l5 13q3 6 10 4q6 -3 4 -10l-6 -13q-3 -6 -10 -3q-8 2 -3 9zM61 176q2 4 5 5q-2 2 -2 3q0 6 6 9l12 4q6 2 9 -4q4 -6 -4 -10l-13 -4q7 -2 10 -6q7 -6 2 -11q-2 -2 -5.5 -2.5t-4.5 1.5q-2 3 -7 4q-2 1 -3 2 q-5 2 -5 9zM74 98l5 12q2 7 9 5q7 -4 4 -10l-5 -13q-2 -6 -9 -4q-7 4 -4 10zM86 134q1 5 1 12q0 4 6 8q2 2 5.5 -0.5t3.5 -6.5q0 -2 -0.5 -7.5t-1.5 -7.5q-2 -8 -9 -6t-5 8zM101 204q1 3 3 4l9 8q5 5 10 1q5 -5 1 -11l-12 -10q-7 -3 -10 3q-2 2 -1 5zM127 237l5 12q4 6 10 4 q7 -4 4 -10l-6 -13q-4 -7 -10 -3q-6 3 -3 10zM142 273l5 13q2 7 9 5q7 -3 5 -10l-5 -13q-2 -9 -9 -4q-7 2 -5 9zM155 311l4 13q2 8 9 5q7 -2 5 -9l-4 -13q-2 -7 -9 -5t-5 9zM167 350l4 13q2 7 9 5t5 -9l-4 -13q-2 -7 -9 -5q-8 2 -5 9zM179 389l4 13q2 7 9 5t5 -9l-4 -14 q-5 -7 -10 -4q-7 2 -4 9zM192 428l4 13q3 6 10 4q6 -2 4 -9l-5 -13q-2 -7 -9 -5q-7 4 -4 10zM206 466l6 13q2 7 9 3q9 -2 4 -9l-5 -13q-4 -6 -10 -4q-7 4 -4 10zM223 503l7 13q4 6 10 2q6 -3 3 -10l-7 -12q-2 -5 -9 -3q-8 4 -4 10zM244 539l9 11q3 6 10 2q6 -6 1 -11l-8 -10 q-4 -6 -10 -2t-2 10zM272 560q-6 6 0 11l4.5 4.5t6.5 4.5q6 6 10 -2q4 -6 -1 -9q-2 -1 -10 -9q-6 -6 -10 0zM303 585q-3 6 4 10l14 5q7 3 9 -5q1 -5 -5 -9l-12 -5q-6 -2 -10 4zM342 597q-2 8 7 8h14q9 0 7 -8q0 -8 -8 -6h-12q-8 0 -8 6z" />
<glyph unicode="|" horiz-adv-x="354" d="M33 -164l5 13q3 6 10 4q6 -3 4 -10l-5 -13q-4 -6 -10 -4q-6 3 -4 10zM49 -127l5 13q2 9 9 4q9 -2 4 -9l-5 -13q-2 -9 -9 -4q-9 2 -4 9zM64 -89l5 12q4 7 10 4q8 -2 4 -9l-5 -13q-3 -6 -10 -4q-6 3 -4 10zM80 -52l5 13q2 6 10 4q6 -4 3 -10l-5 -13q-2 -6 -9 -4q-7 4 -4 10 zM95 -15l5 13q4 7 10 4q8 -2 4 -10l-5 -12q-4 -7 -10 -4q-6 2 -4 9zM111 23l5 12q4 7 10 4q6 -2 4 -9l-6 -13q-2 -6 -9 -4q-7 4 -4 10zM126 60l5 13q3 6 10 4q7 -4 4 -10l-5 -13q-4 -6 -10 -4q-6 3 -4 10zM142 97l5 13q4 7 10 4q6 -4 4 -10l-6 -12q-2 -9 -9 -4q-9 2 -4 9z M157 135l6 12q2 8 9 4q8 -2 4 -9l-5 -13q-3 -6 -10 -4q-6 3 -4 10zM173 172l5 13q4 6 10 4q6 -4 4 -10l-6 -13q-2 -6 -9 -4q-7 4 -4 10zM188 209l6 13q2 8 9 4t4 -10l-5 -12q-4 -7 -10 -4q-6 2 -4 9zM204 247l5 12q4 7 10 4q6 -2 4 -9l-6 -13q-2 -8 -9 -4t-4 10zM219 284 l6 13q2 6 9 4q7 -4 4 -10l-5 -13q-4 -6 -10 -4q-6 4 -4 10zM235 321l5 13q4 7 10 4q6 -4 4 -10l-6 -12q-2 -8 -9 -4q-9 2 -4 9zM250 359l6 12q2 9 9 4q9 -2 4 -9l-5 -13q-4 -7 -10 -4q-6 4 -4 10zM266 396l5 13q4 6 10 4q6 -3 4 -10l-6 -13q-2 -6 -9 -4q-7 4 -4 10zM281 433 l6 13q2 9 9 4q7 -4 4 -10l-5 -12q-4 -7 -10 -4q-6 2 -4 9zM297 471l5 12q4 7 10 4q6 -2 4 -9l-6 -13q-2 -8 -9 -4t-4 10zM312 508l6 13q2 6 9 4q7 -4 4 -10l-5 -13q-4 -6 -10 -4q-6 4 -4 10zM328 545l5 13q4 7 10 4t4 -10l-5 -12q-4 -7 -10 -4q-9 2 -4 9z" />
<glyph unicode="}" horiz-adv-x="421" d="M-67 -238q2 8 8 7h13q6 0 8 -7q0 -7 -7 -7q-7 -1 -15 0q-7 0 -7 7zM-27 -235q0 6 5 9l12 4q6 3 10 -3q3 -7 -4 -10l-13 -5q-8 -4 -10 5zM10 -219q-3 7 2 10q2 1 5 4.5t5 4.5q3 5 10 0q6 -6 0 -11q-1 -1 -5 -4.5t-6 -4.5q-7 -5 -11 1zM39 -181l8 10q4 6 10 2q7 -5 2 -10 l-8 -11q-5 -6 -11 -2q-4 4 -1 11zM61 -149l6 12q3 6 10 4q7 -4 3 -10l-6 -13q-6 -6 -11 -2q-6 4 -2 9zM78 -113l6 13q2 6 9 4q7 -4 4 -10l-5 -13q-3 -6 -10 -4q-6 3 -4 10zM93 -76l5 13q2 7 9 5q7 -3 5 -10l-5 -13q-2 -9 -9 -4q-7 2 -5 9zM107 -38l4 13q2 7 9 5t5 -9l-4 -13 q-3 -7 -10 -5q-8 2 -4 9zM119 1l4 13q2 7 9 5t5 -9l-4 -13q-2 -7 -9 -5q-8 2 -5 9zM130 40l5 13q2 7 9 5q7 -3 5 -10l-4 -13q-4 -6 -10 -5q-7 3 -5 10zM143 79l4 13q3 6 10 4q9 -2 4 -9l-4 -13q-2 -7 -9 -5t-5 10zM158 117l6 13q3 6 10 3q5 -3 3 -10l-6 -12q-3 -6 -10 -4 q-6 4 -3 10zM179 154l12 10q8 4 11 -3q4 -6 -3 -10l-9 -7q-3 -4 -10 -1q-6 4 -1 11zM202 213q0 11 1 15q2 8 9 6q6 -2 6 -9q-1 -2 -1.5 -6t-0.5 -5q0 -3 -5 -8q-3 -2 -6.5 0.5t-2.5 6.5zM211 255l5 13q4 6 10 4q6 -3 4 -10l-5 -12q-2 -7 -9 -5t-5 10zM212 167q-2 7 4 10 l13 4q-5 1 -10 6q-3 2 -3 5.5t2 4.5q6 5 9 2q1 -1 11 -6q5 -4 4 -9q0 -3 -4 -5v-1l1 -2q2 -7 -5 -9l-12 -4q-7 -2 -10 4zM227 292l5 13q4 7 10 3q7 -4 4 -10l-6 -12q-3 -6 -10 -4q-6 4 -3 10zM244 329l6 12q2 7 10 3q7 -2 3 -9l-6 -13q-4 -6 -10 -3q-7 2 -3 10zM258 597 q-2 8 6 8h15q9 0 7 -7t-8 -7l-12 -1q-8 0 -8 7zM261 365l6 12q3 6 10 4q7 -4 3 -10l-6 -13q-2 -7 -9 -3t-4 10zM278 401l6 12q2 9 9 4q7 -4 4 -10l-6 -12q-2 -9 -9 -4q-7 4 -4 10zM294 437l5 13q4 7 10 4q6 -2 4 -9l-5 -13q-4 -7 -10 -4q-9 2 -4 9zM297 595q2 9 10 5l14 -8 q5 -7 0 -12q-7 -3 -10 0l-10 6q-5 5 -4 9zM308 474l5 13q2 7 9 5t5 -9l-5 -14q-2 -6 -9 -4t-5 9zM320 512l2 13q2 8 8 6q8 0 6 -8l-2 -14q-2 -8 -9 -6t-5 9zM322 562q-2 6 5 9q7 2 9 -6l3 -15q-2 -7 -8 -7q-7 0 -7 7q0 2 -1 6t-1 6z" />
<glyph unicode="~" horiz-adv-x="76" d="M21 61q-6 4 0 10l8 11q5 5 11 1q5 -5 1 -11l-9 -10q-6 -6 -11 -1zM51 108l9 10q6 6 11 1t0 -10l-8 -11q-5 -5 -11 -1q-4 4 -1 11zM82 144l9 10q4 6 11 1q6 -4 0 -10l-9 -11q-4 -6 -10 0q-5 4 -1 10z" />
<glyph unicode="&#xa2;" horiz-adv-x="295" d="M30 252v14q2 9 8 7q7 -2 7 -8l-1 -13q0 -7 -7 -7q-3 -1 -5 1.5t-2 5.5zM32 224q-2 8 6 8q8 2 8 -6l3 -12q2 -7 -4 -9q-8 -4 -10 4q-3 7 -3 15zM35 294l3 14q2 7 9 5t5 -9l-3 -13q0 -6 -8 -6q-8 2 -6 9zM39 79l5 13q3 6 10 4q6 -4 4 -10l-6 -12q-2 -9 -9 -4q-8 2 -4 9z M47 334l5 13q4 7 10 4t4 -9l-5 -13q-4 -7 -10 -4q-6 2 -4 9zM48 183q-6 6 1 10t11 -2l7 -9q5 -4 1 -10t-11 -1zM54 116l5 13q4 7 10 4q7 -4 4 -10l-5 -12q-4 -7 -10 -4q-6 2 -4 9zM64 372l8 13q4 5 10 2q6 -4 2 -10l-7 -12q-2 -5 -9 -3q-6 3 -4 10zM70 153l5 13q2 9 9 4h4 l12 -3q6 0 6 -7q0 -6 -8 -8l-12 3l-3 -7q-2 -9 -9 -4q-9 2 -4 9zM85 191l5 12q4 7 10 4q6 -2 4 -9l-5 -13q-4 -7 -10 -4q-8 2 -4 10zM87 408l8 11q6 6 11 1q5 -4 1 -10l-8 -11q-5 -5 -11 -1q-7 4 -1 10zM100 228l6 12q2 9 9 4q9 -2 4 -9l-5 -13q-4 -7 -10 -4q-6 4 -4 10z M114 430q-5 5 0 10l10 10q5 5 10 0q6 -6 0 -11l-10 -9q-4 -6 -10 0zM116 265l5 12q4 7 10 4q6 -2 4 -9l-6 -13q-1 -6 -9 -4q-7 4 -4 10zM119 161q-1 6 5 8l13 4q7 2 9 -5q4 -7 -4 -9l-15 -4q-8 -4 -8 6zM131 302l6 13q2 6 9 4q7 -4 4 -10l-5 -13q-3 -6 -10 -4q-6 3 -4 10z M144 458q-6 6 1 10l12 9q6 4 10 -3q4 -6 -2 -10l-11 -8q-6 -4 -10 2zM147 339l5 13q4 6 10 4q6 -4 4 -10l-6 -13q-2 -6 -9 -4q-7 4 -4 10zM157 174q-2 7 3 10l12 6q4 4 10 -1q3 -6 -2 -11q-5 -4 -13 -7q-6 -4 -10 3zM162 376l5 13q3 6 10 4q7 -4 4 -10l-5 -13q-4 -6 -10 -4 q-6 3 -4 10zM178 413l5 13q2 6 9 4q7 -4 4 -10l-5 -12q-2 -9 -9 -4q-8 2 -4 9zM178 480q-3 6 4 10q2 2 7 3t6 2q8 2 10 -5q0 -7 -5 -9q-10 -3 -13 -4q-6 -4 -9 3zM189.5 201.5q0.5 3.5 3.5 4.5l9 10q5 3 10 0q6 -6 0 -11l-10 -10q-6 -4 -11 1q-2 2 -1.5 5.5zM193 450l5 13 q4 7 10 4t4 -10l-5 -12q-4 -7 -10 -4q-9 2 -4 9zM208 487l6 13q2 9 9 4q3 -1 4 -4q6 2 12 0q8 -2 6 -9t-8 -5h-13l-2 -4q-4 -7 -10 -4q-6 2 -4 9zM224 525l5 12q4 7 10 4q6 -2 4 -9l-6 -13q-2 -8 -9 -4q-8 2 -4 10zM239 562l6 12q2 8 9 4q9 -2 4 -9l-5 -13q-4 -7 -10 -4 q-6 4 -4 10zM257 487q3 7 10 2l12 -9q5 -5 -1 -11q-6 -4 -9 1l-10 7q-6 4 -2 10z" />
<glyph unicode="&#xa3;" horiz-adv-x="414" d="M-39 41q-4 6 1 10l10 8q5 5 10 1q6 0 7 -4q3 -6 -3 -10l-12 -6q-1 -1 -4 -1q-6 -4 -9 2zM-10 80l7 11q5 5 11 1t1 -10l-8 -11q-1 -3 -4.5 -3.5t-5.5 1.5q-5 5 -1 11zM1 60q-3 6 5 10l13 4q7 1 9 -6t-5 -9l-13 -3q-8 -2 -9 4zM12 114l7 11q3 6 10 3q6 -4 3 -10l-7 -12 q-6 -6 -10 -2q-6 3 -3 10zM28 290q0 7 7 7h14q7 0 7 -7t-7 -7h-14q-7 0 -7 7zM31 150l7 12q2 6 9 4q8 -4 4 -10l-6 -13q-4 -7 -10 -3q-6 3 -4 10zM41 70q-2 6 6 8q7 2 15 0q7 0 7 -8t-7 -6q-9 0 -14 -1q-7 0 -7 7zM49 187l5 13q3 6 10 4q6 -3 4 -10l-6 -13q-2 -7 -9 -3 q-9 2 -4 9zM65 225l5 13q2 7 9 5q7 -3 5 -10l-6 -13q-2 -8 -9 -4q-9 2 -4 9zM74 290q0 7 7 7h12q-2 4 -1 7l4 13q2 7 9 5t5 -9l-4 -14q-2 -3 -5 -5l1 -2v-2q0 -7 -7 -7h-14q-7 0 -7 7zM79 264l5 13q2 7 9 5t5 -9l-5 -14q-2 -6 -9 -4t-5 9zM81 70q2 7 9 5l14 -2q7 -2 5 -9 q-1 -6 -8 -6l-14 3q-6 2 -6 9zM103 343l4 14q2 7 9 5t5 -9l-4 -13q-2 -8 -9 -6t-5 9zM114 384l4 13q2 7 9 5t5 -9l-4 -13q-2 -7 -9 -5t-5 9zM120 290q0 7 7 7h14q7 0 7 -7t-7 -7h-14q-7 0 -7 7zM121 61q3 7 10 5l13 -4q7 -2 5 -9t-9 -5l-13 4q-8 2 -6 9zM128 424l5 13 q3 6 10 4q6 -4 4 -10l-5 -12q-3 -7 -10 -5q-7 4 -4 10zM145 463l7 12q3 7 9 3q7 -4 3 -10l-6 -12q-4 -7 -10 -3q-6 3 -3 10zM161 50q2 7 9 5l13 -4q7 -2 5 -9q-2 -8 -9 -5l-13 3q-7 3 -5 10zM166 290q0 7 7 7h14q7 0 7 -7t-7 -7h-14q-7 0 -7 7zM166 499l9 12q5 5 10 1 q5 -5 2 -11l-9 -10q-4 -6 -10 -2t-2 10zM194 522q-5 5 0 10l11 10q6 4 10 -1q4 -6 -1 -11l-10 -9q-5 -4 -10 1zM200 38q2 8 9 6l13 -3q7 -2 6 -9q0 -6 -8 -6l-14 3q-8 2 -6 9zM226 547q-3 6 4 10q8 6 13 7q7 2 9 -5t-4 -9l-12 -6q-5 -2 -10 3zM241 31q0 7 7 7h13q7 0 8 -6 q2 -7 -7 -9h-14q-9 0 -7 8zM265 563q-1 2 1 5t5 3l15 1q9 0 7 -7q0 -8 -7 -8h-13q-7 0 -8 6zM306 563q2 8 9 6l14 -3q3 0 4.5 -3t0.5 -6q-2 -5 -9 -5l-13 2q-6 2 -6 9zM346 551q3 6 10 3l12 -9q6 -5 1 -10t-10 -1q-1 1 -4.5 4t-5.5 4q-7 2 -3 9zM376 431q4 5 5 11q2 8 9 4 q7 -2 5 -9q-1 -5 -7 -13q-4 -7 -10 -3t-2 10zM376 515q-4 6 2 10q6 6 10 -2l8 -13q2 -8 -5 -10t-9 4zM387 467l1 13q0 7 6 7q3 1 6 -1t2 -5v-15q0 -9 -8 -7q-7 2 -7 8z" />
<glyph unicode="&#xa5;" horiz-adv-x="355" d="M10 75l5 12q4 7 10 4q7 -4 4 -10l-6 -12q-2 -9 -9 -4q-8 2 -4 10zM18 222q0 8 8 8h13q8 0 8 -8q0 -7 -8 -7h-13q-8 0 -8 7zM26 294q0 7 7 7h14q7 0 7 -7q0 -8 -7 -8h-14q-7 0 -7 8zM27 115l6 12q4 7 10 4q7 -2 3 -10l-5 -12q-4 -7 -10 -4t-4 10zM45 155l5 13q4 6 10 3 q9 -2 4 -9l-6 -13q-2 -6 -9 -4q-7 4 -4 10zM62 195l6 13q4 6 10 3q6 -2 3 -9l-5 -13q-3 -6 -10 -4q-6 3 -4 10zM64 222q0 8 8 8h8q-2 2 0 5l5 13q3 6 10 4q7 -4 4 -10l-6 -13q0 -2 -2 -2q2 -4 2 -5q0 -7 -7 -7h-14q-8 0 -8 7zM72 294q0 7 7 7h14q7 0 7 -7q0 -8 -7 -8h-14 q-7 0 -7 8zM92 580q0 7 7 7q6 1 8 -7v-13q2 -8 -6 -8t-8 7zM95 521v14q-2 6 6 8q8 0 8 -7l1 -14q0 -8 -7 -8q-6 0 -8 7zM97 275l6 13q3 6 10 4q6 -4 3 -10l-5 -13q-4 -6 -10 -3q-6 2 -4 9zM97 490q0 8 7 8q8 0 8 -7l1 -14q0 -6 -7 -8q-8 0 -8 7zM100 445q0 8 7 8q6 0 8 -7 v-14q2 -7 -6 -7q-8 -2 -8 6zM103 387v13q-2 8 7 8q7 0 7 -7l1 -13q0 -8 -7 -8q-6 -1 -8 7zM105 356q0 7 7 7q8 2 8 -7l1 -13q0 -8 -7 -8q-8 0 -8 7zM110 222q0 8 8 8h14q7 0 7 -8q0 -7 -7 -7h-14q-8 0 -8 7zM118 294q0 7 7 7h14q7 0 7 -7q0 -8 -7 -8h-14q-7 0 -7 8zM136 336 l9 10q4 7 10 1q7 -4 1 -10l-9 -11q-4 -5 -10 -1q-6 6 -1 11zM157 222q0 8 7 8h14q7 0 7 -8q0 -7 -7 -7h-14q-7 0 -7 7zM163 369l9 10q5 6 10 1q7 -4 1 -10l-8 -10q-5 -7 -11 -1q-5 4 -1 10zM164 294q0 7 7 7h14q8 0 8 -7q0 -8 -8 -8h-14q-7 0 -7 8zM190 402l9 11q4 4 11 1 q5 -5 1 -11l-9 -10q-4 -6 -11 -1q-5 4 -1 10zM218 435l8 11q5 5 11 1q5 -5 1 -11l-9 -10q-5 -6 -10 -1q-7 4 -1 10zM245 468l9 11q4 5 10 1q6 -6 1 -11l-9 -10q-4 -7 -10 -1q-7 4 -1 10zM272 501l9 11q4 5 10 1q5 -5 1 -11l-9 -10q-4 -7 -10 -1q-5 4 -1 10zM299 534l9 11 q5 5 10 1q6 -4 1 -11l-8 -10q-6 -6 -11 -1q-5 4 -1 10zM327 567l8 11q5 5 11 1q5 -5 1 -10l-9 -11q-6 -6 -10 -1q-7 4 -1 10z" />
</font>
</defs>
</svg>
